<?xml version="1.0" encoding="UTF-8" standalone="no"?><svg xmlns="http://www.w3.org/2000/svg" xmlns:xlink="http://www.w3.org/1999/xlink" clip-rule="evenodd" stroke-miterlimit="10" viewBox="0 0 179 85"><desc>SVG generated by Keynote</desc><defs><linearGradient id="gradSh1.163" x1="0.0" y1="0.0" x2="100.0" y2="0.0" gradientUnits="userSpaceOnUse" gradientTransform="matrix(0.00, -0.74, -1.72, 0.00, 89.0, 79.4)"><stop offset="0.00000" stop-color="#FBFBFB"></stop><stop offset="0.01466" stop-color="#FAFAFA"></stop><stop offset="1.00000" stop-color="#BEBEBE"></stop></linearGradient></defs><g transform="matrix(1.00, 0.00, -0.00, -1.00, 0.0, 85.0)"><image xlink:href="../../EE1CAFD2-308A-4C4E-8D9D-51AD1145A2A4/assets/1D4DCB78ACEFEE395E14CB100805C12A.png" width="176.00" height="78.00" transform="matrix(1.00, 0.00, -0.00, -1.00, 1.1, 79.4)" opacity="0.50"></image><g><clipPath id="clip0x7f8df4713a00"><path d="M 20.1 78.4 L 10.1 48.0 L 9.1 48.0 C 6.4 48.0 4.0 46.0 4.0 43.3 L 4.0 11.1 C 4.0 8.3 6.4 6.0 9.1 6.0 L 169.4 6.0 C 172.2 6.0 174.0 8.3 174.0 11.1 L 174.0 43.3 C 174.0 46.0 172.2 48.0 169.4 48.0 L 30.1 48.0 L 20.1 78.4 Z M 20.1 78.4 "></path></clipPath><g clip-path="url(#clip0x7f8df4713a00)"><path d="M 20.1 78.4 L 10.1 48.0 L 9.1 48.0 C 6.4 48.0 4.0 46.0 4.0 43.3 L 4.0 11.1 C 4.0 8.3 6.4 6.0 9.1 6.0 L 169.4 6.0 C 172.2 6.0 174.0 8.3 174.0 11.1 L 174.0 43.3 C 174.0 46.0 172.2 48.0 169.4 48.0 L 30.1 48.0 L 20.1 78.4 Z M 20.1 78.4 " fill="url(#gradSh1.163)"></path></g></g><g><clipPath id="clip0x7f8df4766d70"><path d="M 2.1 6.1 L 176.4 6.1 L 176.4 48.3 L 2.1 48.3 Z M 2.1 6.1 "></path></clipPath><g clip-path="url(#clip0x7f8df4766d70)"><text xml:space="preserve" font-family="Helvetica-Light,Helvetica" font-size="24.0" fill="#000000" transform="matrix(1.00, 0.00, -0.00, -1.00, 74.4, 18.7)"> </text><text xml:space="preserve" font-family="Helvetica-Light,Helvetica" font-size="24.0" fill="#000000" transform="matrix(1.00, 0.00, -0.00, -1.00, 81.0, 18.7)"> </text><text xml:space="preserve" font-family="Helvetica-Light,Helvetica" font-size="24.0" fill="#000000" transform="matrix(1.00, 0.00, -0.00, -1.00, 87.7, 18.7)">C</text><text xml:space="preserve" font-family="Helvetica-Light,Helvetica" font-size="24.0" fill="#000000" transform="matrix(1.00, 0.00, -0.00, -1.00, 105.0, 18.7)">o</text><text xml:space="preserve" font-family="Helvetica-Light,Helvetica" font-size="24.0" fill="#000000" transform="matrix(1.00, 0.00, -0.00, -1.00, 118.4, 18.7)">n</text><text xml:space="preserve" font-family="Helvetica-Light,Helvetica" font-size="24.0" fill="#000000" transform="matrix(1.00, 0.00, -0.00, -1.00, 131.7, 18.7)">t</text><text xml:space="preserve" font-family="Helvetica-Light,Helvetica" font-size="24.0" fill="#000000" transform="matrix(1.00, 0.00, -0.00, -1.00, 138.4, 18.7)">e</text><text xml:space="preserve" font-family="Helvetica-Light,Helvetica" font-size="24.0" fill="#000000" transform="matrix(1.00, 0.00, -0.00, -1.00, 151.7, 18.7)">x</text><text xml:space="preserve" font-family="Helvetica-Light,Helvetica" font-size="24.0" fill="#000000" transform="matrix(1.00, 0.00, -0.00, -1.00, 163.7, 18.7)">t</text><text xml:space="preserve" font-family="Helvetica-Light,Helvetica" font-size="24.0" fill="#000000" transform="matrix(1.00, 0.00, -0.00, -1.00, 170.4, 18.7)"> </text><text xml:space="preserve" font-family="Helvetica-Light,Helvetica" font-size="24.0" fill="#000000" transform="matrix(1.00, 0.00, -0.00, -1.00, 177.1, 18.7)"> </text><text xml:space="preserve" font-family="Helvetica-Light,Helvetica" font-size="24.0" fill="#000000" transform="matrix(1.00, 0.00, -0.00, -1.00, 183.8, 18.7)"> </text><text xml:space="preserve" font-family="Helvetica-Light,Helvetica" font-size="24.0" fill="#000000" transform="matrix(1.00, 0.00, -0.00, -1.00, 190.4, 18.7)"> </text><text xml:space="preserve" font-family="Helvetica-Light,Helvetica" font-size="24.0" fill="#000000" transform="matrix(1.00, 0.00, -0.00, -1.00, 197.1, 18.7)"> </text><text xml:space="preserve" font-family="Helvetica-Light,Helvetica" font-size="24.0" fill="#000000" transform="matrix(1.00, 0.00, -0.00, -1.00, 203.8, 18.7)"> </text></g></g></g></svg>