<?xml version="1.0" encoding="UTF-8" standalone="no"?><svg xmlns="http://www.w3.org/2000/svg" xmlns:xlink="http://www.w3.org/1999/xlink" clip-rule="evenodd" stroke-miterlimit="10" viewBox="0 0 236 212"><desc>SVG generated by Keynote</desc><defs></defs><g transform="matrix(1.00, 0.00, -0.00, -1.00, 0.0, 212.0)"><g><clipPath id="clip0x7f8df7474420"><path d="M 6.7 0.4 L 228.4 0.4 L 228.4 211.6 L 6.7 211.6 Z M 6.7 0.4 "></path></clipPath><g clip-path="url(#clip0x7f8df7474420)"><path d="M 176.4 28.7 C 216.8 67.1 216.8 129.2 176.4 167.5 C 136.1 205.9 70.6 205.9 30.3 167.5 C -10.1 129.2 -10.1 67.1 30.3 28.7 C 70.6 -9.6 136.1 -9.6 176.4 28.7 Z M 176.4 28.7 " fill="none" stroke="#000000" stroke-width="13.00" transform="matrix(1.00, 0.00, 0.00, -1.00, 14.2, 204.1)"></path></g></g><g><clipPath id="clip0x7f8df747b230"><path d="M 188.1 36.8 L 235.8 36.8 L 235.8 178.1 L 188.1 178.1 Z M 188.1 36.8 "></path></clipPath><g clip-path="url(#clip0x7f8df747b230)"><path d="M 0.0 0.0 C 17.7 17.5 27.8 41.3 28.0 66.3 C 28.1 76.2 26.6 86.0 23.7 95.4 L 20.9 100.1 " fill="none" stroke="#000000" stroke-width="11.00" transform="matrix(1.00, 0.00, 0.00, -1.00, 193.0, 173.2)"></path><path d="M 198.5 88.5 L 195.4 41.6 L 234.8 67.2 Z M 198.5 88.5 " fill="#000000"></path></g></g><g><clipPath id="clip0x7f8df747ddd0"><path d="M 0.3 47.9 L 46.2 47.9 L 46.2 176.8 L 0.3 176.8 Z M 0.3 47.9 "></path></clipPath><g clip-path="url(#clip0x7f8df747ddd0)"><path d="M 8.0 31.0 L 5.1 35.7 C 2.3 43.8 0.7 52.2 0.2 60.8 C -1.1 81.8 4.8 102.6 16.8 119.9 " fill="none" stroke="#000000" stroke-width="11.00" transform="matrix(1.00, 0.00, 0.00, -1.00, 14.0, 171.9)"></path><path d="M 37.0 125.1 L 41.3 171.9 L 1.3 147.3 Z M 37.0 125.1 " fill="#000000"></path></g></g></g></svg>