<?xml version="1.0" encoding="UTF-8" standalone="no"?><svg xmlns="http://www.w3.org/2000/svg" xmlns:xlink="http://www.w3.org/1999/xlink" clip-rule="evenodd" stroke-miterlimit="10" viewBox="0 0 103 84"><desc>SVG generated by Keynote</desc><defs></defs><g transform="matrix(1.00, 0.00, -0.00, -1.00, 0.0, 84.0)"><g><clipPath id="clip0x7f8df739c9a0"><path d="M 8.9 83.4 L 95.1 83.4 L 95.1 0.7 L 8.9 0.7 Z M 8.9 83.4 "></path></clipPath><g clip-path="url(#clip0x7f8df739c9a0)"><path d="M 60.8 9.9 C 74.7 23.1 74.7 44.5 60.8 57.8 C 46.9 71.0 24.3 71.0 10.4 57.8 C -3.5 44.5 -3.5 23.1 10.4 9.9 C 24.3 -3.3 46.9 -3.3 60.8 9.9 Z M 60.8 9.9 " fill="none" stroke="#000000" stroke-width="13.00" transform="matrix(1.00, 0.00, 0.00, -1.00, 16.4, 75.9)"></path></g></g><g><clipPath id="clip0x7f8df739a820"><path d="M 59.0 70.1 L 103.0 70.1 L 103.0 15.1 L 59.0 15.1 Z M 59.0 70.1 "></path></clipPath><g clip-path="url(#clip0x7f8df739a820)"><path d="M 0.0 0.0 C 1.1 1.1 2.6 2.2 3.5 3.4 L 2.5 9.2 " fill="none" stroke="#000000" stroke-width="11.00" transform="matrix(1.00, 0.00, 0.00, -1.00, 78.0, 65.2)"></path><path d="M 59.8 62.6 L 78.6 19.5 L 101.8 60.4 Z M 59.8 62.6 " fill="#000000"></path></g></g><g><clipPath id="clip0x7f8df739e2a0"><path d="M 0.1 69.6 L 44.0 69.6 L 44.0 19.3 L 0.1 19.3 Z M 0.1 69.6 "></path></clipPath><g clip-path="url(#clip0x7f8df739e2a0)"><path d="M 6.2 36.8 L 6.2 41.8 M 9.4 0.0 C 3.8 5.6 0.5 13.1 0.1 21.0 C -0.4 28.2 1.7 35.4 5.8 41.3 " fill="none" stroke="#000000" stroke-width="11.00" transform="matrix(1.00, 0.00, 0.00, -1.00, 16.3, 64.8)"></path><path d="M 42.9 20.7 L 25.7 64.4 L 1.1 24.3 Z M 42.9 20.7 " fill="#000000"></path></g></g></g></svg>