<?xml version="1.0" encoding="UTF-8" standalone="no"?><svg xmlns="http://www.w3.org/2000/svg" xmlns:xlink="http://www.w3.org/1999/xlink" clip-rule="evenodd" stroke-miterlimit="10" viewBox="0 0 104 83"><desc>SVG generated by Keynote</desc><defs></defs><g transform="matrix(1.00, 0.00, -0.00, -1.00, 0.0, 83.0)"><g><clipPath id="clip0x7f8df7467db0"><path d="M 9.4 0.2 L 95.6 0.2 L 95.6 82.9 L 9.4 82.9 Z M 9.4 0.2 "></path></clipPath><g clip-path="url(#clip0x7f8df7467db0)"><path d="M 60.8 9.9 C 74.7 23.1 74.7 44.5 60.8 57.8 C 46.9 71.0 24.3 71.0 10.4 57.8 C -3.5 44.5 -3.5 23.1 10.4 9.9 C 24.3 -3.3 46.9 -3.3 60.8 9.9 Z M 60.8 9.9 " fill="none" stroke="#000000" stroke-width="13.00" transform="matrix(1.00, 0.00, 0.00, -1.00, 16.9, 75.4)"></path></g></g><g><clipPath id="clip0x7f8df74691d0"><path d="M 59.5 14.6 L 103.5 14.6 L 103.5 69.7 L 59.5 69.7 Z M 59.5 14.6 "></path></clipPath><g clip-path="url(#clip0x7f8df74691d0)"><path d="M 0.0 0.0 C 1.1 1.1 2.1 2.2 3.0 3.4 L 3.0 8.7 " fill="none" stroke="#000000" stroke-width="11.00" transform="matrix(1.00, 0.00, 0.00, -1.00, 78.5, 64.7)"></path><path d="M 60.8 62.6 L 79.6 19.5 L 102.8 60.4 Z M 60.8 62.6 " fill="#000000"></path></g></g><g><clipPath id="clip0x7f8df7469cb0"><path d="M 0.6 18.8 L 44.5 18.8 L 44.5 69.2 L 0.6 69.2 Z M 0.6 18.8 "></path></clipPath><g clip-path="url(#clip0x7f8df7469cb0)"><path d="M 6.7 36.3 L 5.7 42.3 M 9.4 0.0 C 3.8 5.6 0.5 13.1 0.1 21.0 C -0.4 28.2 1.7 35.4 5.8 41.3 " fill="none" stroke="#000000" stroke-width="11.00" transform="matrix(1.00, 0.00, 0.00, -1.00, 16.8, 64.3)"></path><path d="M 43.9 20.7 L 26.7 64.4 L 2.1 24.3 Z M 43.9 20.7 " fill="#000000"></path></g></g></g></svg>