<?xml version="1.0" encoding="UTF-8" standalone="no"?><svg xmlns="http://www.w3.org/2000/svg" xmlns:xlink="http://www.w3.org/1999/xlink" clip-rule="evenodd" stroke-miterlimit="10" viewBox="0 0 237 212"><desc>SVG generated by Keynote</desc><defs></defs><g transform="matrix(1.00, 0.00, -0.00, -1.00, 0.0, 212.0)"><g><clipPath id="clip0x7f8df7458980"><path d="M 7.2 0.4 L 228.9 0.4 L 228.9 211.6 L 7.2 211.6 Z M 7.2 0.4 "></path></clipPath><g clip-path="url(#clip0x7f8df7458980)"><path d="M 176.4 28.7 C 216.8 67.1 216.8 129.2 176.4 167.5 C 136.1 205.9 70.6 205.9 30.3 167.5 C -10.1 129.2 -10.1 67.1 30.3 28.7 C 70.6 -9.6 136.1 -9.6 176.4 28.7 Z M 176.4 28.7 " fill="none" stroke="#000000" stroke-width="13.00" transform="matrix(1.00, 0.00, 0.00, -1.00, 14.7, 204.1)"></path></g></g><g><clipPath id="clip0x7f8df7459440"><path d="M 188.6 36.8 L 236.2 36.8 L 236.2 178.1 L 188.6 178.1 Z M 188.6 36.8 "></path></clipPath><g clip-path="url(#clip0x7f8df7459440)"><path d="M 0.0 0.0 C 17.7 17.5 27.8 41.3 28.0 66.3 C 28.1 76.2 26.6 86.0 23.7 95.4 L 20.9 100.1 " fill="none" stroke="#000000" stroke-width="11.00" transform="matrix(1.00, 0.00, 0.00, -1.00, 193.4, 173.2)"></path><path d="M 199.0 88.5 L 195.9 41.6 L 235.2 67.2 Z M 199.0 88.5 " fill="#000000"></path></g></g><g><clipPath id="clip0x7f8df745abd0"><path d="M 0.8 47.9 L 46.7 47.9 L 46.7 176.8 L 0.8 176.8 Z M 0.8 47.9 "></path></clipPath><g clip-path="url(#clip0x7f8df745abd0)"><path d="M 8.0 31.0 L 5.1 35.7 C 2.3 43.8 0.7 52.2 0.2 60.8 C -1.1 81.8 4.8 102.6 16.8 119.9 " fill="none" stroke="#000000" stroke-width="11.00" transform="matrix(1.00, 0.00, 0.00, -1.00, 14.5, 171.9)"></path><path d="M 37.5 125.1 L 41.7 171.9 L 1.8 147.3 Z M 37.5 125.1 " fill="#000000"></path></g></g></g></svg>