<?xml version="1.0" encoding="UTF-8" standalone="no"?><svg xmlns="http://www.w3.org/2000/svg" xmlns:xlink="http://www.w3.org/1999/xlink" clip-rule="evenodd" stroke-miterlimit="10" viewBox="0 0 878 646"><desc>SVG generated by Keynote</desc><defs></defs><g transform="matrix(1.00, 0.00, -0.00, -1.00, 0.0, 646.0)"><image xlink:href="B360032A7014AC7EEF88A5A71F1DDB08.png" width="875.00" height="270.00" transform="matrix(0.88, 0.48, 0.48, -0.87, -9.3, 227.0)" opacity="0.77"></image><path d="M 32.8 216.9 L 744.4 611.0 L 845.2 429.1 L 133.6 35.0 Z M 32.8 216.9 " fill="#FEFFFF"></path><g><clipPath id="clip0x7f8e04fc9db0"><path d="M 10.1 223.5 L 750.9 633.8 L 867.9 422.5 L 127.1 12.2 Z M 10.1 223.5 "></path></clipPath><g clip-path="url(#clip0x7f8e04fc9db0)"><text xml:space="preserve" font-family="Helvetica-Bold,Helvetica" font-weight="bold" font-size="83.0" fill="#C82505" transform="matrix(0.87, 0.48, 0.48, -0.87, 98.9, 156.5)">N</text><text xml:space="preserve" font-family="Helvetica-Bold,Helvetica" font-weight="bold" font-size="83.0" fill="#C82505" transform="matrix(0.87, 0.48, 0.48, -0.87, 151.4, 185.5)">O</text><text xml:space="preserve" font-family="Helvetica-Bold,Helvetica" font-weight="bold" font-size="83.0" fill="#C82505" transform="matrix(0.87, 0.48, 0.48, -0.87, 207.8, 216.8)">T</text><text xml:space="preserve" font-family="Helvetica-Bold,Helvetica" font-weight="bold" font-size="83.0" fill="#C82505" transform="matrix(0.87, 0.48, 0.48, -0.87, 252.2, 241.3)"> </text><text xml:space="preserve" font-family="Helvetica-Bold,Helvetica" font-weight="bold" font-size="83.0" fill="#C82505" transform="matrix(0.87, 0.48, 0.48, -0.87, 272.3, 252.5)">C</text><text xml:space="preserve" font-family="Helvetica-Bold,Helvetica" font-weight="bold" font-size="83.0" fill="#C82505" transform="matrix(0.87, 0.48, 0.48, -0.87, 324.8, 281.6)">O</text><text xml:space="preserve" font-family="Helvetica-Bold,Helvetica" font-weight="bold" font-size="83.0" fill="#C82505" transform="matrix(0.87, 0.48, 0.48, -0.87, 381.2, 312.8)">M</text><text xml:space="preserve" font-family="Helvetica-Bold,Helvetica" font-weight="bold" font-size="83.0" fill="#C82505" transform="matrix(0.87, 0.48, 0.48, -0.87, 441.7, 346.3)">P</text><text xml:space="preserve" font-family="Helvetica-Bold,Helvetica" font-weight="bold" font-size="83.0" fill="#C82505" transform="matrix(0.87, 0.48, 0.48, -0.87, 490.2, 373.2)">L</text><text xml:space="preserve" font-family="Helvetica-Bold,Helvetica" font-weight="bold" font-size="83.0" fill="#C82505" transform="matrix(0.87, 0.48, 0.48, -0.87, 534.5, 397.7)">E</text><text xml:space="preserve" font-family="Helvetica-Bold,Helvetica" font-weight="bold" font-size="83.0" fill="#C82505" transform="matrix(0.87, 0.48, 0.48, -0.87, 582.9, 424.5)">T</text><text xml:space="preserve" font-family="Helvetica-Bold,Helvetica" font-weight="bold" font-size="83.0" fill="#C82505" transform="matrix(0.87, 0.48, 0.48, -0.87, 627.3, 449.1)">E</text><text xml:space="preserve" font-family="Helvetica-Bold,Helvetica" font-weight="bold" font-size="83.0" fill="#C82505" transform="matrix(0.87, 0.48, 0.48, -0.87, 675.7, 475.9)">L</text><text xml:space="preserve" font-family="Helvetica-Bold,Helvetica" font-weight="bold" font-size="83.0" fill="#C82505" transform="matrix(0.87, 0.48, 0.48, -0.87, 713.4, 496.8)">Y</text><text xml:space="preserve" font-family="Helvetica-Bold,Helvetica" font-weight="bold" font-size="83.0" fill="#C82505" transform="matrix(0.87, 0.48, 0.48, -0.87, 760.5, 522.9)"> </text><text xml:space="preserve" font-family="Helvetica-Bold,Helvetica" font-weight="bold" font-size="83.0" fill="#C82505" transform="matrix(0.87, 0.48, 0.48, -0.87, 335.0, 172.9)">W</text><text xml:space="preserve" font-family="Helvetica-Bold,Helvetica" font-weight="bold" font-size="83.0" fill="#C82505" transform="matrix(0.87, 0.48, 0.48, -0.87, 403.5, 210.9)">R</text><text xml:space="preserve" font-family="Helvetica-Bold,Helvetica" font-weight="bold" font-size="83.0" fill="#C82505" transform="matrix(0.87, 0.48, 0.48, -0.87, 456.0, 239.9)">O</text><text xml:space="preserve" font-family="Helvetica-Bold,Helvetica" font-weight="bold" font-size="83.0" fill="#C82505" transform="matrix(0.87, 0.48, 0.48, -0.87, 512.4, 271.2)">N</text><text xml:space="preserve" font-family="Helvetica-Bold,Helvetica" font-weight="bold" font-size="83.0" fill="#C82505" transform="matrix(0.87, 0.48, 0.48, -0.87, 564.8, 300.2)">G</text></g></g></g></svg>