<?xml version="1.0" encoding="UTF-8" standalone="no"?><svg xmlns="http://www.w3.org/2000/svg" xmlns:xlink="http://www.w3.org/1999/xlink" clip-rule="evenodd" stroke-miterlimit="10" viewBox="0 0 1024 768"><desc>SVG generated by Keynote</desc><defs><linearGradient id="gradSh1.71" x1="0.0" y1="0.0" x2="100.0" y2="0.0" gradientUnits="userSpaceOnUse" gradientTransform="matrix(11.03, -6.36, -5.89, -10.22, -39.6, 702.1)"><stop offset="0.00000" stop-color="#FFFFFF"></stop><stop offset="0.00587" stop-color="#FEFFFE"></stop><stop offset="1.00000" stop-color="#A6AAA9"></stop></linearGradient></defs><g transform="matrix(1.00, 0.00, -0.00, -1.00, 0.0, 768.0)"><g><clipPath id="clip0x7f8e05215780"><path d="M 0.0 768.0 L 1024.0 768.0 L 1024.0 0.0 L 0.0 0.0 Z M 0.0 768.0 "></path></clipPath><g clip-path="url(#clip0x7f8e05215780)"><path d="M 0.0 768.0 L 1024.0 768.0 L 1024.0 0.0 L 0.0 0.0 Z M 0.0 768.0 " fill="url(#gradSh1.71)"></path></g></g><g><clipPath id="clip0x7f8e05265190"><path d="M 960.0 65.0 L 1016.0 65.0 L 1016.0 9.0 L 960.0 9.0 Z M 960.0 65.0 "></path></clipPath><g clip-path="url(#clip0x7f8e05265190)"><g><clipPath id="clip0x7f8e05265930"><path d="M 960.0 9.0 L 1016.0 9.0 L 1016.0 65.0 L 960.0 65.0 Z M 960.0 9.0 "></path></clipPath><g clip-path="url(#clip0x7f8e05265930)"><path d="M 1016.0 37.0 C 1016.0 52.5 1003.5 65.0 988.0 65.0 C 972.5 65.0 960.0 52.5 960.0 37.0 C 960.0 21.5 972.5 9.0 988.0 9.0 C 1003.5 9.0 1016.0 21.5 1016.0 37.0 " fill="#526466"></path><path d="M 979.5 30.7 C 979.1 30.7 978.7 30.9 978.5 31.2 L 972.6 39.5 L 972.6 31.9 C 972.6 31.2 972.1 30.7 971.4 30.7 C 970.8 30.7 970.3 31.2 970.3 31.9 L 970.3 43.2 C 970.3 43.7 970.6 44.1 971.1 44.3 C 971.6 44.4 972.1 44.3 972.4 43.8 L 978.3 35.5 L 978.3 43.2 C 978.3 43.8 978.8 44.3 979.5 44.3 C 980.1 44.3 980.6 43.8 980.6 43.2 L 980.6 31.9 C 980.6 31.4 980.3 30.9 979.8 30.8 C 979.7 30.7 979.6 30.7 979.5 30.7 " fill="#FFFFFF"></path><path d="M 1003.9 41.2 C 1002.8 42.0 1001.5 42.4 1000.1 42.3 C 999.1 42.2 997.7 41.7 997.7 40.7 C 997.7 39.8 998.5 39.5 999.3 39.2 C 1000.4 38.8 1001.6 38.7 1002.7 38.3 C 1004.6 37.7 1006.3 36.2 1006.1 34.1 C 1005.8 31.7 1003.3 30.7 1001.2 30.5 C 999.2 30.4 996.9 31.2 995.5 32.6 C 994.8 33.2 995.1 34.3 996.0 34.4 C 996.5 34.4 996.7 34.2 997.1 33.9 C 997.6 33.6 998.1 33.4 998.6 33.1 C 999.7 32.7 1000.9 32.6 1002.1 32.9 C 1002.9 33.2 1004.1 33.9 1003.7 34.9 C 1003.3 35.8 1001.8 36.2 1000.9 36.4 C 999.7 36.6 998.4 36.8 997.4 37.5 C 995.7 38.4 994.9 40.3 995.7 42.1 C 996.7 44.3 999.7 44.8 1001.9 44.4 C 1003.0 44.2 1004.2 43.7 1005.1 42.9 C 1006.0 42.1 1005.0 40.5 1003.9 41.2 " fill="#FFFFFF"></path><path d="M 988.0 23.5 C 987.6 23.5 987.3 23.8 987.3 24.2 L 987.3 49.8 C 987.3 50.2 987.6 50.5 988.0 50.5 C 988.4 50.5 988.7 50.2 988.7 49.8 L 988.7 24.2 C 988.7 23.8 988.4 23.5 988.0 23.5 " fill="#FFFFFF"></path></g></g></g></g><text xml:space="preserve" font-family="Helvetica-Light,Helvetica" font-size="70.1" fill="#000000" transform="matrix(1.00, 0.00, -0.00, -1.00, 61.6, 356.1)">J</text><text xml:space="preserve" font-family="Helvetica-Light,Helvetica" font-size="70.1" fill="#000000" transform="matrix(1.00, 0.00, -0.00, -1.00, 96.6, 356.1)">a</text><text xml:space="preserve" font-family="Helvetica-Light,Helvetica" font-size="70.1" fill="#000000" transform="matrix(1.00, 0.00, -0.00, -1.00, 135.6, 356.1)">v</text><text xml:space="preserve" font-family="Helvetica-Light,Helvetica" font-size="70.1" fill="#000000" transform="matrix(1.00, 0.00, -0.00, -1.00, 170.6, 356.1)">a</text><text xml:space="preserve" font-family="Helvetica-Light,Helvetica" font-size="70.1" fill="#000000" transform="matrix(1.00, 0.00, -0.00, -1.00, 209.6, 356.1)">’</text><text xml:space="preserve" font-family="Helvetica-Light,Helvetica" font-size="70.1" fill="#000000" transform="matrix(1.00, 0.00, -0.00, -1.00, 219.9, 356.1)">s</text><text xml:space="preserve" font-family="Helvetica-Light,Helvetica" font-size="70.1" fill="#000000" transform="matrix(1.00, 0.00, -0.00, -1.00, 255.0, 356.1)"> </text><text xml:space="preserve" font-family="Helvetica-Light,Helvetica" font-size="70.1" fill="#000000" transform="matrix(1.00, 0.00, -0.00, -1.00, 274.5, 356.1)">N</text><text xml:space="preserve" font-family="Helvetica-Light,Helvetica" font-size="70.1" fill="#000000" transform="matrix(1.00, 0.00, -0.00, -1.00, 325.1, 356.1)">I</text><text xml:space="preserve" font-family="Helvetica-Light,Helvetica" font-size="70.1" fill="#000000" transform="matrix(1.00, 0.00, -0.00, -1.00, 344.5, 356.1)">O</text><text xml:space="preserve" font-family="Helvetica-Light,Helvetica" font-size="70.1" fill="#000000" transform="matrix(1.00, 0.00, -0.00, -1.00, 399.1, 356.1)"> </text><text xml:space="preserve" font-family="Helvetica-Light,Helvetica" font-size="70.1" fill="#000000" transform="matrix(1.00, 0.00, -0.00, -1.00, 418.5, 356.1)">i</text><text xml:space="preserve" font-family="Helvetica-Light,Helvetica" font-size="70.1" fill="#000000" transform="matrix(1.00, 0.00, -0.00, -1.00, 434.1, 356.1)">s</text><text xml:space="preserve" font-family="Helvetica-Light,Helvetica" font-size="70.1" fill="#000000" transform="matrix(1.00, 0.00, -0.00, -1.00, 469.1, 356.1)"> </text><text xml:space="preserve" font-family="Helvetica-Light,Helvetica" font-size="70.1" fill="#000000" transform="matrix(1.00, 0.00, -0.00, -1.00, 488.6, 356.1)">m</text><text xml:space="preserve" font-family="Helvetica-Light,Helvetica" font-size="70.1" fill="#000000" transform="matrix(1.00, 0.00, -0.00, -1.00, 547.0, 356.1)">o</text><text xml:space="preserve" font-family="Helvetica-Light,Helvetica" font-size="70.1" fill="#000000" transform="matrix(1.00, 0.00, -0.00, -1.00, 586.0, 356.1)">r</text><text xml:space="preserve" font-family="Helvetica-Light,Helvetica" font-size="70.1" fill="#000000" transform="matrix(1.00, 0.00, -0.00, -1.00, 608.0, 356.1)">e</text><text xml:space="preserve" font-family="Helvetica-Light,Helvetica" font-size="70.1" fill="#000000" transform="matrix(1.00, 0.00, -0.00, -1.00, 647.0, 356.1)"> </text><text xml:space="preserve" font-family="Helvetica-Light,Helvetica" font-size="70.1" fill="#000000" transform="matrix(1.00, 0.00, -0.00, -1.00, 666.5, 356.1)">l</text><text xml:space="preserve" font-family="Helvetica-Light,Helvetica" font-size="70.1" fill="#000000" transform="matrix(1.00, 0.00, -0.00, -1.00, 682.0, 356.1)">i</text><text xml:space="preserve" font-family="Helvetica-Light,Helvetica" font-size="70.1" fill="#000000" transform="matrix(1.00, 0.00, -0.00, -1.00, 697.6, 356.1)">k</text><text xml:space="preserve" font-family="Helvetica-Light,Helvetica" font-size="70.1" fill="#000000" transform="matrix(1.00, 0.00, -0.00, -1.00, 732.6, 356.1)">e</text><text xml:space="preserve" font-family="Helvetica-Light,Helvetica" font-size="70.1" fill="#000000" transform="matrix(1.00, 0.00, -0.00, -1.00, 771.6, 356.1)"> </text><text xml:space="preserve" font-family="Helvetica-Light,Helvetica" font-size="70.1" fill="#000000" transform="matrix(1.00, 0.00, -0.00, -1.00, 791.1, 356.1)">L</text><text xml:space="preserve" font-family="Helvetica-Light,Helvetica" font-size="70.1" fill="#000000" transform="matrix(1.00, 0.00, -0.00, -1.00, 830.1, 356.1)">i</text><text xml:space="preserve" font-family="Helvetica-Light,Helvetica" font-size="70.1" fill="#000000" transform="matrix(1.00, 0.00, -0.00, -1.00, 845.6, 356.1)">b</text><text xml:space="preserve" font-family="Helvetica-Light,Helvetica" font-size="70.1" fill="#000000" transform="matrix(1.00, 0.00, -0.00, -1.00, 888.4, 356.1)">u</text><text xml:space="preserve" font-family="Helvetica-Light,Helvetica" font-size="70.1" fill="#000000" transform="matrix(1.00, 0.00, -0.00, -1.00, 927.4, 356.1)">v</text><image xlink:href="../../1E188C81-BC77-43DB-A187-0D1FAE7EE46E/assets/B360032A7014AC7EEF88A5A71F1DDB08.png" width="875.00" height="270.00" transform="matrix(0.88, 0.48, 0.48, -0.87, 63.7, 288.0)" opacity="0.77"></image><path d="M 105.8 277.9 L 817.4 672.0 L 918.2 490.1 L 206.6 96.0 Z M 105.8 277.9 " fill="#FEFFFF"></path><g><clipPath id="clip0x7f8e04fd53d0"><path d="M 83.1 284.5 L 823.9 694.8 L 940.9 483.5 L 200.1 73.2 Z M 83.1 284.5 "></path></clipPath><g clip-path="url(#clip0x7f8e04fd53d0)"><text xml:space="preserve" font-family="Helvetica-Bold,Helvetica" font-weight="bold" font-size="83.0" fill="#C82505" transform="matrix(0.87, 0.48, 0.48, -0.87, 171.9, 217.5)">N</text><text xml:space="preserve" font-family="Helvetica-Bold,Helvetica" font-weight="bold" font-size="83.0" fill="#C82505" transform="matrix(0.87, 0.48, 0.48, -0.87, 224.4, 246.5)">O</text><text xml:space="preserve" font-family="Helvetica-Bold,Helvetica" font-weight="bold" font-size="83.0" fill="#C82505" transform="matrix(0.87, 0.48, 0.48, -0.87, 280.8, 277.8)">T</text><text xml:space="preserve" font-family="Helvetica-Bold,Helvetica" font-weight="bold" font-size="83.0" fill="#C82505" transform="matrix(0.87, 0.48, 0.48, -0.87, 325.2, 302.3)"> </text><text xml:space="preserve" font-family="Helvetica-Bold,Helvetica" font-weight="bold" font-size="83.0" fill="#C82505" transform="matrix(0.87, 0.48, 0.48, -0.87, 345.3, 313.5)">C</text><text xml:space="preserve" font-family="Helvetica-Bold,Helvetica" font-weight="bold" font-size="83.0" fill="#C82505" transform="matrix(0.87, 0.48, 0.48, -0.87, 397.8, 342.6)">O</text><text xml:space="preserve" font-family="Helvetica-Bold,Helvetica" font-weight="bold" font-size="83.0" fill="#C82505" transform="matrix(0.87, 0.48, 0.48, -0.87, 454.2, 373.8)">M</text><text xml:space="preserve" font-family="Helvetica-Bold,Helvetica" font-weight="bold" font-size="83.0" fill="#C82505" transform="matrix(0.87, 0.48, 0.48, -0.87, 514.7, 407.3)">P</text><text xml:space="preserve" font-family="Helvetica-Bold,Helvetica" font-weight="bold" font-size="83.0" fill="#C82505" transform="matrix(0.87, 0.48, 0.48, -0.87, 563.2, 434.2)">L</text><text xml:space="preserve" font-family="Helvetica-Bold,Helvetica" font-weight="bold" font-size="83.0" fill="#C82505" transform="matrix(0.87, 0.48, 0.48, -0.87, 607.5, 458.7)">E</text><text xml:space="preserve" font-family="Helvetica-Bold,Helvetica" font-weight="bold" font-size="83.0" fill="#C82505" transform="matrix(0.87, 0.48, 0.48, -0.87, 655.9, 485.5)">T</text><text xml:space="preserve" font-family="Helvetica-Bold,Helvetica" font-weight="bold" font-size="83.0" fill="#C82505" transform="matrix(0.87, 0.48, 0.48, -0.87, 700.3, 510.1)">E</text><text xml:space="preserve" font-family="Helvetica-Bold,Helvetica" font-weight="bold" font-size="83.0" fill="#C82505" transform="matrix(0.87, 0.48, 0.48, -0.87, 748.7, 536.9)">L</text><text xml:space="preserve" font-family="Helvetica-Bold,Helvetica" font-weight="bold" font-size="83.0" fill="#C82505" transform="matrix(0.87, 0.48, 0.48, -0.87, 786.4, 557.8)">Y</text><text xml:space="preserve" font-family="Helvetica-Bold,Helvetica" font-weight="bold" font-size="83.0" fill="#C82505" transform="matrix(0.87, 0.48, 0.48, -0.87, 833.5, 583.9)"> </text><text xml:space="preserve" font-family="Helvetica-Bold,Helvetica" font-weight="bold" font-size="83.0" fill="#C82505" transform="matrix(0.87, 0.48, 0.48, -0.87, 408.0, 233.9)">W</text><text xml:space="preserve" font-family="Helvetica-Bold,Helvetica" font-weight="bold" font-size="83.0" fill="#C82505" transform="matrix(0.87, 0.48, 0.48, -0.87, 476.5, 271.9)">R</text><text xml:space="preserve" font-family="Helvetica-Bold,Helvetica" font-weight="bold" font-size="83.0" fill="#C82505" transform="matrix(0.87, 0.48, 0.48, -0.87, 529.0, 300.9)">O</text><text xml:space="preserve" font-family="Helvetica-Bold,Helvetica" font-weight="bold" font-size="83.0" fill="#C82505" transform="matrix(0.87, 0.48, 0.48, -0.87, 585.4, 332.2)">N</text><text xml:space="preserve" font-family="Helvetica-Bold,Helvetica" font-weight="bold" font-size="83.0" fill="#C82505" transform="matrix(0.87, 0.48, 0.48, -0.87, 637.8, 361.2)">G</text></g></g></g></svg>