<?xml version="1.0" encoding="UTF-8" standalone="no"?><svg xmlns="http://www.w3.org/2000/svg" xmlns:xlink="http://www.w3.org/1999/xlink" clip-rule="evenodd" stroke-miterlimit="10" viewBox="0 0 902 146"><desc>SVG generated by Keynote</desc><defs></defs><g transform="matrix(1.00, 0.00, -0.00, -1.00, 0.0, 146.0)"><g><clipPath id="clip0x7f8df53142b0"><path d="M 170.4 108.2 L 245.2 108.2 L 245.2 96.6 L 170.4 96.6 Z M 170.4 108.2 "></path></clipPath><g clip-path="url(#clip0x7f8df53142b0)"><path d="M -0.4 0.4 L 63.2 0.4 L 64.6 0.4 " fill="none" stroke="#000000" stroke-width="2.00" transform="matrix(1.00, 0.00, 0.00, -1.00, 171.4, 102.4)"></path><path d="M 235.0 97.2 L 244.6 102.0 L 235.0 106.8 Z M 235.0 97.2 " fill="#000000"></path></g></g><g><clipPath id="clip0x7f8df531ccf0"><path d="M 243.4 55.3 L 415.3 55.3 L 415.3 145.4 L 243.4 145.4 Z M 243.4 55.3 "></path></clipPath><g clip-path="url(#clip0x7f8df531ccf0)"><image xlink:href="7E702E86519BDBF90CEF3A76F85263B9.png" width="170.00" height="88.00" transform="matrix(1.00, 0.00, -0.00, -1.00, 244.4, 144.4)" opacity="0.50"></image></g></g><g><clipPath id="clip0x7f8df5492490"><path d="M 247.0 143.0 L 411.0 143.0 L 411.0 61.0 L 247.0 61.0 Z M 247.4 143.4 "></path></clipPath><g clip-path="url(#clip0x7f8df5492490)"><g><clipPath id="clip0x7f8df5491010"><path d="M 243.4 55.3 L 415.3 55.3 L 415.3 145.4 L 243.4 145.4 Z M 243.4 55.3 "></path></clipPath><g clip-path="url(#clip0x7f8df5491010)"><image xlink:href="../../58FC0062-152D-4CC5-84DA-0DFAC1FE8D74/assets/C3C0FC898C94653CAF8AD846D6CCD108.png" width="600.00" height="600.00" transform="matrix(0.50, 0.00, -0.00, -0.50, 247.0, 143.0)"></image></g></g></g></g><g><clipPath id="clip0x7f8df54978a0"><path d="M 245.4 61.3 L 413.3 61.3 L 413.3 143.4 L 245.4 143.4 Z M 245.4 61.3 "></path></clipPath><g clip-path="url(#clip0x7f8df54978a0)"><text xml:space="preserve" font-family="Helvetica-Light,Helvetica" font-size="24.0" fill="#FEFFFE" transform="matrix(1.00, 0.00, -0.00, -1.00, 309.4, 92.9)">H</text><text xml:space="preserve" font-family="Helvetica-Light,Helvetica" font-size="24.0" fill="#FEFFFE" transform="matrix(1.00, 0.00, -0.00, -1.00, 326.7, 92.9)">I</text><text xml:space="preserve" font-family="Helvetica-Light,Helvetica" font-size="24.0" fill="#FEFFFE" transform="matrix(1.00, 0.00, -0.00, -1.00, 333.4, 92.9)">R</text></g></g><g><clipPath id="clip0x7f8df54997f0"><path d="M 413.5 108.2 L 488.3 108.2 L 488.3 96.6 L 413.5 96.6 Z M 413.5 108.2 "></path></clipPath><g clip-path="url(#clip0x7f8df54997f0)"><path d="M -0.5 0.4 L 63.2 0.4 L 64.5 0.4 " fill="none" stroke="#000000" stroke-width="2.00" transform="matrix(1.00, 0.00, 0.00, -1.00, 414.5, 102.4)"></path><path d="M 478.0 97.2 L 487.6 102.0 L 478.0 106.8 Z M 478.0 97.2 " fill="#000000"></path></g></g><g><clipPath id="clip0x7f8df549adc0"><path d="M 0.4 55.3 L 172.3 55.3 L 172.3 145.4 L 0.4 145.4 Z M 0.4 55.3 "></path></clipPath><g clip-path="url(#clip0x7f8df549adc0)"><image xlink:href="F91AAB68A878363996CD9F3F42376B82.png" width="170.00" height="88.00" transform="matrix(1.00, 0.00, -0.00, -1.00, 1.4, 144.4)" opacity="0.50"></image></g></g><g><clipPath id="clip0x7f8df51455d0"><path d="M 4.0 143.0 L 168.0 143.0 L 168.0 61.0 L 4.0 61.0 Z M 4.4 143.4 "></path></clipPath><g clip-path="url(#clip0x7f8df51455d0)"><g><clipPath id="clip0x7f8df549ca30"><path d="M 0.4 55.3 L 172.3 55.3 L 172.3 145.4 L 0.4 145.4 Z M 0.4 55.3 "></path></clipPath><g clip-path="url(#clip0x7f8df549ca30)"><image xlink:href="../../58FC0062-152D-4CC5-84DA-0DFAC1FE8D74/assets/C3C0FC898C94653CAF8AD846D6CCD108.png" width="600.00" height="600.00" transform="matrix(0.50, 0.00, -0.00, -0.50, 4.0, 143.0)"></image></g></g></g></g><g><clipPath id="clip0x7f8df524d550"><path d="M 2.4 61.3 L 170.3 61.3 L 170.3 143.4 L 2.4 143.4 Z M 2.4 61.3 "></path></clipPath><g clip-path="url(#clip0x7f8df524d550)"><text xml:space="preserve" font-family="Helvetica-Light,Helvetica" font-size="24.0" fill="#FEFFFE" transform="matrix(1.00, 0.00, -0.00, -1.00, 35.6, 92.9)">b</text><text xml:space="preserve" font-family="Helvetica-Light,Helvetica" font-size="24.0" fill="#FEFFFE" transform="matrix(1.00, 0.00, -0.00, -1.00, 50.3, 92.9)">y</text><text xml:space="preserve" font-family="Helvetica-Light,Helvetica" font-size="24.0" fill="#FEFFFE" transform="matrix(1.00, 0.00, -0.00, -1.00, 62.3, 92.9)">t</text><text xml:space="preserve" font-family="Helvetica-Light,Helvetica" font-size="24.0" fill="#FEFFFE" transform="matrix(1.00, 0.00, -0.00, -1.00, 69.0, 92.9)">e</text><text xml:space="preserve" font-family="Helvetica-Light,Helvetica" font-size="24.0" fill="#FEFFFE" transform="matrix(1.00, 0.00, -0.00, -1.00, 82.3, 92.9)">c</text><text xml:space="preserve" font-family="Helvetica-Light,Helvetica" font-size="24.0" fill="#FEFFFE" transform="matrix(1.00, 0.00, -0.00, -1.00, 95.6, 92.9)">o</text><text xml:space="preserve" font-family="Helvetica-Light,Helvetica" font-size="24.0" fill="#FEFFFE" transform="matrix(1.00, 0.00, -0.00, -1.00, 109.0, 92.9)">d</text><text xml:space="preserve" font-family="Helvetica-Light,Helvetica" font-size="24.0" fill="#FEFFFE" transform="matrix(1.00, 0.00, -0.00, -1.00, 123.6, 92.9)">e</text></g></g><g><clipPath id="clip0x7f8df5253ef0"><path d="M 486.5 55.3 L 658.4 55.3 L 658.4 145.4 L 486.5 145.4 Z M 486.5 55.3 "></path></clipPath><g clip-path="url(#clip0x7f8df5253ef0)"><image xlink:href="60C6E754E04E4E7FF9F688E5F885166D.png" width="170.00" height="88.00" transform="matrix(1.00, 0.00, -0.00, -1.00, 487.5, 144.4)" opacity="0.50"></image></g></g><g><clipPath id="clip0x7f8df514c0e0"><path d="M 490.0 143.0 L 654.0 143.0 L 654.0 61.0 L 490.0 61.0 Z M 490.5 143.4 "></path></clipPath><g clip-path="url(#clip0x7f8df514c0e0)"><g><clipPath id="clip0x7f8df5141a50"><path d="M 486.5 55.3 L 658.4 55.3 L 658.4 145.4 L 486.5 145.4 Z M 486.5 55.3 "></path></clipPath><g clip-path="url(#clip0x7f8df5141a50)"><image xlink:href="../../58FC0062-152D-4CC5-84DA-0DFAC1FE8D74/assets/C3C0FC898C94653CAF8AD846D6CCD108.png" width="600.00" height="600.00" transform="matrix(0.50, 0.00, -0.00, -0.50, 490.0, 143.0)"></image></g></g></g></g><g><clipPath id="clip0x7f8df5143e00"><path d="M 488.5 61.3 L 656.4 61.3 L 656.4 143.4 L 488.5 143.4 Z M 488.5 61.3 "></path></clipPath><g clip-path="url(#clip0x7f8df5143e00)"><text xml:space="preserve" font-family="Helvetica-Light,Helvetica" font-size="24.0" fill="#FEFFFE" transform="matrix(1.00, 0.00, -0.00, -1.00, 554.4, 92.9)">L</text><text xml:space="preserve" font-family="Helvetica-Light,Helvetica" font-size="24.0" fill="#FEFFFE" transform="matrix(1.00, 0.00, -0.00, -1.00, 567.7, 92.9)">I</text><text xml:space="preserve" font-family="Helvetica-Light,Helvetica" font-size="24.0" fill="#FEFFFE" transform="matrix(1.00, 0.00, -0.00, -1.00, 574.4, 92.9)">R</text></g></g><g><clipPath id="clip0x7f8df514e9a0"><path d="M 656.5 108.2 L 731.3 108.2 L 731.3 96.6 L 656.5 96.6 Z M 656.5 108.2 "></path></clipPath><g clip-path="url(#clip0x7f8df514e9a0)"><path d="M 0.5 0.4 L 63.2 0.4 L 64.5 0.4 " fill="none" stroke="#000000" stroke-width="2.00" transform="matrix(1.00, 0.00, 0.00, -1.00, 657.5, 102.4)"></path><path d="M 721.0 97.2 L 730.6 102.0 L 721.0 106.8 Z M 721.0 97.2 " fill="#000000"></path></g></g><g><clipPath id="clip0x7f8df514ff80"><path d="M 729.5 55.3 L 901.4 55.3 L 901.4 145.4 L 729.5 145.4 Z M 729.5 55.3 "></path></clipPath><g clip-path="url(#clip0x7f8df514ff80)"><image xlink:href="C7DA5893EFC920B804AC006A32DC3DAA.png" width="170.00" height="88.00" transform="matrix(1.00, 0.00, -0.00, -1.00, 730.5, 144.4)" opacity="0.50"></image></g></g><g><clipPath id="clip0x7f8df5255590"><path d="M 734.0 143.0 L 897.0 143.0 L 897.0 61.0 L 734.0 61.0 Z M 733.5 143.4 "></path></clipPath><g clip-path="url(#clip0x7f8df5255590)"><g><clipPath id="clip0x7f8df5255d30"><path d="M 729.5 55.3 L 901.4 55.3 L 901.4 145.4 L 729.5 145.4 Z M 729.5 55.3 "></path></clipPath><g clip-path="url(#clip0x7f8df5255d30)"><image xlink:href="../../58FC0062-152D-4CC5-84DA-0DFAC1FE8D74/assets/C3C0FC898C94653CAF8AD846D6CCD108.png" width="600.00" height="600.00" transform="matrix(0.50, 0.00, -0.00, -0.50, 734.0, 143.0)"></image></g></g></g></g><g><clipPath id="clip0x7f8df51511e0"><path d="M 731.5 61.3 L 899.4 61.3 L 899.4 143.4 L 731.5 143.4 Z M 731.5 61.3 "></path></clipPath><g clip-path="url(#clip0x7f8df51511e0)"><text xml:space="preserve" font-family="Helvetica-Light,Helvetica" font-size="24.0" fill="#FEFFFE" transform="matrix(1.00, 0.00, -0.00, -1.00, 738.8, 92.9)">m</text><text xml:space="preserve" font-family="Helvetica-Light,Helvetica" font-size="24.0" fill="#FEFFFE" transform="matrix(1.00, 0.00, -0.00, -1.00, 758.7, 92.9)">a</text><text xml:space="preserve" font-family="Helvetica-Light,Helvetica" font-size="24.0" fill="#FEFFFE" transform="matrix(1.00, 0.00, -0.00, -1.00, 772.1, 92.9)">c</text><text xml:space="preserve" font-family="Helvetica-Light,Helvetica" font-size="24.0" fill="#FEFFFE" transform="matrix(1.00, 0.00, -0.00, -1.00, 785.4, 92.9)">h</text><text xml:space="preserve" font-family="Helvetica-Light,Helvetica" font-size="24.0" fill="#FEFFFE" transform="matrix(1.00, 0.00, -0.00, -1.00, 798.8, 92.9)">i</text><text xml:space="preserve" font-family="Helvetica-Light,Helvetica" font-size="24.0" fill="#FEFFFE" transform="matrix(1.00, 0.00, -0.00, -1.00, 804.1, 92.9)">n</text><text xml:space="preserve" font-family="Helvetica-Light,Helvetica" font-size="24.0" fill="#FEFFFE" transform="matrix(1.00, 0.00, -0.00, -1.00, 817.5, 92.9)">e</text><text xml:space="preserve" font-family="Helvetica-Light,Helvetica" font-size="24.0" fill="#FEFFFE" transform="matrix(1.00, 0.00, -0.00, -1.00, 830.8, 92.9)"> </text><text xml:space="preserve" font-family="Helvetica-Light,Helvetica" font-size="24.0" fill="#FEFFFE" transform="matrix(1.00, 0.00, -0.00, -1.00, 837.5, 92.9)">c</text><text xml:space="preserve" font-family="Helvetica-Light,Helvetica" font-size="24.0" fill="#FEFFFE" transform="matrix(1.00, 0.00, -0.00, -1.00, 850.8, 92.9)">o</text><text xml:space="preserve" font-family="Helvetica-Light,Helvetica" font-size="24.0" fill="#FEFFFE" transform="matrix(1.00, 0.00, -0.00, -1.00, 864.2, 92.9)">d</text><text xml:space="preserve" font-family="Helvetica-Light,Helvetica" font-size="24.0" fill="#FEFFFE" transform="matrix(1.00, 0.00, -0.00, -1.00, 878.8, 92.9)">e</text></g></g><g><clipPath id="clip0x7f8e077b8260"><path d="M 218.6 31.1 L 430.5 31.1 L 430.5 108.2 L 218.6 108.2 Z M 218.6 31.1 "></path></clipPath><g clip-path="url(#clip0x7f8e077b8260)"><path d="M 194.4 0.6 L 207.4 1.6 L 207.4 69.6 L 0.4 69.6 L 0.4 -0.4 L 13.6 0.6 L 14.4 0.6 " fill="none" stroke="#000000" stroke-width="2.00" transform="matrix(1.00, 0.00, 0.00, -1.00, 220.6, 102.6)"></path><path d="M 233.9 97.2 L 243.6 101.9 L 234.1 106.8 Z M 233.9 97.2 " fill="#000000"></path></g></g><g><clipPath id="clip0x7f8e0b6576b0"><path d="M 462.5 31.1 L 674.3 31.1 L 674.3 108.2 L 462.5 108.2 Z M 462.5 31.1 "></path></clipPath><g clip-path="url(#clip0x7f8e0b6576b0)"><path d="M 194.5 0.6 L 207.5 1.6 L 207.5 69.6 L 0.5 69.6 L 0.5 -0.4 L 13.6 0.6 L 14.5 0.6 " fill="none" stroke="#000000" stroke-width="2.00" transform="matrix(1.00, 0.00, 0.00, -1.00, 464.5, 102.6)"></path><path d="M 477.9 97.2 L 487.6 101.9 L 478.1 106.8 Z M 477.9 97.2 " fill="#000000"></path></g></g><g><clipPath id="clip0x7f8df549be60"><path d="M 275.8 1.4 L 382.9 1.4 L 382.9 32.4 L 275.8 32.4 Z M 275.8 1.4 "></path></clipPath><g clip-path="url(#clip0x7f8df549be60)"><text xml:space="preserve" font-family="Helvetica-Light,Helvetica" font-size="18.0" fill="#000000" transform="matrix(1.00, 0.00, -0.00, -1.00, 280.8, 10.1)">o</text><text xml:space="preserve" font-family="Helvetica-Light,Helvetica" font-size="18.0" fill="#000000" transform="matrix(1.00, 0.00, -0.00, -1.00, 290.9, 10.1)">p</text><text xml:space="preserve" font-family="Helvetica-Light,Helvetica" font-size="18.0" fill="#000000" transform="matrix(1.00, 0.00, -0.00, -1.00, 301.9, 10.1)">t</text><text xml:space="preserve" font-family="Helvetica-Light,Helvetica" font-size="18.0" fill="#000000" transform="matrix(1.00, 0.00, -0.00, -1.00, 306.9, 10.1)">i</text><text xml:space="preserve" font-family="Helvetica-Light,Helvetica" font-size="18.0" fill="#000000" transform="matrix(1.00, 0.00, -0.00, -1.00, 310.9, 10.1)">m</text><text xml:space="preserve" font-family="Helvetica-Light,Helvetica" font-size="18.0" fill="#000000" transform="matrix(1.00, 0.00, -0.00, -1.00, 325.8, 10.1)">i</text><text xml:space="preserve" font-family="Helvetica-Light,Helvetica" font-size="18.0" fill="#000000" transform="matrix(1.00, 0.00, -0.00, -1.00, 329.8, 10.1)">z</text><text xml:space="preserve" font-family="Helvetica-Light,Helvetica" font-size="18.0" fill="#000000" transform="matrix(1.00, 0.00, -0.00, -1.00, 338.8, 10.1)">a</text><text xml:space="preserve" font-family="Helvetica-Light,Helvetica" font-size="18.0" fill="#000000" transform="matrix(1.00, 0.00, -0.00, -1.00, 348.8, 10.1)">t</text><text xml:space="preserve" font-family="Helvetica-Light,Helvetica" font-size="18.0" fill="#000000" transform="matrix(1.00, 0.00, -0.00, -1.00, 353.9, 10.1)">i</text><text xml:space="preserve" font-family="Helvetica-Light,Helvetica" font-size="18.0" fill="#000000" transform="matrix(1.00, 0.00, -0.00, -1.00, 357.8, 10.1)">o</text><text xml:space="preserve" font-family="Helvetica-Light,Helvetica" font-size="18.0" fill="#000000" transform="matrix(1.00, 0.00, -0.00, -1.00, 367.9, 10.1)">n</text></g></g><g><clipPath id="clip0x7f8df54a10a0"><path d="M 496.0 1.4 L 648.8 1.4 L 648.8 32.4 L 496.0 32.4 Z M 496.0 1.4 "></path></clipPath><g clip-path="url(#clip0x7f8df54a10a0)"><text xml:space="preserve" font-family="Helvetica-Light,Helvetica" font-size="18.0" fill="#000000" transform="matrix(1.00, 0.00, -0.00, -1.00, 501.0, 10.1)">r</text><text xml:space="preserve" font-family="Helvetica-Light,Helvetica" font-size="18.0" fill="#000000" transform="matrix(1.00, 0.00, -0.00, -1.00, 506.7, 10.1)">e</text><text xml:space="preserve" font-family="Helvetica-Light,Helvetica" font-size="18.0" fill="#000000" transform="matrix(1.00, 0.00, -0.00, -1.00, 516.7, 10.1)">g</text><text xml:space="preserve" font-family="Helvetica-Light,Helvetica" font-size="18.0" fill="#000000" transform="matrix(1.00, 0.00, -0.00, -1.00, 527.7, 10.1)">i</text><text xml:space="preserve" font-family="Helvetica-Light,Helvetica" font-size="18.0" fill="#000000" transform="matrix(1.00, 0.00, -0.00, -1.00, 531.7, 10.1)">s</text><text xml:space="preserve" font-family="Helvetica-Light,Helvetica" font-size="18.0" fill="#000000" transform="matrix(1.00, 0.00, -0.00, -1.00, 540.7, 10.1)">t</text><text xml:space="preserve" font-family="Helvetica-Light,Helvetica" font-size="18.0" fill="#000000" transform="matrix(1.00, 0.00, -0.00, -1.00, 545.7, 10.1)">e</text><text xml:space="preserve" font-family="Helvetica-Light,Helvetica" font-size="18.0" fill="#000000" transform="matrix(1.00, 0.00, -0.00, -1.00, 555.7, 10.1)">r</text><text xml:space="preserve" font-family="Helvetica-Light,Helvetica" font-size="18.0" fill="#000000" transform="matrix(1.00, 0.00, -0.00, -1.00, 561.7, 10.1)"> </text><text xml:space="preserve" font-family="Helvetica-Light,Helvetica" font-size="18.0" fill="#000000" transform="matrix(1.00, 0.00, -0.00, -1.00, 566.7, 10.1)">a</text><text xml:space="preserve" font-family="Helvetica-Light,Helvetica" font-size="18.0" fill="#000000" transform="matrix(1.00, 0.00, -0.00, -1.00, 576.7, 10.1)">l</text><text xml:space="preserve" font-family="Helvetica-Light,Helvetica" font-size="18.0" fill="#000000" transform="matrix(1.00, 0.00, -0.00, -1.00, 580.7, 10.1)">l</text><text xml:space="preserve" font-family="Helvetica-Light,Helvetica" font-size="18.0" fill="#000000" transform="matrix(1.00, 0.00, -0.00, -1.00, 584.7, 10.1)">o</text><text xml:space="preserve" font-family="Helvetica-Light,Helvetica" font-size="18.0" fill="#000000" transform="matrix(1.00, 0.00, -0.00, -1.00, 594.7, 10.1)">c</text><text xml:space="preserve" font-family="Helvetica-Light,Helvetica" font-size="18.0" fill="#000000" transform="matrix(1.00, 0.00, -0.00, -1.00, 604.7, 10.1)">a</text><text xml:space="preserve" font-family="Helvetica-Light,Helvetica" font-size="18.0" fill="#000000" transform="matrix(1.00, 0.00, -0.00, -1.00, 614.8, 10.1)">t</text><text xml:space="preserve" font-family="Helvetica-Light,Helvetica" font-size="18.0" fill="#000000" transform="matrix(1.00, 0.00, -0.00, -1.00, 619.8, 10.1)">i</text><text xml:space="preserve" font-family="Helvetica-Light,Helvetica" font-size="18.0" fill="#000000" transform="matrix(1.00, 0.00, -0.00, -1.00, 623.8, 10.1)">o</text><text xml:space="preserve" font-family="Helvetica-Light,Helvetica" font-size="18.0" fill="#000000" transform="matrix(1.00, 0.00, -0.00, -1.00, 633.8, 10.1)">n</text></g></g></g></svg>