<?xml version="1.0" encoding="UTF-8" standalone="no"?><svg xmlns="http://www.w3.org/2000/svg" xmlns:xlink="http://www.w3.org/1999/xlink" clip-rule="evenodd" stroke-miterlimit="10" viewBox="0 0 1024 768"><desc>SVG generated by Keynote</desc><defs><linearGradient id="gradSh1.139" x1="0.0" y1="0.0" x2="100.0" y2="0.0" gradientUnits="userSpaceOnUse" gradientTransform="matrix(11.03, -6.36, -5.89, -10.22, -39.6, 702.1)"><stop offset="0.00000" stop-color="#FFFFFF"></stop><stop offset="0.00587" stop-color="#FEFFFE"></stop><stop offset="1.00000" stop-color="#A6AAA9"></stop></linearGradient><pattern id="5C5D84D5-4488-4CC8-B0EF-5FBC88E4B033" patternUnits="userSpaceOnUse" width="600" height="600" viewBox="0 0 600 600"><image xlink:href="../../58FC0062-152D-4CC5-84DA-0DFAC1FE8D74/assets/C3C0FC898C94653CAF8AD846D6CCD108.png" width="600.00" height="600.00"></image></pattern></defs><g transform="matrix(1.00, 0.00, -0.00, -1.00, 0.0, 768.0)"><g><clipPath id="clip0x7f8e0f57cf50"><path d="M 0.0 768.0 L 1024.0 768.0 L 1024.0 0.0 L 0.0 0.0 Z M 0.0 768.0 "></path></clipPath><g clip-path="url(#clip0x7f8e0f57cf50)"><path d="M 0.0 768.0 L 1024.0 768.0 L 1024.0 0.0 L 0.0 0.0 Z M 0.0 768.0 " fill="url(#gradSh1.139)"></path></g></g><g><clipPath id="clip0x7f8e0f5c2940"><path d="M 960.0 65.0 L 1016.0 65.0 L 1016.0 9.0 L 960.0 9.0 Z M 960.0 65.0 "></path></clipPath><g clip-path="url(#clip0x7f8e0f5c2940)"><g><clipPath id="clip0x7f8e0f5c30b0"><path d="M 960.0 9.0 L 1016.0 9.0 L 1016.0 65.0 L 960.0 65.0 Z M 960.0 9.0 "></path></clipPath><g clip-path="url(#clip0x7f8e0f5c30b0)"><path d="M 1016.0 37.0 C 1016.0 52.5 1003.5 65.0 988.0 65.0 C 972.5 65.0 960.0 52.5 960.0 37.0 C 960.0 21.5 972.5 9.0 988.0 9.0 C 1003.5 9.0 1016.0 21.5 1016.0 37.0 " fill="#526466"></path><path d="M 979.5 30.7 C 979.1 30.7 978.7 30.9 978.5 31.2 L 972.6 39.5 L 972.6 31.9 C 972.6 31.2 972.1 30.7 971.4 30.7 C 970.8 30.7 970.3 31.2 970.3 31.9 L 970.3 43.2 C 970.3 43.7 970.6 44.1 971.1 44.3 C 971.6 44.4 972.1 44.3 972.4 43.8 L 978.3 35.5 L 978.3 43.2 C 978.3 43.8 978.8 44.3 979.5 44.3 C 980.1 44.3 980.6 43.8 980.6 43.2 L 980.6 31.9 C 980.6 31.4 980.3 30.9 979.8 30.8 C 979.7 30.7 979.6 30.7 979.5 30.7 " fill="#FFFFFF"></path><path d="M 1003.9 41.2 C 1002.8 42.0 1001.5 42.4 1000.1 42.3 C 999.1 42.2 997.7 41.7 997.7 40.7 C 997.7 39.8 998.5 39.5 999.3 39.2 C 1000.4 38.8 1001.6 38.7 1002.7 38.3 C 1004.6 37.7 1006.3 36.2 1006.1 34.1 C 1005.8 31.7 1003.3 30.7 1001.2 30.5 C 999.2 30.4 996.9 31.2 995.5 32.6 C 994.8 33.2 995.1 34.3 996.0 34.4 C 996.5 34.4 996.7 34.2 997.1 33.9 C 997.6 33.6 998.1 33.4 998.6 33.1 C 999.7 32.7 1000.9 32.6 1002.1 32.9 C 1002.9 33.2 1004.1 33.9 1003.7 34.9 C 1003.3 35.8 1001.8 36.2 1000.9 36.4 C 999.7 36.6 998.4 36.8 997.4 37.5 C 995.7 38.4 994.9 40.3 995.7 42.1 C 996.7 44.3 999.7 44.8 1001.9 44.4 C 1003.0 44.2 1004.2 43.7 1005.1 42.9 C 1006.0 42.1 1005.0 40.5 1003.9 41.2 " fill="#FFFFFF"></path><path d="M 988.0 23.5 C 987.6 23.5 987.3 23.8 987.3 24.2 L 987.3 49.8 C 987.3 50.2 987.6 50.5 988.0 50.5 C 988.4 50.5 988.7 50.2 988.7 49.8 L 988.7 24.2 C 988.7 23.8 988.4 23.5 988.0 23.5 " fill="#FFFFFF"></path></g></g></g></g><text xml:space="preserve" font-family="Helvetica-Light,Helvetica" font-size="69.0" fill="#000000" transform="matrix(1.00, 0.00, -0.00, -1.00, 45.6, 672.5)">N</text><text xml:space="preserve" font-family="Helvetica-Light,Helvetica" font-size="69.0" fill="#000000" transform="matrix(1.00, 0.00, -0.00, -1.00, 95.5, 672.5)">o</text><text xml:space="preserve" font-family="Helvetica-Light,Helvetica" font-size="69.0" fill="#000000" transform="matrix(1.00, 0.00, -0.00, -1.00, 133.8, 672.5)">d</text><text xml:space="preserve" font-family="Helvetica-Light,Helvetica" font-size="69.0" fill="#000000" transform="matrix(1.00, 0.00, -0.00, -1.00, 176.0, 672.5)">e</text><text xml:space="preserve" font-family="Helvetica-Light,Helvetica" font-size="69.0" fill="#000000" transform="matrix(1.00, 0.00, -0.00, -1.00, 214.3, 672.5)">.</text><text xml:space="preserve" font-family="Helvetica-Light,Helvetica" font-size="69.0" fill="#000000" transform="matrix(1.00, 0.00, -0.00, -1.00, 233.5, 672.5)">j</text><text xml:space="preserve" font-family="Helvetica-Light,Helvetica" font-size="69.0" fill="#000000" transform="matrix(1.00, 0.00, -0.00, -1.00, 248.8, 672.5)">s</text><text xml:space="preserve" font-family="Helvetica-Light,Helvetica" font-size="69.0" fill="#000000" transform="matrix(1.00, 0.00, -0.00, -1.00, 283.3, 672.5)"> </text><text xml:space="preserve" font-family="Helvetica-Light,Helvetica" font-size="69.0" fill="#000000" transform="matrix(1.00, 0.00, -0.00, -1.00, 302.5, 672.5)">M</text><text xml:space="preserve" font-family="Helvetica-Light,Helvetica" font-size="69.0" fill="#000000" transform="matrix(1.00, 0.00, -0.00, -1.00, 360.0, 672.5)">e</text><text xml:space="preserve" font-family="Helvetica-Light,Helvetica" font-size="69.0" fill="#000000" transform="matrix(1.00, 0.00, -0.00, -1.00, 398.4, 672.5)">m</text><text xml:space="preserve" font-family="Helvetica-Light,Helvetica" font-size="69.0" fill="#000000" transform="matrix(1.00, 0.00, -0.00, -1.00, 455.8, 672.5)">o</text><text xml:space="preserve" font-family="Helvetica-Light,Helvetica" font-size="69.0" fill="#000000" transform="matrix(1.00, 0.00, -0.00, -1.00, 494.2, 672.5)">r</text><text xml:space="preserve" font-family="Helvetica-Light,Helvetica" font-size="69.0" fill="#000000" transform="matrix(1.00, 0.00, -0.00, -1.00, 518.4, 672.5)">y</text><text xml:space="preserve" font-family="Helvetica-Light,Helvetica" font-size="69.0" fill="#000000" transform="matrix(1.00, 0.00, -0.00, -1.00, 552.9, 672.5)"> </text><text xml:space="preserve" font-family="Helvetica-Light,Helvetica" font-size="69.0" fill="#000000" transform="matrix(1.00, 0.00, -0.00, -1.00, 572.1, 672.5)">M</text><text xml:space="preserve" font-family="Helvetica-Light,Helvetica" font-size="69.0" fill="#000000" transform="matrix(1.00, 0.00, -0.00, -1.00, 629.6, 672.5)">o</text><text xml:space="preserve" font-family="Helvetica-Light,Helvetica" font-size="69.0" fill="#000000" transform="matrix(1.00, 0.00, -0.00, -1.00, 667.9, 672.5)">d</text><text xml:space="preserve" font-family="Helvetica-Light,Helvetica" font-size="69.0" fill="#000000" transform="matrix(1.00, 0.00, -0.00, -1.00, 710.1, 672.5)">e</text><text xml:space="preserve" font-family="Helvetica-Light,Helvetica" font-size="69.0" fill="#000000" transform="matrix(1.00, 0.00, -0.00, -1.00, 748.5, 672.5)">l</text><image xlink:href="../../B52F7A40-A022-401B-B5DF-53719A2C8C76/assets/C066A689DC7C667961918705B90619D7.png" width="955.00" height="239.00" transform="matrix(1.00, 0.00, -0.00, -1.00, 34.3, 488.1)" opacity="0.50"></image><g><clipPath id="clip0x7f8e0f5cf7b0"><path d="M 37.0 487.0 L 987.0 487.0 L 987.0 254.0 L 37.0 254.0 Z M 37.3 487.1 "></path></clipPath><g clip-path="url(#clip0x7f8e0f5cf7b0)"><path d="M 37.0 254.0 L 987.0 254.0 L 987.0 487.0 L 37.0 487.0 Z M 37.0 254.0 " fill="url(#5C5D84D5-4488-4CC8-B0EF-5FBC88E4B033)"></path></g></g><path d="M 51.0 473.0 L 623.0 473.0 L 623.0 269.0 L 51.0 269.0 Z M 50.6 472.7 " fill="#164E86"></path><text xml:space="preserve" font-family="Helvetica-Light,Helvetica" font-size="36.0" fill="#FFFFFF" transform="matrix(1.00, 0.00, -0.00, -1.00, 54.4, 432.1)"> </text><text xml:space="preserve" font-family="Helvetica-Light,Helvetica" font-size="36.0" fill="#FFFFFF" transform="matrix(1.00, 0.00, -0.00, -1.00, 64.4, 432.1)">V</text><text xml:space="preserve" font-family="Helvetica-Light,Helvetica" font-size="36.0" fill="#FFFFFF" transform="matrix(1.00, 0.00, -0.00, -1.00, 86.4, 432.1)">8</text><text xml:space="preserve" font-family="Helvetica-Light,Helvetica" font-size="36.0" fill="#FFFFFF" transform="matrix(1.00, 0.00, -0.00, -1.00, 106.5, 432.1)"> </text><text xml:space="preserve" font-family="Helvetica-Light,Helvetica" font-size="36.0" fill="#FFFFFF" transform="matrix(1.00, 0.00, -0.00, -1.00, 116.5, 432.1)">H</text><text xml:space="preserve" font-family="Helvetica-Light,Helvetica" font-size="36.0" fill="#FFFFFF" transform="matrix(1.00, 0.00, -0.00, -1.00, 142.5, 432.1)">e</text><text xml:space="preserve" font-family="Helvetica-Light,Helvetica" font-size="36.0" fill="#FFFFFF" transform="matrix(1.00, 0.00, -0.00, -1.00, 162.5, 432.1)">a</text><text xml:space="preserve" font-family="Helvetica-Light,Helvetica" font-size="36.0" fill="#FFFFFF" transform="matrix(1.00, 0.00, -0.00, -1.00, 182.5, 432.1)">p</text><path d="M 637.0 473.0 L 970.0 473.0 L 970.0 269.0 L 637.0 269.0 Z M 636.8 472.7 " fill="#164E86"></path><g><clipPath id="clip0x7f8e0f5d6070"><path d="M 632.3 268.7 L 974.2 268.7 L 974.2 477.2 L 632.3 477.2 Z M 632.3 268.7 "></path></clipPath><g clip-path="url(#clip0x7f8e0f5d6070)"><text xml:space="preserve" font-family="Helvetica-Light,Helvetica" font-size="34.0" fill="#FEFFFE" transform="matrix(1.00, 0.00, -0.00, -1.00, 720.4, 435.5)">N</text><text xml:space="preserve" font-family="Helvetica-Light,Helvetica" font-size="34.0" fill="#FEFFFE" transform="matrix(1.00, 0.00, -0.00, -1.00, 745.0, 435.5)">o</text><text xml:space="preserve" font-family="Helvetica-Light,Helvetica" font-size="34.0" fill="#FEFFFE" transform="matrix(1.00, 0.00, -0.00, -1.00, 763.9, 435.5)">d</text><text xml:space="preserve" font-family="Helvetica-Light,Helvetica" font-size="34.0" fill="#FEFFFE" transform="matrix(1.00, 0.00, -0.00, -1.00, 784.6, 435.5)">e</text><text xml:space="preserve" font-family="Helvetica-Light,Helvetica" font-size="34.0" fill="#FEFFFE" transform="matrix(1.00, 0.00, -0.00, -1.00, 803.5, 435.5)"> </text><text xml:space="preserve" font-family="Helvetica-Light,Helvetica" font-size="34.0" fill="#FEFFFE" transform="matrix(1.00, 0.00, -0.00, -1.00, 813.0, 435.5)">C</text><text xml:space="preserve" font-family="Helvetica-Light,Helvetica" font-size="34.0" fill="#FEFFFE" transform="matrix(1.00, 0.00, -0.00, -1.00, 837.5, 435.5)">o</text><text xml:space="preserve" font-family="Helvetica-Light,Helvetica" font-size="34.0" fill="#FEFFFE" transform="matrix(1.00, 0.00, -0.00, -1.00, 856.4, 435.5)">r</text><text xml:space="preserve" font-family="Helvetica-Light,Helvetica" font-size="34.0" fill="#FEFFFE" transform="matrix(1.00, 0.00, -0.00, -1.00, 867.1, 435.5)">e</text></g></g></g></svg>