<?xml version="1.0" encoding="UTF-8" standalone="no"?><svg xmlns="http://www.w3.org/2000/svg" xmlns:xlink="http://www.w3.org/1999/xlink" clip-rule="evenodd" stroke-miterlimit="10" viewBox="0 0 611 68"><desc>SVG generated by Keynote</desc><defs></defs><g transform="matrix(1.00, 0.00, -0.00, -1.00, 0.0, 68.0)"><text xml:space="preserve" font-family="Helvetica-Light,Helvetica" font-size="69.0" fill="#000000" transform="matrix(1.00, 0.00, -0.00, -1.00, 0.4, 16.2)">J</text><text xml:space="preserve" font-family="Helvetica-Light,Helvetica" font-size="69.0" fill="#000000" transform="matrix(1.00, 0.00, -0.00, -1.00, 34.9, 16.2)">V</text><text xml:space="preserve" font-family="Helvetica-Light,Helvetica" font-size="69.0" fill="#000000" transform="matrix(1.00, 0.00, -0.00, -1.00, 77.1, 16.2)">M</text><text xml:space="preserve" font-family="Helvetica-Light,Helvetica" font-size="69.0" fill="#000000" transform="matrix(1.00, 0.00, -0.00, -1.00, 134.6, 16.2)"> </text><text xml:space="preserve" font-family="Helvetica-Light,Helvetica" font-size="69.0" fill="#000000" transform="matrix(1.00, 0.00, -0.00, -1.00, 153.7, 16.2)">M</text><text xml:space="preserve" font-family="Helvetica-Light,Helvetica" font-size="69.0" fill="#000000" transform="matrix(1.00, 0.00, -0.00, -1.00, 211.2, 16.2)">e</text><text xml:space="preserve" font-family="Helvetica-Light,Helvetica" font-size="69.0" fill="#000000" transform="matrix(1.00, 0.00, -0.00, -1.00, 249.6, 16.2)">m</text><text xml:space="preserve" font-family="Helvetica-Light,Helvetica" font-size="69.0" fill="#000000" transform="matrix(1.00, 0.00, -0.00, -1.00, 307.1, 16.2)">o</text><text xml:space="preserve" font-family="Helvetica-Light,Helvetica" font-size="69.0" fill="#000000" transform="matrix(1.00, 0.00, -0.00, -1.00, 345.4, 16.2)">r</text><text xml:space="preserve" font-family="Helvetica-Light,Helvetica" font-size="69.0" fill="#000000" transform="matrix(1.00, 0.00, -0.00, -1.00, 369.6, 16.2)">y</text><text xml:space="preserve" font-family="Helvetica-Light,Helvetica" font-size="69.0" fill="#000000" transform="matrix(1.00, 0.00, -0.00, -1.00, 404.1, 16.2)"> </text><text xml:space="preserve" font-family="Helvetica-Light,Helvetica" font-size="69.0" fill="#000000" transform="matrix(1.00, 0.00, -0.00, -1.00, 423.3, 16.2)">M</text><text xml:space="preserve" font-family="Helvetica-Light,Helvetica" font-size="69.0" fill="#000000" transform="matrix(1.00, 0.00, -0.00, -1.00, 480.8, 16.2)">o</text><text xml:space="preserve" font-family="Helvetica-Light,Helvetica" font-size="69.0" fill="#000000" transform="matrix(1.00, 0.00, -0.00, -1.00, 519.2, 16.2)">d</text><text xml:space="preserve" font-family="Helvetica-Light,Helvetica" font-size="69.0" fill="#000000" transform="matrix(1.00, 0.00, -0.00, -1.00, 561.3, 16.2)">e</text><text xml:space="preserve" font-family="Helvetica-Light,Helvetica" font-size="69.0" fill="#000000" transform="matrix(1.00, 0.00, -0.00, -1.00, 599.7, 16.2)">l</text></g></svg>