<?xml version="1.0" encoding="UTF-8" standalone="no"?><svg xmlns="http://www.w3.org/2000/svg" xmlns:xlink="http://www.w3.org/1999/xlink" clip-rule="evenodd" stroke-miterlimit="10" viewBox="0 0 1024 768"><desc>SVG generated by Keynote</desc><defs><linearGradient id="gradSh1.186" x1="0.0" y1="0.0" x2="100.0" y2="0.0" gradientUnits="userSpaceOnUse" gradientTransform="matrix(11.03, -6.36, -5.89, -10.22, -39.6, 702.1)"><stop offset="0.00000" stop-color="#FFFFFF"></stop><stop offset="0.00587" stop-color="#FEFFFE"></stop><stop offset="1.00000" stop-color="#A6AAA9"></stop></linearGradient></defs><g transform="matrix(1.00, 0.00, -0.00, -1.00, 0.0, 768.0)"><g><clipPath id="clip0x7f8df5fdff40"><path d="M 0.0 768.0 L 1024.0 768.0 L 1024.0 0.0 L 0.0 0.0 Z M 0.0 768.0 "></path></clipPath><g clip-path="url(#clip0x7f8df5fdff40)"><path d="M 0.0 768.0 L 1024.0 768.0 L 1024.0 0.0 L 0.0 0.0 Z M 0.0 768.0 " fill="url(#gradSh1.186)"></path></g></g><g><clipPath id="clip0x7f8df6a30660"><path d="M 960.0 65.0 L 1016.0 65.0 L 1016.0 9.0 L 960.0 9.0 Z M 960.0 65.0 "></path></clipPath><g clip-path="url(#clip0x7f8df6a30660)"><g><clipPath id="clip0x7f8df6a30e00"><path d="M 960.0 9.0 L 1016.0 9.0 L 1016.0 65.0 L 960.0 65.0 Z M 960.0 9.0 "></path></clipPath><g clip-path="url(#clip0x7f8df6a30e00)"><path d="M 1016.0 37.0 C 1016.0 52.5 1003.5 65.0 988.0 65.0 C 972.5 65.0 960.0 52.5 960.0 37.0 C 960.0 21.5 972.5 9.0 988.0 9.0 C 1003.5 9.0 1016.0 21.5 1016.0 37.0 " fill="#526466"></path><path d="M 979.5 30.7 C 979.1 30.7 978.7 30.9 978.5 31.2 L 972.6 39.5 L 972.6 31.9 C 972.6 31.2 972.1 30.7 971.4 30.7 C 970.8 30.7 970.3 31.2 970.3 31.9 L 970.3 43.2 C 970.3 43.7 970.6 44.1 971.1 44.3 C 971.6 44.4 972.1 44.3 972.4 43.8 L 978.3 35.5 L 978.3 43.2 C 978.3 43.8 978.8 44.3 979.5 44.3 C 980.1 44.3 980.6 43.8 980.6 43.2 L 980.6 31.9 C 980.6 31.4 980.3 30.9 979.8 30.8 C 979.7 30.7 979.6 30.7 979.5 30.7 " fill="#FFFFFF"></path><path d="M 1003.9 41.2 C 1002.8 42.0 1001.5 42.4 1000.1 42.3 C 999.1 42.2 997.7 41.7 997.7 40.7 C 997.7 39.8 998.5 39.5 999.3 39.2 C 1000.4 38.8 1001.6 38.7 1002.7 38.3 C 1004.6 37.7 1006.3 36.2 1006.1 34.1 C 1005.8 31.7 1003.3 30.7 1001.2 30.5 C 999.2 30.4 996.9 31.2 995.5 32.6 C 994.8 33.2 995.1 34.3 996.0 34.4 C 996.5 34.4 996.7 34.2 997.1 33.9 C 997.6 33.6 998.1 33.4 998.6 33.1 C 999.7 32.7 1000.9 32.6 1002.1 32.9 C 1002.9 33.2 1004.1 33.9 1003.7 34.9 C 1003.3 35.8 1001.8 36.2 1000.9 36.4 C 999.7 36.6 998.4 36.8 997.4 37.5 C 995.7 38.4 994.9 40.3 995.7 42.1 C 996.7 44.3 999.7 44.8 1001.9 44.4 C 1003.0 44.2 1004.2 43.7 1005.1 42.9 C 1006.0 42.1 1005.0 40.5 1003.9 41.2 " fill="#FFFFFF"></path><path d="M 988.0 23.5 C 987.6 23.5 987.3 23.8 987.3 24.2 L 987.3 49.8 C 987.3 50.2 987.6 50.5 988.0 50.5 C 988.4 50.5 988.7 50.2 988.7 49.8 L 988.7 24.2 C 988.7 23.8 988.4 23.5 988.0 23.5 " fill="#FFFFFF"></path></g></g></g></g><g><clipPath id="clip0x7f8df6a33dc0"><path d="M 211.6 52.9 L 769.2 52.9 L 769.2 583.1 L 211.6 583.1 Z M 211.6 52.9 "></path></clipPath><g clip-path="url(#clip0x7f8df6a33dc0)"><path d="M 463.1 75.5 C 569.1 176.1 569.1 339.2 463.1 439.8 C 357.2 540.4 185.4 540.4 79.5 439.8 C -26.5 339.2 -26.5 176.1 79.5 75.5 C 185.4 -25.2 357.2 -25.2 463.1 75.5 Z M 463.1 75.5 " fill="none" stroke="#000000" stroke-width="13.00" transform="matrix(1.00, 0.00, 0.00, -1.00, 219.1, 575.6)"></path></g></g><g><clipPath id="clip0x7f8df6a35220"><path d="M 683.4 144.2 L 768.4 144.2 L 768.4 499.4 L 683.4 499.4 Z M 683.4 144.2 "></path></clipPath><g clip-path="url(#clip0x7f8df6a35220)"><path d="M 0.0 0.0 C 46.6 46.0 73.1 108.5 73.6 174.0 C 74.0 223.5 59.5 271.8 32.5 312.5 L 29.1 316.9 " fill="none" stroke="#000000" stroke-width="11.00" transform="matrix(1.00, 0.00, 0.00, -1.00, 688.3, 494.4)"></path><path d="M 704.3 194.9 L 694.7 149.0 L 737.2 168.8 Z M 704.3 194.9 " fill="#000000"></path></g></g><g><clipPath id="clip0x7f8df6a369a0"><path d="M 212.1 172.2 L 295.0 172.2 L 295.0 495.9 L 212.1 495.9 Z M 212.1 172.2 "></path></clipPath><g clip-path="url(#clip0x7f8df6a369a0)"><path d="M 48.1 28.0 L 44.6 32.3 C 18.5 69.6 3.1 113.7 0.4 159.7 C -2.8 214.8 12.6 269.4 44.1 314.7 " fill="none" stroke="#000000" stroke-width="11.00" transform="matrix(1.00, 0.00, 0.00, -1.00, 218.6, 491.0)"></path><path d="M 279.3 445.3 L 290.1 491.0 L 247.0 472.2 Z M 279.3 445.3 " fill="#000000"></path></g></g><image xlink:href="D9BD0CFC3D5CB40CDE1F50A3565E9D0D.png" width="160.00" height="64.00" transform="matrix(1.00, 0.00, -0.00, -1.00, 179.0, 208.0)"></image><text xml:space="preserve" font-family="Helvetica-Light,Helvetica" font-size="73.0" fill="#000000" transform="matrix(1.00, 0.00, -0.00, -1.00, 191.5, 662.0)">D</text><text xml:space="preserve" font-family="Helvetica-Light,Helvetica" font-size="73.0" fill="#000000" transform="matrix(1.00, 0.00, -0.00, -1.00, 244.2, 662.0)">e</text><text xml:space="preserve" font-family="Helvetica-Light,Helvetica" font-size="73.0" fill="#000000" transform="matrix(1.00, 0.00, -0.00, -1.00, 284.8, 662.0)">v</text><text xml:space="preserve" font-family="Helvetica-Light,Helvetica" font-size="73.0" fill="#000000" transform="matrix(1.00, 0.00, -0.00, -1.00, 321.3, 662.0)">e</text><text xml:space="preserve" font-family="Helvetica-Light,Helvetica" font-size="73.0" fill="#000000" transform="matrix(1.00, 0.00, -0.00, -1.00, 361.9, 662.0)">l</text><text xml:space="preserve" font-family="Helvetica-Light,Helvetica" font-size="73.0" fill="#000000" transform="matrix(1.00, 0.00, -0.00, -1.00, 378.1, 662.0)">o</text><text xml:space="preserve" font-family="Helvetica-Light,Helvetica" font-size="73.0" fill="#000000" transform="matrix(1.00, 0.00, -0.00, -1.00, 418.7, 662.0)">p</text><text xml:space="preserve" font-family="Helvetica-Light,Helvetica" font-size="73.0" fill="#000000" transform="matrix(1.00, 0.00, -0.00, -1.00, 463.3, 662.0)">m</text><text xml:space="preserve" font-family="Helvetica-Light,Helvetica" font-size="73.0" fill="#000000" transform="matrix(1.00, 0.00, -0.00, -1.00, 524.1, 662.0)">e</text><text xml:space="preserve" font-family="Helvetica-Light,Helvetica" font-size="73.0" fill="#000000" transform="matrix(1.00, 0.00, -0.00, -1.00, 564.7, 662.0)">n</text><text xml:space="preserve" font-family="Helvetica-Light,Helvetica" font-size="73.0" fill="#000000" transform="matrix(1.00, 0.00, -0.00, -1.00, 605.3, 662.0)">t</text><text xml:space="preserve" font-family="Helvetica-Light,Helvetica" font-size="73.0" fill="#000000" transform="matrix(1.00, 0.00, -0.00, -1.00, 625.6, 662.0)"> </text><text xml:space="preserve" font-family="Helvetica-Light,Helvetica" font-size="73.0" fill="#000000" transform="matrix(1.00, 0.00, -0.00, -1.00, 645.9, 662.0)">C</text><text xml:space="preserve" font-family="Helvetica-Light,Helvetica" font-size="73.0" fill="#000000" transform="matrix(1.00, 0.00, -0.00, -1.00, 698.6, 662.0)">y</text><text xml:space="preserve" font-family="Helvetica-Light,Helvetica" font-size="73.0" fill="#000000" transform="matrix(1.00, 0.00, -0.00, -1.00, 735.1, 662.0)">c</text><text xml:space="preserve" font-family="Helvetica-Light,Helvetica" font-size="73.0" fill="#000000" transform="matrix(1.00, 0.00, -0.00, -1.00, 775.7, 662.0)">l</text><text xml:space="preserve" font-family="Helvetica-Light,Helvetica" font-size="73.0" fill="#000000" transform="matrix(1.00, 0.00, -0.00, -1.00, 791.9, 662.0)">e</text><text xml:space="preserve" font-family="Helvetica-Light,Helvetica" font-size="73.0" fill="#000000" transform="matrix(1.00, 0.00, -0.00, -1.00, 832.5, 662.0)"> </text><g><clipPath id="clip0x7f8df5ce4e50"><path d="M 428.0 633.0 L 535.0 633.0 L 535.0 530.0 L 428.0 530.0 Z M 428.1 633.5 "></path></clipPath><g clip-path="url(#clip0x7f8df5ce4e50)"><image xlink:href="2BC9DABA0DD5F7F49935FEFF724387B8.png" width="800.00" height="188.00" transform="matrix(0.54, 0.00, -0.00, -0.54, 428.0, 632.0)"></image></g></g><g><clipPath id="clip0x7f8df5e3c8f0"><path d="M 652.0 224.0 L 775.0 224.0 L 775.0 122.0 L 652.0 122.0 Z M 652.3 224.3 "></path></clipPath><g clip-path="url(#clip0x7f8df5e3c8f0)"><image xlink:href="C6BDD4647F7CD024D75D664859A8243F.png" width="162.00" height="94.00" transform="matrix(1.99, 0.00, -0.00, -1.99, 667.0, 315.0)"></image></g></g><image xlink:href="9DA4C94EC20295ACF2161579CA11F5BD.jpeg" width="129.00" height="86.00" transform="matrix(1.00, 0.00, -0.00, -1.00, 657.0, 487.0)"></image><g><clipPath id="clip0x7f8df5ce6d10"><path d="M 422.0 117.0 L 541.0 117.0 L 541.0 19.0 L 422.0 19.0 Z M 422.4 117.1 "></path></clipPath><g clip-path="url(#clip0x7f8df5ce6d10)"><image xlink:href="ECDE4CCE18054144B98380BECD94DC5B.png" width="200.00" height="165.00" transform="matrix(0.81, 0.00, -0.00, -0.81, 407.0, 115.0)"></image></g></g><image xlink:href="8CA8EB2C5F6F7F0BE80D4AEEDD33DDCD.jpeg" width="277.00" height="182.00" transform="matrix(0.56, 0.00, -0.00, -0.55, 182.0, 495.0)"></image></g></svg>