<?xml version="1.0" encoding="UTF-8" standalone="no"?><svg xmlns="http://www.w3.org/2000/svg" xmlns:xlink="http://www.w3.org/1999/xlink" clip-rule="evenodd" stroke-miterlimit="10" viewBox="0 0 574 58"><desc>SVG generated by Keynote</desc><defs></defs><g transform="matrix(1.00, 0.00, -0.00, -1.00, 0.0, 58.0)"><text xml:space="preserve" font-family="Helvetica-Light,Helvetica" font-size="73.0" fill="#000000" transform="matrix(1.00, 0.00, -0.00, -1.00, -3.6, 3.7)">N</text><text xml:space="preserve" font-family="Helvetica-Light,Helvetica" font-size="73.0" fill="#000000" transform="matrix(1.00, 0.00, -0.00, -1.00, 49.1, 3.7)">o</text><text xml:space="preserve" font-family="Helvetica-Light,Helvetica" font-size="73.0" fill="#000000" transform="matrix(1.00, 0.00, -0.00, -1.00, 89.7, 3.7)">d</text><text xml:space="preserve" font-family="Helvetica-Light,Helvetica" font-size="73.0" fill="#000000" transform="matrix(1.00, 0.00, -0.00, -1.00, 134.3, 3.7)">e</text><text xml:space="preserve" font-family="Helvetica-Light,Helvetica" font-size="73.0" fill="#000000" transform="matrix(1.00, 0.00, -0.00, -1.00, 174.9, 3.7)"> </text><text xml:space="preserve" font-family="Helvetica-Light,Helvetica" font-size="73.0" fill="#000000" transform="matrix(1.00, 0.00, -0.00, -1.00, 195.2, 3.7)">M</text><text xml:space="preserve" font-family="Helvetica-Light,Helvetica" font-size="73.0" fill="#000000" transform="matrix(1.00, 0.00, -0.00, -1.00, 256.0, 3.7)">i</text><text xml:space="preserve" font-family="Helvetica-Light,Helvetica" font-size="73.0" fill="#000000" transform="matrix(1.00, 0.00, -0.00, -1.00, 272.2, 3.7)">d</text><text xml:space="preserve" font-family="Helvetica-Light,Helvetica" font-size="73.0" fill="#000000" transform="matrix(1.00, 0.00, -0.00, -1.00, 316.8, 3.7)">d</text><text xml:space="preserve" font-family="Helvetica-Light,Helvetica" font-size="73.0" fill="#000000" transform="matrix(1.00, 0.00, -0.00, -1.00, 361.4, 3.7)">l</text><text xml:space="preserve" font-family="Helvetica-Light,Helvetica" font-size="73.0" fill="#000000" transform="matrix(1.00, 0.00, -0.00, -1.00, 377.6, 3.7)">e</text><text xml:space="preserve" font-family="Helvetica-Light,Helvetica" font-size="73.0" fill="#000000" transform="matrix(1.00, 0.00, -0.00, -1.00, 418.2, 3.7)">w</text><text xml:space="preserve" font-family="Helvetica-Light,Helvetica" font-size="73.0" fill="#000000" transform="matrix(1.00, 0.00, -0.00, -1.00, 470.9, 3.7)">a</text><text xml:space="preserve" font-family="Helvetica-Light,Helvetica" font-size="73.0" fill="#000000" transform="matrix(1.00, 0.00, -0.00, -1.00, 511.5, 3.7)">r</text><text xml:space="preserve" font-family="Helvetica-Light,Helvetica" font-size="73.0" fill="#000000" transform="matrix(1.00, 0.00, -0.00, -1.00, 534.5, 3.7)">e</text></g></svg>