<?xml version="1.0" encoding="UTF-8" standalone="no"?><svg xmlns="http://www.w3.org/2000/svg" xmlns:xlink="http://www.w3.org/1999/xlink" clip-rule="evenodd" stroke-miterlimit="10" viewBox="0 0 588 113"><desc>SVG generated by Keynote</desc><defs></defs><g transform="matrix(1.00, 0.00, -0.00, -1.00, 0.0, 113.0)"><image xlink:href="../../C2610D4D-DD83-4AA0-B364-28C6E3E78F40/assets/E0699D7B75E9462F1F6C2FEADF79DD9D.png" width="585.00" height="106.00" transform="matrix(1.00, 0.00, -0.00, -1.00, 1.7, 107.8)" opacity="0.50"></image><path d="M 4.7 21.8 L 5.0 91.8 C 5.0 100.1 11.4 107.0 19.7 107.0 L 568.3 107.0 C 576.6 107.0 583.0 100.1 583.0 91.8 L 583.0 21.8 C 583.0 13.5 576.6 7.0 568.3 7.0 L 19.7 7.0 C 11.4 7.0 4.7 13.5 4.7 21.8 Z M 4.7 21.8 " fill="#9FD3F1"></path><g><clipPath id="clip0x7f8e1bc0fb30"><path d="M 2.7 6.8 L 585.3 6.8 L 585.3 106.8 L 2.7 106.8 Z M 2.7 6.8 "></path></clipPath><g clip-path="url(#clip0x7f8e1bc0fb30)"><text xml:space="preserve" font-family="Helvetica-Light,Helvetica" font-size="24.0" fill="#000000" transform="matrix(1.00, 0.00, -0.00, -1.00, 252.7, 47.7)">N</text><text xml:space="preserve" font-family="Helvetica-Light,Helvetica" font-size="24.0" fill="#000000" transform="matrix(1.00, 0.00, -0.00, -1.00, 270.0, 47.7)">o</text><text xml:space="preserve" font-family="Helvetica-Light,Helvetica" font-size="24.0" fill="#000000" transform="matrix(1.00, 0.00, -0.00, -1.00, 283.3, 47.7)">d</text><text xml:space="preserve" font-family="Helvetica-Light,Helvetica" font-size="24.0" fill="#000000" transform="matrix(1.00, 0.00, -0.00, -1.00, 298.0, 47.7)">e</text><text xml:space="preserve" font-family="Helvetica-Light,Helvetica" font-size="24.0" fill="#000000" transform="matrix(1.00, 0.00, -0.00, -1.00, 311.3, 47.7)">.</text><text xml:space="preserve" font-family="Helvetica-Light,Helvetica" font-size="24.0" fill="#000000" transform="matrix(1.00, 0.00, -0.00, -1.00, 318.0, 47.7)">j</text><text xml:space="preserve" font-family="Helvetica-Light,Helvetica" font-size="24.0" fill="#000000" transform="matrix(1.00, 0.00, -0.00, -1.00, 323.3, 47.7)">s</text></g></g></g></svg>