<?xml version="1.0" encoding="UTF-8" standalone="no"?><svg xmlns="http://www.w3.org/2000/svg" xmlns:xlink="http://www.w3.org/1999/xlink" clip-rule="evenodd" stroke-miterlimit="10" viewBox="0 0 548 410"><desc>SVG generated by Keynote</desc><defs><pattern id="EE00C4AC-9493-4589-A5F3-A8E0013E6434" patternUnits="userSpaceOnUse" width="600" height="600" viewBox="0 0 600 600"><image xlink:href="../../58FC0062-152D-4CC5-84DA-0DFAC1FE8D74/assets/C3C0FC898C94653CAF8AD846D6CCD108.png" width="600.00" height="600.00"></image></pattern></defs><g transform="matrix(1.00, 0.00, -0.00, -1.00, 0.0, 410.0)"><g><clipPath id="clip0x7f8e1b9e8df0"><path d="M 0.3 0.4 L 547.7 0.4 L 547.7 409.4 L 0.3 409.4 Z M 0.3 0.4 "></path></clipPath><g clip-path="url(#clip0x7f8e1b9e8df0)"><image xlink:href="../../C2610D4D-DD83-4AA0-B364-28C6E3E78F40/assets/E67C2483E5BD084A726EC1898C8F6402.png" width="545.00" height="407.00" transform="matrix(1.00, 0.00, -0.00, -1.00, 1.3, 408.4)" opacity="0.50"></image><path d="M 4.0 404.0 L 542.0 404.0 L 542.0 5.0 L 4.0 5.0 Z M 4.3 404.4 " fill="#A6AAA8"></path></g></g><g><clipPath id="clip0x7f8e171417d0"><path d="M 8.9 9.6 L 134.4 9.6 L 134.4 396.1 L 8.9 396.1 Z M 8.9 9.6 "></path></clipPath><g clip-path="url(#clip0x7f8e171417d0)"><image xlink:href="../../C2610D4D-DD83-4AA0-B364-28C6E3E78F40/assets/52FA48C576E3CA097CDC252C451ECFFB.png" width="124.00" height="384.00" transform="matrix(1.00, 0.00, -0.00, -1.00, 9.9, 395.1)" opacity="0.50"></image><path d="M 12.9 34.8 L 13.0 375.0 C 13.0 385.5 21.5 394.0 32.1 394.0 L 111.3 394.0 C 121.9 394.0 130.0 385.5 130.0 375.0 L 130.0 34.8 C 130.0 24.2 121.9 16.0 111.3 16.0 L 32.1 16.0 C 21.5 16.0 12.9 24.2 12.9 34.8 Z M 12.9 34.8 " fill="#5FC3FF"></path></g></g><g><clipPath id="clip0x7f8e1b9ebc80"><path d="M 28.7 19.4 L 121.5 19.4 L 121.5 79.9 L 28.7 79.9 Z M 28.7 19.4 "></path></clipPath><g clip-path="url(#clip0x7f8e1b9ebc80)"><text xml:space="preserve" font-family="Helvetica-Light,Helvetica" font-size="21.0" fill="#000000" transform="matrix(1.00, 0.00, -0.00, -1.00, 35.5, 54.5)">D</text><text xml:space="preserve" font-family="Helvetica-Light,Helvetica" font-size="21.0" fill="#000000" transform="matrix(1.00, 0.00, -0.00, -1.00, 50.7, 54.5)">o</text><text xml:space="preserve" font-family="Helvetica-Light,Helvetica" font-size="21.0" fill="#000000" transform="matrix(1.00, 0.00, -0.00, -1.00, 62.3, 54.5)">m</text><text xml:space="preserve" font-family="Helvetica-Light,Helvetica" font-size="21.0" fill="#000000" transform="matrix(1.00, 0.00, -0.00, -1.00, 79.8, 54.5)">a</text><text xml:space="preserve" font-family="Helvetica-Light,Helvetica" font-size="21.0" fill="#000000" transform="matrix(1.00, 0.00, -0.00, -1.00, 91.5, 54.5)">i</text><text xml:space="preserve" font-family="Helvetica-Light,Helvetica" font-size="21.0" fill="#000000" transform="matrix(1.00, 0.00, -0.00, -1.00, 96.2, 54.5)">n</text><text xml:space="preserve" font-family="LucidaGrande,Lucida Grande" font-size="21.0" fill="#000000" transform="matrix(1.00, 0.00, -0.00, -1.00, 107.8, 54.5)"> </text><text xml:space="preserve" font-family="Helvetica-Light,Helvetica" font-size="21.0" fill="#000000" transform="matrix(1.00, 0.00, -0.00, -1.00, 37.3, 29.5)">M</text><text xml:space="preserve" font-family="Helvetica-Light,Helvetica" font-size="21.0" fill="#000000" transform="matrix(1.00, 0.00, -0.00, -1.00, 54.7, 29.5)">o</text><text xml:space="preserve" font-family="Helvetica-Light,Helvetica" font-size="21.0" fill="#000000" transform="matrix(1.00, 0.00, -0.00, -1.00, 66.4, 29.5)">d</text><text xml:space="preserve" font-family="Helvetica-Light,Helvetica" font-size="21.0" fill="#000000" transform="matrix(1.00, 0.00, -0.00, -1.00, 79.3, 29.5)">e</text><text xml:space="preserve" font-family="Helvetica-Light,Helvetica" font-size="21.0" fill="#000000" transform="matrix(1.00, 0.00, -0.00, -1.00, 90.9, 29.5)">l</text><text xml:space="preserve" font-family="Helvetica-Light,Helvetica" font-size="21.0" fill="#000000" transform="matrix(1.00, 0.00, -0.00, -1.00, 95.6, 29.5)">s</text></g></g><g><clipPath id="clip0x7f8e1b9f3920"><path d="M 136.6 10.0 L 534.6 10.0 L 534.6 136.5 L 136.6 136.5 Z M 136.6 10.0 "></path></clipPath><g clip-path="url(#clip0x7f8e1b9f3920)"><image xlink:href="../../C2610D4D-DD83-4AA0-B364-28C6E3E78F40/assets/1C20A22E622FF4D0A7A6D9E8461DF17D.png" width="396.00" height="125.00" transform="matrix(1.00, 0.00, -0.00, -1.00, 137.6, 135.5)" opacity="0.50"></image><path d="M 140.6 35.1 L 141.0 115.4 C 141.0 126.0 149.2 135.0 159.8 135.0 L 511.5 135.0 C 522.1 135.0 531.0 126.0 531.0 115.4 L 531.0 35.1 C 531.0 24.6 522.1 16.0 511.5 16.0 L 159.8 16.0 C 149.2 16.0 140.6 24.6 140.6 35.1 Z M 140.6 35.1 " fill="#5FC3FF"></path></g></g><g><clipPath id="clip0x7f8e1b9f5c00"><path d="M 235.6 22.4 L 435.7 22.4 L 435.7 46.4 L 235.6 46.4 Z M 235.6 22.4 "></path></clipPath><g clip-path="url(#clip0x7f8e1b9f5c00)"><text xml:space="preserve" font-family="Helvetica-Light,Helvetica" font-size="21.0" fill="#000000" transform="matrix(1.00, 0.00, -0.00, -1.00, 246.3, 26.2)">D</text><text xml:space="preserve" font-family="Helvetica-Light,Helvetica" font-size="21.0" fill="#000000" transform="matrix(1.00, 0.00, -0.00, -1.00, 261.5, 26.2)">a</text><text xml:space="preserve" font-family="Helvetica-Light,Helvetica" font-size="21.0" fill="#000000" transform="matrix(1.00, 0.00, -0.00, -1.00, 273.2, 26.2)">t</text><text xml:space="preserve" font-family="Helvetica-Light,Helvetica" font-size="21.0" fill="#000000" transform="matrix(1.00, 0.00, -0.00, -1.00, 279.0, 26.2)">a</text><text xml:space="preserve" font-family="Helvetica-Light,Helvetica" font-size="21.0" fill="#000000" transform="matrix(1.00, 0.00, -0.00, -1.00, 290.7, 26.2)"> </text><text xml:space="preserve" font-family="Helvetica-Light,Helvetica" font-size="21.0" fill="#000000" transform="matrix(1.00, 0.00, -0.00, -1.00, 296.5, 26.2)">A</text><text xml:space="preserve" font-family="Helvetica-Light,Helvetica" font-size="21.0" fill="#000000" transform="matrix(1.00, 0.00, -0.00, -1.00, 310.5, 26.2)">c</text><text xml:space="preserve" font-family="Helvetica-Light,Helvetica" font-size="21.0" fill="#000000" transform="matrix(1.00, 0.00, -0.00, -1.00, 322.2, 26.2)">c</text><text xml:space="preserve" font-family="Helvetica-Light,Helvetica" font-size="21.0" fill="#000000" transform="matrix(1.00, 0.00, -0.00, -1.00, 333.9, 26.2)">e</text><text xml:space="preserve" font-family="Helvetica-Light,Helvetica" font-size="21.0" fill="#000000" transform="matrix(1.00, 0.00, -0.00, -1.00, 345.6, 26.2)">s</text><text xml:space="preserve" font-family="Helvetica-Light,Helvetica" font-size="21.0" fill="#000000" transform="matrix(1.00, 0.00, -0.00, -1.00, 356.1, 26.2)">s</text><text xml:space="preserve" font-family="Helvetica-Light,Helvetica" font-size="21.0" fill="#000000" transform="matrix(1.00, 0.00, -0.00, -1.00, 366.6, 26.2)"> </text><text xml:space="preserve" font-family="Helvetica-Light,Helvetica" font-size="21.0" fill="#000000" transform="matrix(1.00, 0.00, -0.00, -1.00, 372.4, 26.2)">L</text><text xml:space="preserve" font-family="Helvetica-Light,Helvetica" font-size="21.0" fill="#000000" transform="matrix(1.00, 0.00, -0.00, -1.00, 384.1, 26.2)">a</text><text xml:space="preserve" font-family="Helvetica-Light,Helvetica" font-size="21.0" fill="#000000" transform="matrix(1.00, 0.00, -0.00, -1.00, 395.8, 26.2)">y</text><text xml:space="preserve" font-family="Helvetica-Light,Helvetica" font-size="21.0" fill="#000000" transform="matrix(1.00, 0.00, -0.00, -1.00, 406.3, 26.2)">e</text><text xml:space="preserve" font-family="Helvetica-Light,Helvetica" font-size="21.0" fill="#000000" transform="matrix(1.00, 0.00, -0.00, -1.00, 417.9, 26.2)">r</text></g></g><g><clipPath id="clip0x7f8e1bd00fd0"><path d="M 136.6 139.6 L 534.6 139.6 L 534.6 266.1 L 136.6 266.1 Z M 136.6 139.6 "></path></clipPath><g clip-path="url(#clip0x7f8e1bd00fd0)"><image xlink:href="../../C2610D4D-DD83-4AA0-B364-28C6E3E78F40/assets/BF49F87A585A2A5E7011EC8B25375A74.png" width="396.00" height="125.00" transform="matrix(1.00, 0.00, -0.00, -1.00, 137.6, 265.1)" opacity="0.50"></image><path d="M 140.6 164.7 L 141.0 245.0 C 141.0 255.6 149.2 264.0 159.8 264.0 L 511.5 264.0 C 522.1 264.0 531.0 255.6 531.0 245.0 L 531.0 164.7 C 531.0 154.2 522.1 146.0 511.5 146.0 L 159.8 146.0 C 149.2 146.0 140.6 154.2 140.6 164.7 Z M 140.6 164.7 " fill="#5FC3FF"></path></g></g><g><clipPath id="clip0x7f8e1bae17e0"><path d="M 136.6 269.2 L 534.6 269.2 L 534.6 395.7 L 136.6 395.7 Z M 136.6 269.2 "></path></clipPath><g clip-path="url(#clip0x7f8e1bae17e0)"><image xlink:href="../../C2610D4D-DD83-4AA0-B364-28C6E3E78F40/assets/1F2843F4F5CC9C38F18E32B3A71DC1E0.png" width="396.00" height="125.00" transform="matrix(1.00, 0.00, -0.00, -1.00, 137.6, 394.7)" opacity="0.50"></image><path d="M 140.6 294.3 L 141.0 374.6 C 141.0 385.1 149.2 394.0 159.8 394.0 L 511.5 394.0 C 522.1 394.0 531.0 385.1 531.0 374.6 L 531.0 294.3 C 531.0 283.8 522.1 275.0 511.5 275.0 L 159.8 275.0 C 149.2 275.0 140.6 283.8 140.6 294.3 Z M 140.6 294.3 " fill="#5FC3FF"></path></g></g><g><clipPath id="clip0x7f8e1b5e1170"><path d="M 262.6 149.6 L 408.7 149.6 L 408.7 173.6 L 262.6 173.6 Z M 262.6 149.6 "></path></clipPath><g clip-path="url(#clip0x7f8e1b5e1170)"><text xml:space="preserve" font-family="Helvetica-Light,Helvetica" font-size="21.0" fill="#000000" transform="matrix(1.00, 0.00, -0.00, -1.00, 271.4, 153.4)">S</text><text xml:space="preserve" font-family="Helvetica-Light,Helvetica" font-size="21.0" fill="#000000" transform="matrix(1.00, 0.00, -0.00, -1.00, 284.3, 153.4)">e</text><text xml:space="preserve" font-family="Helvetica-Light,Helvetica" font-size="21.0" fill="#000000" transform="matrix(1.00, 0.00, -0.00, -1.00, 296.0, 153.4)">r</text><text xml:space="preserve" font-family="Helvetica-Light,Helvetica" font-size="21.0" fill="#000000" transform="matrix(1.00, 0.00, -0.00, -1.00, 302.9, 153.4)">v</text><text xml:space="preserve" font-family="Helvetica-Light,Helvetica" font-size="21.0" fill="#000000" transform="matrix(1.00, 0.00, -0.00, -1.00, 313.4, 153.4)">i</text><text xml:space="preserve" font-family="Helvetica-Light,Helvetica" font-size="21.0" fill="#000000" transform="matrix(1.00, 0.00, -0.00, -1.00, 318.1, 153.4)">c</text><text xml:space="preserve" font-family="Helvetica-Light,Helvetica" font-size="21.0" fill="#000000" transform="matrix(1.00, 0.00, -0.00, -1.00, 329.8, 153.4)">e</text><text xml:space="preserve" font-family="Helvetica-Light,Helvetica" font-size="21.0" fill="#000000" transform="matrix(1.00, 0.00, -0.00, -1.00, 341.5, 153.4)"> </text><text xml:space="preserve" font-family="Helvetica-Light,Helvetica" font-size="21.0" fill="#000000" transform="matrix(1.00, 0.00, -0.00, -1.00, 347.3, 153.4)">L</text><text xml:space="preserve" font-family="Helvetica-Light,Helvetica" font-size="21.0" fill="#000000" transform="matrix(1.00, 0.00, -0.00, -1.00, 359.0, 153.4)">a</text><text xml:space="preserve" font-family="Helvetica-Light,Helvetica" font-size="21.0" fill="#000000" transform="matrix(1.00, 0.00, -0.00, -1.00, 370.7, 153.4)">y</text><text xml:space="preserve" font-family="Helvetica-Light,Helvetica" font-size="21.0" fill="#000000" transform="matrix(1.00, 0.00, -0.00, -1.00, 381.2, 153.4)">e</text><text xml:space="preserve" font-family="Helvetica-Light,Helvetica" font-size="21.0" fill="#000000" transform="matrix(1.00, 0.00, -0.00, -1.00, 392.8, 153.4)">r</text></g></g><g><clipPath id="clip0x7f8e1b70da60"><path d="M 269.0 287.2 L 402.2 287.2 L 402.2 311.2 L 269.0 311.2 Z M 269.0 287.2 "></path></clipPath><g clip-path="url(#clip0x7f8e1b70da60)"><text xml:space="preserve" font-family="Helvetica-Light,Helvetica" font-size="21.0" fill="#000000" transform="matrix(1.00, 0.00, -0.00, -1.00, 277.5, 291.1)">P</text><text xml:space="preserve" font-family="Helvetica-Light,Helvetica" font-size="21.0" fill="#000000" transform="matrix(1.00, 0.00, -0.00, -1.00, 290.3, 291.1)">r</text><text xml:space="preserve" font-family="Helvetica-Light,Helvetica" font-size="21.0" fill="#000000" transform="matrix(1.00, 0.00, -0.00, -1.00, 296.9, 291.1)">e</text><text xml:space="preserve" font-family="Helvetica-Light,Helvetica" font-size="21.0" fill="#000000" transform="matrix(1.00, 0.00, -0.00, -1.00, 308.6, 291.1)">s</text><text xml:space="preserve" font-family="Helvetica-Light,Helvetica" font-size="21.0" fill="#000000" transform="matrix(1.00, 0.00, -0.00, -1.00, 319.1, 291.1)">e</text><text xml:space="preserve" font-family="Helvetica-Light,Helvetica" font-size="21.0" fill="#000000" transform="matrix(1.00, 0.00, -0.00, -1.00, 330.8, 291.1)">n</text><text xml:space="preserve" font-family="Helvetica-Light,Helvetica" font-size="21.0" fill="#000000" transform="matrix(1.00, 0.00, -0.00, -1.00, 342.4, 291.1)">t</text><text xml:space="preserve" font-family="Helvetica-Light,Helvetica" font-size="21.0" fill="#000000" transform="matrix(1.00, 0.00, -0.00, -1.00, 348.3, 291.1)">a</text><text xml:space="preserve" font-family="Helvetica-Light,Helvetica" font-size="21.0" fill="#000000" transform="matrix(1.00, 0.00, -0.00, -1.00, 360.0, 291.1)">t</text><text xml:space="preserve" font-family="Helvetica-Light,Helvetica" font-size="21.0" fill="#000000" transform="matrix(1.00, 0.00, -0.00, -1.00, 365.8, 291.1)">i</text><text xml:space="preserve" font-family="Helvetica-Light,Helvetica" font-size="21.0" fill="#000000" transform="matrix(1.00, 0.00, -0.00, -1.00, 370.5, 291.1)">o</text><text xml:space="preserve" font-family="Helvetica-Light,Helvetica" font-size="21.0" fill="#000000" transform="matrix(1.00, 0.00, -0.00, -1.00, 382.1, 291.1)">n</text></g></g><g><clipPath id="clip0x7f8e1b714510"><path d="M 148.3 314.3 L 522.9 314.3 L 522.9 389.3 L 148.3 389.3 Z M 148.3 314.3 "></path></clipPath><g clip-path="url(#clip0x7f8e1b714510)"><image xlink:href="../../C2610D4D-DD83-4AA0-B364-28C6E3E78F40/assets/36B52A5C7CBC1B970FF2A7FBAC139D48.png" width="373.00" height="73.00" transform="matrix(1.00, 0.00, -0.00, -1.00, 149.3, 388.3)" opacity="0.50"></image></g></g><g><clipPath id="clip0x7f8e1b6e19f0"><path d="M 152.3 329.7 L 152.0 377.9 C 152.0 383.1 156.6 387.0 161.8 387.0 L 509.5 387.0 C 514.7 387.0 519.0 383.1 519.0 377.9 L 519.0 329.7 C 519.0 324.5 514.7 320.0 509.5 320.0 L 161.8 320.0 C 156.6 320.0 152.3 324.5 152.3 329.7 Z M 152.3 329.7 "></path></clipPath><g clip-path="url(#clip0x7f8e1b6e19f0)"><g><clipPath id="clip0x7f8e1bc01960"><path d="M 148.3 314.3 L 522.9 314.3 L 522.9 389.3 L 148.3 389.3 Z M 148.3 314.3 "></path></clipPath><g clip-path="url(#clip0x7f8e1bc01960)"><path d="M 152.0 320.0 L 519.0 320.0 L 519.0 387.0 L 152.0 387.0 Z M 152.0 320.0 " fill="url(#EE00C4AC-9493-4589-A5F3-A8E0013E6434)"></path></g></g></g></g><g><clipPath id="clip0x7f8e1bc05b20"><path d="M 158.5 325.5 L 258.7 325.5 L 258.7 343.5 L 158.5 343.5 Z M 158.5 325.5 "></path></clipPath><g clip-path="url(#clip0x7f8e1bc05b20)"><text xml:space="preserve" font-family="Helvetica-Light,Helvetica" font-size="16.0" fill="#FEFFFE" transform="matrix(1.00, 0.00, -0.00, -1.00, 165.5, 328.2)">S</text><text xml:space="preserve" font-family="Helvetica-Light,Helvetica" font-size="16.0" fill="#FEFFFE" transform="matrix(1.00, 0.00, -0.00, -1.00, 175.2, 328.2)">p</text><text xml:space="preserve" font-family="Helvetica-Light,Helvetica" font-size="16.0" fill="#FEFFFE" transform="matrix(1.00, 0.00, -0.00, -1.00, 185.0, 328.2)">r</text><text xml:space="preserve" font-family="Helvetica-Light,Helvetica" font-size="16.0" fill="#FEFFFE" transform="matrix(1.00, 0.00, -0.00, -1.00, 190.4, 328.2)">i</text><text xml:space="preserve" font-family="Helvetica-Light,Helvetica" font-size="16.0" fill="#FEFFFE" transform="matrix(1.00, 0.00, -0.00, -1.00, 193.9, 328.2)">n</text><text xml:space="preserve" font-family="Helvetica-Light,Helvetica" font-size="16.0" fill="#FEFFFE" transform="matrix(1.00, 0.00, -0.00, -1.00, 202.8, 328.2)">g</text><text xml:space="preserve" font-family="Helvetica-Light,Helvetica" font-size="16.0" fill="#FEFFFE" transform="matrix(1.00, 0.00, -0.00, -1.00, 212.6, 328.2)"> </text><text xml:space="preserve" font-family="Helvetica-Light,Helvetica" font-size="16.0" fill="#FEFFFE" transform="matrix(1.00, 0.00, -0.00, -1.00, 217.0, 328.2)">M</text><text xml:space="preserve" font-family="Helvetica-Light,Helvetica" font-size="16.0" fill="#FEFFFE" transform="matrix(1.00, 0.00, -0.00, -1.00, 230.4, 328.2)">V</text><text xml:space="preserve" font-family="Helvetica-Light,Helvetica" font-size="16.0" fill="#FEFFFE" transform="matrix(1.00, 0.00, -0.00, -1.00, 240.1, 328.2)">C</text></g></g><g><clipPath id="clip0x7f8e1bc0a4f0"><path d="M 274.3 321.4 L 390.6 321.4 L 390.6 386.3 L 274.3 386.3 Z M 274.3 321.4 "></path></clipPath><g clip-path="url(#clip0x7f8e1bc0a4f0)"><image xlink:href="../../C2610D4D-DD83-4AA0-B364-28C6E3E78F40/assets/14209E50A6BA29F6FA6C44080187154C.png" width="114.00" height="63.00" transform="matrix(1.00, 0.00, -0.00, -1.00, 275.3, 385.3)" opacity="0.50"></image><path d="M 278.3 335.8 L 278.0 371.9 C 278.0 377.1 282.5 381.0 287.7 381.0 L 375.2 381.0 C 380.4 381.0 385.0 377.1 385.0 371.9 L 385.0 335.8 C 385.0 330.6 380.4 326.0 375.2 326.0 L 287.7 326.0 C 282.5 326.0 278.3 330.6 278.3 335.8 Z M 278.3 335.8 " fill="#9FD3F1"></path></g></g><g><clipPath id="clip0x7f8e1bd03200"><path d="M 287.9 341.3 L 375.0 341.3 L 375.0 366.4 L 287.9 366.4 Z M 287.9 341.3 "></path></clipPath><g clip-path="url(#clip0x7f8e1bd03200)"><text xml:space="preserve" font-family="Helvetica-Light,Helvetica" font-size="12.0" fill="#000000" transform="matrix(1.00, 0.00, -0.00, -1.00, 302.6, 349.1)">C</text><text xml:space="preserve" font-family="Helvetica-Light,Helvetica" font-size="12.0" fill="#000000" transform="matrix(1.00, 0.00, -0.00, -1.00, 311.2, 349.1)">o</text><text xml:space="preserve" font-family="Helvetica-Light,Helvetica" font-size="12.0" fill="#000000" transform="matrix(1.00, 0.00, -0.00, -1.00, 317.9, 349.1)">n</text><text xml:space="preserve" font-family="Helvetica-Light,Helvetica" font-size="12.0" fill="#000000" transform="matrix(1.00, 0.00, -0.00, -1.00, 324.6, 349.1)">t</text><text xml:space="preserve" font-family="Helvetica-Light,Helvetica" font-size="12.0" fill="#000000" transform="matrix(1.00, 0.00, -0.00, -1.00, 327.9, 349.1)">r</text><text xml:space="preserve" font-family="Helvetica-Light,Helvetica" font-size="12.0" fill="#000000" transform="matrix(1.00, 0.00, -0.00, -1.00, 331.7, 349.1)">o</text><text xml:space="preserve" font-family="Helvetica-Light,Helvetica" font-size="12.0" fill="#000000" transform="matrix(1.00, 0.00, -0.00, -1.00, 338.4, 349.1)">l</text><text xml:space="preserve" font-family="Helvetica-Light,Helvetica" font-size="12.0" fill="#000000" transform="matrix(1.00, 0.00, -0.00, -1.00, 341.0, 349.1)">l</text><text xml:space="preserve" font-family="Helvetica-Light,Helvetica" font-size="12.0" fill="#000000" transform="matrix(1.00, 0.00, -0.00, -1.00, 343.7, 349.1)">e</text><text xml:space="preserve" font-family="Helvetica-Light,Helvetica" font-size="12.0" fill="#000000" transform="matrix(1.00, 0.00, -0.00, -1.00, 350.4, 349.1)">r</text><text xml:space="preserve" font-family="Helvetica-Light,Helvetica" font-size="12.0" fill="#000000" transform="matrix(1.00, 0.00, -0.00, -1.00, 354.3, 349.1)">s</text></g></g></g></svg>