<?xml version="1.0" encoding="UTF-8" standalone="no"?><svg xmlns="http://www.w3.org/2000/svg" xmlns:xlink="http://www.w3.org/1999/xlink" clip-rule="evenodd" stroke-miterlimit="10" viewBox="0 0 1024 768"><desc>SVG generated by Keynote</desc><defs><linearGradient id="gradSh1.15" x1="0.0" y1="0.0" x2="100.0" y2="0.0" gradientUnits="userSpaceOnUse" gradientTransform="matrix(11.03, -6.36, -5.89, -10.22, -39.6, 702.1)"><stop offset="0.00000" stop-color="#FFFFFF"></stop><stop offset="0.00587" stop-color="#FEFFFE"></stop><stop offset="1.00000" stop-color="#A6AAA9"></stop></linearGradient><pattern id="FC57DCA8-C922-420B-A089-815B4054D9C8" patternUnits="userSpaceOnUse" width="600" height="600" viewBox="0 0 600 600"><image xlink:href="../../58FC0062-152D-4CC5-84DA-0DFAC1FE8D74/assets/C3C0FC898C94653CAF8AD846D6CCD108.png" width="600.00" height="600.00"></image></pattern></defs><g transform="matrix(1.00, 0.00, -0.00, -1.00, 0.0, 768.0)"><g><clipPath id="clip0x7f8e1bd5fe30"><path d="M 0.0 768.0 L 1024.0 768.0 L 1024.0 0.0 L 0.0 0.0 Z M 0.0 768.0 "></path></clipPath><g clip-path="url(#clip0x7f8e1bd5fe30)"><path d="M 0.0 768.0 L 1024.0 768.0 L 1024.0 0.0 L 0.0 0.0 Z M 0.0 768.0 " fill="url(#gradSh1.15)"></path></g></g><g><clipPath id="clip0x7f8e1be34540"><path d="M 960.0 65.0 L 1016.0 65.0 L 1016.0 9.0 L 960.0 9.0 Z M 960.0 65.0 "></path></clipPath><g clip-path="url(#clip0x7f8e1be34540)"><g><clipPath id="clip0x7f8e1be34ce0"><path d="M 960.0 9.0 L 1016.0 9.0 L 1016.0 65.0 L 960.0 65.0 Z M 960.0 9.0 "></path></clipPath><g clip-path="url(#clip0x7f8e1be34ce0)"><path d="M 1016.0 37.0 C 1016.0 52.5 1003.5 65.0 988.0 65.0 C 972.5 65.0 960.0 52.5 960.0 37.0 C 960.0 21.5 972.5 9.0 988.0 9.0 C 1003.5 9.0 1016.0 21.5 1016.0 37.0 " fill="#526466"></path><path d="M 979.5 30.7 C 979.1 30.7 978.7 30.9 978.5 31.2 L 972.6 39.5 L 972.6 31.9 C 972.6 31.2 972.1 30.7 971.4 30.7 C 970.8 30.7 970.3 31.2 970.3 31.9 L 970.3 43.2 C 970.3 43.7 970.6 44.1 971.1 44.3 C 971.6 44.4 972.1 44.3 972.4 43.8 L 978.3 35.5 L 978.3 43.2 C 978.3 43.8 978.8 44.3 979.5 44.3 C 980.1 44.3 980.6 43.8 980.6 43.2 L 980.6 31.9 C 980.6 31.4 980.3 30.9 979.8 30.8 C 979.7 30.7 979.6 30.7 979.5 30.7 " fill="#FFFFFF"></path><path d="M 1003.9 41.2 C 1002.8 42.0 1001.5 42.4 1000.1 42.3 C 999.1 42.2 997.7 41.7 997.7 40.7 C 997.7 39.8 998.5 39.5 999.3 39.2 C 1000.4 38.8 1001.6 38.7 1002.7 38.3 C 1004.6 37.7 1006.3 36.2 1006.1 34.1 C 1005.8 31.7 1003.3 30.7 1001.2 30.5 C 999.2 30.4 996.9 31.2 995.5 32.6 C 994.8 33.2 995.1 34.3 996.0 34.4 C 996.5 34.4 996.7 34.2 997.1 33.9 C 997.6 33.6 998.1 33.4 998.6 33.1 C 999.7 32.7 1000.9 32.6 1002.1 32.9 C 1002.9 33.2 1004.1 33.9 1003.7 34.9 C 1003.3 35.8 1001.8 36.2 1000.9 36.4 C 999.7 36.6 998.4 36.8 997.4 37.5 C 995.7 38.4 994.9 40.3 995.7 42.1 C 996.7 44.3 999.7 44.8 1001.9 44.4 C 1003.0 44.2 1004.2 43.7 1005.1 42.9 C 1006.0 42.1 1005.0 40.5 1003.9 41.2 " fill="#FFFFFF"></path><path d="M 988.0 23.5 C 987.6 23.5 987.3 23.8 987.3 24.2 L 987.3 49.8 C 987.3 50.2 987.6 50.5 988.0 50.5 C 988.4 50.5 988.7 50.2 988.7 49.8 L 988.7 24.2 C 988.7 23.8 988.4 23.5 988.0 23.5 " fill="#FFFFFF"></path></g></g></g></g><g><clipPath id="clip0x7f8e1be37ca0"><path d="M 239.3 7.4 L 786.7 7.4 L 786.7 416.4 L 239.3 416.4 Z M 239.3 7.4 "></path></clipPath><g clip-path="url(#clip0x7f8e1be37ca0)"><image xlink:href="../../C2610D4D-DD83-4AA0-B364-28C6E3E78F40/assets/E67C2483E5BD084A726EC1898C8F6402.png" width="545.00" height="407.00" transform="matrix(1.00, 0.00, -0.00, -1.00, 240.3, 415.4)" opacity="0.50"></image><path d="M 243.0 411.0 L 781.0 411.0 L 781.0 12.0 L 243.0 12.0 Z M 243.3 411.4 " fill="#A6AAA8"></path></g></g><g><clipPath id="clip0x7f8e1bb2f0c0"><path d="M 247.9 16.6 L 373.4 16.6 L 373.4 403.1 L 247.9 403.1 Z M 247.9 16.6 "></path></clipPath><g clip-path="url(#clip0x7f8e1bb2f0c0)"><image xlink:href="../../C2610D4D-DD83-4AA0-B364-28C6E3E78F40/assets/52FA48C576E3CA097CDC252C451ECFFB.png" width="124.00" height="384.00" transform="matrix(1.00, 0.00, -0.00, -1.00, 248.9, 402.1)" opacity="0.50"></image><path d="M 251.9 41.8 L 252.0 382.0 C 252.0 392.5 260.5 401.0 271.1 401.0 L 350.3 401.0 C 360.9 401.0 369.0 392.5 369.0 382.0 L 369.0 41.8 C 369.0 31.2 360.9 23.0 350.3 23.0 L 271.1 23.0 C 260.5 23.0 251.9 31.2 251.9 41.8 Z M 251.9 41.8 " fill="#5FC3FF"></path></g></g><g><clipPath id="clip0x7f8e1bb25b30"><path d="M 267.7 26.4 L 360.5 26.4 L 360.5 86.9 L 267.7 86.9 Z M 267.7 26.4 "></path></clipPath><g clip-path="url(#clip0x7f8e1bb25b30)"><text xml:space="preserve" font-family="Helvetica-Light,Helvetica" font-size="21.0" fill="#000000" transform="matrix(1.00, 0.00, -0.00, -1.00, 274.5, 61.5)">D</text><text xml:space="preserve" font-family="Helvetica-Light,Helvetica" font-size="21.0" fill="#000000" transform="matrix(1.00, 0.00, -0.00, -1.00, 289.7, 61.5)">o</text><text xml:space="preserve" font-family="Helvetica-Light,Helvetica" font-size="21.0" fill="#000000" transform="matrix(1.00, 0.00, -0.00, -1.00, 301.3, 61.5)">m</text><text xml:space="preserve" font-family="Helvetica-Light,Helvetica" font-size="21.0" fill="#000000" transform="matrix(1.00, 0.00, -0.00, -1.00, 318.8, 61.5)">a</text><text xml:space="preserve" font-family="Helvetica-Light,Helvetica" font-size="21.0" fill="#000000" transform="matrix(1.00, 0.00, -0.00, -1.00, 330.5, 61.5)">i</text><text xml:space="preserve" font-family="Helvetica-Light,Helvetica" font-size="21.0" fill="#000000" transform="matrix(1.00, 0.00, -0.00, -1.00, 335.2, 61.5)">n</text><text xml:space="preserve" font-family="LucidaGrande,Lucida Grande" font-size="21.0" fill="#000000" transform="matrix(1.00, 0.00, -0.00, -1.00, 346.8, 61.5)"> </text><text xml:space="preserve" font-family="Helvetica-Light,Helvetica" font-size="21.0" fill="#000000" transform="matrix(1.00, 0.00, -0.00, -1.00, 276.3, 36.5)">M</text><text xml:space="preserve" font-family="Helvetica-Light,Helvetica" font-size="21.0" fill="#000000" transform="matrix(1.00, 0.00, -0.00, -1.00, 293.7, 36.5)">o</text><text xml:space="preserve" font-family="Helvetica-Light,Helvetica" font-size="21.0" fill="#000000" transform="matrix(1.00, 0.00, -0.00, -1.00, 305.4, 36.5)">d</text><text xml:space="preserve" font-family="Helvetica-Light,Helvetica" font-size="21.0" fill="#000000" transform="matrix(1.00, 0.00, -0.00, -1.00, 318.3, 36.5)">e</text><text xml:space="preserve" font-family="Helvetica-Light,Helvetica" font-size="21.0" fill="#000000" transform="matrix(1.00, 0.00, -0.00, -1.00, 329.9, 36.5)">l</text><text xml:space="preserve" font-family="Helvetica-Light,Helvetica" font-size="21.0" fill="#000000" transform="matrix(1.00, 0.00, -0.00, -1.00, 334.6, 36.5)">s</text></g></g><g><clipPath id="clip0x7f8e1bb2cff0"><path d="M 375.6 17.0 L 773.6 17.0 L 773.6 143.5 L 375.6 143.5 Z M 375.6 17.0 "></path></clipPath><g clip-path="url(#clip0x7f8e1bb2cff0)"><image xlink:href="../../C2610D4D-DD83-4AA0-B364-28C6E3E78F40/assets/1C20A22E622FF4D0A7A6D9E8461DF17D.png" width="396.00" height="125.00" transform="matrix(1.00, 0.00, -0.00, -1.00, 376.6, 142.5)" opacity="0.50"></image><path d="M 379.6 42.1 L 380.0 122.4 C 380.0 133.0 388.2 142.0 398.8 142.0 L 750.5 142.0 C 761.1 142.0 770.0 133.0 770.0 122.4 L 770.0 42.1 C 770.0 31.6 761.1 23.0 750.5 23.0 L 398.8 23.0 C 388.2 23.0 379.6 31.6 379.6 42.1 Z M 379.6 42.1 " fill="#5FC3FF"></path></g></g><g><clipPath id="clip0x7f8e1bb34190"><path d="M 474.6 29.4 L 674.7 29.4 L 674.7 53.4 L 474.6 53.4 Z M 474.6 29.4 "></path></clipPath><g clip-path="url(#clip0x7f8e1bb34190)"><text xml:space="preserve" font-family="Helvetica-Light,Helvetica" font-size="21.0" fill="#000000" transform="matrix(1.00, 0.00, -0.00, -1.00, 485.3, 33.2)">D</text><text xml:space="preserve" font-family="Helvetica-Light,Helvetica" font-size="21.0" fill="#000000" transform="matrix(1.00, 0.00, -0.00, -1.00, 500.5, 33.2)">a</text><text xml:space="preserve" font-family="Helvetica-Light,Helvetica" font-size="21.0" fill="#000000" transform="matrix(1.00, 0.00, -0.00, -1.00, 512.2, 33.2)">t</text><text xml:space="preserve" font-family="Helvetica-Light,Helvetica" font-size="21.0" fill="#000000" transform="matrix(1.00, 0.00, -0.00, -1.00, 518.0, 33.2)">a</text><text xml:space="preserve" font-family="Helvetica-Light,Helvetica" font-size="21.0" fill="#000000" transform="matrix(1.00, 0.00, -0.00, -1.00, 529.7, 33.2)"> </text><text xml:space="preserve" font-family="Helvetica-Light,Helvetica" font-size="21.0" fill="#000000" transform="matrix(1.00, 0.00, -0.00, -1.00, 535.5, 33.2)">A</text><text xml:space="preserve" font-family="Helvetica-Light,Helvetica" font-size="21.0" fill="#000000" transform="matrix(1.00, 0.00, -0.00, -1.00, 549.5, 33.2)">c</text><text xml:space="preserve" font-family="Helvetica-Light,Helvetica" font-size="21.0" fill="#000000" transform="matrix(1.00, 0.00, -0.00, -1.00, 561.2, 33.2)">c</text><text xml:space="preserve" font-family="Helvetica-Light,Helvetica" font-size="21.0" fill="#000000" transform="matrix(1.00, 0.00, -0.00, -1.00, 572.9, 33.2)">e</text><text xml:space="preserve" font-family="Helvetica-Light,Helvetica" font-size="21.0" fill="#000000" transform="matrix(1.00, 0.00, -0.00, -1.00, 584.6, 33.2)">s</text><text xml:space="preserve" font-family="Helvetica-Light,Helvetica" font-size="21.0" fill="#000000" transform="matrix(1.00, 0.00, -0.00, -1.00, 595.1, 33.2)">s</text><text xml:space="preserve" font-family="Helvetica-Light,Helvetica" font-size="21.0" fill="#000000" transform="matrix(1.00, 0.00, -0.00, -1.00, 605.6, 33.2)"> </text><text xml:space="preserve" font-family="Helvetica-Light,Helvetica" font-size="21.0" fill="#000000" transform="matrix(1.00, 0.00, -0.00, -1.00, 611.4, 33.2)">L</text><text xml:space="preserve" font-family="Helvetica-Light,Helvetica" font-size="21.0" fill="#000000" transform="matrix(1.00, 0.00, -0.00, -1.00, 623.1, 33.2)">a</text><text xml:space="preserve" font-family="Helvetica-Light,Helvetica" font-size="21.0" fill="#000000" transform="matrix(1.00, 0.00, -0.00, -1.00, 634.8, 33.2)">y</text><text xml:space="preserve" font-family="Helvetica-Light,Helvetica" font-size="21.0" fill="#000000" transform="matrix(1.00, 0.00, -0.00, -1.00, 645.3, 33.2)">e</text><text xml:space="preserve" font-family="Helvetica-Light,Helvetica" font-size="21.0" fill="#000000" transform="matrix(1.00, 0.00, -0.00, -1.00, 656.9, 33.2)">r</text></g></g><g><clipPath id="clip0x7f8e1bb490a0"><path d="M 375.6 146.6 L 773.6 146.6 L 773.6 273.1 L 375.6 273.1 Z M 375.6 146.6 "></path></clipPath><g clip-path="url(#clip0x7f8e1bb490a0)"><image xlink:href="../../C2610D4D-DD83-4AA0-B364-28C6E3E78F40/assets/BF49F87A585A2A5E7011EC8B25375A74.png" width="396.00" height="125.00" transform="matrix(1.00, 0.00, -0.00, -1.00, 376.6, 272.1)" opacity="0.50"></image><path d="M 379.6 171.7 L 380.0 252.0 C 380.0 262.6 388.2 271.0 398.8 271.0 L 750.5 271.0 C 761.1 271.0 770.0 262.6 770.0 252.0 L 770.0 171.7 C 770.0 161.2 761.1 153.0 750.5 153.0 L 398.8 153.0 C 388.2 153.0 379.6 161.2 379.6 171.7 Z M 379.6 171.7 " fill="#5FC3FF"></path></g></g><g><clipPath id="clip0x7f8e1be3a0e0"><path d="M 375.6 276.2 L 773.6 276.2 L 773.6 402.7 L 375.6 402.7 Z M 375.6 276.2 "></path></clipPath><g clip-path="url(#clip0x7f8e1be3a0e0)"><image xlink:href="../../C2610D4D-DD83-4AA0-B364-28C6E3E78F40/assets/1F2843F4F5CC9C38F18E32B3A71DC1E0.png" width="396.00" height="125.00" transform="matrix(1.00, 0.00, -0.00, -1.00, 376.6, 401.7)" opacity="0.50"></image><path d="M 379.6 301.3 L 380.0 381.6 C 380.0 392.1 388.2 401.0 398.8 401.0 L 750.5 401.0 C 761.1 401.0 770.0 392.1 770.0 381.6 L 770.0 301.3 C 770.0 290.8 761.1 282.0 750.5 282.0 L 398.8 282.0 C 388.2 282.0 379.6 290.8 379.6 301.3 Z M 379.6 301.3 " fill="#5FC3FF"></path></g></g><g><clipPath id="clip0x7f8e1b7315e0"><path d="M 501.6 156.6 L 647.7 156.6 L 647.7 180.6 L 501.6 180.6 Z M 501.6 156.6 "></path></clipPath><g clip-path="url(#clip0x7f8e1b7315e0)"><text xml:space="preserve" font-family="Helvetica-Light,Helvetica" font-size="21.0" fill="#000000" transform="matrix(1.00, 0.00, -0.00, -1.00, 510.4, 160.4)">S</text><text xml:space="preserve" font-family="Helvetica-Light,Helvetica" font-size="21.0" fill="#000000" transform="matrix(1.00, 0.00, -0.00, -1.00, 523.3, 160.4)">e</text><text xml:space="preserve" font-family="Helvetica-Light,Helvetica" font-size="21.0" fill="#000000" transform="matrix(1.00, 0.00, -0.00, -1.00, 535.0, 160.4)">r</text><text xml:space="preserve" font-family="Helvetica-Light,Helvetica" font-size="21.0" fill="#000000" transform="matrix(1.00, 0.00, -0.00, -1.00, 541.9, 160.4)">v</text><text xml:space="preserve" font-family="Helvetica-Light,Helvetica" font-size="21.0" fill="#000000" transform="matrix(1.00, 0.00, -0.00, -1.00, 552.4, 160.4)">i</text><text xml:space="preserve" font-family="Helvetica-Light,Helvetica" font-size="21.0" fill="#000000" transform="matrix(1.00, 0.00, -0.00, -1.00, 557.1, 160.4)">c</text><text xml:space="preserve" font-family="Helvetica-Light,Helvetica" font-size="21.0" fill="#000000" transform="matrix(1.00, 0.00, -0.00, -1.00, 568.8, 160.4)">e</text><text xml:space="preserve" font-family="Helvetica-Light,Helvetica" font-size="21.0" fill="#000000" transform="matrix(1.00, 0.00, -0.00, -1.00, 580.5, 160.4)"> </text><text xml:space="preserve" font-family="Helvetica-Light,Helvetica" font-size="21.0" fill="#000000" transform="matrix(1.00, 0.00, -0.00, -1.00, 586.3, 160.4)">L</text><text xml:space="preserve" font-family="Helvetica-Light,Helvetica" font-size="21.0" fill="#000000" transform="matrix(1.00, 0.00, -0.00, -1.00, 598.0, 160.4)">a</text><text xml:space="preserve" font-family="Helvetica-Light,Helvetica" font-size="21.0" fill="#000000" transform="matrix(1.00, 0.00, -0.00, -1.00, 609.7, 160.4)">y</text><text xml:space="preserve" font-family="Helvetica-Light,Helvetica" font-size="21.0" fill="#000000" transform="matrix(1.00, 0.00, -0.00, -1.00, 620.2, 160.4)">e</text><text xml:space="preserve" font-family="Helvetica-Light,Helvetica" font-size="21.0" fill="#000000" transform="matrix(1.00, 0.00, -0.00, -1.00, 631.8, 160.4)">r</text></g></g><g><clipPath id="clip0x7f8e1b73d7f0"><path d="M 508.0 294.2 L 641.2 294.2 L 641.2 318.2 L 508.0 318.2 Z M 508.0 294.2 "></path></clipPath><g clip-path="url(#clip0x7f8e1b73d7f0)"><text xml:space="preserve" font-family="Helvetica-Light,Helvetica" font-size="21.0" fill="#000000" transform="matrix(1.00, 0.00, -0.00, -1.00, 516.5, 298.1)">P</text><text xml:space="preserve" font-family="Helvetica-Light,Helvetica" font-size="21.0" fill="#000000" transform="matrix(1.00, 0.00, -0.00, -1.00, 529.3, 298.1)">r</text><text xml:space="preserve" font-family="Helvetica-Light,Helvetica" font-size="21.0" fill="#000000" transform="matrix(1.00, 0.00, -0.00, -1.00, 535.9, 298.1)">e</text><text xml:space="preserve" font-family="Helvetica-Light,Helvetica" font-size="21.0" fill="#000000" transform="matrix(1.00, 0.00, -0.00, -1.00, 547.6, 298.1)">s</text><text xml:space="preserve" font-family="Helvetica-Light,Helvetica" font-size="21.0" fill="#000000" transform="matrix(1.00, 0.00, -0.00, -1.00, 558.1, 298.1)">e</text><text xml:space="preserve" font-family="Helvetica-Light,Helvetica" font-size="21.0" fill="#000000" transform="matrix(1.00, 0.00, -0.00, -1.00, 569.8, 298.1)">n</text><text xml:space="preserve" font-family="Helvetica-Light,Helvetica" font-size="21.0" fill="#000000" transform="matrix(1.00, 0.00, -0.00, -1.00, 581.4, 298.1)">t</text><text xml:space="preserve" font-family="Helvetica-Light,Helvetica" font-size="21.0" fill="#000000" transform="matrix(1.00, 0.00, -0.00, -1.00, 587.3, 298.1)">a</text><text xml:space="preserve" font-family="Helvetica-Light,Helvetica" font-size="21.0" fill="#000000" transform="matrix(1.00, 0.00, -0.00, -1.00, 599.0, 298.1)">t</text><text xml:space="preserve" font-family="Helvetica-Light,Helvetica" font-size="21.0" fill="#000000" transform="matrix(1.00, 0.00, -0.00, -1.00, 604.8, 298.1)">i</text><text xml:space="preserve" font-family="Helvetica-Light,Helvetica" font-size="21.0" fill="#000000" transform="matrix(1.00, 0.00, -0.00, -1.00, 609.5, 298.1)">o</text><text xml:space="preserve" font-family="Helvetica-Light,Helvetica" font-size="21.0" fill="#000000" transform="matrix(1.00, 0.00, -0.00, -1.00, 621.1, 298.1)">n</text></g></g><g><clipPath id="clip0x7f8e1b742e60"><path d="M 387.3 321.3 L 761.9 321.3 L 761.9 396.3 L 387.3 396.3 Z M 387.3 321.3 "></path></clipPath><g clip-path="url(#clip0x7f8e1b742e60)"><image xlink:href="../../C2610D4D-DD83-4AA0-B364-28C6E3E78F40/assets/36B52A5C7CBC1B970FF2A7FBAC139D48.png" width="373.00" height="73.00" transform="matrix(1.00, 0.00, -0.00, -1.00, 388.3, 395.3)" opacity="0.50"></image></g></g><g><clipPath id="clip0x7f8e1bb4a220"><path d="M 391.3 336.7 L 391.0 384.9 C 391.0 390.1 395.6 394.0 400.8 394.0 L 748.5 394.0 C 753.7 394.0 758.0 390.1 758.0 384.9 L 758.0 336.7 C 758.0 331.5 753.7 327.0 748.5 327.0 L 400.8 327.0 C 395.6 327.0 391.3 331.5 391.3 336.7 Z M 391.3 336.7 "></path></clipPath><g clip-path="url(#clip0x7f8e1bb4a220)"><g><clipPath id="clip0x7f8e1bb51c90"><path d="M 387.3 321.3 L 761.9 321.3 L 761.9 396.3 L 387.3 396.3 Z M 387.3 321.3 "></path></clipPath><g clip-path="url(#clip0x7f8e1bb51c90)"><path d="M 391.0 327.0 L 758.0 327.0 L 758.0 394.0 L 391.0 394.0 Z M 391.0 327.0 " fill="url(#FC57DCA8-C922-420B-A089-815B4054D9C8)"></path></g></g></g></g><g><clipPath id="clip0x7f8e16bdc710"><path d="M 397.5 332.5 L 497.7 332.5 L 497.7 350.5 L 397.5 350.5 Z M 397.5 332.5 "></path></clipPath><g clip-path="url(#clip0x7f8e16bdc710)"><text xml:space="preserve" font-family="Helvetica-Light,Helvetica" font-size="16.0" fill="#FEFFFE" transform="matrix(1.00, 0.00, -0.00, -1.00, 404.5, 335.2)">S</text><text xml:space="preserve" font-family="Helvetica-Light,Helvetica" font-size="16.0" fill="#FEFFFE" transform="matrix(1.00, 0.00, -0.00, -1.00, 414.2, 335.2)">p</text><text xml:space="preserve" font-family="Helvetica-Light,Helvetica" font-size="16.0" fill="#FEFFFE" transform="matrix(1.00, 0.00, -0.00, -1.00, 424.0, 335.2)">r</text><text xml:space="preserve" font-family="Helvetica-Light,Helvetica" font-size="16.0" fill="#FEFFFE" transform="matrix(1.00, 0.00, -0.00, -1.00, 429.4, 335.2)">i</text><text xml:space="preserve" font-family="Helvetica-Light,Helvetica" font-size="16.0" fill="#FEFFFE" transform="matrix(1.00, 0.00, -0.00, -1.00, 432.9, 335.2)">n</text><text xml:space="preserve" font-family="Helvetica-Light,Helvetica" font-size="16.0" fill="#FEFFFE" transform="matrix(1.00, 0.00, -0.00, -1.00, 441.8, 335.2)">g</text><text xml:space="preserve" font-family="Helvetica-Light,Helvetica" font-size="16.0" fill="#FEFFFE" transform="matrix(1.00, 0.00, -0.00, -1.00, 451.6, 335.2)"> </text><text xml:space="preserve" font-family="Helvetica-Light,Helvetica" font-size="16.0" fill="#FEFFFE" transform="matrix(1.00, 0.00, -0.00, -1.00, 456.0, 335.2)">M</text><text xml:space="preserve" font-family="Helvetica-Light,Helvetica" font-size="16.0" fill="#FEFFFE" transform="matrix(1.00, 0.00, -0.00, -1.00, 469.4, 335.2)">V</text><text xml:space="preserve" font-family="Helvetica-Light,Helvetica" font-size="16.0" fill="#FEFFFE" transform="matrix(1.00, 0.00, -0.00, -1.00, 479.1, 335.2)">C</text></g></g><g><clipPath id="clip0x7f8e1bc30010"><path d="M 513.3 328.4 L 629.6 328.4 L 629.6 393.3 L 513.3 393.3 Z M 513.3 328.4 "></path></clipPath><g clip-path="url(#clip0x7f8e1bc30010)"><image xlink:href="../../C2610D4D-DD83-4AA0-B364-28C6E3E78F40/assets/14209E50A6BA29F6FA6C44080187154C.png" width="114.00" height="63.00" transform="matrix(1.00, 0.00, -0.00, -1.00, 514.3, 392.3)" opacity="0.50"></image><path d="M 517.3 342.8 L 517.0 378.9 C 517.0 384.1 521.5 388.0 526.7 388.0 L 614.2 388.0 C 619.4 388.0 624.0 384.1 624.0 378.9 L 624.0 342.8 C 624.0 337.6 619.4 333.0 614.2 333.0 L 526.7 333.0 C 521.5 333.0 517.3 337.6 517.3 342.8 Z M 517.3 342.8 " fill="#9FD3F1"></path></g></g><g><clipPath id="clip0x7f8e1b745090"><path d="M 526.9 348.3 L 614.0 348.3 L 614.0 373.4 L 526.9 373.4 Z M 526.9 348.3 "></path></clipPath><g clip-path="url(#clip0x7f8e1b745090)"><text xml:space="preserve" font-family="Helvetica-Light,Helvetica" font-size="12.0" fill="#000000" transform="matrix(1.00, 0.00, -0.00, -1.00, 541.6, 356.1)">C</text><text xml:space="preserve" font-family="Helvetica-Light,Helvetica" font-size="12.0" fill="#000000" transform="matrix(1.00, 0.00, -0.00, -1.00, 550.2, 356.1)">o</text><text xml:space="preserve" font-family="Helvetica-Light,Helvetica" font-size="12.0" fill="#000000" transform="matrix(1.00, 0.00, -0.00, -1.00, 556.9, 356.1)">n</text><text xml:space="preserve" font-family="Helvetica-Light,Helvetica" font-size="12.0" fill="#000000" transform="matrix(1.00, 0.00, -0.00, -1.00, 563.6, 356.1)">t</text><text xml:space="preserve" font-family="Helvetica-Light,Helvetica" font-size="12.0" fill="#000000" transform="matrix(1.00, 0.00, -0.00, -1.00, 566.9, 356.1)">r</text><text xml:space="preserve" font-family="Helvetica-Light,Helvetica" font-size="12.0" fill="#000000" transform="matrix(1.00, 0.00, -0.00, -1.00, 570.7, 356.1)">o</text><text xml:space="preserve" font-family="Helvetica-Light,Helvetica" font-size="12.0" fill="#000000" transform="matrix(1.00, 0.00, -0.00, -1.00, 577.4, 356.1)">l</text><text xml:space="preserve" font-family="Helvetica-Light,Helvetica" font-size="12.0" fill="#000000" transform="matrix(1.00, 0.00, -0.00, -1.00, 580.0, 356.1)">l</text><text xml:space="preserve" font-family="Helvetica-Light,Helvetica" font-size="12.0" fill="#000000" transform="matrix(1.00, 0.00, -0.00, -1.00, 582.7, 356.1)">e</text><text xml:space="preserve" font-family="Helvetica-Light,Helvetica" font-size="12.0" fill="#000000" transform="matrix(1.00, 0.00, -0.00, -1.00, 589.4, 356.1)">r</text><text xml:space="preserve" font-family="Helvetica-Light,Helvetica" font-size="12.0" fill="#000000" transform="matrix(1.00, 0.00, -0.00, -1.00, 593.3, 356.1)">s</text></g></g><image xlink:href="../../8757742F-09F5-4FAF-8EA4-BCB42CC4F6AE/assets/A3181353B666789AB0150297CAF76D2C.png" width="85.00" height="41.00" transform="matrix(0.00, -1.00, -1.00, 0.00, 468.1, 518.0)" opacity="0.50"></image><path d="M -0.0 0.2 L 44.0 0.2 L 49.0 0.2 " fill="none" stroke="#164E86" stroke-width="9.00" transform="matrix(0.00, -1.00, -1.00, 0.00, 447.7, 517.0)"></path><path d="M 430.1 472.5 L 447.5 437.7 L 464.9 472.5 Z M 430.1 472.5 " fill="#164E86"></path><image xlink:href="../../8757742F-09F5-4FAF-8EA4-BCB42CC4F6AE/assets/23CA442DA793E6F6F8B69D69AE0DBE1A.png" width="85.00" height="41.00" transform="matrix(0.00, 1.00, 1.00, -0.00, 593.3, 433.2)" opacity="0.50"></image><path d="M -0.2 -0.2 L 44.0 -0.2 L 48.8 -0.2 " fill="none" stroke="#164E86" stroke-width="9.00" transform="matrix(0.00, 1.00, 1.00, 0.00, 613.7, 438.2)"></path><path d="M 630.9 482.5 L 613.5 517.3 L 596.1 482.5 Z M 630.9 482.5 " fill="#164E86"></path><image xlink:href="../../8757742F-09F5-4FAF-8EA4-BCB42CC4F6AE/assets/E0B23FCF75AB2F31E124D6501B31E99E.png" width="85.00" height="41.00" transform="matrix(0.00, -1.00, -1.00, 0.00, 465.5, 750.5)" opacity="0.50"></image><path d="M 0.5 -0.4 L 44.0 -0.4 L 48.5 -0.4 " fill="none" stroke="#164E86" stroke-width="9.00" transform="matrix(0.00, -1.00, -1.00, 0.00, 445.1, 749.5)"></path><path d="M 428.1 705.5 L 445.5 670.7 L 462.9 705.5 Z M 428.1 705.5 " fill="#164E86"></path><image xlink:href="../../8757742F-09F5-4FAF-8EA4-BCB42CC4F6AE/assets/16107BA2E7217BB04B27F5DA0C66C4E6.png" width="85.00" height="41.00" transform="matrix(0.00, 1.00, 1.00, -0.00, 590.7, 665.6)" opacity="0.50"></image><path d="M 0.4 0.4 L 44.0 0.4 L 48.4 0.4 " fill="none" stroke="#164E86" stroke-width="9.00" transform="matrix(0.00, 1.00, 1.00, 0.00, 611.1, 670.6)"></path><path d="M 628.9 714.5 L 611.5 749.3 L 594.1 714.5 Z M 628.9 714.5 " fill="#164E86"></path><image xlink:href="../../C2610D4D-DD83-4AA0-B364-28C6E3E78F40/assets/E0699D7B75E9462F1F6C2FEADF79DD9D.png" width="585.00" height="106.00" transform="matrix(1.00, 0.00, -0.00, -1.00, 229.7, 644.8)" opacity="0.50"></image><path d="M 232.7 558.8 L 233.0 628.8 C 233.0 637.1 239.4 644.0 247.7 644.0 L 796.3 644.0 C 804.6 644.0 811.0 637.1 811.0 628.8 L 811.0 558.8 C 811.0 550.5 804.6 544.0 796.3 544.0 L 247.7 544.0 C 239.4 544.0 232.7 550.5 232.7 558.8 Z M 232.7 558.8 " fill="#9FD3F1"></path><g><clipPath id="clip0x7f8e1be3c1c0"><path d="M 230.7 543.8 L 813.3 543.8 L 813.3 643.8 L 230.7 643.8 Z M 230.7 543.8 "></path></clipPath><g clip-path="url(#clip0x7f8e1be3c1c0)"><text xml:space="preserve" font-family="Helvetica-Light,Helvetica" font-size="24.0" fill="#000000" transform="matrix(1.00, 0.00, -0.00, -1.00, 480.7, 584.7)">N</text><text xml:space="preserve" font-family="Helvetica-Light,Helvetica" font-size="24.0" fill="#000000" transform="matrix(1.00, 0.00, -0.00, -1.00, 498.0, 584.7)">o</text><text xml:space="preserve" font-family="Helvetica-Light,Helvetica" font-size="24.0" fill="#000000" transform="matrix(1.00, 0.00, -0.00, -1.00, 511.3, 584.7)">d</text><text xml:space="preserve" font-family="Helvetica-Light,Helvetica" font-size="24.0" fill="#000000" transform="matrix(1.00, 0.00, -0.00, -1.00, 526.0, 584.7)">e</text><text xml:space="preserve" font-family="Helvetica-Light,Helvetica" font-size="24.0" fill="#000000" transform="matrix(1.00, 0.00, -0.00, -1.00, 539.3, 584.7)">.</text><text xml:space="preserve" font-family="Helvetica-Light,Helvetica" font-size="24.0" fill="#000000" transform="matrix(1.00, 0.00, -0.00, -1.00, 546.0, 584.7)">j</text><text xml:space="preserve" font-family="Helvetica-Light,Helvetica" font-size="24.0" fill="#000000" transform="matrix(1.00, 0.00, -0.00, -1.00, 551.3, 584.7)">s</text></g></g></g></svg>