<?xml version="1.0" encoding="UTF-8" standalone="no"?><svg xmlns="http://www.w3.org/2000/svg" xmlns:xlink="http://www.w3.org/1999/xlink" clip-rule="evenodd" stroke-miterlimit="10" viewBox="0 0 343 410"><desc>SVG generated by Keynote</desc><defs></defs><g transform="matrix(1.00, 0.00, -0.00, -1.00, 0.0, 410.0)"><text xml:space="preserve" font-family="Helvetica-Light,Helvetica" font-size="21.8" fill="#000000" transform="matrix(1.00, 0.00, -0.00, -1.00, 0.6, 389.1)">•</text><text xml:space="preserve" font-family="Helvetica-Light,Helvetica" font-size="29.0" fill="#000000" transform="matrix(1.00, 0.00, -0.00, -1.00, 28.8, 386.3)">S</text><text xml:space="preserve" font-family="Helvetica-Light,Helvetica" font-size="29.0" fill="#000000" transform="matrix(1.00, 0.00, -0.00, -1.00, 46.5, 386.3)">e</text><text xml:space="preserve" font-family="Helvetica-Light,Helvetica" font-size="29.0" fill="#000000" transform="matrix(1.00, 0.00, -0.00, -1.00, 62.6, 386.3)">r</text><text xml:space="preserve" font-family="Helvetica-Light,Helvetica" font-size="29.0" fill="#000000" transform="matrix(1.00, 0.00, -0.00, -1.00, 72.3, 386.3)">v</text><text xml:space="preserve" font-family="Helvetica-Light,Helvetica" font-size="29.0" fill="#000000" transform="matrix(1.00, 0.00, -0.00, -1.00, 86.8, 386.3)">l</text><text xml:space="preserve" font-family="Helvetica-Light,Helvetica" font-size="29.0" fill="#000000" transform="matrix(1.00, 0.00, -0.00, -1.00, 93.2, 386.3)">e</text><text xml:space="preserve" font-family="Helvetica-Light,Helvetica" font-size="29.0" fill="#000000" transform="matrix(1.00, 0.00, -0.00, -1.00, 109.4, 386.3)">t</text><text xml:space="preserve" font-family="Helvetica-Light,Helvetica" font-size="29.0" fill="#000000" transform="matrix(1.00, 0.00, -0.00, -1.00, 117.4, 386.3)"> </text><text xml:space="preserve" font-family="Helvetica-Light,Helvetica" font-size="29.0" fill="#000000" transform="matrix(1.00, 0.00, -0.00, -1.00, 125.5, 386.3)">C</text><text xml:space="preserve" font-family="Helvetica-Light,Helvetica" font-size="29.0" fill="#000000" transform="matrix(1.00, 0.00, -0.00, -1.00, 146.4, 386.3)">o</text><text xml:space="preserve" font-family="Helvetica-Light,Helvetica" font-size="29.0" fill="#000000" transform="matrix(1.00, 0.00, -0.00, -1.00, 162.6, 386.3)">n</text><text xml:space="preserve" font-family="Helvetica-Light,Helvetica" font-size="29.0" fill="#000000" transform="matrix(1.00, 0.00, -0.00, -1.00, 178.7, 386.3)">t</text><text xml:space="preserve" font-family="Helvetica-Light,Helvetica" font-size="29.0" fill="#000000" transform="matrix(1.00, 0.00, -0.00, -1.00, 186.7, 386.3)">a</text><text xml:space="preserve" font-family="Helvetica-Light,Helvetica" font-size="29.0" fill="#000000" transform="matrix(1.00, 0.00, -0.00, -1.00, 202.9, 386.3)">i</text><text xml:space="preserve" font-family="Helvetica-Light,Helvetica" font-size="29.0" fill="#000000" transform="matrix(1.00, 0.00, -0.00, -1.00, 209.3, 386.3)">n</text><text xml:space="preserve" font-family="Helvetica-Light,Helvetica" font-size="29.0" fill="#000000" transform="matrix(1.00, 0.00, -0.00, -1.00, 225.4, 386.3)">e</text><text xml:space="preserve" font-family="Helvetica-Light,Helvetica" font-size="29.0" fill="#000000" transform="matrix(1.00, 0.00, -0.00, -1.00, 241.6, 386.3)">r</text><text xml:space="preserve" font-family="Helvetica-Light,Helvetica" font-size="29.0" fill="#000000" transform="matrix(1.00, 0.00, -0.00, -1.00, 251.2, 386.3)">s</text><text xml:space="preserve" font-family="Helvetica-Light,Helvetica" font-size="29.0" fill="#000000" transform="matrix(1.00, 0.00, -0.00, -1.00, 265.7, 386.3)"> </text><text xml:space="preserve" font-family="Helvetica-Light,Helvetica" font-size="21.8" fill="#000000" transform="matrix(1.00, 0.00, -0.00, -1.00, 0.6, 312.1)">•</text><text xml:space="preserve" font-family="Helvetica-Light,Helvetica" font-size="29.0" fill="#000000" transform="matrix(1.00, 0.00, -0.00, -1.00, 28.8, 309.3)">S</text><text xml:space="preserve" font-family="Helvetica-Light,Helvetica" font-size="29.0" fill="#000000" transform="matrix(1.00, 0.00, -0.00, -1.00, 46.5, 309.3)">p</text><text xml:space="preserve" font-family="Helvetica-Light,Helvetica" font-size="29.0" fill="#000000" transform="matrix(1.00, 0.00, -0.00, -1.00, 64.2, 309.3)">r</text><text xml:space="preserve" font-family="Helvetica-Light,Helvetica" font-size="29.0" fill="#000000" transform="matrix(1.00, 0.00, -0.00, -1.00, 73.9, 309.3)">i</text><text xml:space="preserve" font-family="Helvetica-Light,Helvetica" font-size="29.0" fill="#000000" transform="matrix(1.00, 0.00, -0.00, -1.00, 80.3, 309.3)">n</text><text xml:space="preserve" font-family="Helvetica-Light,Helvetica" font-size="29.0" fill="#000000" transform="matrix(1.00, 0.00, -0.00, -1.00, 96.5, 309.3)">g</text><text xml:space="preserve" font-family="Helvetica-Light,Helvetica" font-size="29.0" fill="#000000" transform="matrix(1.00, 0.00, -0.00, -1.00, 114.2, 309.3)"> </text><text xml:space="preserve" font-family="Helvetica-Light,Helvetica" font-size="29.0" fill="#000000" transform="matrix(1.00, 0.00, -0.00, -1.00, 122.2, 309.3)">M</text><text xml:space="preserve" font-family="Helvetica-Light,Helvetica" font-size="29.0" fill="#000000" transform="matrix(1.00, 0.00, -0.00, -1.00, 146.4, 309.3)">V</text><text xml:space="preserve" font-family="Helvetica-Light,Helvetica" font-size="29.0" fill="#000000" transform="matrix(1.00, 0.00, -0.00, -1.00, 164.1, 309.3)">C</text><text xml:space="preserve" font-family="Helvetica-Light,Helvetica" font-size="29.0" fill="#000000" transform="matrix(1.00, 0.00, -0.00, -1.00, 185.1, 309.3)"> </text><text xml:space="preserve" font-family="Helvetica-Light,Helvetica" font-size="29.0" fill="#000000" transform="matrix(1.00, 0.00, -0.00, -1.00, 193.1, 309.3)"> </text><text xml:space="preserve" font-family="Helvetica-Light,Helvetica" font-size="21.8" fill="#000000" transform="matrix(1.00, 0.00, -0.00, -1.00, 0.6, 235.1)">•</text><text xml:space="preserve" font-family="Helvetica-Light,Helvetica" font-size="29.0" fill="#000000" transform="matrix(1.00, 0.00, -0.00, -1.00, 28.8, 232.3)">S</text><text xml:space="preserve" font-family="Helvetica-Light,Helvetica" font-size="29.0" fill="#000000" transform="matrix(1.00, 0.00, -0.00, -1.00, 46.5, 232.3)">e</text><text xml:space="preserve" font-family="Helvetica-Light,Helvetica" font-size="29.0" fill="#000000" transform="matrix(1.00, 0.00, -0.00, -1.00, 62.6, 232.3)">r</text><text xml:space="preserve" font-family="Helvetica-Light,Helvetica" font-size="29.0" fill="#000000" transform="matrix(1.00, 0.00, -0.00, -1.00, 72.3, 232.3)">v</text><text xml:space="preserve" font-family="Helvetica-Light,Helvetica" font-size="29.0" fill="#000000" transform="matrix(1.00, 0.00, -0.00, -1.00, 86.8, 232.3)">l</text><text xml:space="preserve" font-family="Helvetica-Light,Helvetica" font-size="29.0" fill="#000000" transform="matrix(1.00, 0.00, -0.00, -1.00, 93.2, 232.3)">e</text><text xml:space="preserve" font-family="Helvetica-Light,Helvetica" font-size="29.0" fill="#000000" transform="matrix(1.00, 0.00, -0.00, -1.00, 109.4, 232.3)">t</text><text xml:space="preserve" font-family="Helvetica-Light,Helvetica" font-size="29.0" fill="#000000" transform="matrix(1.00, 0.00, -0.00, -1.00, 117.4, 232.3)">s</text><text xml:space="preserve" font-family="Helvetica-Light,Helvetica" font-size="29.0" fill="#000000" transform="matrix(1.00, 0.00, -0.00, -1.00, 131.9, 232.3)"> </text><text xml:space="preserve" font-family="Helvetica-Light,Helvetica" font-size="29.0" fill="#000000" transform="matrix(1.00, 0.00, -0.00, -1.00, 140.0, 232.3)">i</text><text xml:space="preserve" font-family="Helvetica-Light,Helvetica" font-size="29.0" fill="#000000" transform="matrix(1.00, 0.00, -0.00, -1.00, 146.4, 232.3)">n</text><text xml:space="preserve" font-family="Helvetica-Light,Helvetica" font-size="29.0" fill="#000000" transform="matrix(1.00, 0.00, -0.00, -1.00, 162.6, 232.3)">i</text><text xml:space="preserve" font-family="Helvetica-Light,Helvetica" font-size="29.0" fill="#000000" transform="matrix(1.00, 0.00, -0.00, -1.00, 169.0, 232.3)">t</text><text xml:space="preserve" font-family="Helvetica-Light,Helvetica" font-size="29.0" fill="#000000" transform="matrix(1.00, 0.00, -0.00, -1.00, 177.1, 232.3)"> </text><text xml:space="preserve" font-family="Helvetica-Light,Helvetica" font-size="29.0" fill="#000000" transform="matrix(1.00, 0.00, -0.00, -1.00, 185.1, 232.3)">a</text><text xml:space="preserve" font-family="Helvetica-Light,Helvetica" font-size="29.0" fill="#000000" transform="matrix(1.00, 0.00, -0.00, -1.00, 201.2, 232.3)">n</text><text xml:space="preserve" font-family="Helvetica-Light,Helvetica" font-size="29.0" fill="#000000" transform="matrix(1.00, 0.00, -0.00, -1.00, 217.4, 232.3)">d</text><text xml:space="preserve" font-family="Helvetica-Light,Helvetica" font-size="29.0" fill="#000000" transform="matrix(1.00, 0.00, -0.00, -1.00, 235.1, 232.3)"> </text><text xml:space="preserve" font-family="Helvetica-Light,Helvetica" font-size="29.0" fill="#000000" transform="matrix(1.00, 0.00, -0.00, -1.00, 243.1, 232.3)">r</text><text xml:space="preserve" font-family="Helvetica-Light,Helvetica" font-size="29.0" fill="#000000" transform="matrix(1.00, 0.00, -0.00, -1.00, 252.3, 232.3)">e</text><text xml:space="preserve" font-family="Helvetica-Light,Helvetica" font-size="29.0" fill="#000000" transform="matrix(1.00, 0.00, -0.00, -1.00, 268.4, 232.3)">g</text><text xml:space="preserve" font-family="Helvetica-Light,Helvetica" font-size="29.0" fill="#000000" transform="matrix(1.00, 0.00, -0.00, -1.00, 286.1, 232.3)">i</text><text xml:space="preserve" font-family="Helvetica-Light,Helvetica" font-size="29.0" fill="#000000" transform="matrix(1.00, 0.00, -0.00, -1.00, 292.6, 232.3)">s</text><text xml:space="preserve" font-family="Helvetica-Light,Helvetica" font-size="29.0" fill="#000000" transform="matrix(1.00, 0.00, -0.00, -1.00, 307.1, 232.3)">t</text><text xml:space="preserve" font-family="Helvetica-Light,Helvetica" font-size="29.0" fill="#000000" transform="matrix(1.00, 0.00, -0.00, -1.00, 315.1, 232.3)">e</text><text xml:space="preserve" font-family="Helvetica-Light,Helvetica" font-size="29.0" fill="#000000" transform="matrix(1.00, 0.00, -0.00, -1.00, 331.2, 232.3)">r</text><text xml:space="preserve" font-family="Helvetica-Light,Helvetica" font-size="29.0" fill="#000000" transform="matrix(1.00, 0.00, -0.00, -1.00, 340.9, 232.3)"> </text><text xml:space="preserve" font-family="Helvetica-Light,Helvetica" font-size="29.0" fill="#000000" transform="matrix(1.00, 0.00, -0.00, -1.00, 28.8, 197.3)">w</text><text xml:space="preserve" font-family="Helvetica-Light,Helvetica" font-size="29.0" fill="#000000" transform="matrix(1.00, 0.00, -0.00, -1.00, 49.7, 197.3)">i</text><text xml:space="preserve" font-family="Helvetica-Light,Helvetica" font-size="29.0" fill="#000000" transform="matrix(1.00, 0.00, -0.00, -1.00, 56.2, 197.3)">t</text><text xml:space="preserve" font-family="Helvetica-Light,Helvetica" font-size="29.0" fill="#000000" transform="matrix(1.00, 0.00, -0.00, -1.00, 64.2, 197.3)">h</text><text xml:space="preserve" font-family="Helvetica-Light,Helvetica" font-size="29.0" fill="#000000" transform="matrix(1.00, 0.00, -0.00, -1.00, 80.4, 197.3)"> </text><text xml:space="preserve" font-family="Helvetica-Light,Helvetica" font-size="29.0" fill="#000000" transform="matrix(1.00, 0.00, -0.00, -1.00, 88.4, 197.3)">c</text><text xml:space="preserve" font-family="Helvetica-Light,Helvetica" font-size="29.0" fill="#000000" transform="matrix(1.00, 0.00, -0.00, -1.00, 104.6, 197.3)">o</text><text xml:space="preserve" font-family="Helvetica-Light,Helvetica" font-size="29.0" fill="#000000" transform="matrix(1.00, 0.00, -0.00, -1.00, 120.7, 197.3)">n</text><text xml:space="preserve" font-family="Helvetica-Light,Helvetica" font-size="29.0" fill="#000000" transform="matrix(1.00, 0.00, -0.00, -1.00, 136.8, 197.3)">t</text><text xml:space="preserve" font-family="Helvetica-Light,Helvetica" font-size="29.0" fill="#000000" transform="matrix(1.00, 0.00, -0.00, -1.00, 144.9, 197.3)">a</text><text xml:space="preserve" font-family="Helvetica-Light,Helvetica" font-size="29.0" fill="#000000" transform="matrix(1.00, 0.00, -0.00, -1.00, 161.0, 197.3)">i</text><text xml:space="preserve" font-family="Helvetica-Light,Helvetica" font-size="29.0" fill="#000000" transform="matrix(1.00, 0.00, -0.00, -1.00, 167.4, 197.3)">n</text><text xml:space="preserve" font-family="Helvetica-Light,Helvetica" font-size="29.0" fill="#000000" transform="matrix(1.00, 0.00, -0.00, -1.00, 183.6, 197.3)">e</text><text xml:space="preserve" font-family="Helvetica-Light,Helvetica" font-size="29.0" fill="#000000" transform="matrix(1.00, 0.00, -0.00, -1.00, 199.7, 197.3)">r</text><text xml:space="preserve" font-family="Helvetica-Light,Helvetica" font-size="29.0" fill="#000000" transform="matrix(1.00, 0.00, -0.00, -1.00, 209.3, 197.3)"> </text><text xml:space="preserve" font-family="Helvetica-Light,Helvetica" font-size="21.8" fill="#000000" transform="matrix(1.00, 0.00, -0.00, -1.00, 0.6, 123.1)">•</text><text xml:space="preserve" font-family="Helvetica-Light,Helvetica" font-size="29.0" fill="#000000" transform="matrix(1.00, 0.00, -0.00, -1.00, 28.8, 120.3)">M</text><text xml:space="preserve" font-family="Helvetica-Light,Helvetica" font-size="29.0" fill="#000000" transform="matrix(1.00, 0.00, -0.00, -1.00, 53.0, 120.3)">u</text><text xml:space="preserve" font-family="Helvetica-Light,Helvetica" font-size="29.0" fill="#000000" transform="matrix(1.00, 0.00, -0.00, -1.00, 69.1, 120.3)">l</text><text xml:space="preserve" font-family="Helvetica-Light,Helvetica" font-size="29.0" fill="#000000" transform="matrix(1.00, 0.00, -0.00, -1.00, 75.5, 120.3)">t</text><text xml:space="preserve" font-family="Helvetica-Light,Helvetica" font-size="29.0" fill="#000000" transform="matrix(1.00, 0.00, -0.00, -1.00, 83.6, 120.3)">i</text><text xml:space="preserve" font-family="Helvetica-Light,Helvetica" font-size="29.0" fill="#000000" transform="matrix(1.00, 0.00, -0.00, -1.00, 90.0, 120.3)">-</text><text xml:space="preserve" font-family="Helvetica-Light,Helvetica" font-size="29.0" fill="#000000" transform="matrix(1.00, 0.00, -0.00, -1.00, 99.7, 120.3)">t</text><text xml:space="preserve" font-family="Helvetica-Light,Helvetica" font-size="29.0" fill="#000000" transform="matrix(1.00, 0.00, -0.00, -1.00, 107.7, 120.3)">h</text><text xml:space="preserve" font-family="Helvetica-Light,Helvetica" font-size="29.0" fill="#000000" transform="matrix(1.00, 0.00, -0.00, -1.00, 123.9, 120.3)">r</text><text xml:space="preserve" font-family="Helvetica-Light,Helvetica" font-size="29.0" fill="#000000" transform="matrix(1.00, 0.00, -0.00, -1.00, 133.0, 120.3)">e</text><text xml:space="preserve" font-family="Helvetica-Light,Helvetica" font-size="29.0" fill="#000000" transform="matrix(1.00, 0.00, -0.00, -1.00, 149.1, 120.3)">a</text><text xml:space="preserve" font-family="Helvetica-Light,Helvetica" font-size="29.0" fill="#000000" transform="matrix(1.00, 0.00, -0.00, -1.00, 165.3, 120.3)">d</text><text xml:space="preserve" font-family="Helvetica-Light,Helvetica" font-size="29.0" fill="#000000" transform="matrix(1.00, 0.00, -0.00, -1.00, 183.0, 120.3)">e</text><text xml:space="preserve" font-family="Helvetica-Light,Helvetica" font-size="29.0" fill="#000000" transform="matrix(1.00, 0.00, -0.00, -1.00, 199.1, 120.3)">d</text><text xml:space="preserve" font-family="Helvetica-Light,Helvetica" font-size="29.0" fill="#000000" transform="matrix(1.00, 0.00, -0.00, -1.00, 216.8, 120.3)">,</text><text xml:space="preserve" font-family="Helvetica-Light,Helvetica" font-size="29.0" fill="#000000" transform="matrix(1.00, 0.00, -0.00, -1.00, 224.9, 120.3)"> </text><text xml:space="preserve" font-family="LucidaGrande,Lucida Grande" font-size="29.0" fill="#000000" transform="matrix(1.00, 0.00, -0.00, -1.00, 232.9, 120.3)"> </text><text xml:space="preserve" font-family="Helvetica-Light,Helvetica" font-size="29.0" fill="#000000" transform="matrix(1.00, 0.00, -0.00, -1.00, 28.8, 85.3)">t</text><text xml:space="preserve" font-family="Helvetica-Light,Helvetica" font-size="29.0" fill="#000000" transform="matrix(1.00, 0.00, -0.00, -1.00, 36.9, 85.3)">h</text><text xml:space="preserve" font-family="Helvetica-Light,Helvetica" font-size="29.0" fill="#000000" transform="matrix(1.00, 0.00, -0.00, -1.00, 53.0, 85.3)">r</text><text xml:space="preserve" font-family="Helvetica-Light,Helvetica" font-size="29.0" fill="#000000" transform="matrix(1.00, 0.00, -0.00, -1.00, 62.1, 85.3)">e</text><text xml:space="preserve" font-family="Helvetica-Light,Helvetica" font-size="29.0" fill="#000000" transform="matrix(1.00, 0.00, -0.00, -1.00, 78.3, 85.3)">a</text><text xml:space="preserve" font-family="Helvetica-Light,Helvetica" font-size="29.0" fill="#000000" transform="matrix(1.00, 0.00, -0.00, -1.00, 94.4, 85.3)">d</text><text xml:space="preserve" font-family="Helvetica-Light,Helvetica" font-size="29.0" fill="#000000" transform="matrix(1.00, 0.00, -0.00, -1.00, 112.1, 85.3)"> </text><text xml:space="preserve" font-family="Helvetica-Light,Helvetica" font-size="29.0" fill="#000000" transform="matrix(1.00, 0.00, -0.00, -1.00, 120.2, 85.3)">p</text><text xml:space="preserve" font-family="Helvetica-Light,Helvetica" font-size="29.0" fill="#000000" transform="matrix(1.00, 0.00, -0.00, -1.00, 137.9, 85.3)">o</text><text xml:space="preserve" font-family="Helvetica-Light,Helvetica" font-size="29.0" fill="#000000" transform="matrix(1.00, 0.00, -0.00, -1.00, 154.0, 85.3)">o</text><text xml:space="preserve" font-family="Helvetica-Light,Helvetica" font-size="29.0" fill="#000000" transform="matrix(1.00, 0.00, -0.00, -1.00, 170.1, 85.3)">l</text><text xml:space="preserve" font-family="Helvetica-Light,Helvetica" font-size="29.0" fill="#000000" transform="matrix(1.00, 0.00, -0.00, -1.00, 176.6, 85.3)">s</text><text xml:space="preserve" font-family="Helvetica-Light,Helvetica" font-size="29.0" fill="#000000" transform="matrix(1.00, 0.00, -0.00, -1.00, 191.1, 85.3)"> </text><text xml:space="preserve" font-family="Helvetica-Light,Helvetica" font-size="29.0" fill="#000000" transform="matrix(1.00, 0.00, -0.00, -1.00, 199.1, 85.3)"> </text><text xml:space="preserve" font-family="Helvetica-Light,Helvetica" font-size="21.8" fill="#000000" transform="matrix(1.00, 0.00, -0.00, -1.00, 0.6, 11.1)">•</text><text xml:space="preserve" font-family="Helvetica-Light,Helvetica" font-size="29.0" fill="#000000" transform="matrix(1.00, 0.00, -0.00, -1.00, 28.8, 8.3)">F</text><text xml:space="preserve" font-family="Helvetica-Light,Helvetica" font-size="29.0" fill="#000000" transform="matrix(1.00, 0.00, -0.00, -1.00, 44.9, 8.3)">i</text><text xml:space="preserve" font-family="Helvetica-Light,Helvetica" font-size="29.0" fill="#000000" transform="matrix(1.00, 0.00, -0.00, -1.00, 51.4, 8.3)">l</text><text xml:space="preserve" font-family="Helvetica-Light,Helvetica" font-size="29.0" fill="#000000" transform="matrix(1.00, 0.00, -0.00, -1.00, 57.8, 8.3)">t</text><text xml:space="preserve" font-family="Helvetica-Light,Helvetica" font-size="29.0" fill="#000000" transform="matrix(1.00, 0.00, -0.00, -1.00, 65.9, 8.3)">e</text><text xml:space="preserve" font-family="Helvetica-Light,Helvetica" font-size="29.0" fill="#000000" transform="matrix(1.00, 0.00, -0.00, -1.00, 82.0, 8.3)">r</text><text xml:space="preserve" font-family="Helvetica-Light,Helvetica" font-size="29.0" fill="#000000" transform="matrix(1.00, 0.00, -0.00, -1.00, 91.6, 8.3)">s</text><text xml:space="preserve" font-family="Helvetica-Light,Helvetica" font-size="29.0" fill="#000000" transform="matrix(1.00, 0.00, -0.00, -1.00, 106.1, 8.3)">,</text><text xml:space="preserve" font-family="Helvetica-Light,Helvetica" font-size="29.0" fill="#000000" transform="matrix(1.00, 0.00, -0.00, -1.00, 114.2, 8.3)"> </text><text xml:space="preserve" font-family="Helvetica-Light,Helvetica" font-size="29.0" fill="#000000" transform="matrix(1.00, 0.00, -0.00, -1.00, 122.3, 8.3)">I</text><text xml:space="preserve" font-family="Helvetica-Light,Helvetica" font-size="29.0" fill="#000000" transform="matrix(1.00, 0.00, -0.00, -1.00, 130.3, 8.3)">n</text><text xml:space="preserve" font-family="Helvetica-Light,Helvetica" font-size="29.0" fill="#000000" transform="matrix(1.00, 0.00, -0.00, -1.00, 146.5, 8.3)">t</text><text xml:space="preserve" font-family="Helvetica-Light,Helvetica" font-size="29.0" fill="#000000" transform="matrix(1.00, 0.00, -0.00, -1.00, 154.5, 8.3)">e</text><text xml:space="preserve" font-family="Helvetica-Light,Helvetica" font-size="29.0" fill="#000000" transform="matrix(1.00, 0.00, -0.00, -1.00, 170.6, 8.3)">r</text><text xml:space="preserve" font-family="Helvetica-Light,Helvetica" font-size="29.0" fill="#000000" transform="matrix(1.00, 0.00, -0.00, -1.00, 179.8, 8.3)">c</text><text xml:space="preserve" font-family="Helvetica-Light,Helvetica" font-size="29.0" fill="#000000" transform="matrix(1.00, 0.00, -0.00, -1.00, 195.9, 8.3)">e</text><text xml:space="preserve" font-family="Helvetica-Light,Helvetica" font-size="29.0" fill="#000000" transform="matrix(1.00, 0.00, -0.00, -1.00, 212.0, 8.3)">p</text><text xml:space="preserve" font-family="Helvetica-Light,Helvetica" font-size="29.0" fill="#000000" transform="matrix(1.00, 0.00, -0.00, -1.00, 229.7, 8.3)">t</text><text xml:space="preserve" font-family="Helvetica-Light,Helvetica" font-size="29.0" fill="#000000" transform="matrix(1.00, 0.00, -0.00, -1.00, 237.8, 8.3)">o</text><text xml:space="preserve" font-family="Helvetica-Light,Helvetica" font-size="29.0" fill="#000000" transform="matrix(1.00, 0.00, -0.00, -1.00, 253.9, 8.3)">r</text><text xml:space="preserve" font-family="Helvetica-Light,Helvetica" font-size="29.0" fill="#000000" transform="matrix(1.00, 0.00, -0.00, -1.00, 263.6, 8.3)">s</text></g></svg>