<?xml version="1.0" encoding="UTF-8" standalone="no"?><svg xmlns="http://www.w3.org/2000/svg" xmlns:xlink="http://www.w3.org/1999/xlink" clip-rule="evenodd" stroke-miterlimit="10" viewBox="0 0 682 37"><desc>SVG generated by Keynote</desc><defs></defs><g transform="matrix(1.00, 0.00, -0.00, -1.00, 0.0, 37.0)"><text xml:space="preserve" font-family="Helvetica-Light,Helvetica" font-size="26.2" fill="#000000" transform="matrix(1.00, 0.00, -0.00, -1.00, 0.5, 13.4)">•</text><text xml:space="preserve" font-family="Helvetica-Light,Helvetica" font-size="35.0" fill="#000000" transform="matrix(1.00, 0.00, -0.00, -1.00, 34.5, 9.9)">L</text><text xml:space="preserve" font-family="Helvetica-Light,Helvetica" font-size="35.0" fill="#000000" transform="matrix(1.00, 0.00, -0.00, -1.00, 54.0, 9.9)">i</text><text xml:space="preserve" font-family="Helvetica-Light,Helvetica" font-size="35.0" fill="#000000" transform="matrix(1.00, 0.00, -0.00, -1.00, 61.8, 9.9)">m</text><text xml:space="preserve" font-family="Helvetica-Light,Helvetica" font-size="35.0" fill="#000000" transform="matrix(1.00, 0.00, -0.00, -1.00, 90.9, 9.9)">i</text><text xml:space="preserve" font-family="Helvetica-Light,Helvetica" font-size="35.0" fill="#000000" transform="matrix(1.00, 0.00, -0.00, -1.00, 98.7, 9.9)">t</text><text xml:space="preserve" font-family="Helvetica-Light,Helvetica" font-size="35.0" fill="#000000" transform="matrix(1.00, 0.00, -0.00, -1.00, 108.4, 9.9)"> </text><text xml:space="preserve" font-family="Helvetica-Light,Helvetica" font-size="35.0" fill="#000000" transform="matrix(1.00, 0.00, -0.00, -1.00, 118.1, 9.9)">t</text><text xml:space="preserve" font-family="Helvetica-Light,Helvetica" font-size="35.0" fill="#000000" transform="matrix(1.00, 0.00, -0.00, -1.00, 127.9, 9.9)">h</text><text xml:space="preserve" font-family="Helvetica-Light,Helvetica" font-size="35.0" fill="#000000" transform="matrix(1.00, 0.00, -0.00, -1.00, 147.3, 9.9)">r</text><text xml:space="preserve" font-family="Helvetica-Light,Helvetica" font-size="35.0" fill="#000000" transform="matrix(1.00, 0.00, -0.00, -1.00, 158.4, 9.9)">o</text><text xml:space="preserve" font-family="Helvetica-Light,Helvetica" font-size="35.0" fill="#000000" transform="matrix(1.00, 0.00, -0.00, -1.00, 177.8, 9.9)">w</text><text xml:space="preserve" font-family="Helvetica-Light,Helvetica" font-size="35.0" fill="#000000" transform="matrix(1.00, 0.00, -0.00, -1.00, 203.1, 9.9)">i</text><text xml:space="preserve" font-family="Helvetica-Light,Helvetica" font-size="35.0" fill="#000000" transform="matrix(1.00, 0.00, -0.00, -1.00, 210.9, 9.9)">n</text><text xml:space="preserve" font-family="Helvetica-Light,Helvetica" font-size="35.0" fill="#000000" transform="matrix(1.00, 0.00, -0.00, -1.00, 230.3, 9.9)">g</text><text xml:space="preserve" font-family="Helvetica-Light,Helvetica" font-size="35.0" fill="#000000" transform="matrix(1.00, 0.00, -0.00, -1.00, 251.7, 9.9)"> </text><text xml:space="preserve" font-family="Helvetica-Light,Helvetica" font-size="35.0" fill="#000000" transform="matrix(1.00, 0.00, -0.00, -1.00, 261.4, 9.9)">t</text><text xml:space="preserve" font-family="Helvetica-Light,Helvetica" font-size="35.0" fill="#000000" transform="matrix(1.00, 0.00, -0.00, -1.00, 271.2, 9.9)">o</text><text xml:space="preserve" font-family="Helvetica-Light,Helvetica" font-size="35.0" fill="#000000" transform="matrix(1.00, 0.00, -0.00, -1.00, 290.6, 9.9)"> </text><text xml:space="preserve" font-family="Helvetica-Light,Helvetica" font-size="35.0" fill="#000000" transform="matrix(1.00, 0.00, -0.00, -1.00, 300.4, 9.9)">t</text><text xml:space="preserve" font-family="Helvetica-Light,Helvetica" font-size="35.0" fill="#000000" transform="matrix(1.00, 0.00, -0.00, -1.00, 310.1, 9.9)">r</text><text xml:space="preserve" font-family="Helvetica-Light,Helvetica" font-size="35.0" fill="#000000" transform="matrix(1.00, 0.00, -0.00, -1.00, 321.7, 9.9)">u</text><text xml:space="preserve" font-family="Helvetica-Light,Helvetica" font-size="35.0" fill="#000000" transform="matrix(1.00, 0.00, -0.00, -1.00, 341.2, 9.9)">l</text><text xml:space="preserve" font-family="Helvetica-Light,Helvetica" font-size="35.0" fill="#000000" transform="matrix(1.00, 0.00, -0.00, -1.00, 349.0, 9.9)">y</text><text xml:space="preserve" font-family="Helvetica-Light,Helvetica" font-size="35.0" fill="#000000" transform="matrix(1.00, 0.00, -0.00, -1.00, 366.5, 9.9)"> </text><text xml:space="preserve" font-family="Helvetica-Bold,Helvetica" font-weight="bold" font-size="35.0" fill="#000000" transform="matrix(1.00, 0.00, -0.00, -1.00, 376.2, 9.9)">e</text><text xml:space="preserve" font-family="Helvetica-Bold,Helvetica" font-weight="bold" font-size="35.0" fill="#000000" transform="matrix(1.00, 0.00, -0.00, -1.00, 395.7, 9.9)">x</text><text xml:space="preserve" font-family="Helvetica-Bold,Helvetica" font-weight="bold" font-size="35.0" fill="#000000" transform="matrix(1.00, 0.00, -0.00, -1.00, 415.1, 9.9)">c</text><text xml:space="preserve" font-family="Helvetica-Bold,Helvetica" font-weight="bold" font-size="35.0" fill="#000000" transform="matrix(1.00, 0.00, -0.00, -1.00, 434.6, 9.9)">e</text><text xml:space="preserve" font-family="Helvetica-Bold,Helvetica" font-weight="bold" font-size="35.0" fill="#000000" transform="matrix(1.00, 0.00, -0.00, -1.00, 454.1, 9.9)">p</text><text xml:space="preserve" font-family="Helvetica-Bold,Helvetica" font-weight="bold" font-size="35.0" fill="#000000" transform="matrix(1.00, 0.00, -0.00, -1.00, 475.5, 9.9)">t</text><text xml:space="preserve" font-family="Helvetica-Bold,Helvetica" font-weight="bold" font-size="35.0" fill="#000000" transform="matrix(1.00, 0.00, -0.00, -1.00, 487.1, 9.9)">i</text><text xml:space="preserve" font-family="Helvetica-Bold,Helvetica" font-weight="bold" font-size="35.0" fill="#000000" transform="matrix(1.00, 0.00, -0.00, -1.00, 496.8, 9.9)">o</text><text xml:space="preserve" font-family="Helvetica-Bold,Helvetica" font-weight="bold" font-size="35.0" fill="#000000" transform="matrix(1.00, 0.00, -0.00, -1.00, 518.2, 9.9)">n</text><text xml:space="preserve" font-family="Helvetica-Bold,Helvetica" font-weight="bold" font-size="35.0" fill="#000000" transform="matrix(1.00, 0.00, -0.00, -1.00, 539.6, 9.9)">a</text><text xml:space="preserve" font-family="Helvetica-Bold,Helvetica" font-weight="bold" font-size="35.0" fill="#000000" transform="matrix(1.00, 0.00, -0.00, -1.00, 559.1, 9.9)">l</text><text xml:space="preserve" font-family="Helvetica-Light,Helvetica" font-size="35.0" fill="#000000" transform="matrix(1.00, 0.00, -0.00, -1.00, 568.8, 9.9)"> </text><text xml:space="preserve" font-family="Helvetica-Light,Helvetica" font-size="35.0" fill="#000000" transform="matrix(1.00, 0.00, -0.00, -1.00, 578.5, 9.9)">e</text><text xml:space="preserve" font-family="Helvetica-Light,Helvetica" font-size="35.0" fill="#000000" transform="matrix(1.00, 0.00, -0.00, -1.00, 598.0, 9.9)">v</text><text xml:space="preserve" font-family="Helvetica-Light,Helvetica" font-size="35.0" fill="#000000" transform="matrix(1.00, 0.00, -0.00, -1.00, 615.5, 9.9)">e</text><text xml:space="preserve" font-family="Helvetica-Light,Helvetica" font-size="35.0" fill="#000000" transform="matrix(1.00, 0.00, -0.00, -1.00, 634.9, 9.9)">n</text><text xml:space="preserve" font-family="Helvetica-Light,Helvetica" font-size="35.0" fill="#000000" transform="matrix(1.00, 0.00, -0.00, -1.00, 654.4, 9.9)">t</text><text xml:space="preserve" font-family="Helvetica-Light,Helvetica" font-size="35.0" fill="#000000" transform="matrix(1.00, 0.00, -0.00, -1.00, 664.1, 9.9)">s</text></g></svg>