<?xml version="1.0" encoding="UTF-8" standalone="no"?><svg xmlns="http://www.w3.org/2000/svg" xmlns:xlink="http://www.w3.org/1999/xlink" clip-rule="evenodd" stroke-miterlimit="10" viewBox="0 0 155 137"><desc>SVG generated by Keynote</desc><defs></defs><g transform="matrix(1.00, 0.00, -0.00, -1.00, 0.0, 137.0)"><image xlink:href="775951CF1158FBBDF16168163AC93C68.png" width="152.00" height="130.00" transform="matrix(1.00, 0.00, -0.00, -1.00, 1.7, 131.3)" opacity="0.50"></image><g><clipPath id="clip0x7f8e0f2cd4d0"><path d="M 5.0 130.0 L 151.0 130.0 L 151.0 6.0 L 5.0 6.0 Z M 4.7 130.3 "></path></clipPath><g clip-path="url(#clip0x7f8e0f2cd4d0)"><image xlink:href="../../9FF9663F-7474-4361-9DE0-0E53DABCF57A/assets/973693129411D3F8828A982CCE9B70D0.png" width="600.00" height="600.00" transform="matrix(0.50, 0.00, -0.00, -0.50, 5.0, 130.0)"></image></g></g><g><clipPath id="clip0x7f8e0f2c46f0"><path d="M 2.7 6.3 L 152.7 6.3 L 152.7 132.3 L 2.7 132.3 Z M 2.7 6.3 "></path></clipPath><g clip-path="url(#clip0x7f8e0f2c46f0)"><text xml:space="preserve" font-family="Helvetica-Light,Helvetica" font-size="24.0" fill="#FEFFFE" transform="matrix(1.00, 0.00, -0.00, -1.00, 29.7, 102.9)">A</text><text xml:space="preserve" font-family="Helvetica-Light,Helvetica" font-size="24.0" fill="#FEFFFE" transform="matrix(1.00, 0.00, -0.00, -1.00, 45.7, 102.9)">d</text><text xml:space="preserve" font-family="Helvetica-Light,Helvetica" font-size="24.0" fill="#FEFFFE" transform="matrix(1.00, 0.00, -0.00, -1.00, 60.4, 102.9)">d</text><text xml:space="preserve" font-family="Helvetica-Light,Helvetica" font-size="24.0" fill="#FEFFFE" transform="matrix(1.00, 0.00, -0.00, -1.00, 75.0, 102.9)"> </text><text xml:space="preserve" font-family="Helvetica-Light,Helvetica" font-size="24.0" fill="#FEFFFE" transform="matrix(1.00, 0.00, -0.00, -1.00, 81.7, 102.9)">O</text><text xml:space="preserve" font-family="Helvetica-Light,Helvetica" font-size="24.0" fill="#FEFFFE" transform="matrix(1.00, 0.00, -0.00, -1.00, 100.4, 102.9)">n</text><text xml:space="preserve" font-family="Helvetica-Light,Helvetica" font-size="24.0" fill="#FEFFFE" transform="matrix(1.00, 0.00, -0.00, -1.00, 113.7, 102.9)">s</text></g></g></g></svg>