<?xml version="1.0" encoding="UTF-8" standalone="no"?><svg xmlns="http://www.w3.org/2000/svg" xmlns:xlink="http://www.w3.org/1999/xlink" clip-rule="evenodd" stroke-miterlimit="10" viewBox="0 0 155 137"><desc>SVG generated by Keynote</desc><defs></defs><g transform="matrix(1.00, 0.00, -0.00, -1.00, 0.0, 137.0)"><image xlink:href="../../9FF9663F-7474-4361-9DE0-0E53DABCF57A/assets/F52F2590DCDD3B7CF3967F07B6498B91.png" width="152.00" height="130.00" transform="matrix(1.00, 0.00, -0.00, -1.00, 1.0, 131.3)" opacity="0.50"></image><g><clipPath id="clip0x7f8e0f7a14f0"><path d="M 4.0 130.0 L 150.0 130.0 L 150.0 6.0 L 4.0 6.0 Z M 4.0 130.3 "></path></clipPath><g clip-path="url(#clip0x7f8e0f7a14f0)"><image xlink:href="../../9FF9663F-7474-4361-9DE0-0E53DABCF57A/assets/973693129411D3F8828A982CCE9B70D0.png" width="600.00" height="600.00" transform="matrix(0.50, 0.00, -0.00, -0.50, 4.0, 130.0)"></image></g></g><g><clipPath id="clip0x7f8e0f7a96a0"><path d="M 2.0 6.3 L 152.1 6.3 L 152.1 132.3 L 2.0 132.3 Z M 2.0 6.3 "></path></clipPath><g clip-path="url(#clip0x7f8e0f7a96a0)"><text xml:space="preserve" font-family="Helvetica-Light,Helvetica" font-size="24.0" fill="#FEFFFE" transform="matrix(1.00, 0.00, -0.00, -1.00, 39.2, 102.9)">B</text><text xml:space="preserve" font-family="Helvetica-Light,Helvetica" font-size="24.0" fill="#FEFFFE" transform="matrix(1.00, 0.00, -0.00, -1.00, 55.2, 102.9)">u</text><text xml:space="preserve" font-family="Helvetica-Light,Helvetica" font-size="24.0" fill="#FEFFFE" transform="matrix(1.00, 0.00, -0.00, -1.00, 68.6, 102.9)">f</text><text xml:space="preserve" font-family="Helvetica-Light,Helvetica" font-size="24.0" fill="#FEFFFE" transform="matrix(1.00, 0.00, -0.00, -1.00, 74.8, 102.9)">f</text><text xml:space="preserve" font-family="Helvetica-Light,Helvetica" font-size="24.0" fill="#FEFFFE" transform="matrix(1.00, 0.00, -0.00, -1.00, 81.5, 102.9)">e</text><text xml:space="preserve" font-family="Helvetica-Light,Helvetica" font-size="24.0" fill="#FEFFFE" transform="matrix(1.00, 0.00, -0.00, -1.00, 94.8, 102.9)">r</text><text xml:space="preserve" font-family="Helvetica-Light,Helvetica" font-size="24.0" fill="#FEFFFE" transform="matrix(1.00, 0.00, -0.00, -1.00, 102.8, 102.9)">s</text></g></g></g></svg>