<?xml version="1.0" encoding="UTF-8" standalone="no"?><svg xmlns="http://www.w3.org/2000/svg" xmlns:xlink="http://www.w3.org/1999/xlink" clip-rule="evenodd" stroke-miterlimit="10" viewBox="0 0 394 137"><desc>SVG generated by Keynote</desc><defs><pattern id="7580E416-BD14-40CF-BD51-36D45298C3FD" patternUnits="userSpaceOnUse" width="600" height="600" viewBox="0 0 600 600"><image xlink:href="../../9FF9663F-7474-4361-9DE0-0E53DABCF57A/assets/973693129411D3F8828A982CCE9B70D0.png" width="600.00" height="600.00"></image></pattern></defs><g transform="matrix(1.00, 0.00, -0.00, -1.00, 0.0, 137.0)"><image xlink:href="../../9FF9663F-7474-4361-9DE0-0E53DABCF57A/assets/98B4AE7F3464EC0EA57FCCDC2C974EB5.png" width="390.00" height="130.00" transform="matrix(1.00, 0.00, -0.00, -1.00, 2.0, 131.3)" opacity="0.50"></image><g><clipPath id="clip0x7f8e0f2b64b0"><path d="M 5.0 130.0 L 389.0 130.0 L 389.0 6.0 L 5.0 6.0 Z M 5.0 130.3 "></path></clipPath><g clip-path="url(#clip0x7f8e0f2b64b0)"><path d="M 5.0 6.0 L 389.0 6.0 L 389.0 130.0 L 5.0 130.0 Z M 5.0 6.0 " fill="url(#7580E416-BD14-40CF-BD51-36D45298C3FD)"></path></g></g><g><clipPath id="clip0x7f8e0f2b7fe0"><path d="M 3.0 6.3 L 391.4 6.3 L 391.4 132.3 L 3.0 132.3 Z M 3.0 6.3 "></path></clipPath><g clip-path="url(#clip0x7f8e0f2b7fe0)"><text xml:space="preserve" font-family="Helvetica-Light,Helvetica" font-size="24.0" fill="#FEFFFE" transform="matrix(1.00, 0.00, -0.00, -1.00, 135.1, 102.9)">N</text><text xml:space="preserve" font-family="Helvetica-Light,Helvetica" font-size="24.0" fill="#FEFFFE" transform="matrix(1.00, 0.00, -0.00, -1.00, 152.5, 102.9)">e</text><text xml:space="preserve" font-family="Helvetica-Light,Helvetica" font-size="24.0" fill="#FEFFFE" transform="matrix(1.00, 0.00, -0.00, -1.00, 165.8, 102.9)">w</text><text xml:space="preserve" font-family="Helvetica-Light,Helvetica" font-size="24.0" fill="#FEFFFE" transform="matrix(1.00, 0.00, -0.00, -1.00, 183.1, 102.9)"> </text><text xml:space="preserve" font-family="Helvetica-Light,Helvetica" font-size="24.0" fill="#FEFFFE" transform="matrix(1.00, 0.00, -0.00, -1.00, 189.8, 102.9)">S</text><text xml:space="preserve" font-family="Helvetica-Light,Helvetica" font-size="24.0" fill="#FEFFFE" transform="matrix(1.00, 0.00, -0.00, -1.00, 204.5, 102.9)">p</text><text xml:space="preserve" font-family="Helvetica-Light,Helvetica" font-size="24.0" fill="#FEFFFE" transform="matrix(1.00, 0.00, -0.00, -1.00, 219.1, 102.9)">a</text><text xml:space="preserve" font-family="Helvetica-Light,Helvetica" font-size="24.0" fill="#FEFFFE" transform="matrix(1.00, 0.00, -0.00, -1.00, 232.5, 102.9)">c</text><text xml:space="preserve" font-family="Helvetica-Light,Helvetica" font-size="24.0" fill="#FEFFFE" transform="matrix(1.00, 0.00, -0.00, -1.00, 245.8, 102.9)">e</text></g></g></g></svg>