<?xml version="1.0" encoding="UTF-8" standalone="no"?><svg xmlns="http://www.w3.org/2000/svg" xmlns:xlink="http://www.w3.org/1999/xlink" clip-rule="evenodd" stroke-miterlimit="10" viewBox="0 0 155 137"><desc>SVG generated by Keynote</desc><defs></defs><g transform="matrix(1.00, 0.00, -0.00, -1.00, 0.0, 137.0)"><image xlink:href="../../9FF9663F-7474-4361-9DE0-0E53DABCF57A/assets/F52F2590DCDD3B7CF3967F07B6498B91.png" width="152.00" height="130.00" transform="matrix(1.00, 0.00, -0.00, -1.00, 1.0, 131.3)" opacity="0.50"></image><g><clipPath id="clip0x7f8e0f3c2580"><path d="M 4.0 130.0 L 150.0 130.0 L 150.0 6.0 L 4.0 6.0 Z M 4.0 130.3 "></path></clipPath><g clip-path="url(#clip0x7f8e0f3c2580)"><image xlink:href="../../9FF9663F-7474-4361-9DE0-0E53DABCF57A/assets/973693129411D3F8828A982CCE9B70D0.png" width="600.00" height="600.00" transform="matrix(0.50, 0.00, -0.00, -0.50, 4.0, 130.0)"></image></g></g><g><clipPath id="clip0x7f8e0f3bce60"><path d="M 2.0 6.3 L 152.1 6.3 L 152.1 132.3 L 2.0 132.3 Z M 2.0 6.3 "></path></clipPath><g clip-path="url(#clip0x7f8e0f3bce60)"><text xml:space="preserve" font-family="Helvetica-Light,Helvetica" font-size="24.0" fill="#FEFFFE" transform="matrix(1.00, 0.00, -0.00, -1.00, 19.7, 102.9)">O</text><text xml:space="preserve" font-family="Helvetica-Light,Helvetica" font-size="24.0" fill="#FEFFFE" transform="matrix(1.00, 0.00, -0.00, -1.00, 38.4, 102.9)">l</text><text xml:space="preserve" font-family="Helvetica-Light,Helvetica" font-size="24.0" fill="#FEFFFE" transform="matrix(1.00, 0.00, -0.00, -1.00, 43.7, 102.9)">d</text><text xml:space="preserve" font-family="Helvetica-Light,Helvetica" font-size="24.0" fill="#FEFFFE" transform="matrix(1.00, 0.00, -0.00, -1.00, 58.4, 102.9)"> </text><text xml:space="preserve" font-family="Helvetica-Light,Helvetica" font-size="24.0" fill="#FEFFFE" transform="matrix(1.00, 0.00, -0.00, -1.00, 65.0, 102.9)">S</text><text xml:space="preserve" font-family="Helvetica-Light,Helvetica" font-size="24.0" fill="#FEFFFE" transform="matrix(1.00, 0.00, -0.00, -1.00, 79.7, 102.9)">p</text><text xml:space="preserve" font-family="Helvetica-Light,Helvetica" font-size="24.0" fill="#FEFFFE" transform="matrix(1.00, 0.00, -0.00, -1.00, 94.4, 102.9)">a</text><text xml:space="preserve" font-family="Helvetica-Light,Helvetica" font-size="24.0" fill="#FEFFFE" transform="matrix(1.00, 0.00, -0.00, -1.00, 107.7, 102.9)">c</text><text xml:space="preserve" font-family="Helvetica-Light,Helvetica" font-size="24.0" fill="#FEFFFE" transform="matrix(1.00, 0.00, -0.00, -1.00, 121.0, 102.9)">e</text></g></g></g></svg>