<?xml version="1.0" encoding="UTF-8" standalone="no"?><svg xmlns="http://www.w3.org/2000/svg" xmlns:xlink="http://www.w3.org/1999/xlink" clip-rule="evenodd" stroke-miterlimit="10" viewBox="0 0 986 641"><desc>SVG generated by Keynote</desc><defs></defs><g transform="matrix(1.00, 0.00, -0.00, -1.00, 0.0, 641.0)"><text xml:space="preserve" font-family="Menlo-Regular,Menlo" font-size="32.0" fill="#BA2CA2" transform="matrix(1.00, 0.00, -0.00, -1.00, 1.5, 613.5)">f</text><text xml:space="preserve" font-family="Menlo-Regular,Menlo" font-size="32.0" fill="#BA2CA2" transform="matrix(1.00, 0.00, -0.00, -1.00, 20.8, 613.5)">u</text><text xml:space="preserve" font-family="Menlo-Regular,Menlo" font-size="32.0" fill="#BA2CA2" transform="matrix(1.00, 0.00, -0.00, -1.00, 40.1, 613.5)">n</text><text xml:space="preserve" font-family="Menlo-Regular,Menlo" font-size="32.0" fill="#BA2CA2" transform="matrix(1.00, 0.00, -0.00, -1.00, 59.3, 613.5)">c</text><text xml:space="preserve" font-family="Menlo-Regular,Menlo" font-size="32.0" fill="#BA2CA2" transform="matrix(1.00, 0.00, -0.00, -1.00, 78.6, 613.5)">t</text><text xml:space="preserve" font-family="Menlo-Regular,Menlo" font-size="32.0" fill="#BA2CA2" transform="matrix(1.00, 0.00, -0.00, -1.00, 97.9, 613.5)">i</text><text xml:space="preserve" font-family="Menlo-Regular,Menlo" font-size="32.0" fill="#BA2CA2" transform="matrix(1.00, 0.00, -0.00, -1.00, 117.1, 613.5)">o</text><text xml:space="preserve" font-family="Menlo-Regular,Menlo" font-size="32.0" fill="#BA2CA2" transform="matrix(1.00, 0.00, -0.00, -1.00, 136.4, 613.5)">n</text><text xml:space="preserve" font-family="Menlo-Regular,Menlo" font-size="32.0" fill="#000000" transform="matrix(1.00, 0.00, -0.00, -1.00, 155.6, 613.5)"> </text><text xml:space="preserve" font-family="Menlo-Regular,Menlo" font-size="32.0" fill="#000000" transform="matrix(1.00, 0.00, -0.00, -1.00, 174.9, 613.5)">g</text><text xml:space="preserve" font-family="Menlo-Regular,Menlo" font-size="32.0" fill="#000000" transform="matrix(1.00, 0.00, -0.00, -1.00, 194.2, 613.5)">e</text><text xml:space="preserve" font-family="Menlo-Regular,Menlo" font-size="32.0" fill="#000000" transform="matrix(1.00, 0.00, -0.00, -1.00, 213.5, 613.5)">t</text><text xml:space="preserve" font-family="Menlo-Regular,Menlo" font-size="32.0" fill="#000000" transform="matrix(1.00, 0.00, -0.00, -1.00, 232.7, 613.5)">L</text><text xml:space="preserve" font-family="Menlo-Regular,Menlo" font-size="32.0" fill="#000000" transform="matrix(1.00, 0.00, -0.00, -1.00, 252.0, 613.5)">e</text><text xml:space="preserve" font-family="Menlo-Regular,Menlo" font-size="32.0" fill="#000000" transform="matrix(1.00, 0.00, -0.00, -1.00, 271.3, 613.5)">n</text><text xml:space="preserve" font-family="Menlo-Regular,Menlo" font-size="32.0" fill="#000000" transform="matrix(1.00, 0.00, -0.00, -1.00, 290.5, 613.5)">g</text><text xml:space="preserve" font-family="Menlo-Regular,Menlo" font-size="32.0" fill="#000000" transform="matrix(1.00, 0.00, -0.00, -1.00, 309.8, 613.5)">t</text><text xml:space="preserve" font-family="Menlo-Regular,Menlo" font-size="32.0" fill="#000000" transform="matrix(1.00, 0.00, -0.00, -1.00, 329.1, 613.5)">h</text><text xml:space="preserve" font-family="Menlo-Regular,Menlo" font-size="32.0" fill="#000000" transform="matrix(1.00, 0.00, -0.00, -1.00, 348.3, 613.5)">(</text><text xml:space="preserve" font-family="Menlo-Regular,Menlo" font-size="32.0" fill="#000000" transform="matrix(1.00, 0.00, -0.00, -1.00, 367.6, 613.5)">u</text><text xml:space="preserve" font-family="Menlo-Regular,Menlo" font-size="32.0" fill="#000000" transform="matrix(1.00, 0.00, -0.00, -1.00, 386.9, 613.5)">r</text><text xml:space="preserve" font-family="Menlo-Regular,Menlo" font-size="32.0" fill="#000000" transform="matrix(1.00, 0.00, -0.00, -1.00, 406.1, 613.5)">l</text><text xml:space="preserve" font-family="Menlo-Regular,Menlo" font-size="32.0" fill="#000000" transform="matrix(1.00, 0.00, -0.00, -1.00, 425.4, 613.5)">,</text><text xml:space="preserve" font-family="Menlo-Regular,Menlo" font-size="32.0" fill="#000000" transform="matrix(1.00, 0.00, -0.00, -1.00, 444.7, 613.5)"> </text><text xml:space="preserve" font-family="Menlo-Regular,Menlo" font-size="32.0" fill="#000000" transform="matrix(1.00, 0.00, -0.00, -1.00, 463.9, 613.5)">c</text><text xml:space="preserve" font-family="Menlo-Regular,Menlo" font-size="32.0" fill="#000000" transform="matrix(1.00, 0.00, -0.00, -1.00, 483.2, 613.5)">b</text><text xml:space="preserve" font-family="Menlo-Regular,Menlo" font-size="32.0" fill="#000000" transform="matrix(1.00, 0.00, -0.00, -1.00, 502.5, 613.5)">)</text><text xml:space="preserve" font-family="Menlo-Regular,Menlo" font-size="32.0" fill="#000000" transform="matrix(1.00, 0.00, -0.00, -1.00, 521.8, 613.5)"> </text><text xml:space="preserve" font-family="Menlo-Regular,Menlo" font-size="32.0" fill="#000000" transform="matrix(1.00, 0.00, -0.00, -1.00, 541.0, 613.5)">{</text><text xml:space="preserve" font-family="Menlo-Regular,Menlo" font-size="32.0" fill="#000000" transform="matrix(1.00, 0.00, -0.00, -1.00, 560.3, 613.5)"> </text><text xml:space="preserve" font-family="Menlo-Regular,Menlo" font-size="32.0" fill="#000000" transform="matrix(1.00, 0.00, -0.00, -1.00, 1.5, 575.5)"> </text><text xml:space="preserve" font-family="Menlo-Regular,Menlo" font-size="32.0" fill="#000000" transform="matrix(1.00, 0.00, -0.00, -1.00, 20.8, 575.5)"> </text><text xml:space="preserve" font-family="Menlo-Regular,Menlo" font-size="32.0" fill="#000000" transform="matrix(1.00, 0.00, -0.00, -1.00, 40.1, 575.5)"> </text><text xml:space="preserve" font-family="Menlo-Regular,Menlo" font-size="32.0" fill="#000000" transform="matrix(1.00, 0.00, -0.00, -1.00, 1.5, 537.5)"> </text><text xml:space="preserve" font-family="Menlo-Regular,Menlo" font-size="32.0" fill="#000000" transform="matrix(1.00, 0.00, -0.00, -1.00, 20.8, 537.5)"> </text><text xml:space="preserve" font-family="Menlo-Regular,Menlo" font-size="32.0" fill="#000000" transform="matrix(1.00, 0.00, -0.00, -1.00, 40.1, 537.5)">r</text><text xml:space="preserve" font-family="Menlo-Regular,Menlo" font-size="32.0" fill="#000000" transform="matrix(1.00, 0.00, -0.00, -1.00, 59.3, 537.5)">e</text><text xml:space="preserve" font-family="Menlo-Regular,Menlo" font-size="32.0" fill="#000000" transform="matrix(1.00, 0.00, -0.00, -1.00, 78.6, 537.5)">q</text><text xml:space="preserve" font-family="Menlo-Regular,Menlo" font-size="32.0" fill="#000000" transform="matrix(1.00, 0.00, -0.00, -1.00, 97.9, 537.5)">u</text><text xml:space="preserve" font-family="Menlo-Regular,Menlo" font-size="32.0" fill="#000000" transform="matrix(1.00, 0.00, -0.00, -1.00, 117.1, 537.5)">e</text><text xml:space="preserve" font-family="Menlo-Regular,Menlo" font-size="32.0" fill="#000000" transform="matrix(1.00, 0.00, -0.00, -1.00, 136.4, 537.5)">s</text><text xml:space="preserve" font-family="Menlo-Regular,Menlo" font-size="32.0" fill="#000000" transform="matrix(1.00, 0.00, -0.00, -1.00, 155.7, 537.5)">t</text><text xml:space="preserve" font-family="Menlo-Regular,Menlo" font-size="32.0" fill="#000000" transform="matrix(1.00, 0.00, -0.00, -1.00, 174.9, 537.5)">.</text><text xml:space="preserve" font-family="Menlo-Regular,Menlo" font-size="32.0" fill="#000000" transform="matrix(1.00, 0.00, -0.00, -1.00, 194.2, 537.5)">g</text><text xml:space="preserve" font-family="Menlo-Regular,Menlo" font-size="32.0" fill="#000000" transform="matrix(1.00, 0.00, -0.00, -1.00, 213.5, 537.5)">e</text><text xml:space="preserve" font-family="Menlo-Regular,Menlo" font-size="32.0" fill="#000000" transform="matrix(1.00, 0.00, -0.00, -1.00, 232.7, 537.5)">t</text><text xml:space="preserve" font-family="Menlo-Regular,Menlo" font-size="32.0" fill="#000000" transform="matrix(1.00, 0.00, -0.00, -1.00, 252.0, 537.5)">(</text><text xml:space="preserve" font-family="Menlo-Regular,Menlo" font-size="32.0" fill="#000000" transform="matrix(1.00, 0.00, -0.00, -1.00, 271.3, 537.5)">u</text><text xml:space="preserve" font-family="Menlo-Regular,Menlo" font-size="32.0" fill="#000000" transform="matrix(1.00, 0.00, -0.00, -1.00, 290.6, 537.5)">r</text><text xml:space="preserve" font-family="Menlo-Regular,Menlo" font-size="32.0" fill="#000000" transform="matrix(1.00, 0.00, -0.00, -1.00, 309.8, 537.5)">l</text><text xml:space="preserve" font-family="Menlo-Regular,Menlo" font-size="32.0" fill="#000000" transform="matrix(1.00, 0.00, -0.00, -1.00, 329.1, 537.5)">,</text><text xml:space="preserve" font-family="Menlo-Regular,Menlo" font-size="32.0" fill="#000000" transform="matrix(1.00, 0.00, -0.00, -1.00, 348.4, 537.5)"> </text><text xml:space="preserve" font-family="Menlo-Regular,Menlo" font-size="32.0" fill="#BA2CA2" transform="matrix(1.00, 0.00, -0.00, -1.00, 367.6, 537.5)">f</text><text xml:space="preserve" font-family="Menlo-Regular,Menlo" font-size="32.0" fill="#BA2CA2" transform="matrix(1.00, 0.00, -0.00, -1.00, 386.8, 537.5)">u</text><text xml:space="preserve" font-family="Menlo-Regular,Menlo" font-size="32.0" fill="#BA2CA2" transform="matrix(1.00, 0.00, -0.00, -1.00, 406.1, 537.5)">n</text><text xml:space="preserve" font-family="Menlo-Regular,Menlo" font-size="32.0" fill="#BA2CA2" transform="matrix(1.00, 0.00, -0.00, -1.00, 425.4, 537.5)">c</text><text xml:space="preserve" font-family="Menlo-Regular,Menlo" font-size="32.0" fill="#BA2CA2" transform="matrix(1.00, 0.00, -0.00, -1.00, 444.6, 537.5)">t</text><text xml:space="preserve" font-family="Menlo-Regular,Menlo" font-size="32.0" fill="#BA2CA2" transform="matrix(1.00, 0.00, -0.00, -1.00, 463.9, 537.5)">i</text><text xml:space="preserve" font-family="Menlo-Regular,Menlo" font-size="32.0" fill="#BA2CA2" transform="matrix(1.00, 0.00, -0.00, -1.00, 483.2, 537.5)">o</text><text xml:space="preserve" font-family="Menlo-Regular,Menlo" font-size="32.0" fill="#BA2CA2" transform="matrix(1.00, 0.00, -0.00, -1.00, 502.4, 537.5)">n</text><text xml:space="preserve" font-family="Menlo-Regular,Menlo" font-size="32.0" fill="#000000" transform="matrix(1.00, 0.00, -0.00, -1.00, 521.7, 537.5)">(</text><text xml:space="preserve" font-family="Menlo-Regular,Menlo" font-size="32.0" fill="#000000" transform="matrix(1.00, 0.00, -0.00, -1.00, 541.0, 537.5)">e</text><text xml:space="preserve" font-family="Menlo-Regular,Menlo" font-size="32.0" fill="#000000" transform="matrix(1.00, 0.00, -0.00, -1.00, 560.2, 537.5)">r</text><text xml:space="preserve" font-family="Menlo-Regular,Menlo" font-size="32.0" fill="#000000" transform="matrix(1.00, 0.00, -0.00, -1.00, 579.5, 537.5)">r</text><text xml:space="preserve" font-family="Menlo-Regular,Menlo" font-size="32.0" fill="#000000" transform="matrix(1.00, 0.00, -0.00, -1.00, 598.8, 537.5)">,</text><text xml:space="preserve" font-family="Menlo-Regular,Menlo" font-size="32.0" fill="#000000" transform="matrix(1.00, 0.00, -0.00, -1.00, 618.0, 537.5)"> </text><text xml:space="preserve" font-family="Menlo-Regular,Menlo" font-size="32.0" fill="#000000" transform="matrix(1.00, 0.00, -0.00, -1.00, 637.3, 537.5)">r</text><text xml:space="preserve" font-family="Menlo-Regular,Menlo" font-size="32.0" fill="#000000" transform="matrix(1.00, 0.00, -0.00, -1.00, 656.6, 537.5)">e</text><text xml:space="preserve" font-family="Menlo-Regular,Menlo" font-size="32.0" fill="#000000" transform="matrix(1.00, 0.00, -0.00, -1.00, 675.8, 537.5)">s</text><text xml:space="preserve" font-family="Menlo-Regular,Menlo" font-size="32.0" fill="#000000" transform="matrix(1.00, 0.00, -0.00, -1.00, 695.1, 537.5)">p</text><text xml:space="preserve" font-family="Menlo-Regular,Menlo" font-size="32.0" fill="#000000" transform="matrix(1.00, 0.00, -0.00, -1.00, 714.4, 537.5)">,</text><text xml:space="preserve" font-family="Menlo-Regular,Menlo" font-size="32.0" fill="#000000" transform="matrix(1.00, 0.00, -0.00, -1.00, 733.7, 537.5)"> </text><text xml:space="preserve" font-family="Menlo-Regular,Menlo" font-size="32.0" fill="#000000" transform="matrix(1.00, 0.00, -0.00, -1.00, 752.9, 537.5)">b</text><text xml:space="preserve" font-family="Menlo-Regular,Menlo" font-size="32.0" fill="#000000" transform="matrix(1.00, 0.00, -0.00, -1.00, 772.2, 537.5)">o</text><text xml:space="preserve" font-family="Menlo-Regular,Menlo" font-size="32.0" fill="#000000" transform="matrix(1.00, 0.00, -0.00, -1.00, 791.5, 537.5)">d</text><text xml:space="preserve" font-family="Menlo-Regular,Menlo" font-size="32.0" fill="#000000" transform="matrix(1.00, 0.00, -0.00, -1.00, 810.7, 537.5)">y</text><text xml:space="preserve" font-family="Menlo-Regular,Menlo" font-size="32.0" fill="#000000" transform="matrix(1.00, 0.00, -0.00, -1.00, 830.0, 537.5)">)</text><text xml:space="preserve" font-family="Menlo-Regular,Menlo" font-size="32.0" fill="#000000" transform="matrix(1.00, 0.00, -0.00, -1.00, 849.3, 537.5)">)</text><text xml:space="preserve" font-family="Menlo-Regular,Menlo" font-size="32.0" fill="#000000" transform="matrix(1.00, 0.00, -0.00, -1.00, 868.5, 537.5)"> </text><text xml:space="preserve" font-family="Menlo-Regular,Menlo" font-size="32.0" fill="#000000" transform="matrix(1.00, 0.00, -0.00, -1.00, 887.8, 537.5)">{</text><text xml:space="preserve" font-family="Menlo-Regular,Menlo" font-size="32.0" fill="#000000" transform="matrix(1.00, 0.00, -0.00, -1.00, 907.1, 537.5)"> </text><text xml:space="preserve" font-family="Menlo-Regular,Menlo" font-size="32.0" fill="#000000" transform="matrix(1.00, 0.00, -0.00, -1.00, 1.5, 499.5)"> </text><text xml:space="preserve" font-family="Menlo-Regular,Menlo" font-size="32.0" fill="#000000" transform="matrix(1.00, 0.00, -0.00, -1.00, 20.8, 499.5)"> </text><text xml:space="preserve" font-family="Menlo-Regular,Menlo" font-size="32.0" fill="#000000" transform="matrix(1.00, 0.00, -0.00, -1.00, 40.1, 499.5)"> </text><text xml:space="preserve" font-family="Menlo-Regular,Menlo" font-size="32.0" fill="#000000" transform="matrix(1.00, 0.00, -0.00, -1.00, 59.3, 499.5)"> </text><text xml:space="preserve" font-family="Menlo-Regular,Menlo" font-size="32.0" fill="#BA2CA2" transform="matrix(1.00, 0.00, -0.00, -1.00, 78.6, 499.5)">i</text><text xml:space="preserve" font-family="Menlo-Regular,Menlo" font-size="32.0" fill="#BA2CA2" transform="matrix(1.00, 0.00, -0.00, -1.00, 97.9, 499.5)">f</text><text xml:space="preserve" font-family="Menlo-Regular,Menlo" font-size="32.0" fill="#000000" transform="matrix(1.00, 0.00, -0.00, -1.00, 117.1, 499.5)"> </text><text xml:space="preserve" font-family="Menlo-Regular,Menlo" font-size="32.0" fill="#000000" transform="matrix(1.00, 0.00, -0.00, -1.00, 136.4, 499.5)">(</text><text xml:space="preserve" font-family="Menlo-Regular,Menlo" font-size="32.0" fill="#000000" transform="matrix(1.00, 0.00, -0.00, -1.00, 155.7, 499.5)">e</text><text xml:space="preserve" font-family="Menlo-Regular,Menlo" font-size="32.0" fill="#000000" transform="matrix(1.00, 0.00, -0.00, -1.00, 174.9, 499.5)">r</text><text xml:space="preserve" font-family="Menlo-Regular,Menlo" font-size="32.0" fill="#000000" transform="matrix(1.00, 0.00, -0.00, -1.00, 194.2, 499.5)">r</text><text xml:space="preserve" font-family="Menlo-Regular,Menlo" font-size="32.0" fill="#000000" transform="matrix(1.00, 0.00, -0.00, -1.00, 213.5, 499.5)">)</text><text xml:space="preserve" font-family="Menlo-Regular,Menlo" font-size="32.0" fill="#000000" transform="matrix(1.00, 0.00, -0.00, -1.00, 232.7, 499.5)"> </text><text xml:space="preserve" font-family="Menlo-Regular,Menlo" font-size="32.0" fill="#000000" transform="matrix(1.00, 0.00, -0.00, -1.00, 252.0, 499.5)">{</text><text xml:space="preserve" font-family="Menlo-Regular,Menlo" font-size="32.0" fill="#000000" transform="matrix(1.00, 0.00, -0.00, -1.00, 271.3, 499.5)"> </text><text xml:space="preserve" font-family="Menlo-Regular,Menlo" font-size="32.0" fill="#000000" transform="matrix(1.00, 0.00, -0.00, -1.00, 1.5, 461.5)"> </text><text xml:space="preserve" font-family="Menlo-Regular,Menlo" font-size="32.0" fill="#000000" transform="matrix(1.00, 0.00, -0.00, -1.00, 20.8, 461.5)"> </text><text xml:space="preserve" font-family="Menlo-Regular,Menlo" font-size="32.0" fill="#000000" transform="matrix(1.00, 0.00, -0.00, -1.00, 40.1, 461.5)"> </text><text xml:space="preserve" font-family="Menlo-Regular,Menlo" font-size="32.0" fill="#000000" transform="matrix(1.00, 0.00, -0.00, -1.00, 59.3, 461.5)"> </text><text xml:space="preserve" font-family="Menlo-Regular,Menlo" font-size="32.0" fill="#000000" transform="matrix(1.00, 0.00, -0.00, -1.00, 78.6, 461.5)"> </text><text xml:space="preserve" font-family="Menlo-Regular,Menlo" font-size="32.0" fill="#000000" transform="matrix(1.00, 0.00, -0.00, -1.00, 97.9, 461.5)"> </text><text xml:space="preserve" font-family="Menlo-Regular,Menlo" font-size="32.0" fill="#BA2CA2" transform="matrix(1.00, 0.00, -0.00, -1.00, 117.1, 461.5)">r</text><text xml:space="preserve" font-family="Menlo-Regular,Menlo" font-size="32.0" fill="#BA2CA2" transform="matrix(1.00, 0.00, -0.00, -1.00, 136.4, 461.5)">e</text><text xml:space="preserve" font-family="Menlo-Regular,Menlo" font-size="32.0" fill="#BA2CA2" transform="matrix(1.00, 0.00, -0.00, -1.00, 155.7, 461.5)">t</text><text xml:space="preserve" font-family="Menlo-Regular,Menlo" font-size="32.0" fill="#BA2CA2" transform="matrix(1.00, 0.00, -0.00, -1.00, 174.9, 461.5)">u</text><text xml:space="preserve" font-family="Menlo-Regular,Menlo" font-size="32.0" fill="#BA2CA2" transform="matrix(1.00, 0.00, -0.00, -1.00, 194.2, 461.5)">r</text><text xml:space="preserve" font-family="Menlo-Regular,Menlo" font-size="32.0" fill="#BA2CA2" transform="matrix(1.00, 0.00, -0.00, -1.00, 213.5, 461.5)">n</text><text xml:space="preserve" font-family="Menlo-Regular,Menlo" font-size="32.0" fill="#000000" transform="matrix(1.00, 0.00, -0.00, -1.00, 232.7, 461.5)"> </text><text xml:space="preserve" font-family="Menlo-Regular,Menlo" font-size="32.0" fill="#000000" transform="matrix(1.00, 0.00, -0.00, -1.00, 252.0, 461.5)">c</text><text xml:space="preserve" font-family="Menlo-Regular,Menlo" font-size="32.0" fill="#000000" transform="matrix(1.00, 0.00, -0.00, -1.00, 271.2, 461.5)">b</text><text xml:space="preserve" font-family="Menlo-Regular,Menlo" font-size="32.0" fill="#000000" transform="matrix(1.00, 0.00, -0.00, -1.00, 290.5, 461.5)">(</text><text xml:space="preserve" font-family="Menlo-Regular,Menlo" font-size="32.0" fill="#BA2CA2" transform="matrix(1.00, 0.00, -0.00, -1.00, 309.8, 461.5)">n</text><text xml:space="preserve" font-family="Menlo-Regular,Menlo" font-size="32.0" fill="#BA2CA2" transform="matrix(1.00, 0.00, -0.00, -1.00, 329.0, 461.5)">e</text><text xml:space="preserve" font-family="Menlo-Regular,Menlo" font-size="32.0" fill="#BA2CA2" transform="matrix(1.00, 0.00, -0.00, -1.00, 348.3, 461.5)">w</text><text xml:space="preserve" font-family="Menlo-Regular,Menlo" font-size="32.0" fill="#000000" transform="matrix(1.00, 0.00, -0.00, -1.00, 367.6, 461.5)"> </text><text xml:space="preserve" font-family="Menlo-Regular,Menlo" font-size="32.0" fill="#000000" transform="matrix(1.00, 0.00, -0.00, -1.00, 386.8, 461.5)">E</text><text xml:space="preserve" font-family="Menlo-Regular,Menlo" font-size="32.0" fill="#000000" transform="matrix(1.00, 0.00, -0.00, -1.00, 406.1, 461.5)">r</text><text xml:space="preserve" font-family="Menlo-Regular,Menlo" font-size="32.0" fill="#000000" transform="matrix(1.00, 0.00, -0.00, -1.00, 425.4, 461.5)">r</text><text xml:space="preserve" font-family="Menlo-Regular,Menlo" font-size="32.0" fill="#000000" transform="matrix(1.00, 0.00, -0.00, -1.00, 444.6, 461.5)">o</text><text xml:space="preserve" font-family="Menlo-Regular,Menlo" font-size="32.0" fill="#000000" transform="matrix(1.00, 0.00, -0.00, -1.00, 463.9, 461.5)">r</text><text xml:space="preserve" font-family="Menlo-Regular,Menlo" font-size="32.0" fill="#000000" transform="matrix(1.00, 0.00, -0.00, -1.00, 483.2, 461.5)">(</text><text xml:space="preserve" font-family="Menlo-Regular,Menlo" font-size="32.0" fill="#000000" transform="matrix(1.00, 0.00, -0.00, -1.00, 502.4, 461.5)">e</text><text xml:space="preserve" font-family="Menlo-Regular,Menlo" font-size="32.0" fill="#000000" transform="matrix(1.00, 0.00, -0.00, -1.00, 521.7, 461.5)">r</text><text xml:space="preserve" font-family="Menlo-Regular,Menlo" font-size="32.0" fill="#000000" transform="matrix(1.00, 0.00, -0.00, -1.00, 541.0, 461.5)">r</text><text xml:space="preserve" font-family="Menlo-Regular,Menlo" font-size="32.0" fill="#000000" transform="matrix(1.00, 0.00, -0.00, -1.00, 560.3, 461.5)">)</text><text xml:space="preserve" font-family="Menlo-Regular,Menlo" font-size="32.0" fill="#000000" transform="matrix(1.00, 0.00, -0.00, -1.00, 579.5, 461.5)">)</text><text xml:space="preserve" font-family="Menlo-Regular,Menlo" font-size="32.0" fill="#000000" transform="matrix(1.00, 0.00, -0.00, -1.00, 598.8, 461.5)">)</text><text xml:space="preserve" font-family="Menlo-Regular,Menlo" font-size="32.0" fill="#000000" transform="matrix(1.00, 0.00, -0.00, -1.00, 618.1, 461.5)">;</text><text xml:space="preserve" font-family="Menlo-Regular,Menlo" font-size="32.0" fill="#000000" transform="matrix(1.00, 0.00, -0.00, -1.00, 637.3, 461.5)"> </text><text xml:space="preserve" font-family="Menlo-Regular,Menlo" font-size="32.0" fill="#000000" transform="matrix(1.00, 0.00, -0.00, -1.00, 1.5, 423.5)"> </text><text xml:space="preserve" font-family="Menlo-Regular,Menlo" font-size="32.0" fill="#000000" transform="matrix(1.00, 0.00, -0.00, -1.00, 20.8, 423.5)"> </text><text xml:space="preserve" font-family="Menlo-Regular,Menlo" font-size="32.0" fill="#000000" transform="matrix(1.00, 0.00, -0.00, -1.00, 40.1, 423.5)"> </text><text xml:space="preserve" font-family="Menlo-Regular,Menlo" font-size="32.0" fill="#000000" transform="matrix(1.00, 0.00, -0.00, -1.00, 59.3, 423.5)"> </text><text xml:space="preserve" font-family="Menlo-Regular,Menlo" font-size="32.0" fill="#000000" transform="matrix(1.00, 0.00, -0.00, -1.00, 78.6, 423.5)">}</text><text xml:space="preserve" font-family="Menlo-Regular,Menlo" font-size="32.0" fill="#000000" transform="matrix(1.00, 0.00, -0.00, -1.00, 97.8, 423.5)"> </text><text xml:space="preserve" font-family="Menlo-Regular,Menlo" font-size="32.0" fill="#000000" transform="matrix(1.00, 0.00, -0.00, -1.00, 1.5, 347.5)"> </text><text xml:space="preserve" font-family="Menlo-Regular,Menlo" font-size="32.0" fill="#000000" transform="matrix(1.00, 0.00, -0.00, -1.00, 20.8, 347.5)"> </text><text xml:space="preserve" font-family="Menlo-Regular,Menlo" font-size="32.0" fill="#000000" transform="matrix(1.00, 0.00, -0.00, -1.00, 40.1, 347.5)"> </text><text xml:space="preserve" font-family="Menlo-Regular,Menlo" font-size="32.0" fill="#000000" transform="matrix(1.00, 0.00, -0.00, -1.00, 59.3, 347.5)"> </text><text xml:space="preserve" font-family="Menlo-Bold,Menlo" font-weight="bold" font-size="32.0" fill="#BA2CA2" transform="matrix(1.00, 0.00, -0.00, -1.00, 78.6, 347.5)">t</text><text xml:space="preserve" font-family="Menlo-Bold,Menlo" font-weight="bold" font-size="32.0" fill="#BA2CA2" transform="matrix(1.00, 0.00, -0.00, -1.00, 97.9, 347.5)">r</text><text xml:space="preserve" font-family="Menlo-Bold,Menlo" font-weight="bold" font-size="32.0" fill="#BA2CA2" transform="matrix(1.00, 0.00, -0.00, -1.00, 117.1, 347.5)">y</text><text xml:space="preserve" font-family="Menlo-Bold,Menlo" font-weight="bold" font-size="32.0" fill="#000000" transform="matrix(1.00, 0.00, -0.00, -1.00, 136.4, 347.5)"> </text><text xml:space="preserve" font-family="Menlo-Bold,Menlo" font-weight="bold" font-size="32.0" fill="#000000" transform="matrix(1.00, 0.00, -0.00, -1.00, 155.6, 347.5)">{</text><text xml:space="preserve" font-family="Menlo-Bold,Menlo" font-weight="bold" font-size="32.0" fill="#000000" transform="matrix(1.00, 0.00, -0.00, -1.00, 174.9, 347.5)"> </text><text xml:space="preserve" font-family="Menlo-Bold,Menlo" font-weight="bold" font-size="32.0" fill="#000000" transform="matrix(1.00, 0.00, -0.00, -1.00, 1.5, 309.5)"> </text><text xml:space="preserve" font-family="Menlo-Bold,Menlo" font-weight="bold" font-size="32.0" fill="#000000" transform="matrix(1.00, 0.00, -0.00, -1.00, 20.8, 309.5)"> </text><text xml:space="preserve" font-family="Menlo-Bold,Menlo" font-weight="bold" font-size="32.0" fill="#000000" transform="matrix(1.00, 0.00, -0.00, -1.00, 40.1, 309.5)"> </text><text xml:space="preserve" font-family="Menlo-Bold,Menlo" font-weight="bold" font-size="32.0" fill="#000000" transform="matrix(1.00, 0.00, -0.00, -1.00, 59.3, 309.5)"> </text><text xml:space="preserve" font-family="Menlo-Bold,Menlo" font-weight="bold" font-size="32.0" fill="#000000" transform="matrix(1.00, 0.00, -0.00, -1.00, 78.6, 309.5)"> </text><text xml:space="preserve" font-family="Menlo-Bold,Menlo" font-weight="bold" font-size="32.0" fill="#000000" transform="matrix(1.00, 0.00, -0.00, -1.00, 97.9, 309.5)"> </text><text xml:space="preserve" font-family="Menlo-Bold,Menlo" font-weight="bold" font-size="32.0" fill="#BA2CA2" transform="matrix(1.00, 0.00, -0.00, -1.00, 117.1, 309.5)">v</text><text xml:space="preserve" font-family="Menlo-Bold,Menlo" font-weight="bold" font-size="32.0" fill="#BA2CA2" transform="matrix(1.00, 0.00, -0.00, -1.00, 136.4, 309.5)">a</text><text xml:space="preserve" font-family="Menlo-Bold,Menlo" font-weight="bold" font-size="32.0" fill="#BA2CA2" transform="matrix(1.00, 0.00, -0.00, -1.00, 155.7, 309.5)">r</text><text xml:space="preserve" font-family="Menlo-Bold,Menlo" font-weight="bold" font-size="32.0" fill="#000000" transform="matrix(1.00, 0.00, -0.00, -1.00, 174.9, 309.5)"> </text><text xml:space="preserve" font-family="Menlo-Bold,Menlo" font-weight="bold" font-size="32.0" fill="#000000" transform="matrix(1.00, 0.00, -0.00, -1.00, 194.2, 309.5)">o</text><text xml:space="preserve" font-family="Menlo-Bold,Menlo" font-weight="bold" font-size="32.0" fill="#000000" transform="matrix(1.00, 0.00, -0.00, -1.00, 213.4, 309.5)">b</text><text xml:space="preserve" font-family="Menlo-Bold,Menlo" font-weight="bold" font-size="32.0" fill="#000000" transform="matrix(1.00, 0.00, -0.00, -1.00, 232.7, 309.5)">j</text><text xml:space="preserve" font-family="Menlo-Bold,Menlo" font-weight="bold" font-size="32.0" fill="#000000" transform="matrix(1.00, 0.00, -0.00, -1.00, 252.0, 309.5)"> </text><text xml:space="preserve" font-family="Menlo-Bold,Menlo" font-weight="bold" font-size="32.0" fill="#000000" transform="matrix(1.00, 0.00, -0.00, -1.00, 271.3, 309.5)">=</text><text xml:space="preserve" font-family="Menlo-Bold,Menlo" font-weight="bold" font-size="32.0" fill="#000000" transform="matrix(1.00, 0.00, -0.00, -1.00, 290.5, 309.5)"> </text><text xml:space="preserve" font-family="Menlo-Bold,Menlo" font-weight="bold" font-size="32.0" fill="#000000" transform="matrix(1.00, 0.00, -0.00, -1.00, 309.8, 309.5)">J</text><text xml:space="preserve" font-family="Menlo-Bold,Menlo" font-weight="bold" font-size="32.0" fill="#000000" transform="matrix(1.00, 0.00, -0.00, -1.00, 329.1, 309.5)">S</text><text xml:space="preserve" font-family="Menlo-Bold,Menlo" font-weight="bold" font-size="32.0" fill="#000000" transform="matrix(1.00, 0.00, -0.00, -1.00, 348.3, 309.5)">O</text><text xml:space="preserve" font-family="Menlo-Bold,Menlo" font-weight="bold" font-size="32.0" fill="#000000" transform="matrix(1.00, 0.00, -0.00, -1.00, 367.6, 309.5)">N</text><text xml:space="preserve" font-family="Menlo-Bold,Menlo" font-weight="bold" font-size="32.0" fill="#000000" transform="matrix(1.00, 0.00, -0.00, -1.00, 386.9, 309.5)">.</text><text xml:space="preserve" font-family="Menlo-Bold,Menlo" font-weight="bold" font-size="32.0" fill="#000000" transform="matrix(1.00, 0.00, -0.00, -1.00, 406.1, 309.5)">p</text><text xml:space="preserve" font-family="Menlo-Bold,Menlo" font-weight="bold" font-size="32.0" fill="#000000" transform="matrix(1.00, 0.00, -0.00, -1.00, 425.4, 309.5)">a</text><text xml:space="preserve" font-family="Menlo-Bold,Menlo" font-weight="bold" font-size="32.0" fill="#000000" transform="matrix(1.00, 0.00, -0.00, -1.00, 444.7, 309.5)">r</text><text xml:space="preserve" font-family="Menlo-Bold,Menlo" font-weight="bold" font-size="32.0" fill="#000000" transform="matrix(1.00, 0.00, -0.00, -1.00, 463.9, 309.5)">s</text><text xml:space="preserve" font-family="Menlo-Bold,Menlo" font-weight="bold" font-size="32.0" fill="#000000" transform="matrix(1.00, 0.00, -0.00, -1.00, 483.2, 309.5)">e</text><text xml:space="preserve" font-family="Menlo-Bold,Menlo" font-weight="bold" font-size="32.0" fill="#000000" transform="matrix(1.00, 0.00, -0.00, -1.00, 502.5, 309.5)">(</text><text xml:space="preserve" font-family="Menlo-Bold,Menlo" font-weight="bold" font-size="32.0" fill="#000000" transform="matrix(1.00, 0.00, -0.00, -1.00, 521.8, 309.5)">b</text><text xml:space="preserve" font-family="Menlo-Bold,Menlo" font-weight="bold" font-size="32.0" fill="#000000" transform="matrix(1.00, 0.00, -0.00, -1.00, 541.0, 309.5)">o</text><text xml:space="preserve" font-family="Menlo-Bold,Menlo" font-weight="bold" font-size="32.0" fill="#000000" transform="matrix(1.00, 0.00, -0.00, -1.00, 560.3, 309.5)">d</text><text xml:space="preserve" font-family="Menlo-Bold,Menlo" font-weight="bold" font-size="32.0" fill="#000000" transform="matrix(1.00, 0.00, -0.00, -1.00, 579.6, 309.5)">y</text><text xml:space="preserve" font-family="Menlo-Bold,Menlo" font-weight="bold" font-size="32.0" fill="#000000" transform="matrix(1.00, 0.00, -0.00, -1.00, 598.8, 309.5)">)</text><text xml:space="preserve" font-family="Menlo-Bold,Menlo" font-weight="bold" font-size="32.0" fill="#000000" transform="matrix(1.00, 0.00, -0.00, -1.00, 618.1, 309.5)">;</text><text xml:space="preserve" font-family="Menlo-Bold,Menlo" font-weight="bold" font-size="32.0" fill="#000000" transform="matrix(1.00, 0.00, -0.00, -1.00, 637.4, 309.5)"> </text><text xml:space="preserve" font-family="Menlo-Bold,Menlo" font-weight="bold" font-size="32.0" fill="#000000" transform="matrix(1.00, 0.00, -0.00, -1.00, 1.5, 271.5)"> </text><text xml:space="preserve" font-family="Menlo-Bold,Menlo" font-weight="bold" font-size="32.0" fill="#000000" transform="matrix(1.00, 0.00, -0.00, -1.00, 20.8, 271.5)"> </text><text xml:space="preserve" font-family="Menlo-Bold,Menlo" font-weight="bold" font-size="32.0" fill="#000000" transform="matrix(1.00, 0.00, -0.00, -1.00, 40.1, 271.5)"> </text><text xml:space="preserve" font-family="Menlo-Bold,Menlo" font-weight="bold" font-size="32.0" fill="#000000" transform="matrix(1.00, 0.00, -0.00, -1.00, 59.3, 271.5)"> </text><text xml:space="preserve" font-family="Menlo-Bold,Menlo" font-weight="bold" font-size="32.0" fill="#000000" transform="matrix(1.00, 0.00, -0.00, -1.00, 78.6, 271.5)">}</text><text xml:space="preserve" font-family="Menlo-Bold,Menlo" font-weight="bold" font-size="32.0" fill="#000000" transform="matrix(1.00, 0.00, -0.00, -1.00, 97.9, 271.5)"> </text><text xml:space="preserve" font-family="Menlo-Bold,Menlo" font-weight="bold" font-size="32.0" fill="#000000" transform="matrix(1.00, 0.00, -0.00, -1.00, 1.5, 233.5)"> </text><text xml:space="preserve" font-family="Menlo-Bold,Menlo" font-weight="bold" font-size="32.0" fill="#000000" transform="matrix(1.00, 0.00, -0.00, -1.00, 20.8, 233.5)"> </text><text xml:space="preserve" font-family="Menlo-Bold,Menlo" font-weight="bold" font-size="32.0" fill="#000000" transform="matrix(1.00, 0.00, -0.00, -1.00, 40.1, 233.5)"> </text><text xml:space="preserve" font-family="Menlo-Bold,Menlo" font-weight="bold" font-size="32.0" fill="#000000" transform="matrix(1.00, 0.00, -0.00, -1.00, 59.3, 233.5)"> </text><text xml:space="preserve" font-family="Menlo-Bold,Menlo" font-weight="bold" font-size="32.0" fill="#BA2CA2" transform="matrix(1.00, 0.00, -0.00, -1.00, 78.6, 233.5)">c</text><text xml:space="preserve" font-family="Menlo-Bold,Menlo" font-weight="bold" font-size="32.0" fill="#BA2CA2" transform="matrix(1.00, 0.00, -0.00, -1.00, 97.9, 233.5)">a</text><text xml:space="preserve" font-family="Menlo-Bold,Menlo" font-weight="bold" font-size="32.0" fill="#BA2CA2" transform="matrix(1.00, 0.00, -0.00, -1.00, 117.1, 233.5)">t</text><text xml:space="preserve" font-family="Menlo-Bold,Menlo" font-weight="bold" font-size="32.0" fill="#BA2CA2" transform="matrix(1.00, 0.00, -0.00, -1.00, 136.4, 233.5)">c</text><text xml:space="preserve" font-family="Menlo-Bold,Menlo" font-weight="bold" font-size="32.0" fill="#BA2CA2" transform="matrix(1.00, 0.00, -0.00, -1.00, 155.7, 233.5)">h</text><text xml:space="preserve" font-family="Menlo-Bold,Menlo" font-weight="bold" font-size="32.0" fill="#000000" transform="matrix(1.00, 0.00, -0.00, -1.00, 174.9, 233.5)">(</text><text xml:space="preserve" font-family="Menlo-Bold,Menlo" font-weight="bold" font-size="32.0" fill="#000000" transform="matrix(1.00, 0.00, -0.00, -1.00, 194.2, 233.5)">e</text><text xml:space="preserve" font-family="Menlo-Bold,Menlo" font-weight="bold" font-size="32.0" fill="#000000" transform="matrix(1.00, 0.00, -0.00, -1.00, 213.4, 233.5)">)</text><text xml:space="preserve" font-family="Menlo-Bold,Menlo" font-weight="bold" font-size="32.0" fill="#000000" transform="matrix(1.00, 0.00, -0.00, -1.00, 232.7, 233.5)"> </text><text xml:space="preserve" font-family="Menlo-Bold,Menlo" font-weight="bold" font-size="32.0" fill="#000000" transform="matrix(1.00, 0.00, -0.00, -1.00, 252.0, 233.5)">{</text><text xml:space="preserve" font-family="Menlo-Bold,Menlo" font-weight="bold" font-size="32.0" fill="#000000" transform="matrix(1.00, 0.00, -0.00, -1.00, 271.3, 233.5)"> </text><text xml:space="preserve" font-family="Menlo-Bold,Menlo" font-weight="bold" font-size="32.0" fill="#000000" transform="matrix(1.00, 0.00, -0.00, -1.00, 1.5, 195.5)"> </text><text xml:space="preserve" font-family="Menlo-Bold,Menlo" font-weight="bold" font-size="32.0" fill="#000000" transform="matrix(1.00, 0.00, -0.00, -1.00, 20.8, 195.5)"> </text><text xml:space="preserve" font-family="Menlo-Bold,Menlo" font-weight="bold" font-size="32.0" fill="#000000" transform="matrix(1.00, 0.00, -0.00, -1.00, 40.1, 195.5)"> </text><text xml:space="preserve" font-family="Menlo-Bold,Menlo" font-weight="bold" font-size="32.0" fill="#000000" transform="matrix(1.00, 0.00, -0.00, -1.00, 59.3, 195.5)"> </text><text xml:space="preserve" font-family="Menlo-Bold,Menlo" font-weight="bold" font-size="32.0" fill="#000000" transform="matrix(1.00, 0.00, -0.00, -1.00, 78.6, 195.5)"> </text><text xml:space="preserve" font-family="Menlo-Bold,Menlo" font-weight="bold" font-size="32.0" fill="#000000" transform="matrix(1.00, 0.00, -0.00, -1.00, 97.9, 195.5)"> </text><text xml:space="preserve" font-family="Menlo-Bold,Menlo" font-weight="bold" font-size="32.0" fill="#BA2CA2" transform="matrix(1.00, 0.00, -0.00, -1.00, 117.1, 195.5)">r</text><text xml:space="preserve" font-family="Menlo-Bold,Menlo" font-weight="bold" font-size="32.0" fill="#BA2CA2" transform="matrix(1.00, 0.00, -0.00, -1.00, 136.4, 195.5)">e</text><text xml:space="preserve" font-family="Menlo-Bold,Menlo" font-weight="bold" font-size="32.0" fill="#BA2CA2" transform="matrix(1.00, 0.00, -0.00, -1.00, 155.7, 195.5)">t</text><text xml:space="preserve" font-family="Menlo-Bold,Menlo" font-weight="bold" font-size="32.0" fill="#BA2CA2" transform="matrix(1.00, 0.00, -0.00, -1.00, 174.9, 195.5)">u</text><text xml:space="preserve" font-family="Menlo-Bold,Menlo" font-weight="bold" font-size="32.0" fill="#BA2CA2" transform="matrix(1.00, 0.00, -0.00, -1.00, 194.2, 195.5)">r</text><text xml:space="preserve" font-family="Menlo-Bold,Menlo" font-weight="bold" font-size="32.0" fill="#BA2CA2" transform="matrix(1.00, 0.00, -0.00, -1.00, 213.5, 195.5)">n</text><text xml:space="preserve" font-family="Menlo-Bold,Menlo" font-weight="bold" font-size="32.0" fill="#000000" transform="matrix(1.00, 0.00, -0.00, -1.00, 232.7, 195.5)"> </text><text xml:space="preserve" font-family="Menlo-Bold,Menlo" font-weight="bold" font-size="32.0" fill="#000000" transform="matrix(1.00, 0.00, -0.00, -1.00, 252.0, 195.5)">c</text><text xml:space="preserve" font-family="Menlo-Bold,Menlo" font-weight="bold" font-size="32.0" fill="#000000" transform="matrix(1.00, 0.00, -0.00, -1.00, 271.2, 195.5)">b</text><text xml:space="preserve" font-family="Menlo-Bold,Menlo" font-weight="bold" font-size="32.0" fill="#000000" transform="matrix(1.00, 0.00, -0.00, -1.00, 290.5, 195.5)">(</text><text xml:space="preserve" font-family="Menlo-Bold,Menlo" font-weight="bold" font-size="32.0" fill="#BA2CA2" transform="matrix(1.00, 0.00, -0.00, -1.00, 309.8, 195.5)">n</text><text xml:space="preserve" font-family="Menlo-Bold,Menlo" font-weight="bold" font-size="32.0" fill="#BA2CA2" transform="matrix(1.00, 0.00, -0.00, -1.00, 329.0, 195.5)">e</text><text xml:space="preserve" font-family="Menlo-Bold,Menlo" font-weight="bold" font-size="32.0" fill="#BA2CA2" transform="matrix(1.00, 0.00, -0.00, -1.00, 348.3, 195.5)">w</text><text xml:space="preserve" font-family="Menlo-Bold,Menlo" font-weight="bold" font-size="32.0" fill="#000000" transform="matrix(1.00, 0.00, -0.00, -1.00, 367.6, 195.5)"> </text><text xml:space="preserve" font-family="Menlo-Bold,Menlo" font-weight="bold" font-size="32.0" fill="#000000" transform="matrix(1.00, 0.00, -0.00, -1.00, 386.8, 195.5)">E</text><text xml:space="preserve" font-family="Menlo-Bold,Menlo" font-weight="bold" font-size="32.0" fill="#000000" transform="matrix(1.00, 0.00, -0.00, -1.00, 406.1, 195.5)">r</text><text xml:space="preserve" font-family="Menlo-Bold,Menlo" font-weight="bold" font-size="32.0" fill="#000000" transform="matrix(1.00, 0.00, -0.00, -1.00, 425.4, 195.5)">r</text><text xml:space="preserve" font-family="Menlo-Bold,Menlo" font-weight="bold" font-size="32.0" fill="#000000" transform="matrix(1.00, 0.00, -0.00, -1.00, 444.6, 195.5)">o</text><text xml:space="preserve" font-family="Menlo-Bold,Menlo" font-weight="bold" font-size="32.0" fill="#000000" transform="matrix(1.00, 0.00, -0.00, -1.00, 463.9, 195.5)">r</text><text xml:space="preserve" font-family="Menlo-Bold,Menlo" font-weight="bold" font-size="32.0" fill="#000000" transform="matrix(1.00, 0.00, -0.00, -1.00, 483.2, 195.5)">(</text><text xml:space="preserve" font-family="Menlo-Bold,Menlo" font-weight="bold" font-size="32.0" fill="#2629D8" transform="matrix(1.00, 0.00, -0.00, -1.00, 502.4, 195.5)">'</text><text xml:space="preserve" font-family="Menlo-Bold,Menlo" font-weight="bold" font-size="32.0" fill="#2629D8" transform="matrix(1.00, 0.00, -0.00, -1.00, 521.7, 195.5)">P</text><text xml:space="preserve" font-family="Menlo-Bold,Menlo" font-weight="bold" font-size="32.0" fill="#2629D8" transform="matrix(1.00, 0.00, -0.00, -1.00, 541.0, 195.5)">r</text><text xml:space="preserve" font-family="Menlo-Bold,Menlo" font-weight="bold" font-size="32.0" fill="#2629D8" transform="matrix(1.00, 0.00, -0.00, -1.00, 560.2, 195.5)">o</text><text xml:space="preserve" font-family="Menlo-Bold,Menlo" font-weight="bold" font-size="32.0" fill="#2629D8" transform="matrix(1.00, 0.00, -0.00, -1.00, 579.5, 195.5)">b</text><text xml:space="preserve" font-family="Menlo-Bold,Menlo" font-weight="bold" font-size="32.0" fill="#2629D8" transform="matrix(1.00, 0.00, -0.00, -1.00, 598.8, 195.5)">l</text><text xml:space="preserve" font-family="Menlo-Bold,Menlo" font-weight="bold" font-size="32.0" fill="#2629D8" transform="matrix(1.00, 0.00, -0.00, -1.00, 618.0, 195.5)">e</text><text xml:space="preserve" font-family="Menlo-Bold,Menlo" font-weight="bold" font-size="32.0" fill="#2629D8" transform="matrix(1.00, 0.00, -0.00, -1.00, 637.3, 195.5)">m</text><text xml:space="preserve" font-family="Menlo-Bold,Menlo" font-weight="bold" font-size="32.0" fill="#2629D8" transform="matrix(1.00, 0.00, -0.00, -1.00, 656.6, 195.5)"> </text><text xml:space="preserve" font-family="Menlo-Bold,Menlo" font-weight="bold" font-size="32.0" fill="#2629D8" transform="matrix(1.00, 0.00, -0.00, -1.00, 675.8, 195.5)">p</text><text xml:space="preserve" font-family="Menlo-Bold,Menlo" font-weight="bold" font-size="32.0" fill="#2629D8" transform="matrix(1.00, 0.00, -0.00, -1.00, 695.1, 195.5)">a</text><text xml:space="preserve" font-family="Menlo-Bold,Menlo" font-weight="bold" font-size="32.0" fill="#2629D8" transform="matrix(1.00, 0.00, -0.00, -1.00, 714.4, 195.5)">r</text><text xml:space="preserve" font-family="Menlo-Bold,Menlo" font-weight="bold" font-size="32.0" fill="#2629D8" transform="matrix(1.00, 0.00, -0.00, -1.00, 733.7, 195.5)">s</text><text xml:space="preserve" font-family="Menlo-Bold,Menlo" font-weight="bold" font-size="32.0" fill="#2629D8" transform="matrix(1.00, 0.00, -0.00, -1.00, 752.9, 195.5)">i</text><text xml:space="preserve" font-family="Menlo-Bold,Menlo" font-weight="bold" font-size="32.0" fill="#2629D8" transform="matrix(1.00, 0.00, -0.00, -1.00, 772.2, 195.5)">n</text><text xml:space="preserve" font-family="Menlo-Bold,Menlo" font-weight="bold" font-size="32.0" fill="#2629D8" transform="matrix(1.00, 0.00, -0.00, -1.00, 791.5, 195.5)">g</text><text xml:space="preserve" font-family="Menlo-Bold,Menlo" font-weight="bold" font-size="32.0" fill="#2629D8" transform="matrix(1.00, 0.00, -0.00, -1.00, 810.7, 195.5)"> </text><text xml:space="preserve" font-family="Menlo-Bold,Menlo" font-weight="bold" font-size="32.0" fill="#2629D8" transform="matrix(1.00, 0.00, -0.00, -1.00, 830.0, 195.5)">r</text><text xml:space="preserve" font-family="Menlo-Bold,Menlo" font-weight="bold" font-size="32.0" fill="#2629D8" transform="matrix(1.00, 0.00, -0.00, -1.00, 849.3, 195.5)">e</text><text xml:space="preserve" font-family="Menlo-Bold,Menlo" font-weight="bold" font-size="32.0" fill="#2629D8" transform="matrix(1.00, 0.00, -0.00, -1.00, 868.5, 195.5)">s</text><text xml:space="preserve" font-family="Menlo-Bold,Menlo" font-weight="bold" font-size="32.0" fill="#2629D8" transform="matrix(1.00, 0.00, -0.00, -1.00, 887.8, 195.5)">p</text><text xml:space="preserve" font-family="Menlo-Bold,Menlo" font-weight="bold" font-size="32.0" fill="#2629D8" transform="matrix(1.00, 0.00, -0.00, -1.00, 907.1, 195.5)">'</text><text xml:space="preserve" font-family="Menlo-Bold,Menlo" font-weight="bold" font-size="32.0" fill="#000000" transform="matrix(1.00, 0.00, -0.00, -1.00, 926.3, 195.5)">)</text><text xml:space="preserve" font-family="Menlo-Bold,Menlo" font-weight="bold" font-size="32.0" fill="#000000" transform="matrix(1.00, 0.00, -0.00, -1.00, 945.5, 195.5)">)</text><text xml:space="preserve" font-family="Menlo-Bold,Menlo" font-weight="bold" font-size="32.0" fill="#000000" transform="matrix(1.00, 0.00, -0.00, -1.00, 964.8, 195.5)">;</text><text xml:space="preserve" font-family="Menlo-Bold,Menlo" font-weight="bold" font-size="32.0" fill="#000000" transform="matrix(1.00, 0.00, -0.00, -1.00, 984.1, 195.5)"> </text><text xml:space="preserve" font-family="Menlo-Bold,Menlo" font-weight="bold" font-size="32.0" fill="#000000" transform="matrix(1.00, 0.00, -0.00, -1.00, 1.5, 157.5)"> </text><text xml:space="preserve" font-family="Menlo-Bold,Menlo" font-weight="bold" font-size="32.0" fill="#000000" transform="matrix(1.00, 0.00, -0.00, -1.00, 20.8, 157.5)"> </text><text xml:space="preserve" font-family="Menlo-Bold,Menlo" font-weight="bold" font-size="32.0" fill="#000000" transform="matrix(1.00, 0.00, -0.00, -1.00, 40.1, 157.5)"> </text><text xml:space="preserve" font-family="Menlo-Bold,Menlo" font-weight="bold" font-size="32.0" fill="#000000" transform="matrix(1.00, 0.00, -0.00, -1.00, 59.3, 157.5)"> </text><text xml:space="preserve" font-family="Menlo-Bold,Menlo" font-weight="bold" font-size="32.0" fill="#000000" transform="matrix(1.00, 0.00, -0.00, -1.00, 78.6, 157.5)">}</text><text xml:space="preserve" font-family="Menlo-Regular,Menlo" font-size="32.0" fill="#000000" transform="matrix(1.00, 0.00, -0.00, -1.00, 97.8, 157.5)"> </text><text xml:space="preserve" font-family="Menlo-Regular,Menlo" font-size="32.0" fill="#000000" transform="matrix(1.00, 0.00, -0.00, -1.00, 1.5, 81.5)"> </text><text xml:space="preserve" font-family="Menlo-Regular,Menlo" font-size="32.0" fill="#000000" transform="matrix(1.00, 0.00, -0.00, -1.00, 20.8, 81.5)"> </text><text xml:space="preserve" font-family="Menlo-Regular,Menlo" font-size="32.0" fill="#000000" transform="matrix(1.00, 0.00, -0.00, -1.00, 40.1, 81.5)"> </text><text xml:space="preserve" font-family="Menlo-Regular,Menlo" font-size="32.0" fill="#000000" transform="matrix(1.00, 0.00, -0.00, -1.00, 59.3, 81.5)"> </text><text xml:space="preserve" font-family="Menlo-Regular,Menlo" font-size="32.0" fill="#000000" transform="matrix(1.00, 0.00, -0.00, -1.00, 78.6, 81.5)">c</text><text xml:space="preserve" font-family="Menlo-Regular,Menlo" font-size="32.0" fill="#000000" transform="matrix(1.00, 0.00, -0.00, -1.00, 97.9, 81.5)">b</text><text xml:space="preserve" font-family="Menlo-Regular,Menlo" font-size="32.0" fill="#000000" transform="matrix(1.00, 0.00, -0.00, -1.00, 117.1, 81.5)">(</text><text xml:space="preserve" font-family="Menlo-Regular,Menlo" font-size="32.0" fill="#BA2CA2" transform="matrix(1.00, 0.00, -0.00, -1.00, 136.4, 81.5)">n</text><text xml:space="preserve" font-family="Menlo-Regular,Menlo" font-size="32.0" fill="#BA2CA2" transform="matrix(1.00, 0.00, -0.00, -1.00, 155.6, 81.5)">u</text><text xml:space="preserve" font-family="Menlo-Regular,Menlo" font-size="32.0" fill="#BA2CA2" transform="matrix(1.00, 0.00, -0.00, -1.00, 174.9, 81.5)">l</text><text xml:space="preserve" font-family="Menlo-Regular,Menlo" font-size="32.0" fill="#BA2CA2" transform="matrix(1.00, 0.00, -0.00, -1.00, 194.2, 81.5)">l</text><text xml:space="preserve" font-family="Menlo-Regular,Menlo" font-size="32.0" fill="#000000" transform="matrix(1.00, 0.00, -0.00, -1.00, 213.4, 81.5)">,</text><text xml:space="preserve" font-family="Menlo-Regular,Menlo" font-size="32.0" fill="#000000" transform="matrix(1.00, 0.00, -0.00, -1.00, 232.7, 81.5)"> </text><text xml:space="preserve" font-family="Menlo-Regular,Menlo" font-size="32.0" fill="#000000" transform="matrix(1.00, 0.00, -0.00, -1.00, 252.0, 81.5)">o</text><text xml:space="preserve" font-family="Menlo-Regular,Menlo" font-size="32.0" fill="#000000" transform="matrix(1.00, 0.00, -0.00, -1.00, 271.2, 81.5)">b</text><text xml:space="preserve" font-family="Menlo-Regular,Menlo" font-size="32.0" fill="#000000" transform="matrix(1.00, 0.00, -0.00, -1.00, 290.5, 81.5)">j</text><text xml:space="preserve" font-family="Menlo-Regular,Menlo" font-size="32.0" fill="#000000" transform="matrix(1.00, 0.00, -0.00, -1.00, 309.8, 81.5)">.</text><text xml:space="preserve" font-family="Menlo-Regular,Menlo" font-size="32.0" fill="#000000" transform="matrix(1.00, 0.00, -0.00, -1.00, 329.1, 81.5)">n</text><text xml:space="preserve" font-family="Menlo-Regular,Menlo" font-size="32.0" fill="#000000" transform="matrix(1.00, 0.00, -0.00, -1.00, 348.3, 81.5)">a</text><text xml:space="preserve" font-family="Menlo-Regular,Menlo" font-size="32.0" fill="#000000" transform="matrix(1.00, 0.00, -0.00, -1.00, 367.6, 81.5)">m</text><text xml:space="preserve" font-family="Menlo-Regular,Menlo" font-size="32.0" fill="#000000" transform="matrix(1.00, 0.00, -0.00, -1.00, 386.9, 81.5)">e</text><text xml:space="preserve" font-family="Menlo-Regular,Menlo" font-size="32.0" fill="#000000" transform="matrix(1.00, 0.00, -0.00, -1.00, 406.1, 81.5)">)</text><text xml:space="preserve" font-family="Menlo-Regular,Menlo" font-size="32.0" fill="#000000" transform="matrix(1.00, 0.00, -0.00, -1.00, 425.4, 81.5)">;</text><text xml:space="preserve" font-family="Menlo-Regular,Menlo" font-size="32.0" fill="#000000" transform="matrix(1.00, 0.00, -0.00, -1.00, 444.7, 81.5)"> </text><text xml:space="preserve" font-family="Menlo-Regular,Menlo" font-size="32.0" fill="#000000" transform="matrix(1.00, 0.00, -0.00, -1.00, 1.5, 43.5)"> </text><text xml:space="preserve" font-family="Menlo-Regular,Menlo" font-size="32.0" fill="#000000" transform="matrix(1.00, 0.00, -0.00, -1.00, 20.8, 43.5)"> </text><text xml:space="preserve" font-family="Menlo-Regular,Menlo" font-size="32.0" fill="#000000" transform="matrix(1.00, 0.00, -0.00, -1.00, 40.1, 43.5)">}</text><text xml:space="preserve" font-family="Menlo-Regular,Menlo" font-size="32.0" fill="#000000" transform="matrix(1.00, 0.00, -0.00, -1.00, 59.3, 43.5)">;</text><text xml:space="preserve" font-family="Menlo-Regular,Menlo" font-size="32.0" fill="#000000" transform="matrix(1.00, 0.00, -0.00, -1.00, 78.6, 43.5)"> </text><text xml:space="preserve" font-family="Menlo-Regular,Menlo" font-size="32.0" fill="#000000" transform="matrix(1.00, 0.00, -0.00, -1.00, 1.5, 5.5)">}</text></g></svg>