<?xml version="1.0" encoding="UTF-8" standalone="no"?><svg xmlns="http://www.w3.org/2000/svg" xmlns:xlink="http://www.w3.org/1999/xlink" clip-rule="evenodd" stroke-miterlimit="10" viewBox="0 0 337 42"><desc>SVG generated by Keynote</desc><defs></defs><g transform="matrix(1.00, 0.00, -0.00, -1.00, 0.0, 42.0)"><text xml:space="preserve" font-family="Helvetica-Bold,Helvetica" font-weight="bold" font-size="41.0" fill="#000000" transform="matrix(1.00, 0.00, -0.00, -1.00, -1.1, 10.7)">N</text><text xml:space="preserve" font-family="Helvetica-Bold,Helvetica" font-weight="bold" font-size="41.0" fill="#000000" transform="matrix(1.00, 0.00, -0.00, -1.00, 28.5, 10.7)">o</text><text xml:space="preserve" font-family="Helvetica-Bold,Helvetica" font-weight="bold" font-size="41.0" fill="#000000" transform="matrix(1.00, 0.00, -0.00, -1.00, 53.6, 10.7)">d</text><text xml:space="preserve" font-family="Helvetica-Bold,Helvetica" font-weight="bold" font-size="41.0" fill="#000000" transform="matrix(1.00, 0.00, -0.00, -1.00, 78.6, 10.7)">e</text><text xml:space="preserve" font-family="Helvetica-Bold,Helvetica" font-weight="bold" font-size="41.0" fill="#000000" transform="matrix(1.00, 0.00, -0.00, -1.00, 101.4, 10.7)"> </text><text xml:space="preserve" font-family="Helvetica-Bold,Helvetica" font-weight="bold" font-size="41.0" fill="#000000" transform="matrix(1.00, 0.00, -0.00, -1.00, 112.8, 10.7)">E</text><text xml:space="preserve" font-family="Helvetica-Bold,Helvetica" font-weight="bold" font-size="41.0" fill="#000000" transform="matrix(1.00, 0.00, -0.00, -1.00, 140.2, 10.7)">v</text><text xml:space="preserve" font-family="Helvetica-Bold,Helvetica" font-weight="bold" font-size="41.0" fill="#000000" transform="matrix(1.00, 0.00, -0.00, -1.00, 163.0, 10.7)">e</text><text xml:space="preserve" font-family="Helvetica-Bold,Helvetica" font-weight="bold" font-size="41.0" fill="#000000" transform="matrix(1.00, 0.00, -0.00, -1.00, 185.8, 10.7)">n</text><text xml:space="preserve" font-family="Helvetica-Bold,Helvetica" font-weight="bold" font-size="41.0" fill="#000000" transform="matrix(1.00, 0.00, -0.00, -1.00, 210.8, 10.7)">t</text><text xml:space="preserve" font-family="Helvetica-Bold,Helvetica" font-weight="bold" font-size="41.0" fill="#000000" transform="matrix(1.00, 0.00, -0.00, -1.00, 224.5, 10.7)"> </text><text xml:space="preserve" font-family="Helvetica-Bold,Helvetica" font-weight="bold" font-size="41.0" fill="#000000" transform="matrix(1.00, 0.00, -0.00, -1.00, 235.9, 10.7)">L</text><text xml:space="preserve" font-family="Helvetica-Bold,Helvetica" font-weight="bold" font-size="41.0" fill="#000000" transform="matrix(1.00, 0.00, -0.00, -1.00, 260.9, 10.7)">o</text><text xml:space="preserve" font-family="Helvetica-Bold,Helvetica" font-weight="bold" font-size="41.0" fill="#000000" transform="matrix(1.00, 0.00, -0.00, -1.00, 285.9, 10.7)">o</text><text xml:space="preserve" font-family="Helvetica-Bold,Helvetica" font-weight="bold" font-size="41.0" fill="#000000" transform="matrix(1.00, 0.00, -0.00, -1.00, 311.0, 10.7)">p</text></g></svg>