<?xml version="1.0" encoding="UTF-8" standalone="no"?><svg xmlns="http://www.w3.org/2000/svg" xmlns:xlink="http://www.w3.org/1999/xlink" clip-rule="evenodd" stroke-miterlimit="10" viewBox="0 0 200 145"><desc>SVG generated by Keynote</desc><defs></defs><g transform="matrix(1.00, 0.00, -0.00, -1.00, 0.0, 145.0)"><g><clipPath id="clip0x7f8e0373c990"><path d="M 44.9 0.0 L 155.4 0.0 L 155.4 144.6 L 44.9 144.6 Z M 44.9 0.0 "></path></clipPath><g clip-path="url(#clip0x7f8e0373c990)"><image xlink:href="../../D39DB580-8974-497E-933B-3E5D01BF8614/assets/DF36A7B4C6B67C8B495394095F8BA4FB.png" width="109.00" height="143.00" transform="matrix(1.00, 0.00, -0.00, -1.00, 45.9, 143.6)" opacity="0.50"></image><path d="M 48.9 24.7 L 49.0 124.0 C 49.0 134.2 57.2 143.0 67.5 143.0 L 132.8 143.0 C 143.1 143.0 151.0 134.2 151.0 124.0 L 151.0 24.7 C 151.0 14.4 143.1 6.0 132.8 6.0 L 67.5 6.0 C 57.2 6.0 48.9 14.4 48.9 24.7 Z M 48.9 24.7 " fill="#52575F"></path></g></g><g><clipPath id="clip0x7f8e0341f4d0"><path d="M 0.5 58.6 L 199.8 58.6 L 199.8 130.6 L 0.5 130.6 Z M 0.5 58.6 "></path></clipPath><g clip-path="url(#clip0x7f8e0341f4d0)"><text xml:space="preserve" font-family="Helvetica-Light,Helvetica" font-size="21.0" fill="#FEFFFE" transform="matrix(1.00, 0.00, -0.00, -1.00, 74.5, 105.1)">H</text><text xml:space="preserve" font-family="Helvetica-Light,Helvetica" font-size="21.0" fill="#FEFFFE" transform="matrix(1.00, 0.00, -0.00, -1.00, 89.6, 105.1)">T</text><text xml:space="preserve" font-family="Helvetica-Light,Helvetica" font-size="21.0" fill="#FEFFFE" transform="matrix(1.00, 0.00, -0.00, -1.00, 101.3, 105.1)">T</text><text xml:space="preserve" font-family="Helvetica-Light,Helvetica" font-size="21.0" fill="#FEFFFE" transform="matrix(1.00, 0.00, -0.00, -1.00, 113.0, 105.1)">P</text></g></g></g></svg>