<?xml version="1.0" encoding="UTF-8" standalone="no"?><svg xmlns="http://www.w3.org/2000/svg" xmlns:xlink="http://www.w3.org/1999/xlink" clip-rule="evenodd" stroke-miterlimit="10" viewBox="0 0 140 64"><desc>SVG generated by Keynote</desc><defs></defs><g transform="matrix(1.00, 0.00, -0.00, -1.00, 0.0, 64.0)"><image xlink:href="../../F5D9486F-8C17-45CF-B38F-EDABF94F50CF/assets/C4EBA854AE436403AF6540058E1DC7D1.png" width="136.00" height="57.00" transform="matrix(1.00, 0.00, -0.00, -1.00, 2.0, 58.2)" opacity="0.50"></image><path d="M 5.0 57.0 L 135.0 57.0 L 135.0 6.0 L 5.0 6.0 Z M 5.0 57.2 " fill="#0264C0"></path><g><clipPath id="clip0x7f8df2d28320"><path d="M 4.2 6.2 L 135.9 6.2 L 135.9 57.2 L 4.2 57.2 Z M 4.2 6.2 "></path></clipPath><g clip-path="url(#clip0x7f8df2d28320)"><text xml:space="preserve" font-family="Helvetica-Light,Helvetica" font-size="19.0" fill="#FEFFFE" transform="matrix(1.00, 0.00, -0.00, -1.00, 15.0, 24.6)">o</text><text xml:space="preserve" font-family="Helvetica-Light,Helvetica" font-size="19.0" fill="#FEFFFE" transform="matrix(1.00, 0.00, -0.00, -1.00, 25.6, 24.6)">n</text><text xml:space="preserve" font-family="Helvetica-Light,Helvetica" font-size="19.0" fill="#FEFFFE" transform="matrix(1.00, 0.00, -0.00, -1.00, 36.1, 24.6)">C</text><text xml:space="preserve" font-family="Helvetica-Light,Helvetica" font-size="19.0" fill="#FEFFFE" transform="matrix(1.00, 0.00, -0.00, -1.00, 49.9, 24.6)">o</text><text xml:space="preserve" font-family="Helvetica-Light,Helvetica" font-size="19.0" fill="#FEFFFE" transform="matrix(1.00, 0.00, -0.00, -1.00, 60.4, 24.6)">m</text><text xml:space="preserve" font-family="Helvetica-Light,Helvetica" font-size="19.0" fill="#FEFFFE" transform="matrix(1.00, 0.00, -0.00, -1.00, 76.3, 24.6)">p</text><text xml:space="preserve" font-family="Helvetica-Light,Helvetica" font-size="19.0" fill="#FEFFFE" transform="matrix(1.00, 0.00, -0.00, -1.00, 87.9, 24.6)">l</text><text xml:space="preserve" font-family="Helvetica-Light,Helvetica" font-size="19.0" fill="#FEFFFE" transform="matrix(1.00, 0.00, -0.00, -1.00, 92.1, 24.6)">e</text><text xml:space="preserve" font-family="Helvetica-Light,Helvetica" font-size="19.0" fill="#FEFFFE" transform="matrix(1.00, 0.00, -0.00, -1.00, 102.6, 24.6)">t</text><text xml:space="preserve" font-family="Helvetica-Light,Helvetica" font-size="19.0" fill="#FEFFFE" transform="matrix(1.00, 0.00, -0.00, -1.00, 107.9, 24.6)">e</text><text xml:space="preserve" font-family="Helvetica-Light,Helvetica" font-size="19.0" fill="#FEFFFE" transform="matrix(1.00, 0.00, -0.00, -1.00, 118.5, 24.6)">(</text><text xml:space="preserve" font-family="Helvetica-Light,Helvetica" font-size="19.0" fill="#FEFFFE" transform="matrix(1.00, 0.00, -0.00, -1.00, 124.8, 24.6)">)</text></g></g></g></svg>