<?xml version="1.0" encoding="UTF-8" standalone="no"?><svg xmlns="http://www.w3.org/2000/svg" xmlns:xlink="http://www.w3.org/1999/xlink" clip-rule="evenodd" stroke-miterlimit="10" viewBox="0 0 477 423"><desc>SVG generated by Keynote</desc><defs><pattern id="5A972E2F-C113-4162-98F6-EAD394285B74" patternUnits="userSpaceOnUse" width="600" height="600" viewBox="0 0 600 600"><image xlink:href="../../09CFC913-12AC-43AB-84A4-55366B29A81D/assets/57C63BC369DF2E161F93135AB5988468.png" width="600.00" height="600.00"></image></pattern></defs><g transform="matrix(1.00, 0.00, -0.00, -1.00, 0.0, 423.0)"><g><clipPath id="clip0x7f8df2d213e0"><path d="M 0.1 375.0 L 476.3 375.0 L 476.3 423.0 L 0.1 423.0 Z M 0.1 375.0 "></path></clipPath><g clip-path="url(#clip0x7f8df2d213e0)"><image xlink:href="A864E0FE6DEBA312068102974D3BD9F6.png" width="474.00" height="46.00" transform="matrix(1.00, 0.00, -0.00, -1.00, 1.1, 422.0)" opacity="0.19"></image></g></g><g><clipPath id="clip0x7f8df2597aa0"><path d="M 0.1 375.0 L 476.3 375.0 L 476.3 423.0 L 0.1 423.0 Z M 0.1 375.0 "></path></clipPath><g clip-path="url(#clip0x7f8df2597aa0)"><g opacity="0.37"><g><clipPath id="clip0x7f8df2595d40"><path d="M 4.0 418.0 L 470.0 418.0 L 470.0 380.0 L 4.0 380.0 Z M 4.1 418.0 "></path></clipPath><g clip-path="url(#clip0x7f8df2595d40)"><g><clipPath id="clip0x7f8df2596460"><path d="M 4.0 380.0 L 471.0 380.0 L 471.0 418.0 L 4.0 418.0 Z M 4.0 380.0 "></path></clipPath><g clip-path="url(#clip0x7f8df2596460)"><path d="M 4.0 380.0 L 470.0 380.0 L 470.0 418.0 L 4.0 418.0 Z M 4.0 380.0 " fill="url(#5A972E2F-C113-4162-98F6-EAD394285B74)"></path></g></g></g></g></g></g></g><g><clipPath id="clip0x7f8df259a200"><path d="M 61.6 0.3 L 179.2 0.3 L 179.2 48.2 L 61.6 48.2 Z M 61.6 0.3 "></path></clipPath><g clip-path="url(#clip0x7f8df259a200)"><image xlink:href="F5A3C5E9B90447C8ACC72DD5DB565EC4.png" width="116.00" height="46.00" transform="matrix(1.00, 0.00, -0.00, -1.00, 62.6, 47.2)" opacity="0.19"></image></g></g><g><clipPath id="clip0x7f8df2c3e2a0"><path d="M 61.6 0.3 L 179.2 0.3 L 179.2 48.2 L 61.6 48.2 Z M 61.6 0.3 "></path></clipPath><g clip-path="url(#clip0x7f8df2c3e2a0)"><g opacity="0.37"><g><clipPath id="clip0x7f8df2c3fbf0"><path d="M 66.0 43.0 L 173.0 43.0 L 173.0 5.0 L 66.0 5.0 Z M 65.6 43.2 "></path></clipPath><g clip-path="url(#clip0x7f8df2c3fbf0)"><g><clipPath id="clip0x7f8df2c40350"><path d="M 65.0 5.0 L 174.0 5.0 L 174.0 44.0 L 65.0 44.0 Z M 65.0 5.0 "></path></clipPath><g clip-path="url(#clip0x7f8df2c40350)"><image xlink:href="../../09CFC913-12AC-43AB-84A4-55366B29A81D/assets/57C63BC369DF2E161F93135AB5988468.png" width="600.00" height="600.00" transform="matrix(0.50, 0.00, -0.00, -0.50, 66.0, 43.0)"></image></g></g></g></g></g></g></g></g></svg>