<?xml version="1.0" encoding="UTF-8" standalone="no"?><svg xmlns="http://www.w3.org/2000/svg" xmlns:xlink="http://www.w3.org/1999/xlink" clip-rule="evenodd" stroke-miterlimit="10" viewBox="0 0 292 468"><desc>SVG generated by Keynote</desc><defs><pattern id="9179B00E-E676-4CFC-9E2E-5619ECBBFFA6" patternUnits="userSpaceOnUse" width="600" height="600" viewBox="0 0 600 600"><image xlink:href="../../58FC0062-152D-4CC5-84DA-0DFAC1FE8D74/assets/C3C0FC898C94653CAF8AD846D6CCD108.png" width="600.00" height="600.00"></image></pattern></defs><g transform="matrix(1.00, 0.00, -0.00, -1.00, 0.0, 468.0)"><g><clipPath id="clip0x7f8e02d6f180"><path d="M 18.1 0.4 L 291.3 0.4 L 291.3 419.0 L 18.1 419.0 Z M 18.1 0.4 "></path></clipPath><g clip-path="url(#clip0x7f8e02d6f180)"><image xlink:href="../../203F753A-55D9-4D21-BB7F-6CADC42B14AA/assets/4648F17BE877809AA96966299A81E382.png" width="271.00" height="417.00" transform="matrix(1.00, 0.00, -0.00, -1.00, 19.1, 418.0)" opacity="0.50"></image></g></g><g><clipPath id="clip0x7f8e02cbd9f0"><path d="M 22.0 417.0 L 287.0 417.0 L 287.0 6.0 L 22.0 6.0 Z M 22.1 417.0 "></path></clipPath><g clip-path="url(#clip0x7f8e02cbd9f0)"><g><clipPath id="clip0x7f8e02e96110"><path d="M 18.1 0.4 L 291.3 0.4 L 291.3 419.0 L 18.1 419.0 Z M 18.1 0.4 "></path></clipPath><g clip-path="url(#clip0x7f8e02e96110)"><path d="M 22.0 6.0 L 287.0 6.0 L 287.0 417.0 L 22.0 417.0 Z M 22.0 6.0 " fill="url(#9179B00E-E676-4CFC-9E2E-5619ECBBFFA6)"></path></g></g></g></g><g><clipPath id="clip0x7f8e02d71cb0"><path d="M -1.1 413.3 L 288.5 413.3 L 288.5 466.7 L -1.1 466.7 Z M -1.1 413.3 "></path></clipPath><g clip-path="url(#clip0x7f8e02d71cb0)"><text xml:space="preserve" font-family="Helvetica-Light,Helvetica" font-size="28.0" fill="#000000" transform="matrix(1.00, 0.00, -0.00, -1.00, 100.9, 429.2)">S</text><text xml:space="preserve" font-family="Helvetica-Light,Helvetica" font-size="28.0" fill="#000000" transform="matrix(1.00, 0.00, -0.00, -1.00, 118.0, 429.2)">e</text><text xml:space="preserve" font-family="Helvetica-Light,Helvetica" font-size="28.0" fill="#000000" transform="matrix(1.00, 0.00, -0.00, -1.00, 133.6, 429.2)">r</text><text xml:space="preserve" font-family="Helvetica-Light,Helvetica" font-size="28.0" fill="#000000" transform="matrix(1.00, 0.00, -0.00, -1.00, 142.9, 429.2)">v</text><text xml:space="preserve" font-family="Helvetica-Light,Helvetica" font-size="28.0" fill="#000000" transform="matrix(1.00, 0.00, -0.00, -1.00, 156.9, 429.2)">l</text><text xml:space="preserve" font-family="Helvetica-Light,Helvetica" font-size="28.0" fill="#000000" transform="matrix(1.00, 0.00, -0.00, -1.00, 163.1, 429.2)">e</text><text xml:space="preserve" font-family="Helvetica-Light,Helvetica" font-size="28.0" fill="#000000" transform="matrix(1.00, 0.00, -0.00, -1.00, 178.7, 429.2)">t</text></g></g><g><clipPath id="clip0x7f8e02d75bd0"><path d="M 23.8 166.6 L 281.6 166.6 L 281.6 172.8 L 23.8 172.8 Z M 23.8 166.6 "></path></clipPath><g clip-path="url(#clip0x7f8e02d75bd0)"><path d="M 0.0 0.2 L 251.0 0.2 " fill="none" stroke="#000000" stroke-width="3.00" stroke-linecap="round" stroke-dasharray="0.0, 9.0" transform="matrix(1.00, 0.00, 0.00, -1.00, 27.0, 169.7)"></path></g></g></g></svg>