<?xml version="1.0" encoding="UTF-8" standalone="no"?><svg xmlns="http://www.w3.org/2000/svg" xmlns:xlink="http://www.w3.org/1999/xlink" clip-rule="evenodd" stroke-miterlimit="10" viewBox="0 0 1024 768"><desc>SVG generated by Keynote</desc><defs><linearGradient id="gradSh1.63" x1="0.0" y1="0.0" x2="100.0" y2="0.0" gradientUnits="userSpaceOnUse" gradientTransform="matrix(11.03, -6.36, -5.89, -10.22, -39.6, 702.1)"><stop offset="0.00000" stop-color="#FFFFFF"></stop><stop offset="0.00587" stop-color="#FEFFFE"></stop><stop offset="1.00000" stop-color="#A6AAA9"></stop></linearGradient></defs><g transform="matrix(1.00, 0.00, -0.00, -1.00, 0.0, 768.0)"><g><clipPath id="clip0x7f8e0328e3f0"><path d="M 0.0 768.0 L 1024.0 768.0 L 1024.0 0.0 L 0.0 0.0 Z M 0.0 768.0 "></path></clipPath><g clip-path="url(#clip0x7f8e0328e3f0)"><path d="M 0.0 768.0 L 1024.0 768.0 L 1024.0 0.0 L 0.0 0.0 Z M 0.0 768.0 " fill="url(#gradSh1.63)"></path></g></g><g><clipPath id="clip0x7f8e032dd950"><path d="M 960.0 65.0 L 1016.0 65.0 L 1016.0 9.0 L 960.0 9.0 Z M 960.0 65.0 "></path></clipPath><g clip-path="url(#clip0x7f8e032dd950)"><g><clipPath id="clip0x7f8e032de0f0"><path d="M 960.0 9.0 L 1016.0 9.0 L 1016.0 65.0 L 960.0 65.0 Z M 960.0 9.0 "></path></clipPath><g clip-path="url(#clip0x7f8e032de0f0)"><path d="M 1016.0 37.0 C 1016.0 52.5 1003.5 65.0 988.0 65.0 C 972.5 65.0 960.0 52.5 960.0 37.0 C 960.0 21.5 972.5 9.0 988.0 9.0 C 1003.5 9.0 1016.0 21.5 1016.0 37.0 " fill="#526466"></path><path d="M 979.5 30.7 C 979.1 30.7 978.7 30.9 978.5 31.2 L 972.6 39.5 L 972.6 31.9 C 972.6 31.2 972.1 30.7 971.4 30.7 C 970.8 30.7 970.3 31.2 970.3 31.9 L 970.3 43.2 C 970.3 43.7 970.6 44.1 971.1 44.3 C 971.6 44.4 972.1 44.3 972.4 43.8 L 978.3 35.5 L 978.3 43.2 C 978.3 43.8 978.8 44.3 979.5 44.3 C 980.1 44.3 980.6 43.8 980.6 43.2 L 980.6 31.9 C 980.6 31.4 980.3 30.9 979.8 30.8 C 979.7 30.7 979.6 30.7 979.5 30.7 " fill="#FFFFFF"></path><path d="M 1003.9 41.2 C 1002.8 42.0 1001.5 42.4 1000.1 42.3 C 999.1 42.2 997.7 41.7 997.7 40.7 C 997.7 39.8 998.5 39.5 999.3 39.2 C 1000.4 38.8 1001.6 38.7 1002.7 38.3 C 1004.6 37.7 1006.3 36.2 1006.1 34.1 C 1005.8 31.7 1003.3 30.7 1001.2 30.5 C 999.2 30.4 996.9 31.2 995.5 32.6 C 994.8 33.2 995.1 34.3 996.0 34.4 C 996.5 34.4 996.7 34.2 997.1 33.9 C 997.6 33.6 998.1 33.4 998.6 33.1 C 999.7 32.7 1000.9 32.6 1002.1 32.9 C 1002.9 33.2 1004.1 33.9 1003.7 34.9 C 1003.3 35.8 1001.8 36.2 1000.9 36.4 C 999.7 36.6 998.4 36.8 997.4 37.5 C 995.7 38.4 994.9 40.3 995.7 42.1 C 996.7 44.3 999.7 44.8 1001.9 44.4 C 1003.0 44.2 1004.2 43.7 1005.1 42.9 C 1006.0 42.1 1005.0 40.5 1003.9 41.2 " fill="#FFFFFF"></path><path d="M 988.0 23.5 C 987.6 23.5 987.3 23.8 987.3 24.2 L 987.3 49.8 C 987.3 50.2 987.6 50.5 988.0 50.5 C 988.4 50.5 988.7 50.2 988.7 49.8 L 988.7 24.2 C 988.7 23.8 988.4 23.5 988.0 23.5 " fill="#FFFFFF"></path></g></g></g></g><path d="M 938.0 87.0 L 1038.0 87.0 L 1038.0 -13.0 L 938.0 -13.0 Z M 937.7 87.1 " fill="#AFB3B2"></path><image xlink:href="686C2E60DEF46CAA9416B66CD22C0080.png" width="897.00" height="731.00" transform="matrix(1.00, 0.00, -0.00, -1.00, 64.3, 741.0)" opacity="0.50"></image><path d="M 67.0 737.0 L 957.0 737.0 L 957.0 14.0 L 67.0 14.0 Z M 67.3 737.0 " fill="#A6AAA8"></path><image xlink:href="C328F586AEBF1049AD3B45CF5179FA03.png" width="452.00" height="596.00" transform="matrix(1.00, 0.00, -0.00, -1.00, 462.4, 641.0)" opacity="0.50"></image><path d="M 465.4 80.6 L 465.0 609.9 C 465.0 626.5 478.9 640.0 495.6 640.0 L 881.6 640.0 C 898.2 640.0 912.0 626.5 912.0 609.9 L 912.0 80.6 C 912.0 64.0 898.2 50.0 881.6 50.0 L 495.6 50.0 C 478.9 50.0 465.4 64.0 465.4 80.6 Z M 465.4 80.6 " fill="#9BC9E7"></path><image xlink:href="2ECA4E3C8A93635B653BB4F85E691F52.png" width="94.00" height="96.00" transform="matrix(1.00, 0.00, -0.00, -1.00, 561.7, 471.8)" opacity="0.50"></image><g><clipPath id="clip0x7f8e02f92430"><path d="M 565.0 471.0 L 652.0 471.0 L 652.0 381.0 L 565.0 381.0 Z M 564.7 470.8 "></path></clipPath><g clip-path="url(#clip0x7f8e02f92430)"><image xlink:href="../../58FC0062-152D-4CC5-84DA-0DFAC1FE8D74/assets/C3C0FC898C94653CAF8AD846D6CCD108.png" width="600.00" height="600.00" transform="matrix(0.50, 0.00, -0.00, -0.50, 565.0, 471.0)"></image></g></g><text xml:space="preserve" font-family="Helvetica-Light,Helvetica" font-size="73.0" fill="#000000" transform="matrix(1.00, 0.00, -0.00, -1.00, 387.8, 665.3)">N</text><text xml:space="preserve" font-family="Helvetica-Light,Helvetica" font-size="73.0" fill="#000000" transform="matrix(1.00, 0.00, -0.00, -1.00, 440.5, 665.3)">o</text><text xml:space="preserve" font-family="Helvetica-Light,Helvetica" font-size="73.0" fill="#000000" transform="matrix(1.00, 0.00, -0.00, -1.00, 481.1, 665.3)">d</text><text xml:space="preserve" font-family="Helvetica-Light,Helvetica" font-size="73.0" fill="#000000" transform="matrix(1.00, 0.00, -0.00, -1.00, 525.7, 665.3)">e</text><text xml:space="preserve" font-family="Helvetica-Light,Helvetica" font-size="73.0" fill="#000000" transform="matrix(1.00, 0.00, -0.00, -1.00, 566.3, 665.3)">.</text><text xml:space="preserve" font-family="Helvetica-Light,Helvetica" font-size="73.0" fill="#000000" transform="matrix(1.00, 0.00, -0.00, -1.00, 586.6, 665.3)">j</text><text xml:space="preserve" font-family="Helvetica-Light,Helvetica" font-size="73.0" fill="#000000" transform="matrix(1.00, 0.00, -0.00, -1.00, 602.8, 665.3)">s</text><text xml:space="preserve" font-family="Helvetica-Light,Helvetica" font-size="48.0" fill="#000000" transform="matrix(1.00, 0.00, -0.00, -1.00, 675.9, 577.2)">V</text><text xml:space="preserve" font-family="Helvetica-Light,Helvetica" font-size="48.0" fill="#000000" transform="matrix(1.00, 0.00, -0.00, -1.00, 705.2, 577.2)">8</text><image xlink:href="EFAACDBA32A1001CBEAC278542F57781.png" width="344.00" height="598.00" transform="matrix(1.00, 0.00, -0.00, -1.00, 98.6, 641.6)" opacity="0.50"></image><path d="M 101.6 79.4 L 102.0 609.6 C 102.0 626.7 115.5 641.0 132.6 641.0 L 408.7 641.0 C 425.8 641.0 440.0 626.7 440.0 609.6 L 440.0 79.4 C 440.0 62.3 425.8 48.0 408.7 48.0 L 132.6 48.0 C 115.5 48.0 101.6 62.3 101.6 79.4 Z M 101.6 79.4 " fill="#94C3FF"></path><text xml:space="preserve" font-family="Helvetica-Light,Helvetica" font-size="46.1" fill="#000000" transform="matrix(1.00, 0.00, -0.00, -1.00, 157.6, 577.3)">N</text><text xml:space="preserve" font-family="Helvetica-Light,Helvetica" font-size="46.1" fill="#000000" transform="matrix(1.00, 0.00, -0.00, -1.00, 190.9, 577.3)">o</text><text xml:space="preserve" font-family="Helvetica-Light,Helvetica" font-size="46.1" fill="#000000" transform="matrix(1.00, 0.00, -0.00, -1.00, 216.5, 577.3)">d</text><text xml:space="preserve" font-family="Helvetica-Light,Helvetica" font-size="46.1" fill="#000000" transform="matrix(1.00, 0.00, -0.00, -1.00, 244.7, 577.3)">e</text><text xml:space="preserve" font-family="Helvetica-Light,Helvetica" font-size="46.1" fill="#000000" transform="matrix(1.00, 0.00, -0.00, -1.00, 270.3, 577.3)"> </text><text xml:space="preserve" font-family="Helvetica-Light,Helvetica" font-size="46.1" fill="#000000" transform="matrix(1.00, 0.00, -0.00, -1.00, 283.1, 577.3)">C</text><text xml:space="preserve" font-family="Helvetica-Light,Helvetica" font-size="46.1" fill="#000000" transform="matrix(1.00, 0.00, -0.00, -1.00, 316.4, 577.3)">o</text><text xml:space="preserve" font-family="Helvetica-Light,Helvetica" font-size="46.1" fill="#000000" transform="matrix(1.00, 0.00, -0.00, -1.00, 342.0, 577.3)">r</text><text xml:space="preserve" font-family="Helvetica-Light,Helvetica" font-size="46.1" fill="#000000" transform="matrix(1.00, 0.00, -0.00, -1.00, 356.5, 577.3)">e</text><image xlink:href="3BA22CDD6307D539957A0693AB2972D5.png" width="173.00" height="505.00" transform="matrix(1.00, 0.00, -0.00, -1.00, 113.2, 555.2)" opacity="0.50"></image><path d="M 116.2 85.1 L 116.0 523.9 C 116.0 540.6 129.7 554.0 146.5 554.0 L 252.7 554.0 C 269.4 554.0 283.0 540.6 283.0 523.9 L 283.0 85.1 C 283.0 68.4 269.4 55.0 252.7 55.0 L 146.5 55.0 C 129.7 55.0 116.2 68.4 116.2 85.1 Z M 116.2 85.1 " fill="#52575F"></path><text xml:space="preserve" font-family="Helvetica-Light,Helvetica" font-size="21.0" fill="#FEFFFE" transform="matrix(1.00, 0.00, -0.00, -1.00, 173.9, 519.4)">L</text><text xml:space="preserve" font-family="Helvetica-Light,Helvetica" font-size="21.0" fill="#FEFFFE" transform="matrix(1.00, 0.00, -0.00, -1.00, 185.6, 519.4)">i</text><text xml:space="preserve" font-family="Helvetica-Light,Helvetica" font-size="21.0" fill="#FEFFFE" transform="matrix(1.00, 0.00, -0.00, -1.00, 190.2, 519.4)">b</text><text xml:space="preserve" font-family="Helvetica-Light,Helvetica" font-size="21.0" fill="#FEFFFE" transform="matrix(1.00, 0.00, -0.00, -1.00, 203.1, 519.4)">u</text><text xml:space="preserve" font-family="Helvetica-Light,Helvetica" font-size="21.0" fill="#FEFFFE" transform="matrix(1.00, 0.00, -0.00, -1.00, 214.8, 519.4)">v</text><path d="M -0.4 0.4 L 38.6 0.4 " fill="none" stroke="#000000" stroke-width="9.00" transform="matrix(1.00, 0.00, 0.00, -1.00, 589.4, 408.9)"></path><path d="M -0.4 0.0 L 38.6 0.0 " fill="none" stroke="#000000" stroke-width="9.00" transform="matrix(1.00, 0.00, 0.00, -1.00, 589.4, 420.5)"></path><path d="M -0.4 -0.2 L 38.6 -0.2 " fill="none" stroke="#000000" stroke-width="9.00" transform="matrix(1.00, 0.00, 0.00, -1.00, 589.4, 433.3)"></path><text xml:space="preserve" font-family="Helvetica-Light,Helvetica" font-size="16.0" fill="#000000" transform="matrix(1.00, 0.00, -0.00, -1.00, 583.6, 477.8)">o</text><text xml:space="preserve" font-family="Helvetica-Light,Helvetica" font-size="16.0" fill="#000000" transform="matrix(1.00, 0.00, -0.00, -1.00, 592.5, 477.8)">n</text><text xml:space="preserve" font-family="Helvetica-Light,Helvetica" font-size="16.0" fill="#000000" transform="matrix(1.00, 0.00, -0.00, -1.00, 601.4, 477.8)"> </text><text xml:space="preserve" font-family="Helvetica-Light,Helvetica" font-size="16.0" fill="#000000" transform="matrix(1.00, 0.00, -0.00, -1.00, 605.8, 477.8)">c</text><text xml:space="preserve" font-family="Helvetica-Light,Helvetica" font-size="16.0" fill="#000000" transform="matrix(1.00, 0.00, -0.00, -1.00, 614.7, 477.8)">p</text><text xml:space="preserve" font-family="Helvetica-Light,Helvetica" font-size="16.0" fill="#000000" transform="matrix(1.00, 0.00, -0.00, -1.00, 624.5, 477.8)">u</text><g><clipPath id="clip0x7f8e02f54350"><path d="M 401.9 362.0 L 512.4 362.0 L 512.4 506.6 L 401.9 506.6 Z M 401.9 362.0 "></path></clipPath><g clip-path="url(#clip0x7f8e02f54350)"><image xlink:href="../../D39DB580-8974-497E-933B-3E5D01BF8614/assets/DF36A7B4C6B67C8B495394095F8BA4FB.png" width="109.00" height="143.00" transform="matrix(1.00, 0.00, -0.00, -1.00, 402.9, 505.6)" opacity="0.50"></image><path d="M 405.9 386.7 L 406.0 486.0 C 406.0 496.2 414.2 505.0 424.5 505.0 L 489.8 505.0 C 500.1 505.0 508.0 496.2 508.0 486.0 L 508.0 386.7 C 508.0 376.4 500.1 368.0 489.8 368.0 L 424.5 368.0 C 414.2 368.0 405.9 376.4 405.9 386.7 Z M 405.9 386.7 " fill="#52575F"></path></g></g><g><clipPath id="clip0x7f8e02f56690"><path d="M 357.5 420.6 L 556.8 420.6 L 556.8 492.6 L 357.5 492.6 Z M 357.5 420.6 "></path></clipPath><g clip-path="url(#clip0x7f8e02f56690)"><text xml:space="preserve" font-family="Helvetica-Light,Helvetica" font-size="21.0" fill="#FEFFFE" transform="matrix(1.00, 0.00, -0.00, -1.00, 431.5, 467.1)">H</text><text xml:space="preserve" font-family="Helvetica-Light,Helvetica" font-size="21.0" fill="#FEFFFE" transform="matrix(1.00, 0.00, -0.00, -1.00, 446.6, 467.1)">T</text><text xml:space="preserve" font-family="Helvetica-Light,Helvetica" font-size="21.0" fill="#FEFFFE" transform="matrix(1.00, 0.00, -0.00, -1.00, 458.3, 467.1)">T</text><text xml:space="preserve" font-family="Helvetica-Light,Helvetica" font-size="21.0" fill="#FEFFFE" transform="matrix(1.00, 0.00, -0.00, -1.00, 470.0, 467.1)">P</text></g></g></g></svg>