<?xml version="1.0" encoding="UTF-8" standalone="no"?><svg xmlns="http://www.w3.org/2000/svg" xmlns:xlink="http://www.w3.org/1999/xlink" clip-rule="evenodd" stroke-miterlimit="10" viewBox="0 0 468 51"><desc>SVG generated by Keynote</desc><defs></defs><g transform="matrix(1.00, 0.00, -0.00, -1.00, 0.0, 51.0)"><text xml:space="preserve" font-family="Helvetica-Light,Helvetica" font-size="61.0" fill="#000000" transform="matrix(1.00, 0.00, -0.00, -1.00, -0.9, 3.9)">S</text><text xml:space="preserve" font-family="Helvetica-Light,Helvetica" font-size="61.0" fill="#000000" transform="matrix(1.00, 0.00, -0.00, -1.00, 36.4, 3.9)">e</text><text xml:space="preserve" font-family="Helvetica-Light,Helvetica" font-size="61.0" fill="#000000" transform="matrix(1.00, 0.00, -0.00, -1.00, 70.3, 3.9)">r</text><text xml:space="preserve" font-family="Helvetica-Light,Helvetica" font-size="61.0" fill="#000000" transform="matrix(1.00, 0.00, -0.00, -1.00, 90.6, 3.9)">v</text><text xml:space="preserve" font-family="Helvetica-Light,Helvetica" font-size="61.0" fill="#000000" transform="matrix(1.00, 0.00, -0.00, -1.00, 121.1, 3.9)">l</text><text xml:space="preserve" font-family="Helvetica-Light,Helvetica" font-size="61.0" fill="#000000" transform="matrix(1.00, 0.00, -0.00, -1.00, 134.6, 3.9)">e</text><text xml:space="preserve" font-family="Helvetica-Light,Helvetica" font-size="61.0" fill="#000000" transform="matrix(1.00, 0.00, -0.00, -1.00, 168.6, 3.9)">t</text><text xml:space="preserve" font-family="Helvetica-Light,Helvetica" font-size="61.0" fill="#000000" transform="matrix(1.00, 0.00, -0.00, -1.00, 185.5, 3.9)"> </text><text xml:space="preserve" font-family="Helvetica-Light,Helvetica" font-size="61.0" fill="#000000" transform="matrix(1.00, 0.00, -0.00, -1.00, 202.5, 3.9)">C</text><text xml:space="preserve" font-family="Helvetica-Light,Helvetica" font-size="61.0" fill="#000000" transform="matrix(1.00, 0.00, -0.00, -1.00, 246.5, 3.9)">o</text><text xml:space="preserve" font-family="Helvetica-Light,Helvetica" font-size="61.0" fill="#000000" transform="matrix(1.00, 0.00, -0.00, -1.00, 280.4, 3.9)">n</text><text xml:space="preserve" font-family="Helvetica-Light,Helvetica" font-size="61.0" fill="#000000" transform="matrix(1.00, 0.00, -0.00, -1.00, 314.3, 3.9)">t</text><text xml:space="preserve" font-family="Helvetica-Light,Helvetica" font-size="61.0" fill="#000000" transform="matrix(1.00, 0.00, -0.00, -1.00, 331.3, 3.9)">a</text><text xml:space="preserve" font-family="Helvetica-Light,Helvetica" font-size="61.0" fill="#000000" transform="matrix(1.00, 0.00, -0.00, -1.00, 365.2, 3.9)">i</text><text xml:space="preserve" font-family="Helvetica-Light,Helvetica" font-size="61.0" fill="#000000" transform="matrix(1.00, 0.00, -0.00, -1.00, 378.8, 3.9)">n</text><text xml:space="preserve" font-family="Helvetica-Light,Helvetica" font-size="61.0" fill="#000000" transform="matrix(1.00, 0.00, -0.00, -1.00, 412.7, 3.9)">e</text><text xml:space="preserve" font-family="Helvetica-Light,Helvetica" font-size="61.0" fill="#000000" transform="matrix(1.00, 0.00, -0.00, -1.00, 446.6, 3.9)">r</text></g></svg>