<?xml version="1.0" encoding="UTF-8" standalone="no"?><svg xmlns="http://www.w3.org/2000/svg" xmlns:xlink="http://www.w3.org/1999/xlink" clip-rule="evenodd" stroke-miterlimit="10" viewBox="0 0 204 108"><desc>SVG generated by Keynote</desc><defs></defs><g transform="matrix(1.00, 0.00, -0.00, -1.00, 0.0, 108.0)"><g><clipPath id="clip0x7f8e0baedd70"><path d="M 163.2 0.9 L 203.4 0.9 L 203.4 47.9 L 163.2 47.9 Z M 163.2 0.9 "></path></clipPath><g clip-path="url(#clip0x7f8e0baedd70)"><path d="M 165.0 46.0 L 201.0 46.0 L 201.0 3.0 L 165.0 3.0 Z M 165.2 45.9 " fill="#51A7F9"></path><path d="M -0.2 -0.1 L 35.8 -0.1 L 35.8 42.9 L -0.2 42.9 Z M 0.0 0.0 " fill="none" stroke="#85878C" stroke-width="2.00" transform="matrix(1.00, 0.00, 0.00, -1.00, 165.2, 45.9)"></path></g></g><g><clipPath id="clip0x7f8e0baef1f0"><path d="M 163.2 64.2 L 203.4 64.2 L 203.4 75.2 L 163.2 75.2 Z M 163.2 64.2 "></path></clipPath><g clip-path="url(#clip0x7f8e0baef1f0)"><path d="M -0.2 0.2 L 37.8 0.2 " fill="none" stroke="#000000" stroke-width="9.00" transform="matrix(1.00, 0.00, 0.00, -1.00, 164.2, 69.7)"></path></g></g><g><clipPath id="clip0x7f8e0baf02d0"><path d="M 163.2 76.5 L 203.4 76.5 L 203.4 87.5 L 163.2 87.5 Z M 163.2 76.5 "></path></clipPath><g clip-path="url(#clip0x7f8e0baf02d0)"><path d="M -0.2 0.5 L 37.8 0.5 " fill="none" stroke="#000000" stroke-width="9.00" transform="matrix(1.00, 0.00, 0.00, -1.00, 164.2, 82.0)"></path></g></g><g><clipPath id="clip0x7f8e0baf12b0"><path d="M 163.2 52.0 L 203.4 52.0 L 203.4 63.0 L 163.2 63.0 Z M 163.2 52.0 "></path></clipPath><g clip-path="url(#clip0x7f8e0baf12b0)"><path d="M -0.2 0.0 L 37.8 0.0 " fill="none" stroke="#FF0000" stroke-width="9.00" transform="matrix(1.00, 0.00, 0.00, -1.00, 164.2, 57.5)"></path></g></g><g><clipPath id="clip0x7f8e0baf2280"><path d="M 0.8 48.5 L 163.7 48.5 L 163.7 107.5 L 0.8 107.5 Z M 0.8 48.5 "></path></clipPath><g clip-path="url(#clip0x7f8e0baf2280)"><image xlink:href="2B78D65A2DD038934731CD51E05A1A32.png" width="161.00" height="57.00" transform="matrix(1.00, 0.00, -0.00, -1.00, 1.8, 106.5)" opacity="0.50"></image><path d="M 8.8 105.0 C 6.6 105.5 5.0 103.7 5.0 101.5 L 5.0 58.5 C 5.0 56.3 6.6 54.0 8.8 54.0 L 133.2 54.0 C 135.4 54.0 137.0 56.3 137.0 58.5 L 137.0 72.4 L 159.7 80.3 L 137.0 88.3 L 137.0 101.5 C 137.0 103.7 135.4 105.0 133.2 105.0 L 8.8 105.0 Z M 8.8 105.5 " fill="#F5D327"></path></g></g><g><clipPath id="clip0x7f8e0c09df70"><path d="M 5.8 49.5 L 142.2 49.5 L 142.2 110.5 L 5.8 110.5 Z M 5.8 49.5 "></path></clipPath><g clip-path="url(#clip0x7f8e0c09df70)"><text xml:space="preserve" font-family="Helvetica-Light,Helvetica" font-size="36.0" fill="#000000" transform="matrix(1.00, 0.00, -0.00, -1.00, 15.3, 66.8)">t</text><text xml:space="preserve" font-family="Helvetica-Light,Helvetica" font-size="36.0" fill="#000000" transform="matrix(1.00, 0.00, -0.00, -1.00, 25.3, 66.8)">h</text><text xml:space="preserve" font-family="Helvetica-Light,Helvetica" font-size="36.0" fill="#000000" transform="matrix(1.00, 0.00, -0.00, -1.00, 45.3, 66.8)">r</text><text xml:space="preserve" font-family="Helvetica-Light,Helvetica" font-size="36.0" fill="#000000" transform="matrix(1.00, 0.00, -0.00, -1.00, 56.7, 66.8)">o</text><text xml:space="preserve" font-family="Helvetica-Light,Helvetica" font-size="36.0" fill="#000000" transform="matrix(1.00, 0.00, -0.00, -1.00, 76.7, 66.8)">w</text><text xml:space="preserve" font-family="Helvetica-Light,Helvetica" font-size="36.0" fill="#000000" transform="matrix(1.00, 0.00, -0.00, -1.00, 102.7, 66.8)"> </text><text xml:space="preserve" font-family="Helvetica-Light,Helvetica" font-size="36.0" fill="#000000" transform="matrix(1.00, 0.00, -0.00, -1.00, 112.7, 66.8)">2</text></g></g></g></svg>