<?xml version="1.0" encoding="UTF-8" standalone="no"?><svg xmlns="http://www.w3.org/2000/svg" xmlns:xlink="http://www.w3.org/1999/xlink" clip-rule="evenodd" stroke-miterlimit="10" viewBox="0 0 155 227"><desc>SVG generated by Keynote</desc><defs></defs><g transform="matrix(1.00, 0.00, -0.00, -1.00, 0.0, 227.0)"><g><clipPath id="clip0x7f8e0bfe72b0"><path d="M 0.7 0.1 L 154.2 0.1 L 154.2 226.7 L 0.7 226.7 Z M 0.7 0.1 "></path></clipPath><g clip-path="url(#clip0x7f8e0bfe72b0)"><image xlink:href="../../2744D2C9-0E5F-4668-9B6E-AE2BE80E2122/assets/72FA3AEBD6E18606B01A76EE78AB0830.png" width="152.00" height="225.00" transform="matrix(1.00, 0.00, -0.00, -1.00, 1.7, 225.7)" opacity="0.50"></image></g></g><g><clipPath id="clip0x7f8e0badc750"><path d="M 5.0 225.0 L 150.0 225.0 L 150.0 6.0 L 5.0 6.0 Z M 4.7 224.7 "></path></clipPath><g clip-path="url(#clip0x7f8e0badc750)"><g><clipPath id="clip0x7f8e0badd240"><path d="M 0.7 0.1 L 154.2 0.1 L 154.2 226.7 L 0.7 226.7 Z M 0.7 0.1 "></path></clipPath><g clip-path="url(#clip0x7f8e0badd240)"><image xlink:href="../../58FC0062-152D-4CC5-84DA-0DFAC1FE8D74/assets/C3C0FC898C94653CAF8AD846D6CCD108.png" width="600.00" height="600.00" transform="matrix(0.50, 0.00, -0.00, -0.50, 5.0, 225.0)"></image></g></g></g></g><g><clipPath id="clip0x7f8e0bfe87e0"><path d="M 8.9 108.1 L 146.0 108.1 L 146.0 114.4 L 8.9 114.4 Z M 8.9 108.1 "></path></clipPath><g clip-path="url(#clip0x7f8e0bfe87e0)"><path d="M -0.0 -0.3 L 131.0 -0.3 " fill="none" stroke="#000000" stroke-width="3.00" stroke-linecap="round" stroke-dasharray="0.0, 9.0" transform="matrix(1.00, 0.00, 0.00, -1.00, 12.0, 111.2)"></path></g></g><g><clipPath id="clip0x7f8e0bfe9ff0"><path d="M 3.1 6.6 L 111.4 6.6 L 111.4 35.9 L 3.1 35.9 Z M 3.1 6.6 "></path></clipPath><g clip-path="url(#clip0x7f8e0bfe9ff0)"><text xml:space="preserve" font-family="Helvetica-Light,Helvetica" font-size="17.0" fill="#FEFFFE" transform="matrix(1.00, 0.00, -0.00, -1.00, 14.0, 14.8)">t</text><text xml:space="preserve" font-family="Helvetica-Light,Helvetica" font-size="17.0" fill="#FEFFFE" transform="matrix(1.00, 0.00, -0.00, -1.00, 18.7, 14.8)">h</text><text xml:space="preserve" font-family="Helvetica-Light,Helvetica" font-size="17.0" fill="#FEFFFE" transform="matrix(1.00, 0.00, -0.00, -1.00, 28.2, 14.8)">r</text><text xml:space="preserve" font-family="Helvetica-Light,Helvetica" font-size="17.0" fill="#FEFFFE" transform="matrix(1.00, 0.00, -0.00, -1.00, 33.5, 14.8)">e</text><text xml:space="preserve" font-family="Helvetica-Light,Helvetica" font-size="17.0" fill="#FEFFFE" transform="matrix(1.00, 0.00, -0.00, -1.00, 43.0, 14.8)">a</text><text xml:space="preserve" font-family="Helvetica-Light,Helvetica" font-size="17.0" fill="#FEFFFE" transform="matrix(1.00, 0.00, -0.00, -1.00, 52.4, 14.8)">d</text><text xml:space="preserve" font-family="Helvetica-Light,Helvetica" font-size="17.0" fill="#FEFFFE" transform="matrix(1.00, 0.00, -0.00, -1.00, 62.8, 14.8)"> </text><text xml:space="preserve" font-family="Helvetica-Light,Helvetica" font-size="17.0" fill="#FEFFFE" transform="matrix(1.00, 0.00, -0.00, -1.00, 67.5, 14.8)">p</text><text xml:space="preserve" font-family="Helvetica-Light,Helvetica" font-size="17.0" fill="#FEFFFE" transform="matrix(1.00, 0.00, -0.00, -1.00, 77.9, 14.8)">o</text><text xml:space="preserve" font-family="Helvetica-Light,Helvetica" font-size="17.0" fill="#FEFFFE" transform="matrix(1.00, 0.00, -0.00, -1.00, 87.4, 14.8)">o</text><text xml:space="preserve" font-family="Helvetica-Light,Helvetica" font-size="17.0" fill="#FEFFFE" transform="matrix(1.00, 0.00, -0.00, -1.00, 96.8, 14.8)">l</text></g></g></g></svg>