<?xml version="1.0" encoding="UTF-8" standalone="no"?><svg xmlns="http://www.w3.org/2000/svg" xmlns:xlink="http://www.w3.org/1999/xlink" clip-rule="evenodd" stroke-miterlimit="10" viewBox="0 0 970 65"><desc>SVG generated by Keynote</desc><defs></defs><g transform="matrix(1.00, 0.00, -0.00, -1.00, 0.0, 65.0)"><text xml:space="preserve" font-family="Helvetica-Light,Helvetica" font-size="66.1" fill="#000000" transform="matrix(1.00, 0.00, -0.00, -1.00, 0.7, 16.0)">A</text><text xml:space="preserve" font-family="Helvetica-Light,Helvetica" font-size="66.1" fill="#000000" transform="matrix(1.00, 0.00, -0.00, -1.00, 44.8, 16.0)">s</text><text xml:space="preserve" font-family="Helvetica-Light,Helvetica" font-size="66.1" fill="#000000" transform="matrix(1.00, 0.00, -0.00, -1.00, 77.8, 16.0)">y</text><text xml:space="preserve" font-family="Helvetica-Light,Helvetica" font-size="66.1" fill="#000000" transform="matrix(1.00, 0.00, -0.00, -1.00, 110.9, 16.0)">n</text><text xml:space="preserve" font-family="Helvetica-Light,Helvetica" font-size="66.1" fill="#000000" transform="matrix(1.00, 0.00, -0.00, -1.00, 147.6, 16.0)">c</text><text xml:space="preserve" font-family="Helvetica-Light,Helvetica" font-size="66.1" fill="#000000" transform="matrix(1.00, 0.00, -0.00, -1.00, 184.4, 16.0)">h</text><text xml:space="preserve" font-family="Helvetica-Light,Helvetica" font-size="66.1" fill="#000000" transform="matrix(1.00, 0.00, -0.00, -1.00, 221.2, 16.0)">r</text><text xml:space="preserve" font-family="Helvetica-Light,Helvetica" font-size="66.1" fill="#000000" transform="matrix(1.00, 0.00, -0.00, -1.00, 242.0, 16.0)">o</text><text xml:space="preserve" font-family="Helvetica-Light,Helvetica" font-size="66.1" fill="#000000" transform="matrix(1.00, 0.00, -0.00, -1.00, 278.8, 16.0)">n</text><text xml:space="preserve" font-family="Helvetica-Light,Helvetica" font-size="66.1" fill="#000000" transform="matrix(1.00, 0.00, -0.00, -1.00, 315.5, 16.0)">o</text><text xml:space="preserve" font-family="Helvetica-Light,Helvetica" font-size="66.1" fill="#000000" transform="matrix(1.00, 0.00, -0.00, -1.00, 352.3, 16.0)">u</text><text xml:space="preserve" font-family="Helvetica-Light,Helvetica" font-size="66.1" fill="#000000" transform="matrix(1.00, 0.00, -0.00, -1.00, 389.0, 16.0)">s</text><text xml:space="preserve" font-family="Helvetica-Light,Helvetica" font-size="66.1" fill="#000000" transform="matrix(1.00, 0.00, -0.00, -1.00, 422.1, 16.0)">,</text><text xml:space="preserve" font-family="Helvetica-Light,Helvetica" font-size="66.1" fill="#000000" transform="matrix(1.00, 0.00, -0.00, -1.00, 440.5, 16.0)"> </text><text xml:space="preserve" font-family="Helvetica-Light,Helvetica" font-size="66.1" fill="#000000" transform="matrix(1.00, 0.00, -0.00, -1.00, 458.9, 16.0)">e</text><text xml:space="preserve" font-family="Helvetica-Light,Helvetica" font-size="66.1" fill="#000000" transform="matrix(1.00, 0.00, -0.00, -1.00, 495.6, 16.0)">v</text><text xml:space="preserve" font-family="Helvetica-Light,Helvetica" font-size="66.1" fill="#000000" transform="matrix(1.00, 0.00, -0.00, -1.00, 528.7, 16.0)">e</text><text xml:space="preserve" font-family="Helvetica-Light,Helvetica" font-size="66.1" fill="#000000" transform="matrix(1.00, 0.00, -0.00, -1.00, 565.5, 16.0)">n</text><text xml:space="preserve" font-family="Helvetica-Light,Helvetica" font-size="66.1" fill="#000000" transform="matrix(1.00, 0.00, -0.00, -1.00, 602.2, 16.0)">t</text><text xml:space="preserve" font-family="Helvetica-Light,Helvetica" font-size="66.1" fill="#000000" transform="matrix(1.00, 0.00, -0.00, -1.00, 620.6, 16.0)"> </text><text xml:space="preserve" font-family="Helvetica-Light,Helvetica" font-size="66.1" fill="#000000" transform="matrix(1.00, 0.00, -0.00, -1.00, 639.0, 16.0)">l</text><text xml:space="preserve" font-family="Helvetica-Light,Helvetica" font-size="66.1" fill="#000000" transform="matrix(1.00, 0.00, -0.00, -1.00, 653.7, 16.0)">o</text><text xml:space="preserve" font-family="Helvetica-Light,Helvetica" font-size="66.1" fill="#000000" transform="matrix(1.00, 0.00, -0.00, -1.00, 690.4, 16.0)">o</text><text xml:space="preserve" font-family="Helvetica-Light,Helvetica" font-size="66.1" fill="#000000" transform="matrix(1.00, 0.00, -0.00, -1.00, 727.2, 16.0)">p</text><text xml:space="preserve" font-family="Helvetica-Light,Helvetica" font-size="66.1" fill="#000000" transform="matrix(1.00, 0.00, -0.00, -1.00, 767.6, 16.0)"> </text><text xml:space="preserve" font-family="Helvetica-Light,Helvetica" font-size="66.1" fill="#000000" transform="matrix(1.00, 0.00, -0.00, -1.00, 786.0, 16.0)">b</text><text xml:space="preserve" font-family="Helvetica-Light,Helvetica" font-size="66.1" fill="#000000" transform="matrix(1.00, 0.00, -0.00, -1.00, 826.4, 16.0)">a</text><text xml:space="preserve" font-family="Helvetica-Light,Helvetica" font-size="66.1" fill="#000000" transform="matrix(1.00, 0.00, -0.00, -1.00, 863.1, 16.0)">s</text><text xml:space="preserve" font-family="Helvetica-Light,Helvetica" font-size="66.1" fill="#000000" transform="matrix(1.00, 0.00, -0.00, -1.00, 896.2, 16.0)">e</text><text xml:space="preserve" font-family="Helvetica-Light,Helvetica" font-size="66.1" fill="#000000" transform="matrix(1.00, 0.00, -0.00, -1.00, 932.9, 16.0)">d</text></g></svg>