<?xml version="1.0" encoding="UTF-8" standalone="no"?><svg xmlns="http://www.w3.org/2000/svg" xmlns:xlink="http://www.w3.org/1999/xlink" clip-rule="evenodd" stroke-miterlimit="10" viewBox="0 0 674 66"><desc>SVG generated by Keynote</desc><defs></defs><g transform="matrix(1.00, 0.00, -0.00, -1.00, 0.0, 66.0)"><text xml:space="preserve" font-family="Helvetica-Light,Helvetica" font-size="67.0" fill="#000000" transform="matrix(1.00, 0.00, -0.00, -1.00, -5.4, 15.5)">I</text><text xml:space="preserve" font-family="Helvetica-Light,Helvetica" font-size="67.0" fill="#000000" transform="matrix(1.00, 0.00, -0.00, -1.00, 13.3, 15.5)">n</text><text xml:space="preserve" font-family="Helvetica-Light,Helvetica" font-size="67.0" fill="#000000" transform="matrix(1.00, 0.00, -0.00, -1.00, 50.5, 15.5)"> </text><text xml:space="preserve" font-family="Helvetica-Light,Helvetica" font-size="67.0" fill="#000000" transform="matrix(1.00, 0.00, -0.00, -1.00, 69.2, 15.5)">N</text><text xml:space="preserve" font-family="Helvetica-Light,Helvetica" font-size="67.0" fill="#000000" transform="matrix(1.00, 0.00, -0.00, -1.00, 117.5, 15.5)">o</text><text xml:space="preserve" font-family="Helvetica-Light,Helvetica" font-size="67.0" fill="#000000" transform="matrix(1.00, 0.00, -0.00, -1.00, 154.8, 15.5)">d</text><text xml:space="preserve" font-family="Helvetica-Light,Helvetica" font-size="67.0" fill="#000000" transform="matrix(1.00, 0.00, -0.00, -1.00, 195.7, 15.5)">e</text><text xml:space="preserve" font-family="Helvetica-Light,Helvetica" font-size="67.0" fill="#000000" transform="matrix(1.00, 0.00, -0.00, -1.00, 233.0, 15.5)">,</text><text xml:space="preserve" font-family="Helvetica-Light,Helvetica" font-size="67.0" fill="#000000" transform="matrix(1.00, 0.00, -0.00, -1.00, 251.6, 15.5)"> </text><text xml:space="preserve" font-family="Helvetica-Light,Helvetica" font-size="67.0" fill="#000000" transform="matrix(1.00, 0.00, -0.00, -1.00, 270.2, 15.5)">p</text><text xml:space="preserve" font-family="Helvetica-Light,Helvetica" font-size="67.0" fill="#000000" transform="matrix(1.00, 0.00, -0.00, -1.00, 311.2, 15.5)">r</text><text xml:space="preserve" font-family="Helvetica-Light,Helvetica" font-size="67.0" fill="#000000" transform="matrix(1.00, 0.00, -0.00, -1.00, 332.3, 15.5)">o</text><text xml:space="preserve" font-family="Helvetica-Light,Helvetica" font-size="67.0" fill="#000000" transform="matrix(1.00, 0.00, -0.00, -1.00, 369.5, 15.5)">g</text><text xml:space="preserve" font-family="Helvetica-Light,Helvetica" font-size="67.0" fill="#000000" transform="matrix(1.00, 0.00, -0.00, -1.00, 410.5, 15.5)">r</text><text xml:space="preserve" font-family="Helvetica-Light,Helvetica" font-size="67.0" fill="#000000" transform="matrix(1.00, 0.00, -0.00, -1.00, 432.8, 15.5)">a</text><text xml:space="preserve" font-family="Helvetica-Light,Helvetica" font-size="67.0" fill="#000000" transform="matrix(1.00, 0.00, -0.00, -1.00, 470.0, 15.5)">m</text><text xml:space="preserve" font-family="Helvetica-Light,Helvetica" font-size="67.0" fill="#000000" transform="matrix(1.00, 0.00, -0.00, -1.00, 525.8, 15.5)">m</text><text xml:space="preserve" font-family="Helvetica-Light,Helvetica" font-size="67.0" fill="#000000" transform="matrix(1.00, 0.00, -0.00, -1.00, 581.6, 15.5)">e</text><text xml:space="preserve" font-family="Helvetica-Light,Helvetica" font-size="67.0" fill="#000000" transform="matrix(1.00, 0.00, -0.00, -1.00, 618.9, 15.5)">r</text><text xml:space="preserve" font-family="Helvetica-Light,Helvetica" font-size="67.0" fill="#000000" transform="matrix(1.00, 0.00, -0.00, -1.00, 641.2, 15.5)">s</text></g></svg>