<?xml version="1.0" encoding="UTF-8" standalone="no"?><svg xmlns="http://www.w3.org/2000/svg" xmlns:xlink="http://www.w3.org/1999/xlink" clip-rule="evenodd" stroke-miterlimit="10" viewBox="0 0 913 67"><desc>SVG generated by Keynote</desc><defs></defs><g transform="matrix(1.00, 0.00, -0.00, -1.00, 0.0, 67.0)"><text xml:space="preserve" font-family="Helvetica-Light,Helvetica" font-size="67.0" fill="#000000" transform="matrix(1.00, 0.00, -0.00, -1.00, -1.1, 15.5)">a</text><text xml:space="preserve" font-family="Helvetica-Light,Helvetica" font-size="67.0" fill="#000000" transform="matrix(1.00, 0.00, -0.00, -1.00, 36.2, 15.5)">p</text><text xml:space="preserve" font-family="Helvetica-Light,Helvetica" font-size="67.0" fill="#000000" transform="matrix(1.00, 0.00, -0.00, -1.00, 77.1, 15.5)">p</text><text xml:space="preserve" font-family="Helvetica-Light,Helvetica" font-size="67.0" fill="#000000" transform="matrix(1.00, 0.00, -0.00, -1.00, 118.1, 15.5)">r</text><text xml:space="preserve" font-family="Helvetica-Light,Helvetica" font-size="67.0" fill="#000000" transform="matrix(1.00, 0.00, -0.00, -1.00, 139.2, 15.5)">o</text><text xml:space="preserve" font-family="Helvetica-Light,Helvetica" font-size="67.0" fill="#000000" transform="matrix(1.00, 0.00, -0.00, -1.00, 176.4, 15.5)">a</text><text xml:space="preserve" font-family="Helvetica-Light,Helvetica" font-size="67.0" fill="#000000" transform="matrix(1.00, 0.00, -0.00, -1.00, 213.7, 15.5)">c</text><text xml:space="preserve" font-family="Helvetica-Light,Helvetica" font-size="67.0" fill="#000000" transform="matrix(1.00, 0.00, -0.00, -1.00, 250.9, 15.5)">h</text><text xml:space="preserve" font-family="Helvetica-Light,Helvetica" font-size="67.0" fill="#000000" transform="matrix(1.00, 0.00, -0.00, -1.00, 288.2, 15.5)"> </text><text xml:space="preserve" font-family="Helvetica-Light,Helvetica" font-size="67.0" fill="#000000" transform="matrix(1.00, 0.00, -0.00, -1.00, 306.8, 15.5)">p</text><text xml:space="preserve" font-family="Helvetica-Light,Helvetica" font-size="67.0" fill="#000000" transform="matrix(1.00, 0.00, -0.00, -1.00, 347.7, 15.5)">r</text><text xml:space="preserve" font-family="Helvetica-Light,Helvetica" font-size="67.0" fill="#000000" transform="matrix(1.00, 0.00, -0.00, -1.00, 368.8, 15.5)">o</text><text xml:space="preserve" font-family="Helvetica-Light,Helvetica" font-size="67.0" fill="#000000" transform="matrix(1.00, 0.00, -0.00, -1.00, 406.1, 15.5)">b</text><text xml:space="preserve" font-family="Helvetica-Light,Helvetica" font-size="67.0" fill="#000000" transform="matrix(1.00, 0.00, -0.00, -1.00, 447.0, 15.5)">l</text><text xml:space="preserve" font-family="Helvetica-Light,Helvetica" font-size="67.0" fill="#000000" transform="matrix(1.00, 0.00, -0.00, -1.00, 461.9, 15.5)">e</text><text xml:space="preserve" font-family="Helvetica-Light,Helvetica" font-size="67.0" fill="#000000" transform="matrix(1.00, 0.00, -0.00, -1.00, 499.2, 15.5)">m</text><text xml:space="preserve" font-family="Helvetica-Light,Helvetica" font-size="67.0" fill="#000000" transform="matrix(1.00, 0.00, -0.00, -1.00, 555.0, 15.5)">s</text><text xml:space="preserve" font-family="Helvetica-Light,Helvetica" font-size="67.0" fill="#000000" transform="matrix(1.00, 0.00, -0.00, -1.00, 588.5, 15.5)"> </text><text xml:space="preserve" font-family="Helvetica-Light,Helvetica" font-size="67.0" fill="#000000" transform="matrix(1.00, 0.00, -0.00, -1.00, 607.1, 15.5)">a</text><text xml:space="preserve" font-family="Helvetica-Light,Helvetica" font-size="67.0" fill="#000000" transform="matrix(1.00, 0.00, -0.00, -1.00, 644.3, 15.5)">s</text><text xml:space="preserve" font-family="Helvetica-Light,Helvetica" font-size="67.0" fill="#000000" transform="matrix(1.00, 0.00, -0.00, -1.00, 677.8, 15.5)">y</text><text xml:space="preserve" font-family="Helvetica-Light,Helvetica" font-size="67.0" fill="#000000" transform="matrix(1.00, 0.00, -0.00, -1.00, 711.3, 15.5)">n</text><text xml:space="preserve" font-family="Helvetica-Light,Helvetica" font-size="67.0" fill="#000000" transform="matrix(1.00, 0.00, -0.00, -1.00, 748.6, 15.5)">c</text><text xml:space="preserve" font-family="Helvetica-Light,Helvetica" font-size="67.0" fill="#000000" transform="matrix(1.00, 0.00, -0.00, -1.00, 785.8, 15.5)"> </text><text xml:space="preserve" font-family="Helvetica-Light,Helvetica" font-size="67.0" fill="#000000" transform="matrix(1.00, 0.00, -0.00, -1.00, 804.5, 15.5)">ï¬</text><text xml:space="preserve" font-family="Helvetica-Light,Helvetica" font-size="67.0" fill="#000000" transform="matrix(1.00, 0.00, -0.00, -1.00, 838.0, 15.5)">r</text><text xml:space="preserve" font-family="Helvetica-Light,Helvetica" font-size="67.0" fill="#000000" transform="matrix(1.00, 0.00, -0.00, -1.00, 860.3, 15.5)">s</text><text xml:space="preserve" font-family="Helvetica-Light,Helvetica" font-size="67.0" fill="#000000" transform="matrix(1.00, 0.00, -0.00, -1.00, 893.8, 15.5)">t</text></g></svg>