<?xml version="1.0" encoding="UTF-8" standalone="no"?><svg xmlns="http://www.w3.org/2000/svg" xmlns:xlink="http://www.w3.org/1999/xlink" clip-rule="evenodd" stroke-miterlimit="10" viewBox="0 0 970 65"><desc>SVG generated by Keynote</desc><defs></defs><g transform="matrix(1.00, 0.00, -0.00, -1.00, 0.0, 65.0)"><text xml:space="preserve" font-family="Helvetica-Light,Helvetica" font-size="66.1" fill="#000000" transform="matrix(1.00, 0.00, -0.00, -1.00, 0.7, 15.8)">A</text><text xml:space="preserve" font-family="Helvetica-Light,Helvetica" font-size="66.1" fill="#000000" transform="matrix(1.00, 0.00, -0.00, -1.00, 44.8, 15.8)">s</text><text xml:space="preserve" font-family="Helvetica-Light,Helvetica" font-size="66.1" fill="#000000" transform="matrix(1.00, 0.00, -0.00, -1.00, 77.8, 15.8)">y</text><text xml:space="preserve" font-family="Helvetica-Light,Helvetica" font-size="66.1" fill="#000000" transform="matrix(1.00, 0.00, -0.00, -1.00, 110.9, 15.8)">n</text><text xml:space="preserve" font-family="Helvetica-Light,Helvetica" font-size="66.1" fill="#000000" transform="matrix(1.00, 0.00, -0.00, -1.00, 147.6, 15.8)">c</text><text xml:space="preserve" font-family="Helvetica-Light,Helvetica" font-size="66.1" fill="#000000" transform="matrix(1.00, 0.00, -0.00, -1.00, 184.4, 15.8)">h</text><text xml:space="preserve" font-family="Helvetica-Light,Helvetica" font-size="66.1" fill="#000000" transform="matrix(1.00, 0.00, -0.00, -1.00, 221.2, 15.8)">r</text><text xml:space="preserve" font-family="Helvetica-Light,Helvetica" font-size="66.1" fill="#000000" transform="matrix(1.00, 0.00, -0.00, -1.00, 242.0, 15.8)">o</text><text xml:space="preserve" font-family="Helvetica-Light,Helvetica" font-size="66.1" fill="#000000" transform="matrix(1.00, 0.00, -0.00, -1.00, 278.8, 15.8)">n</text><text xml:space="preserve" font-family="Helvetica-Light,Helvetica" font-size="66.1" fill="#000000" transform="matrix(1.00, 0.00, -0.00, -1.00, 315.5, 15.8)">o</text><text xml:space="preserve" font-family="Helvetica-Light,Helvetica" font-size="66.1" fill="#000000" transform="matrix(1.00, 0.00, -0.00, -1.00, 352.3, 15.8)">u</text><text xml:space="preserve" font-family="Helvetica-Light,Helvetica" font-size="66.1" fill="#000000" transform="matrix(1.00, 0.00, -0.00, -1.00, 389.0, 15.8)">s</text><text xml:space="preserve" font-family="Helvetica-Light,Helvetica" font-size="66.1" fill="#000000" transform="matrix(1.00, 0.00, -0.00, -1.00, 422.1, 15.8)">,</text><text xml:space="preserve" font-family="Helvetica-Light,Helvetica" font-size="66.1" fill="#000000" transform="matrix(1.00, 0.00, -0.00, -1.00, 440.5, 15.8)"> </text><text xml:space="preserve" font-family="Helvetica-Light,Helvetica" font-size="66.1" fill="#000000" transform="matrix(1.00, 0.00, -0.00, -1.00, 458.9, 15.8)">e</text><text xml:space="preserve" font-family="Helvetica-Light,Helvetica" font-size="66.1" fill="#000000" transform="matrix(1.00, 0.00, -0.00, -1.00, 495.6, 15.8)">v</text><text xml:space="preserve" font-family="Helvetica-Light,Helvetica" font-size="66.1" fill="#000000" transform="matrix(1.00, 0.00, -0.00, -1.00, 528.7, 15.8)">e</text><text xml:space="preserve" font-family="Helvetica-Light,Helvetica" font-size="66.1" fill="#000000" transform="matrix(1.00, 0.00, -0.00, -1.00, 565.5, 15.8)">n</text><text xml:space="preserve" font-family="Helvetica-Light,Helvetica" font-size="66.1" fill="#000000" transform="matrix(1.00, 0.00, -0.00, -1.00, 602.2, 15.8)">t</text><text xml:space="preserve" font-family="Helvetica-Light,Helvetica" font-size="66.1" fill="#000000" transform="matrix(1.00, 0.00, -0.00, -1.00, 620.6, 15.8)"> </text><text xml:space="preserve" font-family="Helvetica-Light,Helvetica" font-size="66.1" fill="#000000" transform="matrix(1.00, 0.00, -0.00, -1.00, 639.0, 15.8)">l</text><text xml:space="preserve" font-family="Helvetica-Light,Helvetica" font-size="66.1" fill="#000000" transform="matrix(1.00, 0.00, -0.00, -1.00, 653.7, 15.8)">o</text><text xml:space="preserve" font-family="Helvetica-Light,Helvetica" font-size="66.1" fill="#000000" transform="matrix(1.00, 0.00, -0.00, -1.00, 690.4, 15.8)">o</text><text xml:space="preserve" font-family="Helvetica-Light,Helvetica" font-size="66.1" fill="#000000" transform="matrix(1.00, 0.00, -0.00, -1.00, 727.2, 15.8)">p</text><text xml:space="preserve" font-family="Helvetica-Light,Helvetica" font-size="66.1" fill="#000000" transform="matrix(1.00, 0.00, -0.00, -1.00, 767.6, 15.8)"> </text><text xml:space="preserve" font-family="Helvetica-Light,Helvetica" font-size="66.1" fill="#000000" transform="matrix(1.00, 0.00, -0.00, -1.00, 786.0, 15.8)">b</text><text xml:space="preserve" font-family="Helvetica-Light,Helvetica" font-size="66.1" fill="#000000" transform="matrix(1.00, 0.00, -0.00, -1.00, 826.4, 15.8)">a</text><text xml:space="preserve" font-family="Helvetica-Light,Helvetica" font-size="66.1" fill="#000000" transform="matrix(1.00, 0.00, -0.00, -1.00, 863.1, 15.8)">s</text><text xml:space="preserve" font-family="Helvetica-Light,Helvetica" font-size="66.1" fill="#000000" transform="matrix(1.00, 0.00, -0.00, -1.00, 896.2, 15.8)">e</text><text xml:space="preserve" font-family="Helvetica-Light,Helvetica" font-size="66.1" fill="#000000" transform="matrix(1.00, 0.00, -0.00, -1.00, 932.9, 15.8)">d</text></g></svg>