<?xml version="1.0" encoding="UTF-8" standalone="no"?><svg xmlns="http://www.w3.org/2000/svg" xmlns:xlink="http://www.w3.org/1999/xlink" clip-rule="evenodd" stroke-miterlimit="10" viewBox="0 0 316 300"><desc>SVG generated by Keynote</desc><defs></defs><g transform="matrix(1.00, 0.00, -0.00, -1.00, 0.0, 300.0)"><g><clipPath id="clip0x7f8df6ef80e0"><path d="M 0.9 0.3 L 315.3 0.3 L 315.3 299.7 L 0.9 299.7 Z M 0.9 0.3 "></path></clipPath><g clip-path="url(#clip0x7f8df6ef80e0)"><path d="M 255.6 41.6 C 314.1 97.2 314.1 187.2 255.6 242.8 C 197.1 298.3 102.3 298.3 43.9 242.8 C -14.6 187.2 -14.6 97.2 43.9 41.6 C 102.3 -13.9 197.1 -13.9 255.6 41.6 Z M 255.6 41.6 " fill="none" stroke="#000000" stroke-width="13.00" transform="matrix(1.00, 0.00, 0.00, -1.00, 8.4, 292.2)"></path></g></g><g><clipPath id="clip0x7f8df715b660"><path d="M 262.5 51.9 L 314.5 51.9 L 314.5 252.3 L 262.5 252.3 Z M 262.5 51.9 "></path></clipPath><g clip-path="url(#clip0x7f8df715b660)"><path d="M 0.0 0.0 C 25.7 25.4 40.3 59.9 40.6 96.0 C 40.8 117.0 36.2 137.5 27.3 156.0 L 24.2 160.6 " fill="none" stroke="#000000" stroke-width="11.00" transform="matrix(1.00, 0.00, 0.00, -1.00, 267.3, 247.4)"></path><path d="M 277.3 103.2 L 270.8 56.7 L 311.9 79.5 Z M 277.3 103.2 " fill="#000000"></path></g></g><g><clipPath id="clip0x7f8df7218960"><path d="M 1.5 67.6 L 52.4 67.6 L 52.4 250.4 L 1.5 250.4 Z M 1.5 67.6 "></path></clipPath><g clip-path="url(#clip0x7f8df7218960)"><path d="M 18.1 29.6 L 14.9 34.0 C 6.4 50.7 1.3 69.1 0.2 88.1 C -1.5 118.6 7.0 148.7 24.3 173.7 " fill="none" stroke="#000000" stroke-width="11.00" transform="matrix(1.00, 0.00, 0.00, -1.00, 8.0, 245.5)"></path><path d="M 39.9 199.1 L 47.5 245.5 L 5.9 223.7 Z M 39.9 199.1 " fill="#000000"></path></g></g></g></svg>