<?xml version="1.0" encoding="UTF-8" standalone="no"?><svg xmlns="http://www.w3.org/2000/svg" xmlns:xlink="http://www.w3.org/1999/xlink" clip-rule="evenodd" stroke-miterlimit="10" viewBox="0 0 87 87"><desc>SVG generated by Keynote</desc><defs></defs><g transform="matrix(1.00, 0.00, -0.00, -1.00, 0.0, 87.0)"><g><clipPath id="clip0x7f8e1bb87e70"><path d="M 43.8 87.0 L 43.8 0.2 L 1.0 0.2 L 1.0 87.0 Z M 43.8 87.0 "></path></clipPath><g clip-path="url(#clip0x7f8e1bb87e70)"><image xlink:href="D384EE68BA266330BAC515DD01D2D122.png" width="85.00" height="41.00" transform="matrix(0.00, -1.00, -1.00, 0.00, 42.8, 86.0)" opacity="0.50"></image><path d="M -0.0 -0.1 L 44.0 -0.1 L 49.0 -0.1 " fill="none" stroke="#164E86" stroke-width="9.00" transform="matrix(0.00, -1.00, -1.00, 0.00, 22.4, 85.0)"></path><path d="M 5.1 40.5 L 22.5 5.7 L 39.9 40.5 Z M 5.1 40.5 " fill="#164E86"></path></g></g><g><clipPath id="clip0x7f8e1c06d9e0"><path d="M 43.3 0.2 L 43.3 87.0 L 86.1 87.0 L 86.1 0.2 Z M 43.3 0.2 "></path></clipPath><g clip-path="url(#clip0x7f8e1c06d9e0)"><image xlink:href="../../8757742F-09F5-4FAF-8EA4-BCB42CC4F6AE/assets/23CA442DA793E6F6F8B69D69AE0DBE1A.png" width="85.00" height="41.00" transform="matrix(0.00, 1.00, 1.00, -0.00, 44.3, 1.2)" opacity="0.50"></image><path d="M -0.2 -0.2 L 44.0 -0.2 L 48.8 -0.2 " fill="none" stroke="#164E86" stroke-width="9.00" transform="matrix(0.00, 1.00, 1.00, 0.00, 64.7, 6.2)"></path><path d="M 81.9 50.5 L 64.5 85.3 L 47.1 50.5 Z M 81.9 50.5 " fill="#164E86"></path></g></g></g></svg>