<?xml version="1.0" encoding="UTF-8" standalone="no"?><svg xmlns="http://www.w3.org/2000/svg" xmlns:xlink="http://www.w3.org/1999/xlink" clip-rule="evenodd" stroke-miterlimit="10" viewBox="0 0 298 28"><desc>SVG generated by Keynote</desc><defs></defs><g transform="matrix(1.00, 0.00, -0.00, -1.00, 0.0, 28.0)"><text xml:space="preserve" font-family="Helvetica-Light,Helvetica" font-size="18.8" fill="#000000" transform="matrix(1.00, 0.00, -0.00, -1.00, 0.2, 9.4)">•</text><text xml:space="preserve" font-family="Helvetica-Light,Helvetica" font-size="25.0" fill="#000000" transform="matrix(1.00, 0.00, -0.00, -1.00, 25.2, 6.8)">g</text><text xml:space="preserve" font-family="Helvetica-Light,Helvetica" font-size="25.0" fill="#000000" transform="matrix(1.00, 0.00, -0.00, -1.00, 40.5, 6.8)">e</text><text xml:space="preserve" font-family="Helvetica-Light,Helvetica" font-size="25.0" fill="#000000" transform="matrix(1.00, 0.00, -0.00, -1.00, 54.4, 6.8)">t</text><text xml:space="preserve" font-family="Helvetica-Light,Helvetica" font-size="25.0" fill="#000000" transform="matrix(1.00, 0.00, -0.00, -1.00, 61.3, 6.8)">W</text><text xml:space="preserve" font-family="Helvetica-Light,Helvetica" font-size="25.0" fill="#000000" transform="matrix(1.00, 0.00, -0.00, -1.00, 83.1, 6.8)">r</text><text xml:space="preserve" font-family="Helvetica-Light,Helvetica" font-size="25.0" fill="#000000" transform="matrix(1.00, 0.00, -0.00, -1.00, 91.4, 6.8)">i</text><text xml:space="preserve" font-family="Helvetica-Light,Helvetica" font-size="25.0" fill="#000000" transform="matrix(1.00, 0.00, -0.00, -1.00, 97.0, 6.8)">t</text><text xml:space="preserve" font-family="Helvetica-Light,Helvetica" font-size="25.0" fill="#000000" transform="matrix(1.00, 0.00, -0.00, -1.00, 103.9, 6.8)">e</text><text xml:space="preserve" font-family="Helvetica-Light,Helvetica" font-size="25.0" fill="#000000" transform="matrix(1.00, 0.00, -0.00, -1.00, 117.8, 6.8)">r</text><text xml:space="preserve" font-family="Helvetica-Light,Helvetica" font-size="25.0" fill="#000000" transform="matrix(1.00, 0.00, -0.00, -1.00, 126.2, 6.8)">(</text><text xml:space="preserve" font-family="Helvetica-Light,Helvetica" font-size="25.0" fill="#000000" transform="matrix(1.00, 0.00, -0.00, -1.00, 134.5, 6.8)">)</text><text xml:space="preserve" font-family="Helvetica-Light,Helvetica" font-size="25.0" fill="#000000" transform="matrix(1.00, 0.00, -0.00, -1.00, 142.8, 6.8)">.</text><text xml:space="preserve" font-family="Helvetica-Light,Helvetica" font-size="25.0" fill="#000000" transform="matrix(1.00, 0.00, -0.00, -1.00, 149.8, 6.8)">w</text><text xml:space="preserve" font-family="Helvetica-Light,Helvetica" font-size="25.0" fill="#000000" transform="matrix(1.00, 0.00, -0.00, -1.00, 167.8, 6.8)">r</text><text xml:space="preserve" font-family="Helvetica-Light,Helvetica" font-size="25.0" fill="#000000" transform="matrix(1.00, 0.00, -0.00, -1.00, 176.1, 6.8)">i</text><text xml:space="preserve" font-family="Helvetica-Light,Helvetica" font-size="25.0" fill="#000000" transform="matrix(1.00, 0.00, -0.00, -1.00, 181.7, 6.8)">t</text><text xml:space="preserve" font-family="Helvetica-Light,Helvetica" font-size="25.0" fill="#000000" transform="matrix(1.00, 0.00, -0.00, -1.00, 188.6, 6.8)">e</text><text xml:space="preserve" font-family="Helvetica-Light,Helvetica" font-size="25.0" fill="#000000" transform="matrix(1.00, 0.00, -0.00, -1.00, 202.5, 6.8)">(</text><text xml:space="preserve" font-family="Helvetica-Light,Helvetica" font-size="25.0" fill="#000000" transform="matrix(1.00, 0.00, -0.00, -1.00, 210.9, 6.8)">“</text><text xml:space="preserve" font-family="Helvetica-Light,Helvetica" font-size="25.0" fill="#000000" transform="matrix(1.00, 0.00, -0.00, -1.00, 220.6, 6.8)">h</text><text xml:space="preserve" font-family="Helvetica-Light,Helvetica" font-size="25.0" fill="#000000" transform="matrix(1.00, 0.00, -0.00, -1.00, 234.5, 6.8)">e</text><text xml:space="preserve" font-family="Helvetica-Light,Helvetica" font-size="25.0" fill="#000000" transform="matrix(1.00, 0.00, -0.00, -1.00, 248.4, 6.8)">l</text><text xml:space="preserve" font-family="Helvetica-Light,Helvetica" font-size="25.0" fill="#000000" transform="matrix(1.00, 0.00, -0.00, -1.00, 253.9, 6.8)">l</text><text xml:space="preserve" font-family="Helvetica-Light,Helvetica" font-size="25.0" fill="#000000" transform="matrix(1.00, 0.00, -0.00, -1.00, 259.5, 6.8)">o</text><text xml:space="preserve" font-family="Helvetica-Light,Helvetica" font-size="25.0" fill="#000000" transform="matrix(1.00, 0.00, -0.00, -1.00, 273.4, 6.8)">”</text><text xml:space="preserve" font-family="Helvetica-Light,Helvetica" font-size="25.0" fill="#000000" transform="matrix(1.00, 0.00, -0.00, -1.00, 283.1, 6.8)">)</text><text xml:space="preserve" font-family="Helvetica-Light,Helvetica" font-size="25.0" fill="#000000" transform="matrix(1.00, 0.00, -0.00, -1.00, 291.4, 6.8)">;</text></g></svg>