<?xml version="1.0" encoding="UTF-8" standalone="no"?><svg xmlns="http://www.w3.org/2000/svg" xmlns:xlink="http://www.w3.org/1999/xlink" clip-rule="evenodd" stroke-miterlimit="10" viewBox="0 0 1024 768"><desc>SVG generated by Keynote</desc><defs><linearGradient id="gradSh1.12" x1="0.0" y1="0.0" x2="100.0" y2="0.0" gradientUnits="userSpaceOnUse" gradientTransform="matrix(11.03, -6.36, -5.89, -10.22, -39.6, 702.1)"><stop offset="0.00000" stop-color="#FFFFFF"></stop><stop offset="0.00587" stop-color="#FEFFFE"></stop><stop offset="1.00000" stop-color="#A6AAA9"></stop></linearGradient><pattern id="20A53728-8BD4-4AA4-952F-DD695586D0F3" patternUnits="userSpaceOnUse" width="600" height="600" viewBox="0 0 600 600"><image xlink:href="../../58FC0062-152D-4CC5-84DA-0DFAC1FE8D74/assets/C3C0FC898C94653CAF8AD846D6CCD108.png" width="600.00" height="600.00"></image></pattern></defs><g transform="matrix(1.00, 0.00, -0.00, -1.00, 0.0, 768.0)"><g><clipPath id="clip0x7f8e1a8e4dd0"><path d="M 0.0 768.0 L 1024.0 768.0 L 1024.0 0.0 L 0.0 0.0 Z M 0.0 768.0 "></path></clipPath><g clip-path="url(#clip0x7f8e1a8e4dd0)"><path d="M 0.0 768.0 L 1024.0 768.0 L 1024.0 0.0 L 0.0 0.0 Z M 0.0 768.0 " fill="url(#gradSh1.12)"></path></g></g><g><clipPath id="clip0x7f8e1b81e860"><path d="M 960.0 65.0 L 1016.0 65.0 L 1016.0 9.0 L 960.0 9.0 Z M 960.0 65.0 "></path></clipPath><g clip-path="url(#clip0x7f8e1b81e860)"><g><clipPath id="clip0x7f8e1b81f000"><path d="M 960.0 9.0 L 1016.0 9.0 L 1016.0 65.0 L 960.0 65.0 Z M 960.0 9.0 "></path></clipPath><g clip-path="url(#clip0x7f8e1b81f000)"><path d="M 1016.0 37.0 C 1016.0 52.5 1003.5 65.0 988.0 65.0 C 972.5 65.0 960.0 52.5 960.0 37.0 C 960.0 21.5 972.5 9.0 988.0 9.0 C 1003.5 9.0 1016.0 21.5 1016.0 37.0 " fill="#526466"></path><path d="M 979.5 30.7 C 979.1 30.7 978.7 30.9 978.5 31.2 L 972.6 39.5 L 972.6 31.9 C 972.6 31.2 972.1 30.7 971.4 30.7 C 970.8 30.7 970.3 31.2 970.3 31.9 L 970.3 43.2 C 970.3 43.7 970.6 44.1 971.1 44.3 C 971.6 44.4 972.1 44.3 972.4 43.8 L 978.3 35.5 L 978.3 43.2 C 978.3 43.8 978.8 44.3 979.5 44.3 C 980.1 44.3 980.6 43.8 980.6 43.2 L 980.6 31.9 C 980.6 31.4 980.3 30.9 979.8 30.8 C 979.7 30.7 979.6 30.7 979.5 30.7 " fill="#FFFFFF"></path><path d="M 1003.9 41.2 C 1002.8 42.0 1001.5 42.4 1000.1 42.3 C 999.1 42.2 997.7 41.7 997.7 40.7 C 997.7 39.8 998.5 39.5 999.3 39.2 C 1000.4 38.8 1001.6 38.7 1002.7 38.3 C 1004.6 37.7 1006.3 36.2 1006.1 34.1 C 1005.8 31.7 1003.3 30.7 1001.2 30.5 C 999.2 30.4 996.9 31.2 995.5 32.6 C 994.8 33.2 995.1 34.3 996.0 34.4 C 996.5 34.4 996.7 34.2 997.1 33.9 C 997.6 33.6 998.1 33.4 998.6 33.1 C 999.7 32.7 1000.9 32.6 1002.1 32.9 C 1002.9 33.2 1004.1 33.9 1003.7 34.9 C 1003.3 35.8 1001.8 36.2 1000.9 36.4 C 999.7 36.6 998.4 36.8 997.4 37.5 C 995.7 38.4 994.9 40.3 995.7 42.1 C 996.7 44.3 999.7 44.8 1001.9 44.4 C 1003.0 44.2 1004.2 43.7 1005.1 42.9 C 1006.0 42.1 1005.0 40.5 1003.9 41.2 " fill="#FFFFFF"></path><path d="M 988.0 23.5 C 987.6 23.5 987.3 23.8 987.3 24.2 L 987.3 49.8 C 987.3 50.2 987.6 50.5 988.0 50.5 C 988.4 50.5 988.7 50.2 988.7 49.8 L 988.7 24.2 C 988.7 23.8 988.4 23.5 988.0 23.5 " fill="#FFFFFF"></path></g></g></g></g><image xlink:href="../../6B5958A7-4190-4406-9687-88F7B37A3D6D/assets/8AAA7D6560F385197E1904136859B874.png" width="865.00" height="644.00" transform="matrix(1.00, 0.00, -0.00, -1.00, 80.4, 706.2)" opacity="0.50"></image><path d="M 83.0 702.0 L 941.0 702.0 L 941.0 66.0 L 83.0 66.0 Z M 83.4 702.2 " fill="#A6AAA8"></path><image xlink:href="../../6B5958A7-4190-4406-9687-88F7B37A3D6D/assets/B98F67F754D0EE143116F373FA6A03B3.png" width="193.00" height="610.00" transform="matrix(1.00, 0.00, -0.00, -1.00, 94.2, 686.8)" opacity="0.50"></image><path d="M 97.2 112.7 L 97.0 655.3 C 97.0 672.2 110.9 686.0 127.7 686.0 L 254.1 686.0 C 270.9 686.0 285.0 672.2 285.0 655.3 L 285.0 112.7 C 285.0 95.8 270.9 82.0 254.1 82.0 L 127.7 82.0 C 110.9 82.0 97.2 95.8 97.2 112.7 Z M 97.2 112.7 " fill="#5FC3FF"></path><text xml:space="preserve" font-family="Helvetica-Light,Helvetica" font-size="36.0" fill="#000000" transform="matrix(1.00, 0.00, -0.00, -1.00, 128.9, 145.6)">D</text><text xml:space="preserve" font-family="Helvetica-Light,Helvetica" font-size="36.0" fill="#000000" transform="matrix(1.00, 0.00, -0.00, -1.00, 154.9, 145.6)">o</text><text xml:space="preserve" font-family="Helvetica-Light,Helvetica" font-size="36.0" fill="#000000" transform="matrix(1.00, 0.00, -0.00, -1.00, 174.9, 145.6)">m</text><text xml:space="preserve" font-family="Helvetica-Light,Helvetica" font-size="36.0" fill="#000000" transform="matrix(1.00, 0.00, -0.00, -1.00, 204.9, 145.6)">a</text><text xml:space="preserve" font-family="Helvetica-Light,Helvetica" font-size="36.0" fill="#000000" transform="matrix(1.00, 0.00, -0.00, -1.00, 224.9, 145.6)">i</text><text xml:space="preserve" font-family="Helvetica-Light,Helvetica" font-size="36.0" fill="#000000" transform="matrix(1.00, 0.00, -0.00, -1.00, 232.9, 145.6)">n</text><text xml:space="preserve" font-family="LucidaGrande,Lucida Grande" font-size="36.0" fill="#000000" transform="matrix(1.00, 0.00, -0.00, -1.00, 252.9, 145.6)"> </text><text xml:space="preserve" font-family="Helvetica-Light,Helvetica" font-size="36.0" fill="#000000" transform="matrix(1.00, 0.00, -0.00, -1.00, 131.9, 102.6)">M</text><text xml:space="preserve" font-family="Helvetica-Light,Helvetica" font-size="36.0" fill="#000000" transform="matrix(1.00, 0.00, -0.00, -1.00, 161.9, 102.6)">o</text><text xml:space="preserve" font-family="Helvetica-Light,Helvetica" font-size="36.0" fill="#000000" transform="matrix(1.00, 0.00, -0.00, -1.00, 181.9, 102.6)">d</text><text xml:space="preserve" font-family="Helvetica-Light,Helvetica" font-size="36.0" fill="#000000" transform="matrix(1.00, 0.00, -0.00, -1.00, 203.9, 102.6)">e</text><text xml:space="preserve" font-family="Helvetica-Light,Helvetica" font-size="36.0" fill="#000000" transform="matrix(1.00, 0.00, -0.00, -1.00, 223.9, 102.6)">l</text><text xml:space="preserve" font-family="Helvetica-Light,Helvetica" font-size="36.0" fill="#000000" transform="matrix(1.00, 0.00, -0.00, -1.00, 231.9, 102.6)">s</text><image xlink:href="../../6B5958A7-4190-4406-9687-88F7B37A3D6D/assets/A9339B7D9E60EC92EBCC69DF49CAB07A.png" width="628.00" height="195.00" transform="matrix(1.00, 0.00, -0.00, -1.00, 297.9, 272.8)" opacity="0.50"></image><path d="M 300.9 113.3 L 301.0 241.3 C 301.0 258.2 314.5 272.0 331.4 272.0 L 892.4 272.0 C 909.3 272.0 923.0 258.2 923.0 241.3 L 923.0 113.3 C 923.0 96.5 909.3 83.0 892.4 83.0 L 331.4 83.0 C 314.5 83.0 300.9 96.5 300.9 113.3 Z M 300.9 113.3 " fill="#5FC3FF"></path><text xml:space="preserve" font-family="Helvetica-Light,Helvetica" font-size="36.0" fill="#000000" transform="matrix(1.00, 0.00, -0.00, -1.00, 458.8, 99.0)">D</text><text xml:space="preserve" font-family="Helvetica-Light,Helvetica" font-size="36.0" fill="#000000" transform="matrix(1.00, 0.00, -0.00, -1.00, 484.8, 99.0)">a</text><text xml:space="preserve" font-family="Helvetica-Light,Helvetica" font-size="36.0" fill="#000000" transform="matrix(1.00, 0.00, -0.00, -1.00, 504.8, 99.0)">t</text><text xml:space="preserve" font-family="Helvetica-Light,Helvetica" font-size="36.0" fill="#000000" transform="matrix(1.00, 0.00, -0.00, -1.00, 514.8, 99.0)">a</text><text xml:space="preserve" font-family="Helvetica-Light,Helvetica" font-size="36.0" fill="#000000" transform="matrix(1.00, 0.00, -0.00, -1.00, 534.9, 99.0)"> </text><text xml:space="preserve" font-family="Helvetica-Light,Helvetica" font-size="36.0" fill="#000000" transform="matrix(1.00, 0.00, -0.00, -1.00, 544.9, 99.0)">A</text><text xml:space="preserve" font-family="Helvetica-Light,Helvetica" font-size="36.0" fill="#000000" transform="matrix(1.00, 0.00, -0.00, -1.00, 568.9, 99.0)">c</text><text xml:space="preserve" font-family="Helvetica-Light,Helvetica" font-size="36.0" fill="#000000" transform="matrix(1.00, 0.00, -0.00, -1.00, 588.9, 99.0)">c</text><text xml:space="preserve" font-family="Helvetica-Light,Helvetica" font-size="36.0" fill="#000000" transform="matrix(1.00, 0.00, -0.00, -1.00, 608.9, 99.0)">e</text><text xml:space="preserve" font-family="Helvetica-Light,Helvetica" font-size="36.0" fill="#000000" transform="matrix(1.00, 0.00, -0.00, -1.00, 628.9, 99.0)">s</text><text xml:space="preserve" font-family="Helvetica-Light,Helvetica" font-size="36.0" fill="#000000" transform="matrix(1.00, 0.00, -0.00, -1.00, 646.9, 99.0)">s</text><text xml:space="preserve" font-family="Helvetica-Light,Helvetica" font-size="36.0" fill="#000000" transform="matrix(1.00, 0.00, -0.00, -1.00, 664.9, 99.0)"> </text><text xml:space="preserve" font-family="Helvetica-Light,Helvetica" font-size="36.0" fill="#000000" transform="matrix(1.00, 0.00, -0.00, -1.00, 674.9, 99.0)">L</text><text xml:space="preserve" font-family="Helvetica-Light,Helvetica" font-size="36.0" fill="#000000" transform="matrix(1.00, 0.00, -0.00, -1.00, 695.0, 99.0)">a</text><text xml:space="preserve" font-family="Helvetica-Light,Helvetica" font-size="36.0" fill="#000000" transform="matrix(1.00, 0.00, -0.00, -1.00, 715.0, 99.0)">y</text><text xml:space="preserve" font-family="Helvetica-Light,Helvetica" font-size="36.0" fill="#000000" transform="matrix(1.00, 0.00, -0.00, -1.00, 733.0, 99.0)">e</text><text xml:space="preserve" font-family="Helvetica-Light,Helvetica" font-size="36.0" fill="#000000" transform="matrix(1.00, 0.00, -0.00, -1.00, 753.0, 99.0)">r</text><image xlink:href="../../6B5958A7-4190-4406-9687-88F7B37A3D6D/assets/A62D9E1DD7B91A8845567CDBD9166AD5.png" width="628.00" height="195.00" transform="matrix(1.00, 0.00, -0.00, -1.00, 297.9, 479.5)" opacity="0.50"></image><path d="M 300.9 320.0 L 301.0 448.0 C 301.0 464.9 314.5 479.0 331.4 479.0 L 892.4 479.0 C 909.3 479.0 923.0 464.9 923.0 448.0 L 923.0 320.0 C 923.0 303.1 909.3 289.0 892.4 289.0 L 331.4 289.0 C 314.5 289.0 300.9 303.1 300.9 320.0 Z M 300.9 320.0 " fill="#5FC3FF"></path><image xlink:href="../../6B5958A7-4190-4406-9687-88F7B37A3D6D/assets/0741648BE29D752CBF5374E4C6BE8C9A.png" width="628.00" height="195.00" transform="matrix(1.00, 0.00, -0.00, -1.00, 297.9, 686.2)" opacity="0.50"></image><path d="M 300.9 526.7 L 301.0 654.7 C 301.0 671.5 314.5 685.0 331.4 685.0 L 892.4 685.0 C 909.3 685.0 923.0 671.5 923.0 654.7 L 923.0 526.7 C 923.0 509.8 909.3 496.0 892.4 496.0 L 331.4 496.0 C 314.5 496.0 300.9 509.8 300.9 526.7 Z M 300.9 526.7 " fill="#5FC3FF"></path><text xml:space="preserve" font-family="Helvetica-Light,Helvetica" font-size="36.0" fill="#000000" transform="matrix(1.00, 0.00, -0.00, -1.00, 501.9, 301.8)">S</text><text xml:space="preserve" font-family="Helvetica-Light,Helvetica" font-size="36.0" fill="#000000" transform="matrix(1.00, 0.00, -0.00, -1.00, 523.9, 301.8)">e</text><text xml:space="preserve" font-family="Helvetica-Light,Helvetica" font-size="36.0" fill="#000000" transform="matrix(1.00, 0.00, -0.00, -1.00, 543.9, 301.8)">r</text><text xml:space="preserve" font-family="Helvetica-Light,Helvetica" font-size="36.0" fill="#000000" transform="matrix(1.00, 0.00, -0.00, -1.00, 555.9, 301.8)">v</text><text xml:space="preserve" font-family="Helvetica-Light,Helvetica" font-size="36.0" fill="#000000" transform="matrix(1.00, 0.00, -0.00, -1.00, 573.9, 301.8)">i</text><text xml:space="preserve" font-family="Helvetica-Light,Helvetica" font-size="36.0" fill="#000000" transform="matrix(1.00, 0.00, -0.00, -1.00, 581.9, 301.8)">c</text><text xml:space="preserve" font-family="Helvetica-Light,Helvetica" font-size="36.0" fill="#000000" transform="matrix(1.00, 0.00, -0.00, -1.00, 601.9, 301.8)">e</text><text xml:space="preserve" font-family="Helvetica-Light,Helvetica" font-size="36.0" fill="#000000" transform="matrix(1.00, 0.00, -0.00, -1.00, 621.9, 301.8)"> </text><text xml:space="preserve" font-family="Helvetica-Light,Helvetica" font-size="36.0" fill="#000000" transform="matrix(1.00, 0.00, -0.00, -1.00, 631.9, 301.8)">L</text><text xml:space="preserve" font-family="Helvetica-Light,Helvetica" font-size="36.0" fill="#000000" transform="matrix(1.00, 0.00, -0.00, -1.00, 651.9, 301.8)">a</text><text xml:space="preserve" font-family="Helvetica-Light,Helvetica" font-size="36.0" fill="#000000" transform="matrix(1.00, 0.00, -0.00, -1.00, 671.9, 301.8)">y</text><text xml:space="preserve" font-family="Helvetica-Light,Helvetica" font-size="36.0" fill="#000000" transform="matrix(1.00, 0.00, -0.00, -1.00, 689.9, 301.8)">e</text><text xml:space="preserve" font-family="Helvetica-Light,Helvetica" font-size="36.0" fill="#000000" transform="matrix(1.00, 0.00, -0.00, -1.00, 709.9, 301.8)">r</text><text xml:space="preserve" font-family="Helvetica-Light,Helvetica" font-size="36.0" fill="#000000" transform="matrix(1.00, 0.00, -0.00, -1.00, 512.2, 521.3)">P</text><text xml:space="preserve" font-family="Helvetica-Light,Helvetica" font-size="36.0" fill="#000000" transform="matrix(1.00, 0.00, -0.00, -1.00, 534.2, 521.3)">r</text><text xml:space="preserve" font-family="Helvetica-Light,Helvetica" font-size="36.0" fill="#000000" transform="matrix(1.00, 0.00, -0.00, -1.00, 545.5, 521.3)">e</text><text xml:space="preserve" font-family="Helvetica-Light,Helvetica" font-size="36.0" fill="#000000" transform="matrix(1.00, 0.00, -0.00, -1.00, 565.5, 521.3)">s</text><text xml:space="preserve" font-family="Helvetica-Light,Helvetica" font-size="36.0" fill="#000000" transform="matrix(1.00, 0.00, -0.00, -1.00, 583.5, 521.3)">e</text><text xml:space="preserve" font-family="Helvetica-Light,Helvetica" font-size="36.0" fill="#000000" transform="matrix(1.00, 0.00, -0.00, -1.00, 603.5, 521.3)">n</text><text xml:space="preserve" font-family="Helvetica-Light,Helvetica" font-size="36.0" fill="#000000" transform="matrix(1.00, 0.00, -0.00, -1.00, 623.6, 521.3)">t</text><text xml:space="preserve" font-family="Helvetica-Light,Helvetica" font-size="36.0" fill="#000000" transform="matrix(1.00, 0.00, -0.00, -1.00, 633.6, 521.3)">a</text><text xml:space="preserve" font-family="Helvetica-Light,Helvetica" font-size="36.0" fill="#000000" transform="matrix(1.00, 0.00, -0.00, -1.00, 653.6, 521.3)">t</text><text xml:space="preserve" font-family="Helvetica-Light,Helvetica" font-size="36.0" fill="#000000" transform="matrix(1.00, 0.00, -0.00, -1.00, 663.6, 521.3)">i</text><text xml:space="preserve" font-family="Helvetica-Light,Helvetica" font-size="36.0" fill="#000000" transform="matrix(1.00, 0.00, -0.00, -1.00, 671.6, 521.3)">o</text><text xml:space="preserve" font-family="Helvetica-Light,Helvetica" font-size="36.0" fill="#000000" transform="matrix(1.00, 0.00, -0.00, -1.00, 691.6, 521.3)">n</text><g><clipPath id="clip0x7f8e1b59ba20"><path d="M 315.6 562.2 L 908.2 562.2 L 908.2 677.0 L 315.6 677.0 Z M 315.6 562.2 "></path></clipPath><g clip-path="url(#clip0x7f8e1b59ba20)"><image xlink:href="../../58FC0062-152D-4CC5-84DA-0DFAC1FE8D74/assets/5747BCBFE386F457FC5432E0C8745A21.png" width="591.00" height="113.00" transform="matrix(1.00, 0.00, -0.00, -1.00, 316.6, 676.0)" opacity="0.50"></image></g></g><g><clipPath id="clip0x7f8e1b59d740"><path d="M 319.6 583.2 L 320.0 660.0 C 320.0 668.3 326.3 675.0 334.6 675.0 L 889.2 675.0 C 897.5 675.0 904.0 668.3 904.0 660.0 L 904.0 583.2 C 904.0 574.9 897.5 568.0 889.2 568.0 L 334.6 568.0 C 326.3 568.0 319.6 574.9 319.6 583.2 Z M 319.6 583.2 "></path></clipPath><g clip-path="url(#clip0x7f8e1b59d740)"><g><clipPath id="clip0x7f8e1b59dfd0"><path d="M 315.6 562.2 L 908.2 562.2 L 908.2 677.0 L 315.6 677.0 Z M 315.6 562.2 "></path></clipPath><g clip-path="url(#clip0x7f8e1b59dfd0)"><path d="M 319.6 568.0 L 904.0 568.0 L 904.0 675.0 L 319.6 675.0 Z M 319.6 568.0 " fill="url(#20A53728-8BD4-4AA4-952F-DD695586D0F3)"></path></g></g></g></g><g><clipPath id="clip0x7f8e1b48a340"><path d="M 326.3 566.5 L 492.2 566.5 L 492.2 614.5 L 326.3 614.5 Z M 326.3 566.5 "></path></clipPath><g clip-path="url(#clip0x7f8e1b48a340)"><text xml:space="preserve" font-family="Helvetica-Light,Helvetica" font-size="28.0" fill="#FEFFFE" transform="matrix(1.00, 0.00, -0.00, -1.00, 333.8, 580.0)">S</text><text xml:space="preserve" font-family="Helvetica-Light,Helvetica" font-size="28.0" fill="#FEFFFE" transform="matrix(1.00, 0.00, -0.00, -1.00, 350.9, 580.0)">p</text><text xml:space="preserve" font-family="Helvetica-Light,Helvetica" font-size="28.0" fill="#FEFFFE" transform="matrix(1.00, 0.00, -0.00, -1.00, 368.0, 580.0)">r</text><text xml:space="preserve" font-family="Helvetica-Light,Helvetica" font-size="28.0" fill="#FEFFFE" transform="matrix(1.00, 0.00, -0.00, -1.00, 377.4, 580.0)">i</text><text xml:space="preserve" font-family="Helvetica-Light,Helvetica" font-size="28.0" fill="#FEFFFE" transform="matrix(1.00, 0.00, -0.00, -1.00, 383.6, 580.0)">n</text><text xml:space="preserve" font-family="Helvetica-Light,Helvetica" font-size="28.0" fill="#FEFFFE" transform="matrix(1.00, 0.00, -0.00, -1.00, 399.1, 580.0)">g</text><text xml:space="preserve" font-family="Helvetica-Light,Helvetica" font-size="28.0" fill="#FEFFFE" transform="matrix(1.00, 0.00, -0.00, -1.00, 416.3, 580.0)"> </text><text xml:space="preserve" font-family="Helvetica-Light,Helvetica" font-size="28.0" fill="#FEFFFE" transform="matrix(1.00, 0.00, -0.00, -1.00, 424.0, 580.0)">M</text><text xml:space="preserve" font-family="Helvetica-Light,Helvetica" font-size="28.0" fill="#FEFFFE" transform="matrix(1.00, 0.00, -0.00, -1.00, 447.4, 580.0)">V</text><text xml:space="preserve" font-family="Helvetica-Light,Helvetica" font-size="28.0" fill="#FEFFFE" transform="matrix(1.00, 0.00, -0.00, -1.00, 464.5, 580.0)">C</text></g></g><g><clipPath id="clip0x7f8e1b490f00"><path d="M 717.3 572.8 L 896.8 572.8 L 896.8 670.4 L 717.3 670.4 Z M 717.3 572.8 "></path></clipPath><g clip-path="url(#clip0x7f8e1b490f00)"><image xlink:href="../../58FC0062-152D-4CC5-84DA-0DFAC1FE8D74/assets/C33F3B245EF30735E621222E2D7FF0E3.png" width="178.00" height="96.00" transform="matrix(1.00, 0.00, -0.00, -1.00, 718.3, 669.4)" opacity="0.50"></image><path d="M 721.3 592.8 L 721.0 650.4 C 721.0 658.7 728.0 665.0 736.3 665.0 L 875.8 665.0 C 884.1 665.0 891.0 658.7 891.0 650.4 L 891.0 592.8 C 891.0 584.5 884.1 578.0 875.8 578.0 L 736.3 578.0 C 728.0 578.0 721.3 584.5 721.3 592.8 Z M 721.3 592.8 " fill="#9FD3F1"></path></g></g><g><clipPath id="clip0x7f8e1b493ed0"><path d="M 763.8 598.9 L 848.3 598.9 L 848.3 644.4 L 763.8 644.4 Z M 763.8 598.9 "></path></clipPath><g clip-path="url(#clip0x7f8e1b493ed0)"><text xml:space="preserve" font-family="Helvetica-Light,Helvetica" font-size="27.0" fill="#000000" transform="matrix(1.00, 0.00, -0.00, -1.00, 771.0, 611.8)">V</text><text xml:space="preserve" font-family="Helvetica-Light,Helvetica" font-size="27.0" fill="#000000" transform="matrix(1.00, 0.00, -0.00, -1.00, 787.0, 611.8)">i</text><text xml:space="preserve" font-family="Helvetica-Light,Helvetica" font-size="27.0" fill="#000000" transform="matrix(1.00, 0.00, -0.00, -1.00, 793.0, 611.8)">e</text><text xml:space="preserve" font-family="Helvetica-Light,Helvetica" font-size="27.0" fill="#000000" transform="matrix(1.00, 0.00, -0.00, -1.00, 808.0, 611.8)">w</text><text xml:space="preserve" font-family="Helvetica-Light,Helvetica" font-size="27.0" fill="#000000" transform="matrix(1.00, 0.00, -0.00, -1.00, 827.5, 611.8)">s</text></g></g><g><clipPath id="clip0x7f8e1b497070"><path d="M 516.5 572.8 L 696.0 572.8 L 696.0 670.4 L 516.5 670.4 Z M 516.5 572.8 "></path></clipPath><g clip-path="url(#clip0x7f8e1b497070)"><image xlink:href="../../58FC0062-152D-4CC5-84DA-0DFAC1FE8D74/assets/7711CC9BAD81F7F79934932ED826CE9F.png" width="178.00" height="96.00" transform="matrix(1.00, 0.00, -0.00, -1.00, 517.5, 669.4)" opacity="0.50"></image><path d="M 520.5 592.8 L 520.0 650.4 C 520.0 658.7 527.2 665.0 535.5 665.0 L 675.0 665.0 C 683.3 665.0 690.0 658.7 690.0 650.4 L 690.0 592.8 C 690.0 584.5 683.3 578.0 675.0 578.0 L 535.5 578.0 C 527.2 578.0 520.5 584.5 520.5 592.8 Z M 520.5 592.8 " fill="#9FD3F1"></path></g></g><g><clipPath id="clip0x7f8e1b498690"><path d="M 533.0 598.9 L 677.5 598.9 L 677.5 644.4 L 533.0 644.4 Z M 533.0 598.9 "></path></clipPath><g clip-path="url(#clip0x7f8e1b498690)"><text xml:space="preserve" font-family="Helvetica-Light,Helvetica" font-size="27.0" fill="#000000" transform="matrix(1.00, 0.00, -0.00, -1.00, 540.2, 611.8)">C</text><text xml:space="preserve" font-family="Helvetica-Light,Helvetica" font-size="27.0" fill="#000000" transform="matrix(1.00, 0.00, -0.00, -1.00, 559.7, 611.8)">o</text><text xml:space="preserve" font-family="Helvetica-Light,Helvetica" font-size="27.0" fill="#000000" transform="matrix(1.00, 0.00, -0.00, -1.00, 574.7, 611.8)">n</text><text xml:space="preserve" font-family="Helvetica-Light,Helvetica" font-size="27.0" fill="#000000" transform="matrix(1.00, 0.00, -0.00, -1.00, 589.7, 611.8)">t</text><text xml:space="preserve" font-family="Helvetica-Light,Helvetica" font-size="27.0" fill="#000000" transform="matrix(1.00, 0.00, -0.00, -1.00, 597.2, 611.8)">r</text><text xml:space="preserve" font-family="Helvetica-Light,Helvetica" font-size="27.0" fill="#000000" transform="matrix(1.00, 0.00, -0.00, -1.00, 605.7, 611.8)">o</text><text xml:space="preserve" font-family="Helvetica-Light,Helvetica" font-size="27.0" fill="#000000" transform="matrix(1.00, 0.00, -0.00, -1.00, 620.8, 611.8)">l</text><text xml:space="preserve" font-family="Helvetica-Light,Helvetica" font-size="27.0" fill="#000000" transform="matrix(1.00, 0.00, -0.00, -1.00, 626.7, 611.8)">l</text><text xml:space="preserve" font-family="Helvetica-Light,Helvetica" font-size="27.0" fill="#000000" transform="matrix(1.00, 0.00, -0.00, -1.00, 632.7, 611.8)">e</text><text xml:space="preserve" font-family="Helvetica-Light,Helvetica" font-size="27.0" fill="#000000" transform="matrix(1.00, 0.00, -0.00, -1.00, 647.8, 611.8)">r</text><text xml:space="preserve" font-family="Helvetica-Light,Helvetica" font-size="27.0" fill="#000000" transform="matrix(1.00, 0.00, -0.00, -1.00, 656.7, 611.8)">s</text></g></g></g></svg>