<?xml version="1.0" encoding="UTF-8" standalone="no"?><svg xmlns="http://www.w3.org/2000/svg" xmlns:xlink="http://www.w3.org/1999/xlink" clip-rule="evenodd" stroke-miterlimit="10" viewBox="0 0 381 99"><desc>SVG generated by Keynote</desc><defs></defs><g transform="matrix(1.00, 0.00, -0.00, -1.00, 0.0, 99.0)"><g><clipPath id="clip0x7f8e1b461ae0"><path d="M 201.3 0.8 L 380.8 0.8 L 380.8 98.4 L 201.3 98.4 Z M 201.3 0.8 "></path></clipPath><g clip-path="url(#clip0x7f8e1b461ae0)"><image xlink:href="C33F3B245EF30735E621222E2D7FF0E3.png" width="178.00" height="96.00" transform="matrix(1.00, 0.00, -0.00, -1.00, 202.3, 97.4)" opacity="0.50"></image><path d="M 205.3 20.8 L 205.0 78.4 C 205.0 86.7 212.0 93.0 220.3 93.0 L 359.8 93.0 C 368.1 93.0 375.0 86.7 375.0 78.4 L 375.0 20.8 C 375.0 12.5 368.1 6.0 359.8 6.0 L 220.3 6.0 C 212.0 6.0 205.3 12.5 205.3 20.8 Z M 205.3 20.8 " fill="#9FD3F1"></path></g></g><g><clipPath id="clip0x7f8e1aac7f10"><path d="M 247.8 26.9 L 332.3 26.9 L 332.3 72.4 L 247.8 72.4 Z M 247.8 26.9 "></path></clipPath><g clip-path="url(#clip0x7f8e1aac7f10)"><text xml:space="preserve" font-family="Helvetica-Light,Helvetica" font-size="27.0" fill="#000000" transform="matrix(1.00, 0.00, -0.00, -1.00, 255.0, 39.8)">V</text><text xml:space="preserve" font-family="Helvetica-Light,Helvetica" font-size="27.0" fill="#000000" transform="matrix(1.00, 0.00, -0.00, -1.00, 271.0, 39.8)">i</text><text xml:space="preserve" font-family="Helvetica-Light,Helvetica" font-size="27.0" fill="#000000" transform="matrix(1.00, 0.00, -0.00, -1.00, 277.0, 39.8)">e</text><text xml:space="preserve" font-family="Helvetica-Light,Helvetica" font-size="27.0" fill="#000000" transform="matrix(1.00, 0.00, -0.00, -1.00, 292.1, 39.8)">w</text><text xml:space="preserve" font-family="Helvetica-Light,Helvetica" font-size="27.0" fill="#000000" transform="matrix(1.00, 0.00, -0.00, -1.00, 311.5, 39.8)">s</text></g></g><g><clipPath id="clip0x7f8e1aacd600"><path d="M 0.5 0.8 L 180.0 0.8 L 180.0 98.4 L 0.5 98.4 Z M 0.5 0.8 "></path></clipPath><g clip-path="url(#clip0x7f8e1aacd600)"><image xlink:href="7711CC9BAD81F7F79934932ED826CE9F.png" width="178.00" height="96.00" transform="matrix(1.00, 0.00, -0.00, -1.00, 1.5, 97.4)" opacity="0.50"></image><path d="M 4.5 20.8 L 4.0 78.4 C 4.0 86.7 11.2 93.0 19.5 93.0 L 159.0 93.0 C 167.3 93.0 174.0 86.7 174.0 78.4 L 174.0 20.8 C 174.0 12.5 167.3 6.0 159.0 6.0 L 19.5 6.0 C 11.2 6.0 4.5 12.5 4.5 20.8 Z M 4.5 20.8 " fill="#9FD3F1"></path></g></g><g><clipPath id="clip0x7f8e1aad0370"><path d="M 17.0 26.9 L 161.5 26.9 L 161.5 72.4 L 17.0 72.4 Z M 17.0 26.9 "></path></clipPath><g clip-path="url(#clip0x7f8e1aad0370)"><text xml:space="preserve" font-family="Helvetica-Light,Helvetica" font-size="27.0" fill="#000000" transform="matrix(1.00, 0.00, -0.00, -1.00, 24.2, 39.8)">C</text><text xml:space="preserve" font-family="Helvetica-Light,Helvetica" font-size="27.0" fill="#000000" transform="matrix(1.00, 0.00, -0.00, -1.00, 43.7, 39.8)">o</text><text xml:space="preserve" font-family="Helvetica-Light,Helvetica" font-size="27.0" fill="#000000" transform="matrix(1.00, 0.00, -0.00, -1.00, 58.7, 39.8)">n</text><text xml:space="preserve" font-family="Helvetica-Light,Helvetica" font-size="27.0" fill="#000000" transform="matrix(1.00, 0.00, -0.00, -1.00, 73.7, 39.8)">t</text><text xml:space="preserve" font-family="Helvetica-Light,Helvetica" font-size="27.0" fill="#000000" transform="matrix(1.00, 0.00, -0.00, -1.00, 81.2, 39.8)">r</text><text xml:space="preserve" font-family="Helvetica-Light,Helvetica" font-size="27.0" fill="#000000" transform="matrix(1.00, 0.00, -0.00, -1.00, 89.7, 39.8)">o</text><text xml:space="preserve" font-family="Helvetica-Light,Helvetica" font-size="27.0" fill="#000000" transform="matrix(1.00, 0.00, -0.00, -1.00, 104.8, 39.8)">l</text><text xml:space="preserve" font-family="Helvetica-Light,Helvetica" font-size="27.0" fill="#000000" transform="matrix(1.00, 0.00, -0.00, -1.00, 110.7, 39.8)">l</text><text xml:space="preserve" font-family="Helvetica-Light,Helvetica" font-size="27.0" fill="#000000" transform="matrix(1.00, 0.00, -0.00, -1.00, 116.7, 39.8)">e</text><text xml:space="preserve" font-family="Helvetica-Light,Helvetica" font-size="27.0" fill="#000000" transform="matrix(1.00, 0.00, -0.00, -1.00, 131.8, 39.8)">r</text><text xml:space="preserve" font-family="Helvetica-Light,Helvetica" font-size="27.0" fill="#000000" transform="matrix(1.00, 0.00, -0.00, -1.00, 140.7, 39.8)">s</text></g></g></g></svg>