<?xml version="1.0" encoding="UTF-8" standalone="no"?><svg xmlns="http://www.w3.org/2000/svg" xmlns:xlink="http://www.w3.org/1999/xlink" clip-rule="evenodd" stroke-miterlimit="10" viewBox="0 0 1024 768"><desc>SVG generated by Keynote</desc><defs><linearGradient id="gradSh1.81" x1="0.0" y1="0.0" x2="100.0" y2="0.0" gradientUnits="userSpaceOnUse" gradientTransform="matrix(11.03, -6.36, -5.89, -10.22, -39.6, 702.1)"><stop offset="0.00000" stop-color="#FFFFFF"></stop><stop offset="0.00587" stop-color="#FEFFFE"></stop><stop offset="1.00000" stop-color="#A6AAA9"></stop></linearGradient><pattern id="7AE5E0D3-EA3D-4C78-A01D-237EC52A6173" patternUnits="userSpaceOnUse" width="600" height="600" viewBox="0 0 600 600"><image xlink:href="../../58FC0062-152D-4CC5-84DA-0DFAC1FE8D74/assets/C3C0FC898C94653CAF8AD846D6CCD108.png" width="600.00" height="600.00"></image></pattern></defs><g transform="matrix(1.00, 0.00, -0.00, -1.00, 0.0, 768.0)"><g><clipPath id="clip0x7f8e064644b0"><path d="M 0.0 768.0 L 1024.0 768.0 L 1024.0 0.0 L 0.0 0.0 Z M 0.0 768.0 "></path></clipPath><g clip-path="url(#clip0x7f8e064644b0)"><path d="M 0.0 768.0 L 1024.0 768.0 L 1024.0 0.0 L 0.0 0.0 Z M 0.0 768.0 " fill="url(#gradSh1.81)"></path></g></g><g><clipPath id="clip0x7f8e064b0c40"><path d="M 960.0 65.0 L 1016.0 65.0 L 1016.0 9.0 L 960.0 9.0 Z M 960.0 65.0 "></path></clipPath><g clip-path="url(#clip0x7f8e064b0c40)"><g><clipPath id="clip0x7f8e064b13e0"><path d="M 960.0 9.0 L 1016.0 9.0 L 1016.0 65.0 L 960.0 65.0 Z M 960.0 9.0 "></path></clipPath><g clip-path="url(#clip0x7f8e064b13e0)"><path d="M 1016.0 37.0 C 1016.0 52.5 1003.5 65.0 988.0 65.0 C 972.5 65.0 960.0 52.5 960.0 37.0 C 960.0 21.5 972.5 9.0 988.0 9.0 C 1003.5 9.0 1016.0 21.5 1016.0 37.0 " fill="#526466"></path><path d="M 979.5 30.7 C 979.1 30.7 978.7 30.9 978.5 31.2 L 972.6 39.5 L 972.6 31.9 C 972.6 31.2 972.1 30.7 971.4 30.7 C 970.8 30.7 970.3 31.2 970.3 31.9 L 970.3 43.2 C 970.3 43.7 970.6 44.1 971.1 44.3 C 971.6 44.4 972.1 44.3 972.4 43.8 L 978.3 35.5 L 978.3 43.2 C 978.3 43.8 978.8 44.3 979.5 44.3 C 980.1 44.3 980.6 43.8 980.6 43.2 L 980.6 31.9 C 980.6 31.4 980.3 30.9 979.8 30.8 C 979.7 30.7 979.6 30.7 979.5 30.7 " fill="#FFFFFF"></path><path d="M 1003.9 41.2 C 1002.8 42.0 1001.5 42.4 1000.1 42.3 C 999.1 42.2 997.7 41.7 997.7 40.7 C 997.7 39.8 998.5 39.5 999.3 39.2 C 1000.4 38.8 1001.6 38.7 1002.7 38.3 C 1004.6 37.7 1006.3 36.2 1006.1 34.1 C 1005.8 31.7 1003.3 30.7 1001.2 30.5 C 999.2 30.4 996.9 31.2 995.5 32.6 C 994.8 33.2 995.1 34.3 996.0 34.4 C 996.5 34.4 996.7 34.2 997.1 33.9 C 997.6 33.6 998.1 33.4 998.6 33.1 C 999.7 32.7 1000.9 32.6 1002.1 32.9 C 1002.9 33.2 1004.1 33.9 1003.7 34.9 C 1003.3 35.8 1001.8 36.2 1000.9 36.4 C 999.7 36.6 998.4 36.8 997.4 37.5 C 995.7 38.4 994.9 40.3 995.7 42.1 C 996.7 44.3 999.7 44.8 1001.9 44.4 C 1003.0 44.2 1004.2 43.7 1005.1 42.9 C 1006.0 42.1 1005.0 40.5 1003.9 41.2 " fill="#FFFFFF"></path><path d="M 988.0 23.5 C 987.6 23.5 987.3 23.8 987.3 24.2 L 987.3 49.8 C 987.3 50.2 987.6 50.5 988.0 50.5 C 988.4 50.5 988.7 50.2 988.7 49.8 L 988.7 24.2 C 988.7 23.8 988.4 23.5 988.0 23.5 " fill="#FFFFFF"></path></g></g></g></g><path d="M 938.0 87.0 L 1038.0 87.0 L 1038.0 -13.0 L 938.0 -13.0 Z M 937.7 87.1 " fill="#AFB3B2"></path><image xlink:href="../../013583A9-C00D-47C1-996D-24FE3E102001/assets/96502B960DBB5F19FEF1BCC2D3A7E949.png" width="897.00" height="714.00" transform="matrix(1.00, 0.00, -0.00, -1.00, 64.3, 741.0)" opacity="0.50"></image><path d="M 67.0 737.0 L 957.0 737.0 L 957.0 31.0 L 67.0 31.0 Z M 67.3 737.0 " fill="#A6AAA8"></path><image xlink:href="8F5D79EC2F75E64ACB7BB1F2FD947D8E.png" width="731.00" height="599.00" transform="matrix(1.00, 0.00, -0.00, -1.00, 96.1, 655.7)" opacity="0.50"></image><path d="M 99.1 92.6 L 99.0 623.7 C 99.0 640.8 113.0 655.0 130.2 655.0 L 793.1 655.0 C 810.3 655.0 824.0 640.8 824.0 623.7 L 824.0 92.6 C 824.0 75.5 810.3 62.0 793.1 62.0 L 130.2 62.0 C 113.0 62.0 99.1 75.5 99.1 92.6 Z M 99.1 92.6 " fill="#5FC3FF"></path><text xml:space="preserve" font-family="Helvetica-Light,Helvetica" font-size="61.0" fill="#000000" transform="matrix(1.00, 0.00, -0.00, -1.00, 278.1, 578.9)">S</text><text xml:space="preserve" font-family="Helvetica-Light,Helvetica" font-size="61.0" fill="#000000" transform="matrix(1.00, 0.00, -0.00, -1.00, 315.4, 578.9)">e</text><text xml:space="preserve" font-family="Helvetica-Light,Helvetica" font-size="61.0" fill="#000000" transform="matrix(1.00, 0.00, -0.00, -1.00, 349.3, 578.9)">r</text><text xml:space="preserve" font-family="Helvetica-Light,Helvetica" font-size="61.0" fill="#000000" transform="matrix(1.00, 0.00, -0.00, -1.00, 369.6, 578.9)">v</text><text xml:space="preserve" font-family="Helvetica-Light,Helvetica" font-size="61.0" fill="#000000" transform="matrix(1.00, 0.00, -0.00, -1.00, 400.1, 578.9)">l</text><text xml:space="preserve" font-family="Helvetica-Light,Helvetica" font-size="61.0" fill="#000000" transform="matrix(1.00, 0.00, -0.00, -1.00, 413.6, 578.9)">e</text><text xml:space="preserve" font-family="Helvetica-Light,Helvetica" font-size="61.0" fill="#000000" transform="matrix(1.00, 0.00, -0.00, -1.00, 447.6, 578.9)">t</text><text xml:space="preserve" font-family="Helvetica-Light,Helvetica" font-size="61.0" fill="#000000" transform="matrix(1.00, 0.00, -0.00, -1.00, 464.5, 578.9)"> </text><text xml:space="preserve" font-family="Helvetica-Light,Helvetica" font-size="61.0" fill="#000000" transform="matrix(1.00, 0.00, -0.00, -1.00, 481.5, 578.9)">C</text><text xml:space="preserve" font-family="Helvetica-Light,Helvetica" font-size="61.0" fill="#000000" transform="matrix(1.00, 0.00, -0.00, -1.00, 525.5, 578.9)">o</text><text xml:space="preserve" font-family="Helvetica-Light,Helvetica" font-size="61.0" fill="#000000" transform="matrix(1.00, 0.00, -0.00, -1.00, 559.4, 578.9)">n</text><text xml:space="preserve" font-family="Helvetica-Light,Helvetica" font-size="61.0" fill="#000000" transform="matrix(1.00, 0.00, -0.00, -1.00, 593.3, 578.9)">t</text><text xml:space="preserve" font-family="Helvetica-Light,Helvetica" font-size="61.0" fill="#000000" transform="matrix(1.00, 0.00, -0.00, -1.00, 610.3, 578.9)">a</text><text xml:space="preserve" font-family="Helvetica-Light,Helvetica" font-size="61.0" fill="#000000" transform="matrix(1.00, 0.00, -0.00, -1.00, 644.2, 578.9)">i</text><text xml:space="preserve" font-family="Helvetica-Light,Helvetica" font-size="61.0" fill="#000000" transform="matrix(1.00, 0.00, -0.00, -1.00, 657.8, 578.9)">n</text><text xml:space="preserve" font-family="Helvetica-Light,Helvetica" font-size="61.0" fill="#000000" transform="matrix(1.00, 0.00, -0.00, -1.00, 691.7, 578.9)">e</text><text xml:space="preserve" font-family="Helvetica-Light,Helvetica" font-size="61.0" fill="#000000" transform="matrix(1.00, 0.00, -0.00, -1.00, 725.6, 578.9)">r</text><text xml:space="preserve" font-family="Helvetica-Light,Helvetica" font-size="28.0" fill="#000000" transform="matrix(1.00, 0.00, -0.00, -1.00, 133.0, 497.2)">A</text><text xml:space="preserve" font-family="Helvetica-Light,Helvetica" font-size="28.0" fill="#000000" transform="matrix(1.00, 0.00, -0.00, -1.00, 151.7, 497.2)">c</text><text xml:space="preserve" font-family="Helvetica-Light,Helvetica" font-size="28.0" fill="#000000" transform="matrix(1.00, 0.00, -0.00, -1.00, 167.2, 497.2)">c</text><text xml:space="preserve" font-family="Helvetica-Light,Helvetica" font-size="28.0" fill="#000000" transform="matrix(1.00, 0.00, -0.00, -1.00, 182.8, 497.2)">e</text><text xml:space="preserve" font-family="Helvetica-Light,Helvetica" font-size="28.0" fill="#000000" transform="matrix(1.00, 0.00, -0.00, -1.00, 198.4, 497.2)">p</text><text xml:space="preserve" font-family="Helvetica-Light,Helvetica" font-size="28.0" fill="#000000" transform="matrix(1.00, 0.00, -0.00, -1.00, 215.5, 497.2)">t</text><text xml:space="preserve" font-family="Helvetica-Light,Helvetica" font-size="28.0" fill="#000000" transform="matrix(1.00, 0.00, -0.00, -1.00, 223.3, 497.2)">o</text><text xml:space="preserve" font-family="Helvetica-Light,Helvetica" font-size="28.0" fill="#000000" transform="matrix(1.00, 0.00, -0.00, -1.00, 238.8, 497.2)">r</text><text xml:space="preserve" font-family="Helvetica-Light,Helvetica" font-size="28.0" fill="#000000" transform="matrix(1.00, 0.00, -0.00, -1.00, 248.1, 497.2)"> </text><text xml:space="preserve" font-family="Helvetica-Light,Helvetica" font-size="28.0" fill="#000000" transform="matrix(1.00, 0.00, -0.00, -1.00, 255.9, 497.2)">T</text><text xml:space="preserve" font-family="Helvetica-Light,Helvetica" font-size="28.0" fill="#000000" transform="matrix(1.00, 0.00, -0.00, -1.00, 271.5, 497.2)">h</text><text xml:space="preserve" font-family="Helvetica-Light,Helvetica" font-size="28.0" fill="#000000" transform="matrix(1.00, 0.00, -0.00, -1.00, 287.1, 497.2)">r</text><text xml:space="preserve" font-family="Helvetica-Light,Helvetica" font-size="28.0" fill="#000000" transform="matrix(1.00, 0.00, -0.00, -1.00, 295.9, 497.2)">e</text><text xml:space="preserve" font-family="Helvetica-Light,Helvetica" font-size="28.0" fill="#000000" transform="matrix(1.00, 0.00, -0.00, -1.00, 311.5, 497.2)">a</text><text xml:space="preserve" font-family="Helvetica-Light,Helvetica" font-size="28.0" fill="#000000" transform="matrix(1.00, 0.00, -0.00, -1.00, 327.0, 497.2)">d</text><image xlink:href="../../013583A9-C00D-47C1-996D-24FE3E102001/assets/E4E4718B5FB93C2DAC901A1E190D6D56.png" width="183.00" height="141.00" transform="matrix(1.00, 0.00, -0.00, -1.00, 147.0, 488.6)" opacity="0.50"></image><g><clipPath id="clip0x7f8e06141f80"><path d="M 150.0 488.0 L 327.0 488.0 L 327.0 353.0 L 150.0 353.0 Z M 150.0 487.6 "></path></clipPath><g clip-path="url(#clip0x7f8e06141f80)"><image xlink:href="../../58FC0062-152D-4CC5-84DA-0DFAC1FE8D74/assets/C3C0FC898C94653CAF8AD846D6CCD108.png" width="600.00" height="600.00" transform="matrix(0.50, 0.00, -0.00, -0.50, 150.0, 488.0)"></image></g></g><text xml:space="preserve" font-family="Helvetica-Light,Helvetica" font-size="73.0" fill="#000000" transform="matrix(1.00, 0.00, -0.00, -1.00, 441.0, 670.6)">J</text><text xml:space="preserve" font-family="Helvetica-Light,Helvetica" font-size="73.0" fill="#000000" transform="matrix(1.00, 0.00, -0.00, -1.00, 477.5, 670.6)">V</text><text xml:space="preserve" font-family="Helvetica-Light,Helvetica" font-size="73.0" fill="#000000" transform="matrix(1.00, 0.00, -0.00, -1.00, 522.1, 670.6)">M</text><g><clipPath id="clip0x7f8e06094480"><path d="M 356.1 69.4 L 629.3 69.4 L 629.3 488.0 L 356.1 488.0 Z M 356.1 69.4 "></path></clipPath><g clip-path="url(#clip0x7f8e06094480)"><image xlink:href="../../203F753A-55D9-4D21-BB7F-6CADC42B14AA/assets/4648F17BE877809AA96966299A81E382.png" width="271.00" height="417.00" transform="matrix(1.00, 0.00, -0.00, -1.00, 357.1, 487.0)" opacity="0.50"></image></g></g><g><clipPath id="clip0x7f8e05d13960"><path d="M 360.0 486.0 L 625.0 486.0 L 625.0 75.0 L 360.0 75.0 Z M 360.1 486.0 "></path></clipPath><g clip-path="url(#clip0x7f8e05d13960)"><g><clipPath id="clip0x7f8e060f83b0"><path d="M 356.1 69.4 L 629.3 69.4 L 629.3 488.0 L 356.1 488.0 Z M 356.1 69.4 "></path></clipPath><g clip-path="url(#clip0x7f8e060f83b0)"><path d="M 360.0 75.0 L 625.0 75.0 L 625.0 486.0 L 360.0 486.0 Z M 360.0 75.0 " fill="url(#7AE5E0D3-EA3D-4C78-A01D-237EC52A6173)"></path></g></g></g></g><g><clipPath id="clip0x7f8e06390630"><path d="M 345.9 482.3 L 635.5 482.3 L 635.5 535.7 L 345.9 535.7 Z M 345.9 482.3 "></path></clipPath><g clip-path="url(#clip0x7f8e06390630)"><text xml:space="preserve" font-family="Helvetica-Light,Helvetica" font-size="28.0" fill="#000000" transform="matrix(1.00, 0.00, -0.00, -1.00, 447.9, 498.2)">S</text><text xml:space="preserve" font-family="Helvetica-Light,Helvetica" font-size="28.0" fill="#000000" transform="matrix(1.00, 0.00, -0.00, -1.00, 465.0, 498.2)">e</text><text xml:space="preserve" font-family="Helvetica-Light,Helvetica" font-size="28.0" fill="#000000" transform="matrix(1.00, 0.00, -0.00, -1.00, 480.6, 498.2)">r</text><text xml:space="preserve" font-family="Helvetica-Light,Helvetica" font-size="28.0" fill="#000000" transform="matrix(1.00, 0.00, -0.00, -1.00, 489.9, 498.2)">v</text><text xml:space="preserve" font-family="Helvetica-Light,Helvetica" font-size="28.0" fill="#000000" transform="matrix(1.00, 0.00, -0.00, -1.00, 503.9, 498.2)">l</text><text xml:space="preserve" font-family="Helvetica-Light,Helvetica" font-size="28.0" fill="#000000" transform="matrix(1.00, 0.00, -0.00, -1.00, 510.1, 498.2)">e</text><text xml:space="preserve" font-family="Helvetica-Light,Helvetica" font-size="28.0" fill="#000000" transform="matrix(1.00, 0.00, -0.00, -1.00, 525.7, 498.2)">t</text></g></g><g><clipPath id="clip0x7f8e06393db0"><path d="M 361.8 235.6 L 619.6 235.6 L 619.6 241.8 L 361.8 241.8 Z M 361.8 235.6 "></path></clipPath><g clip-path="url(#clip0x7f8e06393db0)"><path d="M 0.0 0.2 L 251.0 0.2 " fill="none" stroke="#000000" stroke-width="3.00" stroke-linecap="round" stroke-dasharray="0.0, 9.0" transform="matrix(1.00, 0.00, 0.00, -1.00, 365.0, 238.7)"></path></g></g><text xml:space="preserve" font-family="Helvetica-Light,Helvetica" font-size="31.0" fill="#FEFFFE" transform="matrix(1.00, 0.00, -0.00, -1.00, 363.7, 95.6)">t</text><text xml:space="preserve" font-family="Helvetica-Light,Helvetica" font-size="31.0" fill="#FEFFFE" transform="matrix(1.00, 0.00, -0.00, -1.00, 372.3, 95.6)">h</text><text xml:space="preserve" font-family="Helvetica-Light,Helvetica" font-size="31.0" fill="#FEFFFE" transform="matrix(1.00, 0.00, -0.00, -1.00, 389.5, 95.6)">r</text><text xml:space="preserve" font-family="Helvetica-Light,Helvetica" font-size="31.0" fill="#FEFFFE" transform="matrix(1.00, 0.00, -0.00, -1.00, 399.3, 95.6)">e</text><text xml:space="preserve" font-family="Helvetica-Light,Helvetica" font-size="31.0" fill="#FEFFFE" transform="matrix(1.00, 0.00, -0.00, -1.00, 416.5, 95.6)">a</text><text xml:space="preserve" font-family="Helvetica-Light,Helvetica" font-size="31.0" fill="#FEFFFE" transform="matrix(1.00, 0.00, -0.00, -1.00, 433.8, 95.6)">d</text><text xml:space="preserve" font-family="Helvetica-Light,Helvetica" font-size="31.0" fill="#FEFFFE" transform="matrix(1.00, 0.00, -0.00, -1.00, 452.7, 95.6)"> </text><text xml:space="preserve" font-family="Helvetica-Light,Helvetica" font-size="31.0" fill="#FEFFFE" transform="matrix(1.00, 0.00, -0.00, -1.00, 461.3, 95.6)">p</text><text xml:space="preserve" font-family="Helvetica-Light,Helvetica" font-size="31.0" fill="#FEFFFE" transform="matrix(1.00, 0.00, -0.00, -1.00, 480.3, 95.6)">o</text><text xml:space="preserve" font-family="Helvetica-Light,Helvetica" font-size="31.0" fill="#FEFFFE" transform="matrix(1.00, 0.00, -0.00, -1.00, 497.5, 95.6)">o</text><text xml:space="preserve" font-family="Helvetica-Light,Helvetica" font-size="31.0" fill="#FEFFFE" transform="matrix(1.00, 0.00, -0.00, -1.00, 514.8, 95.6)">l</text><path d="M 425.0 176.0 L 461.0 176.0 L 461.0 133.0 L 425.0 133.0 Z M 424.6 176.5 " fill="#51A7F9"></path><path d="M 0.4 0.5 L 36.4 0.5 L 36.4 43.5 L 0.4 43.5 Z M 0.0 0.0 " fill="none" stroke="#85878C" stroke-width="2.00" transform="matrix(1.00, 0.00, 0.00, -1.00, 424.6, 176.5)"></path><path d="M 476.0 217.0 L 512.0 217.0 L 512.0 174.0 L 476.0 174.0 Z M 475.7 217.0 " fill="#51A7F9"></path><path d="M 0.3 -0.0 L 36.3 -0.0 L 36.3 43.0 L 0.3 43.0 Z M 0.0 0.0 " fill="none" stroke="#85878C" stroke-width="2.00" transform="matrix(1.00, 0.00, 0.00, -1.00, 475.7, 217.0)"></path><path d="M 527.0 195.0 L 563.0 195.0 L 563.0 152.0 L 527.0 152.0 Z M 526.9 195.2 " fill="#51A7F9"></path><path d="M 0.1 0.2 L 36.1 0.2 L 36.1 43.2 L 0.1 43.2 Z M 0.0 0.0 " fill="none" stroke="#85878C" stroke-width="2.00" transform="matrix(1.00, 0.00, 0.00, -1.00, 526.9, 195.2)"></path><path d="M 578.0 217.0 L 614.0 217.0 L 614.0 174.0 L 578.0 174.0 Z M 578.0 217.0 " fill="#51A7F9"></path><path d="M -0.0 -0.0 L 36.0 -0.0 L 36.0 43.0 L -0.0 43.0 Z M 0.0 0.0 " fill="none" stroke="#85878C" stroke-width="2.00" transform="matrix(1.00, 0.00, 0.00, -1.00, 578.0, 217.0)"></path><path d="M 389.0 294.0 L 426.0 294.0 L 426.0 251.0 L 389.0 251.0 Z M 389.4 293.9 " fill="#51A7F9"></path><path d="M -0.4 -0.1 L 36.6 -0.1 L 36.6 42.9 L -0.4 42.9 Z M 0.0 0.0 " fill="none" stroke="#85878C" stroke-width="2.00" transform="matrix(1.00, 0.00, 0.00, -1.00, 389.4, 293.9)"></path><g><clipPath id="clip0x7f8e0614b380"><path d="M 648.7 134.1 L 802.2 134.1 L 802.2 360.7 L 648.7 360.7 Z M 648.7 134.1 "></path></clipPath><g clip-path="url(#clip0x7f8e0614b380)"><image xlink:href="72FA3AEBD6E18606B01A76EE78AB0830.png" width="152.00" height="225.00" transform="matrix(1.00, 0.00, -0.00, -1.00, 649.7, 359.7)" opacity="0.50"></image></g></g><g><clipPath id="clip0x7f8e064b6020"><path d="M 653.0 359.0 L 798.0 359.0 L 798.0 140.0 L 653.0 140.0 Z M 652.7 358.7 "></path></clipPath><g clip-path="url(#clip0x7f8e064b6020)"><g><clipPath id="clip0x7f8e064b5630"><path d="M 648.7 134.1 L 802.2 134.1 L 802.2 360.7 L 648.7 360.7 Z M 648.7 134.1 "></path></clipPath><g clip-path="url(#clip0x7f8e064b5630)"><image xlink:href="../../58FC0062-152D-4CC5-84DA-0DFAC1FE8D74/assets/C3C0FC898C94653CAF8AD846D6CCD108.png" width="600.00" height="600.00" transform="matrix(0.50, 0.00, -0.00, -0.50, 653.0, 359.0)"></image></g></g></g></g><g><clipPath id="clip0x7f8e0614c220"><path d="M 656.9 242.1 L 794.0 242.1 L 794.0 248.4 L 656.9 248.4 Z M 656.9 242.1 "></path></clipPath><g clip-path="url(#clip0x7f8e0614c220)"><path d="M -0.0 -0.3 L 131.0 -0.3 " fill="none" stroke="#000000" stroke-width="3.00" stroke-linecap="round" stroke-dasharray="0.0, 9.0" transform="matrix(1.00, 0.00, 0.00, -1.00, 660.0, 245.2)"></path></g></g><g><clipPath id="clip0x7f8e0614dd50"><path d="M 651.1 140.6 L 759.4 140.6 L 759.4 169.9 L 651.1 169.9 Z M 651.1 140.6 "></path></clipPath><g clip-path="url(#clip0x7f8e0614dd50)"><text xml:space="preserve" font-family="Helvetica-Light,Helvetica" font-size="17.0" fill="#FEFFFE" transform="matrix(1.00, 0.00, -0.00, -1.00, 662.0, 148.8)">t</text><text xml:space="preserve" font-family="Helvetica-Light,Helvetica" font-size="17.0" fill="#FEFFFE" transform="matrix(1.00, 0.00, -0.00, -1.00, 666.7, 148.8)">h</text><text xml:space="preserve" font-family="Helvetica-Light,Helvetica" font-size="17.0" fill="#FEFFFE" transform="matrix(1.00, 0.00, -0.00, -1.00, 676.2, 148.8)">r</text><text xml:space="preserve" font-family="Helvetica-Light,Helvetica" font-size="17.0" fill="#FEFFFE" transform="matrix(1.00, 0.00, -0.00, -1.00, 681.5, 148.8)">e</text><text xml:space="preserve" font-family="Helvetica-Light,Helvetica" font-size="17.0" fill="#FEFFFE" transform="matrix(1.00, 0.00, -0.00, -1.00, 691.0, 148.8)">a</text><text xml:space="preserve" font-family="Helvetica-Light,Helvetica" font-size="17.0" fill="#FEFFFE" transform="matrix(1.00, 0.00, -0.00, -1.00, 700.4, 148.8)">d</text><text xml:space="preserve" font-family="Helvetica-Light,Helvetica" font-size="17.0" fill="#FEFFFE" transform="matrix(1.00, 0.00, -0.00, -1.00, 710.8, 148.8)"> </text><text xml:space="preserve" font-family="Helvetica-Light,Helvetica" font-size="17.0" fill="#FEFFFE" transform="matrix(1.00, 0.00, -0.00, -1.00, 715.5, 148.8)">p</text><text xml:space="preserve" font-family="Helvetica-Light,Helvetica" font-size="17.0" fill="#FEFFFE" transform="matrix(1.00, 0.00, -0.00, -1.00, 725.9, 148.8)">o</text><text xml:space="preserve" font-family="Helvetica-Light,Helvetica" font-size="17.0" fill="#FEFFFE" transform="matrix(1.00, 0.00, -0.00, -1.00, 735.4, 148.8)">o</text><text xml:space="preserve" font-family="Helvetica-Light,Helvetica" font-size="17.0" fill="#FEFFFE" transform="matrix(1.00, 0.00, -0.00, -1.00, 744.8, 148.8)">l</text></g></g><path d="M 664.0 220.0 L 700.0 220.0 L 700.0 177.0 L 664.0 177.0 Z M 664.1 219.9 " fill="#51A7F9"></path><path d="M -0.2 -0.1 L 35.8 -0.1 L 35.8 42.9 L -0.2 42.9 Z M 0.0 0.0 " fill="none" stroke="#85878C" stroke-width="2.00" transform="matrix(1.00, 0.00, 0.00, -1.00, 664.1, 219.9)"></path><image xlink:href="FC318D523D4A6772E053465F73F066EC.png" width="87.00" height="141.00" transform="matrix(1.00, 0.00, -0.00, -1.00, 844.4, 361.3)" opacity="0.50"></image><g><clipPath id="clip0x7f8e06394f40"><path d="M 847.0 360.0 L 929.0 360.0 L 929.0 225.0 L 847.0 225.0 Z M 847.4 360.3 "></path></clipPath><g clip-path="url(#clip0x7f8e06394f40)"><image xlink:href="../../58FC0062-152D-4CC5-84DA-0DFAC1FE8D74/assets/C3C0FC898C94653CAF8AD846D6CCD108.png" width="600.00" height="600.00" transform="matrix(0.50, 0.00, -0.00, -0.50, 847.0, 360.0)"></image></g></g><path d="M 719.0 220.0 L 755.0 220.0 L 755.0 177.0 L 719.0 177.0 Z M 719.2 219.9 " fill="#51A7F9"></path><path d="M -0.2 -0.1 L 35.8 -0.1 L 35.8 42.9 L -0.2 42.9 Z M 0.0 0.0 " fill="none" stroke="#85878C" stroke-width="2.00" transform="matrix(1.00, 0.00, 0.00, -1.00, 719.2, 219.9)"></path><text xml:space="preserve" font-family="Helvetica-Light,Helvetica" font-size="28.0" fill="#000000" transform="matrix(1.00, 0.00, -0.00, -1.00, 646.8, 372.0)">A</text><text xml:space="preserve" font-family="Helvetica-Light,Helvetica" font-size="28.0" fill="#000000" transform="matrix(1.00, 0.00, -0.00, -1.00, 665.5, 372.0)">s</text><text xml:space="preserve" font-family="Helvetica-Light,Helvetica" font-size="28.0" fill="#000000" transform="matrix(1.00, 0.00, -0.00, -1.00, 679.5, 372.0)">y</text><text xml:space="preserve" font-family="Helvetica-Light,Helvetica" font-size="28.0" fill="#000000" transform="matrix(1.00, 0.00, -0.00, -1.00, 693.5, 372.0)">n</text><text xml:space="preserve" font-family="Helvetica-Light,Helvetica" font-size="28.0" fill="#000000" transform="matrix(1.00, 0.00, -0.00, -1.00, 709.0, 372.0)">c</text><text xml:space="preserve" font-family="Helvetica-Light,Helvetica" font-size="28.0" fill="#000000" transform="matrix(1.00, 0.00, -0.00, -1.00, 724.6, 372.0)">C</text><text xml:space="preserve" font-family="Helvetica-Light,Helvetica" font-size="28.0" fill="#000000" transform="matrix(1.00, 0.00, -0.00, -1.00, 744.8, 372.0)">l</text><text xml:space="preserve" font-family="Helvetica-Light,Helvetica" font-size="28.0" fill="#000000" transform="matrix(1.00, 0.00, -0.00, -1.00, 751.0, 372.0)">i</text><text xml:space="preserve" font-family="Helvetica-Light,Helvetica" font-size="28.0" fill="#000000" transform="matrix(1.00, 0.00, -0.00, -1.00, 757.2, 372.0)">e</text><text xml:space="preserve" font-family="Helvetica-Light,Helvetica" font-size="28.0" fill="#000000" transform="matrix(1.00, 0.00, -0.00, -1.00, 772.8, 372.0)">n</text><text xml:space="preserve" font-family="Helvetica-Light,Helvetica" font-size="28.0" fill="#000000" transform="matrix(1.00, 0.00, -0.00, -1.00, 788.4, 372.0)">t</text><text xml:space="preserve" font-family="Helvetica-Light,Helvetica" font-size="28.0" fill="#000000" transform="matrix(1.00, 0.00, -0.00, -1.00, 855.3, 372.7)">N</text><text xml:space="preserve" font-family="Helvetica-Light,Helvetica" font-size="28.0" fill="#000000" transform="matrix(1.00, 0.00, -0.00, -1.00, 875.5, 372.7)">e</text><text xml:space="preserve" font-family="Helvetica-Light,Helvetica" font-size="28.0" fill="#000000" transform="matrix(1.00, 0.00, -0.00, -1.00, 891.0, 372.7)">t</text><text xml:space="preserve" font-family="Helvetica-Light,Helvetica" font-size="28.0" fill="#000000" transform="matrix(1.00, 0.00, -0.00, -1.00, 898.8, 372.7)">t</text><text xml:space="preserve" font-family="Helvetica-Light,Helvetica" font-size="28.0" fill="#000000" transform="matrix(1.00, 0.00, -0.00, -1.00, 906.6, 372.7)">y</text></g></svg>