<?xml version="1.0" encoding="UTF-8" standalone="no"?><svg xmlns="http://www.w3.org/2000/svg" xmlns:xlink="http://www.w3.org/1999/xlink" clip-rule="evenodd" stroke-miterlimit="10" viewBox="0 0 810 62"><desc>SVG generated by Keynote</desc><defs></defs><g transform="matrix(1.00, 0.00, -0.00, -1.00, 0.0, 62.0)"><text xml:space="preserve" font-family="Helvetica-Light,Helvetica" font-size="61.3" fill="#000000" transform="matrix(1.00, 0.00, -0.00, -1.00, -0.6, 15.0)">S</text><text xml:space="preserve" font-family="Helvetica-Light,Helvetica" font-size="61.3" fill="#000000" transform="matrix(1.00, 0.00, -0.00, -1.00, 36.9, 15.0)">e</text><text xml:space="preserve" font-family="Helvetica-Light,Helvetica" font-size="61.3" fill="#000000" transform="matrix(1.00, 0.00, -0.00, -1.00, 71.0, 15.0)">r</text><text xml:space="preserve" font-family="Helvetica-Light,Helvetica" font-size="61.3" fill="#000000" transform="matrix(1.00, 0.00, -0.00, -1.00, 91.4, 15.0)">v</text><text xml:space="preserve" font-family="Helvetica-Light,Helvetica" font-size="61.3" fill="#000000" transform="matrix(1.00, 0.00, -0.00, -1.00, 122.1, 15.0)">l</text><text xml:space="preserve" font-family="Helvetica-Light,Helvetica" font-size="61.3" fill="#000000" transform="matrix(1.00, 0.00, -0.00, -1.00, 135.7, 15.0)">e</text><text xml:space="preserve" font-family="Helvetica-Light,Helvetica" font-size="61.3" fill="#000000" transform="matrix(1.00, 0.00, -0.00, -1.00, 169.8, 15.0)">t</text><text xml:space="preserve" font-family="Helvetica-Light,Helvetica" font-size="61.3" fill="#000000" transform="matrix(1.00, 0.00, -0.00, -1.00, 186.8, 15.0)"> </text><text xml:space="preserve" font-family="Helvetica-Light,Helvetica" font-size="61.3" fill="#000000" transform="matrix(1.00, 0.00, -0.00, -1.00, 203.9, 15.0)">C</text><text xml:space="preserve" font-family="Helvetica-Light,Helvetica" font-size="61.3" fill="#000000" transform="matrix(1.00, 0.00, -0.00, -1.00, 248.1, 15.0)">o</text><text xml:space="preserve" font-family="Helvetica-Light,Helvetica" font-size="61.3" fill="#000000" transform="matrix(1.00, 0.00, -0.00, -1.00, 282.2, 15.0)">d</text><text xml:space="preserve" font-family="Helvetica-Light,Helvetica" font-size="61.3" fill="#000000" transform="matrix(1.00, 0.00, -0.00, -1.00, 319.7, 15.0)">e</text><text xml:space="preserve" font-family="Helvetica-Light,Helvetica" font-size="61.3" fill="#000000" transform="matrix(1.00, 0.00, -0.00, -1.00, 353.8, 15.0)"> </text><text xml:space="preserve" font-family="Helvetica-Light,Helvetica" font-size="61.3" fill="#000000" transform="matrix(1.00, 0.00, -0.00, -1.00, 370.8, 15.0)">-</text><text xml:space="preserve" font-family="Helvetica-Light,Helvetica" font-size="61.3" fill="#000000" transform="matrix(1.00, 0.00, -0.00, -1.00, 391.3, 15.0)"> </text><text xml:space="preserve" font-family="Helvetica-Light,Helvetica" font-size="61.3" fill="#000000" transform="matrix(1.00, 0.00, -0.00, -1.00, 408.3, 15.0)">S</text><text xml:space="preserve" font-family="Helvetica-Light,Helvetica" font-size="61.3" fill="#000000" transform="matrix(1.00, 0.00, -0.00, -1.00, 445.8, 15.0)">p</text><text xml:space="preserve" font-family="Helvetica-Light,Helvetica" font-size="61.3" fill="#000000" transform="matrix(1.00, 0.00, -0.00, -1.00, 483.2, 15.0)">r</text><text xml:space="preserve" font-family="Helvetica-Light,Helvetica" font-size="61.3" fill="#000000" transform="matrix(1.00, 0.00, -0.00, -1.00, 503.7, 15.0)">i</text><text xml:space="preserve" font-family="Helvetica-Light,Helvetica" font-size="61.3" fill="#000000" transform="matrix(1.00, 0.00, -0.00, -1.00, 517.3, 15.0)">n</text><text xml:space="preserve" font-family="Helvetica-Light,Helvetica" font-size="61.3" fill="#000000" transform="matrix(1.00, 0.00, -0.00, -1.00, 551.4, 15.0)">g</text><text xml:space="preserve" font-family="Helvetica-Light,Helvetica" font-size="61.3" fill="#000000" transform="matrix(1.00, 0.00, -0.00, -1.00, 588.8, 15.0)"> </text><text xml:space="preserve" font-family="Helvetica-Light,Helvetica" font-size="61.3" fill="#000000" transform="matrix(1.00, 0.00, -0.00, -1.00, 605.9, 15.0)">/</text><text xml:space="preserve" font-family="Helvetica-Light,Helvetica" font-size="61.3" fill="#000000" transform="matrix(1.00, 0.00, -0.00, -1.00, 622.9, 15.0)"> </text><text xml:space="preserve" font-family="Helvetica-Light,Helvetica" font-size="61.3" fill="#000000" transform="matrix(1.00, 0.00, -0.00, -1.00, 640.0, 15.0)">A</text><text xml:space="preserve" font-family="Helvetica-Light,Helvetica" font-size="61.3" fill="#000000" transform="matrix(1.00, 0.00, -0.00, -1.00, 680.9, 15.0)">s</text><text xml:space="preserve" font-family="Helvetica-Light,Helvetica" font-size="61.3" fill="#000000" transform="matrix(1.00, 0.00, -0.00, -1.00, 711.5, 15.0)">y</text><text xml:space="preserve" font-family="Helvetica-Light,Helvetica" font-size="61.3" fill="#000000" transform="matrix(1.00, 0.00, -0.00, -1.00, 742.2, 15.0)">n</text><text xml:space="preserve" font-family="Helvetica-Light,Helvetica" font-size="61.3" fill="#000000" transform="matrix(1.00, 0.00, -0.00, -1.00, 776.3, 15.0)">c</text></g></svg>