<?xml version="1.0" encoding="UTF-8" standalone="no"?><svg xmlns="http://www.w3.org/2000/svg" xmlns:xlink="http://www.w3.org/1999/xlink" clip-rule="evenodd" stroke-miterlimit="10" viewBox="0 0 255 200"><desc>SVG generated by Keynote</desc><defs></defs><g transform="matrix(1.00, 0.00, -0.00, -1.00, 0.0, 200.0)"><path d="M 0.0 0.7 C 30.8 0.1 61.4 -0.2 91.8 0.1 C 117.2 0.4 143.1 1.3 168.3 0.6 C 173.0 0.5 177.8 0.4 182.1 2.5 C 193.2 7.8 196.2 16.7 198.1 25.8 C 200.2 35.8 201.6 47.1 201.7 58.4 C 201.8 72.8 202.3 89.6 202.1 105.9 C 201.8 129.2 203.5 154.3 215.2 171.6 C 223.6 184.1 236.6 192.9 251.4 195.9 " fill="none" stroke="#000000" stroke-width="2.00" stroke-dasharray="4.0, 4.0" transform="matrix(1.00, 0.00, 0.00, -1.00, 1.7, 198.0)"></path></g></svg>