<?xml version="1.0" encoding="UTF-8" standalone="no"?><svg xmlns="http://www.w3.org/2000/svg" xmlns:xlink="http://www.w3.org/1999/xlink" clip-rule="evenodd" stroke-miterlimit="10" viewBox="0 0 1024 768"><desc>SVG generated by Keynote</desc><defs><linearGradient id="gradSh1.130" x1="0.0" y1="0.0" x2="100.0" y2="0.0" gradientUnits="userSpaceOnUse" gradientTransform="matrix(11.03, -6.36, -5.89, -10.22, -39.6, 702.1)"><stop offset="0.00000" stop-color="#FFFFFF"></stop><stop offset="0.00587" stop-color="#FEFFFE"></stop><stop offset="1.00000" stop-color="#A6AAA9"></stop></linearGradient></defs><g transform="matrix(1.00, 0.00, -0.00, -1.00, 0.0, 768.0)"><g><clipPath id="clip0x7f8e0e008be0"><path d="M 0.0 768.0 L 1024.0 768.0 L 1024.0 0.0 L 0.0 0.0 Z M 0.0 768.0 "></path></clipPath><g clip-path="url(#clip0x7f8e0e008be0)"><path d="M 0.0 768.0 L 1024.0 768.0 L 1024.0 0.0 L 0.0 0.0 Z M 0.0 768.0 " fill="url(#gradSh1.130)"></path></g></g><g><clipPath id="clip0x7f8e0e0c6fa0"><path d="M 960.0 65.0 L 1016.0 65.0 L 1016.0 9.0 L 960.0 9.0 Z M 960.0 65.0 "></path></clipPath><g clip-path="url(#clip0x7f8e0e0c6fa0)"><g><clipPath id="clip0x7f8e0e0c7740"><path d="M 960.0 9.0 L 1016.0 9.0 L 1016.0 65.0 L 960.0 65.0 Z M 960.0 9.0 "></path></clipPath><g clip-path="url(#clip0x7f8e0e0c7740)"><path d="M 1016.0 37.0 C 1016.0 52.5 1003.5 65.0 988.0 65.0 C 972.5 65.0 960.0 52.5 960.0 37.0 C 960.0 21.5 972.5 9.0 988.0 9.0 C 1003.5 9.0 1016.0 21.5 1016.0 37.0 " fill="#526466"></path><path d="M 979.5 30.7 C 979.1 30.7 978.7 30.9 978.5 31.2 L 972.6 39.5 L 972.6 31.9 C 972.6 31.2 972.1 30.7 971.4 30.7 C 970.8 30.7 970.3 31.2 970.3 31.9 L 970.3 43.2 C 970.3 43.7 970.6 44.1 971.1 44.3 C 971.6 44.4 972.1 44.3 972.4 43.8 L 978.3 35.5 L 978.3 43.2 C 978.3 43.8 978.8 44.3 979.5 44.3 C 980.1 44.3 980.6 43.8 980.6 43.2 L 980.6 31.9 C 980.6 31.4 980.3 30.9 979.8 30.8 C 979.7 30.7 979.6 30.7 979.5 30.7 " fill="#FFFFFF"></path><path d="M 1003.9 41.2 C 1002.8 42.0 1001.5 42.4 1000.1 42.3 C 999.1 42.2 997.7 41.7 997.7 40.7 C 997.7 39.8 998.5 39.5 999.3 39.2 C 1000.4 38.8 1001.6 38.7 1002.7 38.3 C 1004.6 37.7 1006.3 36.2 1006.1 34.1 C 1005.8 31.7 1003.3 30.7 1001.2 30.5 C 999.2 30.4 996.9 31.2 995.5 32.6 C 994.8 33.2 995.1 34.3 996.0 34.4 C 996.5 34.4 996.7 34.2 997.1 33.9 C 997.6 33.6 998.1 33.4 998.6 33.1 C 999.7 32.7 1000.9 32.6 1002.1 32.9 C 1002.9 33.2 1004.1 33.9 1003.7 34.9 C 1003.3 35.8 1001.8 36.2 1000.9 36.4 C 999.7 36.6 998.4 36.8 997.4 37.5 C 995.7 38.4 994.9 40.3 995.7 42.1 C 996.7 44.3 999.7 44.8 1001.9 44.4 C 1003.0 44.2 1004.2 43.7 1005.1 42.9 C 1006.0 42.1 1005.0 40.5 1003.9 41.2 " fill="#FFFFFF"></path><path d="M 988.0 23.5 C 987.6 23.5 987.3 23.8 987.3 24.2 L 987.3 49.8 C 987.3 50.2 987.6 50.5 988.0 50.5 C 988.4 50.5 988.7 50.2 988.7 49.8 L 988.7 24.2 C 988.7 23.8 988.4 23.5 988.0 23.5 " fill="#FFFFFF"></path></g></g></g></g><text xml:space="preserve" font-family="Menlo-Regular,Menlo" font-size="34.0" fill="#BA2CA2" transform="matrix(1.00, 0.00, -0.00, -1.00, 31.5, 552.0)">f</text><text xml:space="preserve" font-family="Menlo-Regular,Menlo" font-size="34.0" fill="#BA2CA2" transform="matrix(1.00, 0.00, -0.00, -1.00, 52.0, 552.0)">u</text><text xml:space="preserve" font-family="Menlo-Regular,Menlo" font-size="34.0" fill="#BA2CA2" transform="matrix(1.00, 0.00, -0.00, -1.00, 72.5, 552.0)">n</text><text xml:space="preserve" font-family="Menlo-Regular,Menlo" font-size="34.0" fill="#BA2CA2" transform="matrix(1.00, 0.00, -0.00, -1.00, 92.9, 552.0)">c</text><text xml:space="preserve" font-family="Menlo-Regular,Menlo" font-size="34.0" fill="#BA2CA2" transform="matrix(1.00, 0.00, -0.00, -1.00, 113.4, 552.0)">t</text><text xml:space="preserve" font-family="Menlo-Regular,Menlo" font-size="34.0" fill="#BA2CA2" transform="matrix(1.00, 0.00, -0.00, -1.00, 133.9, 552.0)">i</text><text xml:space="preserve" font-family="Menlo-Regular,Menlo" font-size="34.0" fill="#BA2CA2" transform="matrix(1.00, 0.00, -0.00, -1.00, 154.4, 552.0)">o</text><text xml:space="preserve" font-family="Menlo-Regular,Menlo" font-size="34.0" fill="#BA2CA2" transform="matrix(1.00, 0.00, -0.00, -1.00, 174.8, 552.0)">n</text><text xml:space="preserve" font-family="Menlo-Regular,Menlo" font-size="34.0" fill="#000000" transform="matrix(1.00, 0.00, -0.00, -1.00, 195.3, 552.0)"> </text><text xml:space="preserve" font-family="Menlo-Regular,Menlo" font-size="34.0" fill="#000000" transform="matrix(1.00, 0.00, -0.00, -1.00, 215.8, 552.0)">g</text><text xml:space="preserve" font-family="Menlo-Regular,Menlo" font-size="34.0" fill="#000000" transform="matrix(1.00, 0.00, -0.00, -1.00, 236.2, 552.0)">e</text><text xml:space="preserve" font-family="Menlo-Regular,Menlo" font-size="34.0" fill="#000000" transform="matrix(1.00, 0.00, -0.00, -1.00, 256.7, 552.0)">t</text><text xml:space="preserve" font-family="Menlo-Regular,Menlo" font-size="34.0" fill="#000000" transform="matrix(1.00, 0.00, -0.00, -1.00, 277.2, 552.0)">L</text><text xml:space="preserve" font-family="Menlo-Regular,Menlo" font-size="34.0" fill="#000000" transform="matrix(1.00, 0.00, -0.00, -1.00, 297.6, 552.0)">e</text><text xml:space="preserve" font-family="Menlo-Regular,Menlo" font-size="34.0" fill="#000000" transform="matrix(1.00, 0.00, -0.00, -1.00, 318.1, 552.0)">n</text><text xml:space="preserve" font-family="Menlo-Regular,Menlo" font-size="34.0" fill="#000000" transform="matrix(1.00, 0.00, -0.00, -1.00, 338.6, 552.0)">g</text><text xml:space="preserve" font-family="Menlo-Regular,Menlo" font-size="34.0" fill="#000000" transform="matrix(1.00, 0.00, -0.00, -1.00, 359.1, 552.0)">t</text><text xml:space="preserve" font-family="Menlo-Regular,Menlo" font-size="34.0" fill="#000000" transform="matrix(1.00, 0.00, -0.00, -1.00, 379.5, 552.0)">h</text><text xml:space="preserve" font-family="Menlo-Regular,Menlo" font-size="34.0" fill="#000000" transform="matrix(1.00, 0.00, -0.00, -1.00, 400.0, 552.0)">(</text><text xml:space="preserve" font-family="Menlo-Regular,Menlo" font-size="34.0" fill="#000000" transform="matrix(1.00, 0.00, -0.00, -1.00, 420.5, 552.0)">u</text><text xml:space="preserve" font-family="Menlo-Regular,Menlo" font-size="34.0" fill="#000000" transform="matrix(1.00, 0.00, -0.00, -1.00, 441.0, 552.0)">r</text><text xml:space="preserve" font-family="Menlo-Regular,Menlo" font-size="34.0" fill="#000000" transform="matrix(1.00, 0.00, -0.00, -1.00, 461.4, 552.0)">l</text><text xml:space="preserve" font-family="Menlo-Regular,Menlo" font-size="34.0" fill="#000000" transform="matrix(1.00, 0.00, -0.00, -1.00, 481.9, 552.0)">,</text><text xml:space="preserve" font-family="Menlo-Regular,Menlo" font-size="34.0" fill="#000000" transform="matrix(1.00, 0.00, -0.00, -1.00, 502.4, 552.0)"> </text><text xml:space="preserve" font-family="Menlo-Regular,Menlo" font-size="34.0" fill="#000000" transform="matrix(1.00, 0.00, -0.00, -1.00, 522.8, 552.0)">c</text><text xml:space="preserve" font-family="Menlo-Regular,Menlo" font-size="34.0" fill="#000000" transform="matrix(1.00, 0.00, -0.00, -1.00, 543.3, 552.0)">b</text><text xml:space="preserve" font-family="Menlo-Regular,Menlo" font-size="34.0" fill="#000000" transform="matrix(1.00, 0.00, -0.00, -1.00, 563.8, 552.0)">)</text><text xml:space="preserve" font-family="Menlo-Regular,Menlo" font-size="34.0" fill="#000000" transform="matrix(1.00, 0.00, -0.00, -1.00, 584.3, 552.0)"> </text><text xml:space="preserve" font-family="Menlo-Regular,Menlo" font-size="34.0" fill="#000000" transform="matrix(1.00, 0.00, -0.00, -1.00, 604.7, 552.0)">{</text><text xml:space="preserve" font-family="Menlo-Regular,Menlo" font-size="34.0" fill="#000000" transform="matrix(1.00, 0.00, -0.00, -1.00, 625.2, 552.0)"> </text><text xml:space="preserve" font-family="Menlo-Regular,Menlo" font-size="34.0" fill="#000000" transform="matrix(1.00, 0.00, -0.00, -1.00, 31.5, 512.0)"> </text><text xml:space="preserve" font-family="Menlo-Regular,Menlo" font-size="34.0" fill="#000000" transform="matrix(1.00, 0.00, -0.00, -1.00, 52.0, 512.0)"> </text><text xml:space="preserve" font-family="Menlo-Regular,Menlo" font-size="34.0" fill="#000000" transform="matrix(1.00, 0.00, -0.00, -1.00, 72.5, 512.0)"> </text><text xml:space="preserve" font-family="Menlo-Regular,Menlo" font-size="34.0" fill="#000000" transform="matrix(1.00, 0.00, -0.00, -1.00, 31.5, 472.0)"> </text><text xml:space="preserve" font-family="Menlo-Regular,Menlo" font-size="34.0" fill="#000000" transform="matrix(1.00, 0.00, -0.00, -1.00, 52.0, 472.0)"> </text><text xml:space="preserve" font-family="Menlo-Regular,Menlo" font-size="34.0" fill="#000000" transform="matrix(1.00, 0.00, -0.00, -1.00, 72.5, 472.0)">r</text><text xml:space="preserve" font-family="Menlo-Regular,Menlo" font-size="34.0" fill="#000000" transform="matrix(1.00, 0.00, -0.00, -1.00, 92.9, 472.0)">e</text><text xml:space="preserve" font-family="Menlo-Regular,Menlo" font-size="34.0" fill="#000000" transform="matrix(1.00, 0.00, -0.00, -1.00, 113.4, 472.0)">q</text><text xml:space="preserve" font-family="Menlo-Regular,Menlo" font-size="34.0" fill="#000000" transform="matrix(1.00, 0.00, -0.00, -1.00, 133.9, 472.0)">u</text><text xml:space="preserve" font-family="Menlo-Regular,Menlo" font-size="34.0" fill="#000000" transform="matrix(1.00, 0.00, -0.00, -1.00, 154.4, 472.0)">e</text><text xml:space="preserve" font-family="Menlo-Regular,Menlo" font-size="34.0" fill="#000000" transform="matrix(1.00, 0.00, -0.00, -1.00, 174.8, 472.0)">s</text><text xml:space="preserve" font-family="Menlo-Regular,Menlo" font-size="34.0" fill="#000000" transform="matrix(1.00, 0.00, -0.00, -1.00, 195.3, 472.0)">t</text><text xml:space="preserve" font-family="Menlo-Regular,Menlo" font-size="34.0" fill="#000000" transform="matrix(1.00, 0.00, -0.00, -1.00, 215.8, 472.0)">.</text><text xml:space="preserve" font-family="Menlo-Regular,Menlo" font-size="34.0" fill="#000000" transform="matrix(1.00, 0.00, -0.00, -1.00, 236.3, 472.0)">g</text><text xml:space="preserve" font-family="Menlo-Regular,Menlo" font-size="34.0" fill="#000000" transform="matrix(1.00, 0.00, -0.00, -1.00, 256.7, 472.0)">e</text><text xml:space="preserve" font-family="Menlo-Regular,Menlo" font-size="34.0" fill="#000000" transform="matrix(1.00, 0.00, -0.00, -1.00, 277.2, 472.0)">t</text><text xml:space="preserve" font-family="Menlo-Regular,Menlo" font-size="34.0" fill="#000000" transform="matrix(1.00, 0.00, -0.00, -1.00, 297.7, 472.0)">(</text><text xml:space="preserve" font-family="Menlo-Regular,Menlo" font-size="34.0" fill="#000000" transform="matrix(1.00, 0.00, -0.00, -1.00, 318.1, 472.0)">u</text><text xml:space="preserve" font-family="Menlo-Regular,Menlo" font-size="34.0" fill="#000000" transform="matrix(1.00, 0.00, -0.00, -1.00, 338.6, 472.0)">r</text><text xml:space="preserve" font-family="Menlo-Regular,Menlo" font-size="34.0" fill="#000000" transform="matrix(1.00, 0.00, -0.00, -1.00, 359.1, 472.0)">l</text><text xml:space="preserve" font-family="Menlo-Regular,Menlo" font-size="34.0" fill="#000000" transform="matrix(1.00, 0.00, -0.00, -1.00, 379.6, 472.0)">,</text><text xml:space="preserve" font-family="Menlo-Regular,Menlo" font-size="34.0" fill="#000000" transform="matrix(1.00, 0.00, -0.00, -1.00, 400.0, 472.0)"> </text><text xml:space="preserve" font-family="Menlo-Regular,Menlo" font-size="34.0" fill="#BA2CA2" transform="matrix(1.00, 0.00, -0.00, -1.00, 420.4, 472.0)">f</text><text xml:space="preserve" font-family="Menlo-Regular,Menlo" font-size="34.0" fill="#BA2CA2" transform="matrix(1.00, 0.00, -0.00, -1.00, 440.9, 472.0)">u</text><text xml:space="preserve" font-family="Menlo-Regular,Menlo" font-size="34.0" fill="#BA2CA2" transform="matrix(1.00, 0.00, -0.00, -1.00, 461.4, 472.0)">n</text><text xml:space="preserve" font-family="Menlo-Regular,Menlo" font-size="34.0" fill="#BA2CA2" transform="matrix(1.00, 0.00, -0.00, -1.00, 481.9, 472.0)">c</text><text xml:space="preserve" font-family="Menlo-Regular,Menlo" font-size="34.0" fill="#BA2CA2" transform="matrix(1.00, 0.00, -0.00, -1.00, 502.3, 472.0)">t</text><text xml:space="preserve" font-family="Menlo-Regular,Menlo" font-size="34.0" fill="#BA2CA2" transform="matrix(1.00, 0.00, -0.00, -1.00, 522.8, 472.0)">i</text><text xml:space="preserve" font-family="Menlo-Regular,Menlo" font-size="34.0" fill="#BA2CA2" transform="matrix(1.00, 0.00, -0.00, -1.00, 543.3, 472.0)">o</text><text xml:space="preserve" font-family="Menlo-Regular,Menlo" font-size="34.0" fill="#BA2CA2" transform="matrix(1.00, 0.00, -0.00, -1.00, 563.8, 472.0)">n</text><text xml:space="preserve" font-family="Menlo-Regular,Menlo" font-size="34.0" fill="#000000" transform="matrix(1.00, 0.00, -0.00, -1.00, 584.2, 472.0)">(</text><text xml:space="preserve" font-family="Menlo-Regular,Menlo" font-size="34.0" fill="#000000" transform="matrix(1.00, 0.00, -0.00, -1.00, 604.7, 472.0)">e</text><text xml:space="preserve" font-family="Menlo-Regular,Menlo" font-size="34.0" fill="#000000" transform="matrix(1.00, 0.00, -0.00, -1.00, 625.2, 472.0)">r</text><text xml:space="preserve" font-family="Menlo-Regular,Menlo" font-size="34.0" fill="#000000" transform="matrix(1.00, 0.00, -0.00, -1.00, 645.6, 472.0)">r</text><text xml:space="preserve" font-family="Menlo-Regular,Menlo" font-size="34.0" fill="#000000" transform="matrix(1.00, 0.00, -0.00, -1.00, 666.1, 472.0)">,</text><text xml:space="preserve" font-family="Menlo-Regular,Menlo" font-size="34.0" fill="#000000" transform="matrix(1.00, 0.00, -0.00, -1.00, 686.6, 472.0)"> </text><text xml:space="preserve" font-family="Menlo-Regular,Menlo" font-size="34.0" fill="#000000" transform="matrix(1.00, 0.00, -0.00, -1.00, 707.0, 472.0)">r</text><text xml:space="preserve" font-family="Menlo-Regular,Menlo" font-size="34.0" fill="#000000" transform="matrix(1.00, 0.00, -0.00, -1.00, 727.5, 472.0)">e</text><text xml:space="preserve" font-family="Menlo-Regular,Menlo" font-size="34.0" fill="#000000" transform="matrix(1.00, 0.00, -0.00, -1.00, 748.0, 472.0)">s</text><text xml:space="preserve" font-family="Menlo-Regular,Menlo" font-size="34.0" fill="#000000" transform="matrix(1.00, 0.00, -0.00, -1.00, 768.5, 472.0)">p</text><text xml:space="preserve" font-family="Menlo-Regular,Menlo" font-size="34.0" fill="#000000" transform="matrix(1.00, 0.00, -0.00, -1.00, 788.9, 472.0)">,</text><text xml:space="preserve" font-family="Menlo-Regular,Menlo" font-size="34.0" fill="#000000" transform="matrix(1.00, 0.00, -0.00, -1.00, 809.4, 472.0)"> </text><text xml:space="preserve" font-family="Menlo-Regular,Menlo" font-size="34.0" fill="#000000" transform="matrix(1.00, 0.00, -0.00, -1.00, 829.9, 472.0)">b</text><text xml:space="preserve" font-family="Menlo-Regular,Menlo" font-size="34.0" fill="#000000" transform="matrix(1.00, 0.00, -0.00, -1.00, 850.4, 472.0)">o</text><text xml:space="preserve" font-family="Menlo-Regular,Menlo" font-size="34.0" fill="#000000" transform="matrix(1.00, 0.00, -0.00, -1.00, 870.8, 472.0)">d</text><text xml:space="preserve" font-family="Menlo-Regular,Menlo" font-size="34.0" fill="#000000" transform="matrix(1.00, 0.00, -0.00, -1.00, 891.3, 472.0)">y</text><text xml:space="preserve" font-family="Menlo-Regular,Menlo" font-size="34.0" fill="#000000" transform="matrix(1.00, 0.00, -0.00, -1.00, 911.8, 472.0)">)</text><text xml:space="preserve" font-family="Menlo-Regular,Menlo" font-size="34.0" fill="#000000" transform="matrix(1.00, 0.00, -0.00, -1.00, 932.2, 472.0)">)</text><text xml:space="preserve" font-family="Menlo-Regular,Menlo" font-size="34.0" fill="#000000" transform="matrix(1.00, 0.00, -0.00, -1.00, 952.7, 472.0)"> </text><text xml:space="preserve" font-family="Menlo-Regular,Menlo" font-size="34.0" fill="#000000" transform="matrix(1.00, 0.00, -0.00, -1.00, 973.2, 472.0)">{</text><text xml:space="preserve" font-family="Menlo-Regular,Menlo" font-size="34.0" fill="#000000" transform="matrix(1.00, 0.00, -0.00, -1.00, 993.7, 472.0)"> </text><text xml:space="preserve" font-family="Menlo-Regular,Menlo" font-size="34.0" fill="#000000" transform="matrix(1.00, 0.00, -0.00, -1.00, 31.5, 432.0)"> </text><text xml:space="preserve" font-family="Menlo-Regular,Menlo" font-size="34.0" fill="#000000" transform="matrix(1.00, 0.00, -0.00, -1.00, 52.0, 432.0)"> </text><text xml:space="preserve" font-family="Menlo-Regular,Menlo" font-size="34.0" fill="#000000" transform="matrix(1.00, 0.00, -0.00, -1.00, 72.5, 432.0)"> </text><text xml:space="preserve" font-family="Menlo-Regular,Menlo" font-size="34.0" fill="#000000" transform="matrix(1.00, 0.00, -0.00, -1.00, 92.9, 432.0)"> </text><text xml:space="preserve" font-family="Menlo-Regular,Menlo" font-size="34.0" fill="#BA2CA2" transform="matrix(1.00, 0.00, -0.00, -1.00, 113.4, 432.0)">i</text><text xml:space="preserve" font-family="Menlo-Regular,Menlo" font-size="34.0" fill="#BA2CA2" transform="matrix(1.00, 0.00, -0.00, -1.00, 133.9, 432.0)">f</text><text xml:space="preserve" font-family="Menlo-Regular,Menlo" font-size="34.0" fill="#000000" transform="matrix(1.00, 0.00, -0.00, -1.00, 154.3, 432.0)"> </text><text xml:space="preserve" font-family="Menlo-Regular,Menlo" font-size="34.0" fill="#000000" transform="matrix(1.00, 0.00, -0.00, -1.00, 174.8, 432.0)">(</text><text xml:space="preserve" font-family="Menlo-Regular,Menlo" font-size="34.0" fill="#000000" transform="matrix(1.00, 0.00, -0.00, -1.00, 195.3, 432.0)">e</text><text xml:space="preserve" font-family="Menlo-Regular,Menlo" font-size="34.0" fill="#000000" transform="matrix(1.00, 0.00, -0.00, -1.00, 215.8, 432.0)">r</text><text xml:space="preserve" font-family="Menlo-Regular,Menlo" font-size="34.0" fill="#000000" transform="matrix(1.00, 0.00, -0.00, -1.00, 236.2, 432.0)">r</text><text xml:space="preserve" font-family="Menlo-Regular,Menlo" font-size="34.0" fill="#000000" transform="matrix(1.00, 0.00, -0.00, -1.00, 256.7, 432.0)">)</text><text xml:space="preserve" font-family="Menlo-Regular,Menlo" font-size="34.0" fill="#000000" transform="matrix(1.00, 0.00, -0.00, -1.00, 277.2, 432.0)"> </text><text xml:space="preserve" font-family="Menlo-Regular,Menlo" font-size="34.0" fill="#000000" transform="matrix(1.00, 0.00, -0.00, -1.00, 297.7, 432.0)">{</text><text xml:space="preserve" font-family="Menlo-Regular,Menlo" font-size="34.0" fill="#000000" transform="matrix(1.00, 0.00, -0.00, -1.00, 318.1, 432.0)"> </text><text xml:space="preserve" font-family="Menlo-Regular,Menlo" font-size="34.0" fill="#000000" transform="matrix(1.00, 0.00, -0.00, -1.00, 31.5, 392.0)"> </text><text xml:space="preserve" font-family="Menlo-Regular,Menlo" font-size="34.0" fill="#000000" transform="matrix(1.00, 0.00, -0.00, -1.00, 52.0, 392.0)"> </text><text xml:space="preserve" font-family="Menlo-Regular,Menlo" font-size="34.0" fill="#000000" transform="matrix(1.00, 0.00, -0.00, -1.00, 72.5, 392.0)"> </text><text xml:space="preserve" font-family="Menlo-Regular,Menlo" font-size="34.0" fill="#000000" transform="matrix(1.00, 0.00, -0.00, -1.00, 92.9, 392.0)"> </text><text xml:space="preserve" font-family="Menlo-Regular,Menlo" font-size="34.0" fill="#000000" transform="matrix(1.00, 0.00, -0.00, -1.00, 113.4, 392.0)"> </text><text xml:space="preserve" font-family="Menlo-Regular,Menlo" font-size="34.0" fill="#000000" transform="matrix(1.00, 0.00, -0.00, -1.00, 133.9, 392.0)"> </text><text xml:space="preserve" font-family="Menlo-Regular,Menlo" font-size="34.0" fill="#BA2CA2" transform="matrix(1.00, 0.00, -0.00, -1.00, 154.3, 392.0)">r</text><text xml:space="preserve" font-family="Menlo-Regular,Menlo" font-size="34.0" fill="#BA2CA2" transform="matrix(1.00, 0.00, -0.00, -1.00, 174.8, 392.0)">e</text><text xml:space="preserve" font-family="Menlo-Regular,Menlo" font-size="34.0" fill="#BA2CA2" transform="matrix(1.00, 0.00, -0.00, -1.00, 195.3, 392.0)">t</text><text xml:space="preserve" font-family="Menlo-Regular,Menlo" font-size="34.0" fill="#BA2CA2" transform="matrix(1.00, 0.00, -0.00, -1.00, 215.8, 392.0)">u</text><text xml:space="preserve" font-family="Menlo-Regular,Menlo" font-size="34.0" fill="#BA2CA2" transform="matrix(1.00, 0.00, -0.00, -1.00, 236.2, 392.0)">r</text><text xml:space="preserve" font-family="Menlo-Regular,Menlo" font-size="34.0" fill="#BA2CA2" transform="matrix(1.00, 0.00, -0.00, -1.00, 256.7, 392.0)">n</text><text xml:space="preserve" font-family="Menlo-Regular,Menlo" font-size="34.0" fill="#000000" transform="matrix(1.00, 0.00, -0.00, -1.00, 277.2, 392.0)"> </text><text xml:space="preserve" font-family="Menlo-Regular,Menlo" font-size="34.0" fill="#000000" transform="matrix(1.00, 0.00, -0.00, -1.00, 297.6, 392.0)">c</text><text xml:space="preserve" font-family="Menlo-Regular,Menlo" font-size="34.0" fill="#000000" transform="matrix(1.00, 0.00, -0.00, -1.00, 318.1, 392.0)">b</text><text xml:space="preserve" font-family="Menlo-Regular,Menlo" font-size="34.0" fill="#000000" transform="matrix(1.00, 0.00, -0.00, -1.00, 338.6, 392.0)">(</text><text xml:space="preserve" font-family="Menlo-Regular,Menlo" font-size="34.0" fill="#000000" transform="matrix(1.00, 0.00, -0.00, -1.00, 359.1, 392.0)">e</text><text xml:space="preserve" font-family="Menlo-Regular,Menlo" font-size="34.0" fill="#000000" transform="matrix(1.00, 0.00, -0.00, -1.00, 379.5, 392.0)">r</text><text xml:space="preserve" font-family="Menlo-Regular,Menlo" font-size="34.0" fill="#000000" transform="matrix(1.00, 0.00, -0.00, -1.00, 400.0, 392.0)">r</text><text xml:space="preserve" font-family="Menlo-Regular,Menlo" font-size="34.0" fill="#000000" transform="matrix(1.00, 0.00, -0.00, -1.00, 420.4, 392.0)">)</text><text xml:space="preserve" font-family="Menlo-Regular,Menlo" font-size="34.0" fill="#000000" transform="matrix(1.00, 0.00, -0.00, -1.00, 440.9, 392.0)">;</text><text xml:space="preserve" font-family="Menlo-Regular,Menlo" font-size="34.0" fill="#000000" transform="matrix(1.00, 0.00, -0.00, -1.00, 461.4, 392.0)"> </text><text xml:space="preserve" font-family="Menlo-Regular,Menlo" font-size="34.0" fill="#000000" transform="matrix(1.00, 0.00, -0.00, -1.00, 31.5, 352.0)"> </text><text xml:space="preserve" font-family="Menlo-Regular,Menlo" font-size="34.0" fill="#000000" transform="matrix(1.00, 0.00, -0.00, -1.00, 52.0, 352.0)"> </text><text xml:space="preserve" font-family="Menlo-Regular,Menlo" font-size="34.0" fill="#000000" transform="matrix(1.00, 0.00, -0.00, -1.00, 72.5, 352.0)"> </text><text xml:space="preserve" font-family="Menlo-Regular,Menlo" font-size="34.0" fill="#000000" transform="matrix(1.00, 0.00, -0.00, -1.00, 92.9, 352.0)"> </text><text xml:space="preserve" font-family="Menlo-Regular,Menlo" font-size="34.0" fill="#000000" transform="matrix(1.00, 0.00, -0.00, -1.00, 113.4, 352.0)">}</text><text xml:space="preserve" font-family="Menlo-Regular,Menlo" font-size="34.0" fill="#000000" transform="matrix(1.00, 0.00, -0.00, -1.00, 133.9, 352.0)"> </text><text xml:space="preserve" font-family="Menlo-Regular,Menlo" font-size="34.0" fill="#000000" transform="matrix(1.00, 0.00, -0.00, -1.00, 31.5, 312.0)"> </text><text xml:space="preserve" font-family="Menlo-Regular,Menlo" font-size="34.0" fill="#000000" transform="matrix(1.00, 0.00, -0.00, -1.00, 52.0, 312.0)"> </text><text xml:space="preserve" font-family="Menlo-Regular,Menlo" font-size="34.0" fill="#000000" transform="matrix(1.00, 0.00, -0.00, -1.00, 72.5, 312.0)"> </text><text xml:space="preserve" font-family="Menlo-Regular,Menlo" font-size="34.0" fill="#000000" transform="matrix(1.00, 0.00, -0.00, -1.00, 92.9, 312.0)"> </text><text xml:space="preserve" font-family="Menlo-Regular,Menlo" font-size="34.0" fill="#000000" transform="matrix(1.00, 0.00, -0.00, -1.00, 113.4, 312.0)"> </text><text xml:space="preserve" font-family="Menlo-Regular,Menlo" font-size="34.0" fill="#000000" transform="matrix(1.00, 0.00, -0.00, -1.00, 31.5, 272.0)"> </text><text xml:space="preserve" font-family="Menlo-Regular,Menlo" font-size="34.0" fill="#000000" transform="matrix(1.00, 0.00, -0.00, -1.00, 52.0, 272.0)"> </text><text xml:space="preserve" font-family="Menlo-Regular,Menlo" font-size="34.0" fill="#000000" transform="matrix(1.00, 0.00, -0.00, -1.00, 72.5, 272.0)"> </text><text xml:space="preserve" font-family="Menlo-Regular,Menlo" font-size="34.0" fill="#000000" transform="matrix(1.00, 0.00, -0.00, -1.00, 92.9, 272.0)"> </text><text xml:space="preserve" font-family="Menlo-Regular,Menlo" font-size="34.0" fill="#000000" transform="matrix(1.00, 0.00, -0.00, -1.00, 113.4, 272.0)">c</text><text xml:space="preserve" font-family="Menlo-Regular,Menlo" font-size="34.0" fill="#000000" transform="matrix(1.00, 0.00, -0.00, -1.00, 133.9, 272.0)">b</text><text xml:space="preserve" font-family="Menlo-Regular,Menlo" font-size="34.0" fill="#000000" transform="matrix(1.00, 0.00, -0.00, -1.00, 154.4, 272.0)">(</text><text xml:space="preserve" font-family="Menlo-Regular,Menlo" font-size="34.0" fill="#BA2CA2" transform="matrix(1.00, 0.00, -0.00, -1.00, 174.8, 272.0)">n</text><text xml:space="preserve" font-family="Menlo-Regular,Menlo" font-size="34.0" fill="#BA2CA2" transform="matrix(1.00, 0.00, -0.00, -1.00, 195.3, 272.0)">u</text><text xml:space="preserve" font-family="Menlo-Regular,Menlo" font-size="34.0" fill="#BA2CA2" transform="matrix(1.00, 0.00, -0.00, -1.00, 215.8, 272.0)">l</text><text xml:space="preserve" font-family="Menlo-Regular,Menlo" font-size="34.0" fill="#BA2CA2" transform="matrix(1.00, 0.00, -0.00, -1.00, 236.2, 272.0)">l</text><text xml:space="preserve" font-family="Menlo-Regular,Menlo" font-size="34.0" fill="#000000" transform="matrix(1.00, 0.00, -0.00, -1.00, 256.7, 272.0)">,</text><text xml:space="preserve" font-family="Menlo-Regular,Menlo" font-size="34.0" fill="#000000" transform="matrix(1.00, 0.00, -0.00, -1.00, 277.2, 272.0)"> </text><text xml:space="preserve" font-family="Menlo-Regular,Menlo" font-size="34.0" fill="#000000" transform="matrix(1.00, 0.00, -0.00, -1.00, 297.6, 272.0)">b</text><text xml:space="preserve" font-family="Menlo-Regular,Menlo" font-size="34.0" fill="#000000" transform="matrix(1.00, 0.00, -0.00, -1.00, 318.1, 272.0)">o</text><text xml:space="preserve" font-family="Menlo-Regular,Menlo" font-size="34.0" fill="#000000" transform="matrix(1.00, 0.00, -0.00, -1.00, 338.6, 272.0)">d</text><text xml:space="preserve" font-family="Menlo-Regular,Menlo" font-size="34.0" fill="#000000" transform="matrix(1.00, 0.00, -0.00, -1.00, 359.1, 272.0)">y</text><text xml:space="preserve" font-family="Menlo-Regular,Menlo" font-size="34.0" fill="#000000" transform="matrix(1.00, 0.00, -0.00, -1.00, 379.5, 272.0)">.</text><text xml:space="preserve" font-family="Menlo-Regular,Menlo" font-size="34.0" fill="#000000" transform="matrix(1.00, 0.00, -0.00, -1.00, 400.0, 272.0)">l</text><text xml:space="preserve" font-family="Menlo-Regular,Menlo" font-size="34.0" fill="#000000" transform="matrix(1.00, 0.00, -0.00, -1.00, 420.5, 272.0)">e</text><text xml:space="preserve" font-family="Menlo-Regular,Menlo" font-size="34.0" fill="#000000" transform="matrix(1.00, 0.00, -0.00, -1.00, 440.9, 272.0)">n</text><text xml:space="preserve" font-family="Menlo-Regular,Menlo" font-size="34.0" fill="#000000" transform="matrix(1.00, 0.00, -0.00, -1.00, 461.4, 272.0)">g</text><text xml:space="preserve" font-family="Menlo-Regular,Menlo" font-size="34.0" fill="#000000" transform="matrix(1.00, 0.00, -0.00, -1.00, 481.9, 272.0)">t</text><text xml:space="preserve" font-family="Menlo-Regular,Menlo" font-size="34.0" fill="#000000" transform="matrix(1.00, 0.00, -0.00, -1.00, 502.4, 272.0)">h</text><text xml:space="preserve" font-family="Menlo-Regular,Menlo" font-size="34.0" fill="#000000" transform="matrix(1.00, 0.00, -0.00, -1.00, 522.8, 272.0)">)</text><text xml:space="preserve" font-family="Menlo-Regular,Menlo" font-size="34.0" fill="#000000" transform="matrix(1.00, 0.00, -0.00, -1.00, 543.3, 272.0)">;</text><text xml:space="preserve" font-family="Menlo-Regular,Menlo" font-size="34.0" fill="#000000" transform="matrix(1.00, 0.00, -0.00, -1.00, 563.8, 272.0)"> </text><text xml:space="preserve" font-family="Menlo-Regular,Menlo" font-size="34.0" fill="#000000" transform="matrix(1.00, 0.00, -0.00, -1.00, 31.5, 232.0)"> </text><text xml:space="preserve" font-family="Menlo-Regular,Menlo" font-size="34.0" fill="#000000" transform="matrix(1.00, 0.00, -0.00, -1.00, 52.0, 232.0)"> </text><text xml:space="preserve" font-family="Menlo-Regular,Menlo" font-size="34.0" fill="#000000" transform="matrix(1.00, 0.00, -0.00, -1.00, 72.5, 232.0)">}</text><text xml:space="preserve" font-family="Menlo-Regular,Menlo" font-size="34.0" fill="#000000" transform="matrix(1.00, 0.00, -0.00, -1.00, 92.9, 232.0)">;</text><text xml:space="preserve" font-family="Menlo-Regular,Menlo" font-size="34.0" fill="#000000" transform="matrix(1.00, 0.00, -0.00, -1.00, 113.4, 232.0)"> </text><text xml:space="preserve" font-family="Menlo-Regular,Menlo" font-size="34.0" fill="#000000" transform="matrix(1.00, 0.00, -0.00, -1.00, 31.5, 192.0)">}</text><text xml:space="preserve" font-family="Menlo-Regular,Menlo" font-size="34.0" fill="#000000" transform="matrix(1.00, 0.00, -0.00, -1.00, 52.0, 192.0)"> </text><g opacity="0.33"><g><clipPath id="clip0x7f8e0dbee810"><path d="M 143.0 383.0 L 696.0 383.0 L 696.0 431.0 L 143.0 431.0 Z M 143.0 383.0 "></path></clipPath><g clip-path="url(#clip0x7f8e0dbee810)"><path d="M 144.0 429.0 L 695.0 429.0 L 695.0 384.0 L 144.0 384.0 Z M 144.5 429.3 " fill="#C82505"></path></g></g></g><text xml:space="preserve" font-family="Helvetica-Light,Helvetica" font-size="72.0" fill="#000000" transform="matrix(1.00, 0.00, -0.00, -1.00, 33.1, 670.7)">Y</text><text xml:space="preserve" font-family="Helvetica-Light,Helvetica" font-size="72.0" fill="#000000" transform="matrix(1.00, 0.00, -0.00, -1.00, 70.5, 670.7)">e</text><text xml:space="preserve" font-family="Helvetica-Light,Helvetica" font-size="72.0" fill="#000000" transform="matrix(1.00, 0.00, -0.00, -1.00, 110.5, 670.7)">s</text></g></svg>