<?xml version="1.0" encoding="UTF-8" standalone="no"?><svg xmlns="http://www.w3.org/2000/svg" xmlns:xlink="http://www.w3.org/1999/xlink" clip-rule="evenodd" stroke-miterlimit="10" viewBox="0 0 140 64"><desc>SVG generated by Keynote</desc><defs></defs><g transform="matrix(1.00, 0.00, -0.00, -1.00, 0.0, 64.0)"><image xlink:href="125EBDD5B6038BB8D3AEEA74CEB5FDEC.png" width="136.00" height="57.00" transform="matrix(1.00, 0.00, -0.00, -1.00, 2.0, 58.6)" opacity="0.50"></image><path d="M 5.0 58.0 L 135.0 58.0 L 135.0 7.0 L 5.0 7.0 Z M 5.0 57.6 " fill="#0264C0"></path><g><clipPath id="clip0x7f8df33334c0"><path d="M 4.2 6.6 L 135.9 6.6 L 135.9 57.6 L 4.2 57.6 Z M 4.2 6.6 "></path></clipPath><g clip-path="url(#clip0x7f8df33334c0)"><text xml:space="preserve" font-family="Helvetica-Light,Helvetica" font-size="19.0" fill="#FEFFFE" transform="matrix(1.00, 0.00, -0.00, -1.00, 10.4, 25.0)">o</text><text xml:space="preserve" font-family="Helvetica-Light,Helvetica" font-size="19.0" fill="#FEFFFE" transform="matrix(1.00, 0.00, -0.00, -1.00, 21.0, 25.0)">n</text><text xml:space="preserve" font-family="Helvetica-Light,Helvetica" font-size="19.0" fill="#FEFFFE" transform="matrix(1.00, 0.00, -0.00, -1.00, 31.5, 25.0)">R</text><text xml:space="preserve" font-family="Helvetica-Light,Helvetica" font-size="19.0" fill="#FEFFFE" transform="matrix(1.00, 0.00, -0.00, -1.00, 44.2, 25.0)">e</text><text xml:space="preserve" font-family="Helvetica-Light,Helvetica" font-size="19.0" fill="#FEFFFE" transform="matrix(1.00, 0.00, -0.00, -1.00, 54.8, 25.0)">s</text><text xml:space="preserve" font-family="Helvetica-Light,Helvetica" font-size="19.0" fill="#FEFFFE" transform="matrix(1.00, 0.00, -0.00, -1.00, 64.3, 25.0)">p</text><text xml:space="preserve" font-family="Helvetica-Light,Helvetica" font-size="19.0" fill="#FEFFFE" transform="matrix(1.00, 0.00, -0.00, -1.00, 75.9, 25.0)">o</text><text xml:space="preserve" font-family="Helvetica-Light,Helvetica" font-size="19.0" fill="#FEFFFE" transform="matrix(1.00, 0.00, -0.00, -1.00, 86.4, 25.0)">n</text><text xml:space="preserve" font-family="Helvetica-Light,Helvetica" font-size="19.0" fill="#FEFFFE" transform="matrix(1.00, 0.00, -0.00, -1.00, 97.0, 25.0)">s</text><text xml:space="preserve" font-family="Helvetica-Light,Helvetica" font-size="19.0" fill="#FEFFFE" transform="matrix(1.00, 0.00, -0.00, -1.00, 106.5, 25.0)">e</text><text xml:space="preserve" font-family="Helvetica-Light,Helvetica" font-size="19.0" fill="#FEFFFE" transform="matrix(1.00, 0.00, -0.00, -1.00, 117.1, 25.0)">(</text><text xml:space="preserve" font-family="Helvetica-Light,Helvetica" font-size="19.0" fill="#FEFFFE" transform="matrix(1.00, 0.00, -0.00, -1.00, 123.4, 25.0)">)</text></g></g></g></svg>