<?xml version="1.0" encoding="UTF-8" standalone="no"?><svg xmlns="http://www.w3.org/2000/svg" xmlns:xlink="http://www.w3.org/1999/xlink" clip-rule="evenodd" stroke-miterlimit="10" viewBox="0 0 1024 768"><desc>SVG generated by Keynote</desc><defs><linearGradient id="gradSh1.75" x1="0.0" y1="0.0" x2="100.0" y2="0.0" gradientUnits="userSpaceOnUse" gradientTransform="matrix(11.03, -6.36, -5.89, -10.22, -39.6, 702.1)"><stop offset="0.00000" stop-color="#FFFFFF"></stop><stop offset="0.00587" stop-color="#FEFFFE"></stop><stop offset="1.00000" stop-color="#A6AAA9"></stop></linearGradient><pattern id="A2BFA512-0CAB-4144-BA95-5CB951723789" patternUnits="userSpaceOnUse" width="600" height="600" viewBox="0 0 600 600"><image xlink:href="../../58FC0062-152D-4CC5-84DA-0DFAC1FE8D74/assets/C3C0FC898C94653CAF8AD846D6CCD108.png" width="600.00" height="600.00"></image></pattern></defs><g transform="matrix(1.00, 0.00, -0.00, -1.00, 0.0, 768.0)"><g><clipPath id="clip0x7f8e055b4ac0"><path d="M 0.0 768.0 L 1024.0 768.0 L 1024.0 0.0 L 0.0 0.0 Z M 0.0 768.0 "></path></clipPath><g clip-path="url(#clip0x7f8e055b4ac0)"><path d="M 0.0 768.0 L 1024.0 768.0 L 1024.0 0.0 L 0.0 0.0 Z M 0.0 768.0 " fill="url(#gradSh1.75)"></path></g></g><g><clipPath id="clip0x7f8e05a07ba0"><path d="M 960.0 65.0 L 1016.0 65.0 L 1016.0 9.0 L 960.0 9.0 Z M 960.0 65.0 "></path></clipPath><g clip-path="url(#clip0x7f8e05a07ba0)"><g><clipPath id="clip0x7f8e05a08340"><path d="M 960.0 9.0 L 1016.0 9.0 L 1016.0 65.0 L 960.0 65.0 Z M 960.0 9.0 "></path></clipPath><g clip-path="url(#clip0x7f8e05a08340)"><path d="M 1016.0 37.0 C 1016.0 52.5 1003.5 65.0 988.0 65.0 C 972.5 65.0 960.0 52.5 960.0 37.0 C 960.0 21.5 972.5 9.0 988.0 9.0 C 1003.5 9.0 1016.0 21.5 1016.0 37.0 " fill="#526466"></path><path d="M 979.5 30.7 C 979.1 30.7 978.7 30.9 978.5 31.2 L 972.6 39.5 L 972.6 31.9 C 972.6 31.2 972.1 30.7 971.4 30.7 C 970.8 30.7 970.3 31.2 970.3 31.9 L 970.3 43.2 C 970.3 43.7 970.6 44.1 971.1 44.3 C 971.6 44.4 972.1 44.3 972.4 43.8 L 978.3 35.5 L 978.3 43.2 C 978.3 43.8 978.8 44.3 979.5 44.3 C 980.1 44.3 980.6 43.8 980.6 43.2 L 980.6 31.9 C 980.6 31.4 980.3 30.9 979.8 30.8 C 979.7 30.7 979.6 30.7 979.5 30.7 " fill="#FFFFFF"></path><path d="M 1003.9 41.2 C 1002.8 42.0 1001.5 42.4 1000.1 42.3 C 999.1 42.2 997.7 41.7 997.7 40.7 C 997.7 39.8 998.5 39.5 999.3 39.2 C 1000.4 38.8 1001.6 38.7 1002.7 38.3 C 1004.6 37.7 1006.3 36.2 1006.1 34.1 C 1005.8 31.7 1003.3 30.7 1001.2 30.5 C 999.2 30.4 996.9 31.2 995.5 32.6 C 994.8 33.2 995.1 34.3 996.0 34.4 C 996.5 34.4 996.7 34.2 997.1 33.9 C 997.6 33.6 998.1 33.4 998.6 33.1 C 999.7 32.7 1000.9 32.6 1002.1 32.9 C 1002.9 33.2 1004.1 33.9 1003.7 34.9 C 1003.3 35.8 1001.8 36.2 1000.9 36.4 C 999.7 36.6 998.4 36.8 997.4 37.5 C 995.7 38.4 994.9 40.3 995.7 42.1 C 996.7 44.3 999.7 44.8 1001.9 44.4 C 1003.0 44.2 1004.2 43.7 1005.1 42.9 C 1006.0 42.1 1005.0 40.5 1003.9 41.2 " fill="#FFFFFF"></path><path d="M 988.0 23.5 C 987.6 23.5 987.3 23.8 987.3 24.2 L 987.3 49.8 C 987.3 50.2 987.6 50.5 988.0 50.5 C 988.4 50.5 988.7 50.2 988.7 49.8 L 988.7 24.2 C 988.7 23.8 988.4 23.5 988.0 23.5 " fill="#FFFFFF"></path></g></g></g></g><path d="M 938.0 87.0 L 1038.0 87.0 L 1038.0 -13.0 L 938.0 -13.0 Z M 937.7 87.1 " fill="#AFB3B2"></path><image xlink:href="../../013583A9-C00D-47C1-996D-24FE3E102001/assets/96502B960DBB5F19FEF1BCC2D3A7E949.png" width="897.00" height="714.00" transform="matrix(1.00, 0.00, -0.00, -1.00, 64.3, 741.0)" opacity="0.50"></image><path d="M 67.0 737.0 L 957.0 737.0 L 957.0 31.0 L 67.0 31.0 Z M 67.3 737.0 " fill="#A6AAA8"></path><image xlink:href="../../013583A9-C00D-47C1-996D-24FE3E102001/assets/D3DD5AE07BD00C31D665B6DBB598A869.png" width="832.00" height="602.00" transform="matrix(1.00, 0.00, -0.00, -1.00, 96.1, 658.1)" opacity="0.50"></image><path d="M 99.1 92.7 L 99.0 626.0 C 99.0 643.2 113.1 657.0 130.3 657.0 L 893.7 657.0 C 910.9 657.0 925.0 643.2 925.0 626.0 L 925.0 92.7 C 925.0 75.5 910.9 62.0 893.7 62.0 L 130.3 62.0 C 113.1 62.0 99.1 75.5 99.1 92.7 Z M 99.1 92.7 " fill="#5FC3FF"></path><text xml:space="preserve" font-family="Helvetica-Light,Helvetica" font-size="61.0" fill="#000000" transform="matrix(1.00, 0.00, -0.00, -1.00, 278.1, 578.9)">S</text><text xml:space="preserve" font-family="Helvetica-Light,Helvetica" font-size="61.0" fill="#000000" transform="matrix(1.00, 0.00, -0.00, -1.00, 315.4, 578.9)">e</text><text xml:space="preserve" font-family="Helvetica-Light,Helvetica" font-size="61.0" fill="#000000" transform="matrix(1.00, 0.00, -0.00, -1.00, 349.3, 578.9)">r</text><text xml:space="preserve" font-family="Helvetica-Light,Helvetica" font-size="61.0" fill="#000000" transform="matrix(1.00, 0.00, -0.00, -1.00, 369.6, 578.9)">v</text><text xml:space="preserve" font-family="Helvetica-Light,Helvetica" font-size="61.0" fill="#000000" transform="matrix(1.00, 0.00, -0.00, -1.00, 400.1, 578.9)">l</text><text xml:space="preserve" font-family="Helvetica-Light,Helvetica" font-size="61.0" fill="#000000" transform="matrix(1.00, 0.00, -0.00, -1.00, 413.6, 578.9)">e</text><text xml:space="preserve" font-family="Helvetica-Light,Helvetica" font-size="61.0" fill="#000000" transform="matrix(1.00, 0.00, -0.00, -1.00, 447.6, 578.9)">t</text><text xml:space="preserve" font-family="Helvetica-Light,Helvetica" font-size="61.0" fill="#000000" transform="matrix(1.00, 0.00, -0.00, -1.00, 464.5, 578.9)"> </text><text xml:space="preserve" font-family="Helvetica-Light,Helvetica" font-size="61.0" fill="#000000" transform="matrix(1.00, 0.00, -0.00, -1.00, 481.5, 578.9)">C</text><text xml:space="preserve" font-family="Helvetica-Light,Helvetica" font-size="61.0" fill="#000000" transform="matrix(1.00, 0.00, -0.00, -1.00, 525.5, 578.9)">o</text><text xml:space="preserve" font-family="Helvetica-Light,Helvetica" font-size="61.0" fill="#000000" transform="matrix(1.00, 0.00, -0.00, -1.00, 559.4, 578.9)">n</text><text xml:space="preserve" font-family="Helvetica-Light,Helvetica" font-size="61.0" fill="#000000" transform="matrix(1.00, 0.00, -0.00, -1.00, 593.3, 578.9)">t</text><text xml:space="preserve" font-family="Helvetica-Light,Helvetica" font-size="61.0" fill="#000000" transform="matrix(1.00, 0.00, -0.00, -1.00, 610.3, 578.9)">a</text><text xml:space="preserve" font-family="Helvetica-Light,Helvetica" font-size="61.0" fill="#000000" transform="matrix(1.00, 0.00, -0.00, -1.00, 644.2, 578.9)">i</text><text xml:space="preserve" font-family="Helvetica-Light,Helvetica" font-size="61.0" fill="#000000" transform="matrix(1.00, 0.00, -0.00, -1.00, 657.8, 578.9)">n</text><text xml:space="preserve" font-family="Helvetica-Light,Helvetica" font-size="61.0" fill="#000000" transform="matrix(1.00, 0.00, -0.00, -1.00, 691.7, 578.9)">e</text><text xml:space="preserve" font-family="Helvetica-Light,Helvetica" font-size="61.0" fill="#000000" transform="matrix(1.00, 0.00, -0.00, -1.00, 725.6, 578.9)">r</text><text xml:space="preserve" font-family="Helvetica-Light,Helvetica" font-size="28.0" fill="#000000" transform="matrix(1.00, 0.00, -0.00, -1.00, 159.0, 497.2)">A</text><text xml:space="preserve" font-family="Helvetica-Light,Helvetica" font-size="28.0" fill="#000000" transform="matrix(1.00, 0.00, -0.00, -1.00, 177.7, 497.2)">c</text><text xml:space="preserve" font-family="Helvetica-Light,Helvetica" font-size="28.0" fill="#000000" transform="matrix(1.00, 0.00, -0.00, -1.00, 193.2, 497.2)">c</text><text xml:space="preserve" font-family="Helvetica-Light,Helvetica" font-size="28.0" fill="#000000" transform="matrix(1.00, 0.00, -0.00, -1.00, 208.8, 497.2)">e</text><text xml:space="preserve" font-family="Helvetica-Light,Helvetica" font-size="28.0" fill="#000000" transform="matrix(1.00, 0.00, -0.00, -1.00, 224.4, 497.2)">p</text><text xml:space="preserve" font-family="Helvetica-Light,Helvetica" font-size="28.0" fill="#000000" transform="matrix(1.00, 0.00, -0.00, -1.00, 241.5, 497.2)">t</text><text xml:space="preserve" font-family="Helvetica-Light,Helvetica" font-size="28.0" fill="#000000" transform="matrix(1.00, 0.00, -0.00, -1.00, 249.3, 497.2)">o</text><text xml:space="preserve" font-family="Helvetica-Light,Helvetica" font-size="28.0" fill="#000000" transform="matrix(1.00, 0.00, -0.00, -1.00, 264.8, 497.2)">r</text><text xml:space="preserve" font-family="Helvetica-Light,Helvetica" font-size="28.0" fill="#000000" transform="matrix(1.00, 0.00, -0.00, -1.00, 274.1, 497.2)"> </text><text xml:space="preserve" font-family="Helvetica-Light,Helvetica" font-size="28.0" fill="#000000" transform="matrix(1.00, 0.00, -0.00, -1.00, 281.9, 497.2)">T</text><text xml:space="preserve" font-family="Helvetica-Light,Helvetica" font-size="28.0" fill="#000000" transform="matrix(1.00, 0.00, -0.00, -1.00, 297.5, 497.2)">h</text><text xml:space="preserve" font-family="Helvetica-Light,Helvetica" font-size="28.0" fill="#000000" transform="matrix(1.00, 0.00, -0.00, -1.00, 313.1, 497.2)">r</text><text xml:space="preserve" font-family="Helvetica-Light,Helvetica" font-size="28.0" fill="#000000" transform="matrix(1.00, 0.00, -0.00, -1.00, 321.9, 497.2)">e</text><text xml:space="preserve" font-family="Helvetica-Light,Helvetica" font-size="28.0" fill="#000000" transform="matrix(1.00, 0.00, -0.00, -1.00, 337.5, 497.2)">a</text><text xml:space="preserve" font-family="Helvetica-Light,Helvetica" font-size="28.0" fill="#000000" transform="matrix(1.00, 0.00, -0.00, -1.00, 353.0, 497.2)">d</text><image xlink:href="../../013583A9-C00D-47C1-996D-24FE3E102001/assets/E4E4718B5FB93C2DAC901A1E190D6D56.png" width="183.00" height="141.00" transform="matrix(1.00, 0.00, -0.00, -1.00, 173.0, 488.6)" opacity="0.50"></image><g><clipPath id="clip0x7f8e0560ecd0"><path d="M 176.0 488.0 L 353.0 488.0 L 353.0 353.0 L 176.0 353.0 Z M 176.0 487.6 "></path></clipPath><g clip-path="url(#clip0x7f8e0560ecd0)"><image xlink:href="../../58FC0062-152D-4CC5-84DA-0DFAC1FE8D74/assets/C3C0FC898C94653CAF8AD846D6CCD108.png" width="600.00" height="600.00" transform="matrix(0.50, 0.00, -0.00, -0.50, 176.0, 488.0)"></image></g></g><text xml:space="preserve" font-family="Helvetica-Light,Helvetica" font-size="73.0" fill="#000000" transform="matrix(1.00, 0.00, -0.00, -1.00, 441.0, 670.6)">J</text><text xml:space="preserve" font-family="Helvetica-Light,Helvetica" font-size="73.0" fill="#000000" transform="matrix(1.00, 0.00, -0.00, -1.00, 477.5, 670.6)">V</text><text xml:space="preserve" font-family="Helvetica-Light,Helvetica" font-size="73.0" fill="#000000" transform="matrix(1.00, 0.00, -0.00, -1.00, 522.1, 670.6)">M</text><g><clipPath id="clip0x7f8e05611920"><path d="M 399.1 69.4 L 672.3 69.4 L 672.3 488.0 L 399.1 488.0 Z M 399.1 69.4 "></path></clipPath><g clip-path="url(#clip0x7f8e05611920)"><image xlink:href="../../203F753A-55D9-4D21-BB7F-6CADC42B14AA/assets/4648F17BE877809AA96966299A81E382.png" width="271.00" height="417.00" transform="matrix(1.00, 0.00, -0.00, -1.00, 400.1, 487.0)" opacity="0.50"></image></g></g><g><clipPath id="clip0x7f8e05612850"><path d="M 403.0 486.0 L 668.0 486.0 L 668.0 75.0 L 403.0 75.0 Z M 403.1 486.0 "></path></clipPath><g clip-path="url(#clip0x7f8e05612850)"><g><clipPath id="clip0x7f8e05613970"><path d="M 399.1 69.4 L 672.3 69.4 L 672.3 488.0 L 399.1 488.0 Z M 399.1 69.4 "></path></clipPath><g clip-path="url(#clip0x7f8e05613970)"><path d="M 403.0 75.0 L 668.0 75.0 L 668.0 486.0 L 403.0 486.0 Z M 403.0 75.0 " fill="url(#A2BFA512-0CAB-4144-BA95-5CB951723789)"></path></g></g></g></g><g><clipPath id="clip0x7f8e058377f0"><path d="M 388.9 482.3 L 678.5 482.3 L 678.5 535.7 L 388.9 535.7 Z M 388.9 482.3 "></path></clipPath><g clip-path="url(#clip0x7f8e058377f0)"><text xml:space="preserve" font-family="Helvetica-Light,Helvetica" font-size="28.0" fill="#000000" transform="matrix(1.00, 0.00, -0.00, -1.00, 490.9, 498.2)">S</text><text xml:space="preserve" font-family="Helvetica-Light,Helvetica" font-size="28.0" fill="#000000" transform="matrix(1.00, 0.00, -0.00, -1.00, 508.0, 498.2)">e</text><text xml:space="preserve" font-family="Helvetica-Light,Helvetica" font-size="28.0" fill="#000000" transform="matrix(1.00, 0.00, -0.00, -1.00, 523.6, 498.2)">r</text><text xml:space="preserve" font-family="Helvetica-Light,Helvetica" font-size="28.0" fill="#000000" transform="matrix(1.00, 0.00, -0.00, -1.00, 532.9, 498.2)">v</text><text xml:space="preserve" font-family="Helvetica-Light,Helvetica" font-size="28.0" fill="#000000" transform="matrix(1.00, 0.00, -0.00, -1.00, 546.9, 498.2)">l</text><text xml:space="preserve" font-family="Helvetica-Light,Helvetica" font-size="28.0" fill="#000000" transform="matrix(1.00, 0.00, -0.00, -1.00, 553.1, 498.2)">e</text><text xml:space="preserve" font-family="Helvetica-Light,Helvetica" font-size="28.0" fill="#000000" transform="matrix(1.00, 0.00, -0.00, -1.00, 568.7, 498.2)">t</text></g></g><g><clipPath id="clip0x7f8e05934180"><path d="M 404.8 235.6 L 662.6 235.6 L 662.6 241.8 L 404.8 241.8 Z M 404.8 235.6 "></path></clipPath><g clip-path="url(#clip0x7f8e05934180)"><path d="M 0.0 0.2 L 251.0 0.2 " fill="none" stroke="#000000" stroke-width="3.00" stroke-linecap="round" stroke-dasharray="0.0, 9.0" transform="matrix(1.00, 0.00, 0.00, -1.00, 408.0, 238.7)"></path></g></g><text xml:space="preserve" font-family="Helvetica-Light,Helvetica" font-size="31.0" fill="#FEFFFE" transform="matrix(1.00, 0.00, -0.00, -1.00, 406.7, 95.6)">t</text><text xml:space="preserve" font-family="Helvetica-Light,Helvetica" font-size="31.0" fill="#FEFFFE" transform="matrix(1.00, 0.00, -0.00, -1.00, 415.3, 95.6)">h</text><text xml:space="preserve" font-family="Helvetica-Light,Helvetica" font-size="31.0" fill="#FEFFFE" transform="matrix(1.00, 0.00, -0.00, -1.00, 432.5, 95.6)">r</text><text xml:space="preserve" font-family="Helvetica-Light,Helvetica" font-size="31.0" fill="#FEFFFE" transform="matrix(1.00, 0.00, -0.00, -1.00, 442.3, 95.6)">e</text><text xml:space="preserve" font-family="Helvetica-Light,Helvetica" font-size="31.0" fill="#FEFFFE" transform="matrix(1.00, 0.00, -0.00, -1.00, 459.5, 95.6)">a</text><text xml:space="preserve" font-family="Helvetica-Light,Helvetica" font-size="31.0" fill="#FEFFFE" transform="matrix(1.00, 0.00, -0.00, -1.00, 476.8, 95.6)">d</text><text xml:space="preserve" font-family="Helvetica-Light,Helvetica" font-size="31.0" fill="#FEFFFE" transform="matrix(1.00, 0.00, -0.00, -1.00, 495.7, 95.6)"> </text><text xml:space="preserve" font-family="Helvetica-Light,Helvetica" font-size="31.0" fill="#FEFFFE" transform="matrix(1.00, 0.00, -0.00, -1.00, 504.3, 95.6)">p</text><text xml:space="preserve" font-family="Helvetica-Light,Helvetica" font-size="31.0" fill="#FEFFFE" transform="matrix(1.00, 0.00, -0.00, -1.00, 523.3, 95.6)">o</text><text xml:space="preserve" font-family="Helvetica-Light,Helvetica" font-size="31.0" fill="#FEFFFE" transform="matrix(1.00, 0.00, -0.00, -1.00, 540.5, 95.6)">o</text><text xml:space="preserve" font-family="Helvetica-Light,Helvetica" font-size="31.0" fill="#FEFFFE" transform="matrix(1.00, 0.00, -0.00, -1.00, 557.8, 95.6)">l</text><path d="M 468.0 176.0 L 504.0 176.0 L 504.0 133.0 L 468.0 133.0 Z M 467.6 176.5 " fill="#51A7F9"></path><path d="M 0.4 0.5 L 36.4 0.5 L 36.4 43.5 L 0.4 43.5 Z M 0.0 0.0 " fill="none" stroke="#85878C" stroke-width="2.00" transform="matrix(1.00, 0.00, 0.00, -1.00, 467.6, 176.5)"></path><path d="M 519.0 217.0 L 555.0 217.0 L 555.0 174.0 L 519.0 174.0 Z M 518.7 217.0 " fill="#51A7F9"></path><path d="M 0.3 -0.0 L 36.3 -0.0 L 36.3 43.0 L 0.3 43.0 Z M 0.0 0.0 " fill="none" stroke="#85878C" stroke-width="2.00" transform="matrix(1.00, 0.00, 0.00, -1.00, 518.7, 217.0)"></path><path d="M 570.0 195.0 L 606.0 195.0 L 606.0 152.0 L 570.0 152.0 Z M 569.9 195.2 " fill="#51A7F9"></path><path d="M 0.1 0.2 L 36.1 0.2 L 36.1 43.2 L 0.1 43.2 Z M 0.0 0.0 " fill="none" stroke="#85878C" stroke-width="2.00" transform="matrix(1.00, 0.00, 0.00, -1.00, 569.9, 195.2)"></path><path d="M 621.0 217.0 L 657.0 217.0 L 657.0 174.0 L 621.0 174.0 Z M 621.0 217.0 " fill="#51A7F9"></path><path d="M -0.0 -0.0 L 36.0 -0.0 L 36.0 43.0 L -0.0 43.0 Z M 0.0 0.0 " fill="none" stroke="#85878C" stroke-width="2.00" transform="matrix(1.00, 0.00, 0.00, -1.00, 621.0, 217.0)"></path><path d="M 415.0 294.0 L 452.0 294.0 L 452.0 251.0 L 415.0 251.0 Z M 415.4 293.9 " fill="#51A7F9"></path><path d="M -0.4 -0.1 L 36.6 -0.1 L 36.6 42.9 L -0.4 42.9 Z M 0.0 0.0 " fill="none" stroke="#85878C" stroke-width="2.00" transform="matrix(1.00, 0.00, 0.00, -1.00, 415.4, 293.9)"></path></g></svg>