<?xml version="1.0" encoding="UTF-8" standalone="no"?><svg xmlns="http://www.w3.org/2000/svg" xmlns:xlink="http://www.w3.org/1999/xlink" clip-rule="evenodd" stroke-miterlimit="10" viewBox="0 0 224 39"><desc>SVG generated by Keynote</desc><defs></defs><g transform="matrix(1.00, 0.00, -0.00, -1.00, 0.0, 39.0)"><text xml:space="preserve" font-family="Helvetica-Light,Helvetica" font-size="46.1" fill="#000000" transform="matrix(1.00, 0.00, -0.00, -1.00, -2.4, 2.7)">N</text><text xml:space="preserve" font-family="Helvetica-Light,Helvetica" font-size="46.1" fill="#000000" transform="matrix(1.00, 0.00, -0.00, -1.00, 30.9, 2.7)">o</text><text xml:space="preserve" font-family="Helvetica-Light,Helvetica" font-size="46.1" fill="#000000" transform="matrix(1.00, 0.00, -0.00, -1.00, 56.5, 2.7)">d</text><text xml:space="preserve" font-family="Helvetica-Light,Helvetica" font-size="46.1" fill="#000000" transform="matrix(1.00, 0.00, -0.00, -1.00, 84.7, 2.7)">e</text><text xml:space="preserve" font-family="Helvetica-Light,Helvetica" font-size="46.1" fill="#000000" transform="matrix(1.00, 0.00, -0.00, -1.00, 110.3, 2.7)"> </text><text xml:space="preserve" font-family="Helvetica-Light,Helvetica" font-size="46.1" fill="#000000" transform="matrix(1.00, 0.00, -0.00, -1.00, 123.1, 2.7)">C</text><text xml:space="preserve" font-family="Helvetica-Light,Helvetica" font-size="46.1" fill="#000000" transform="matrix(1.00, 0.00, -0.00, -1.00, 156.4, 2.7)">o</text><text xml:space="preserve" font-family="Helvetica-Light,Helvetica" font-size="46.1" fill="#000000" transform="matrix(1.00, 0.00, -0.00, -1.00, 182.0, 2.7)">r</text><text xml:space="preserve" font-family="Helvetica-Light,Helvetica" font-size="46.1" fill="#000000" transform="matrix(1.00, 0.00, -0.00, -1.00, 196.5, 2.7)">e</text></g></svg>