<?xml version="1.0" encoding="UTF-8" standalone="no"?><svg xmlns="http://www.w3.org/2000/svg" xmlns:xlink="http://www.w3.org/1999/xlink" clip-rule="evenodd" stroke-miterlimit="10" viewBox="0 0 97 125"><desc>SVG generated by Keynote</desc><defs></defs><g transform="matrix(1.00, 0.00, -0.00, -1.00, 0.0, 125.0)"><g><clipPath id="clip0x7f8e1deaaec0"><path d="M 0.5 1.0 L 96.1 1.0 L 96.1 99.1 L 0.5 99.1 Z M 0.5 1.0 "></path></clipPath><g clip-path="url(#clip0x7f8e1deaaec0)"><image xlink:href="8D334E7B0FDE1E3DB4E371C21A4154EE.png" width="94.00" height="96.00" transform="matrix(1.00, 0.00, -0.00, -1.00, 1.5, 98.1)" opacity="0.50"></image></g></g><g><clipPath id="clip0x7f8e1deacdf0"><path d="M 4.0 97.0 L 92.0 97.0 L 92.0 7.0 L 4.0 7.0 Z M 4.5 97.1 "></path></clipPath><g clip-path="url(#clip0x7f8e1deacdf0)"><g><clipPath id="clip0x7f8e1deac710"><path d="M 0.5 1.0 L 96.1 1.0 L 96.1 99.1 L 0.5 99.1 Z M 0.5 1.0 "></path></clipPath><g clip-path="url(#clip0x7f8e1deac710)"><image xlink:href="../../58FC0062-152D-4CC5-84DA-0DFAC1FE8D74/assets/C3C0FC898C94653CAF8AD846D6CCD108.png" width="600.00" height="600.00" transform="matrix(0.50, 0.00, -0.00, -0.50, 4.0, 97.0)"></image></g></g></g></g><g><clipPath id="clip0x7f8e1deadd10"><path d="M 18.9 96.5 L 77.7 96.5 L 77.7 123.5 L 18.9 123.5 Z M 18.9 96.5 "></path></clipPath><g clip-path="url(#clip0x7f8e1deadd10)"><text xml:space="preserve" font-family="Helvetica-Light,Helvetica" font-size="16.0" fill="#000000" transform="matrix(1.00, 0.00, -0.00, -1.00, 23.4, 104.2)">o</text><text xml:space="preserve" font-family="Helvetica-Light,Helvetica" font-size="16.0" fill="#000000" transform="matrix(1.00, 0.00, -0.00, -1.00, 32.3, 104.2)">n</text><text xml:space="preserve" font-family="Helvetica-Light,Helvetica" font-size="16.0" fill="#000000" transform="matrix(1.00, 0.00, -0.00, -1.00, 41.1, 104.2)"> </text><text xml:space="preserve" font-family="Helvetica-Light,Helvetica" font-size="16.0" fill="#000000" transform="matrix(1.00, 0.00, -0.00, -1.00, 45.6, 104.2)">c</text><text xml:space="preserve" font-family="Helvetica-Light,Helvetica" font-size="16.0" fill="#000000" transform="matrix(1.00, 0.00, -0.00, -1.00, 54.5, 104.2)">p</text><text xml:space="preserve" font-family="Helvetica-Light,Helvetica" font-size="16.0" fill="#000000" transform="matrix(1.00, 0.00, -0.00, -1.00, 64.3, 104.2)">u</text></g></g></g></svg>