<?xml version="1.0" encoding="UTF-8" standalone="no"?><svg xmlns="http://www.w3.org/2000/svg" xmlns:xlink="http://www.w3.org/1999/xlink" clip-rule="evenodd" stroke-miterlimit="10" viewBox="0 0 607 135"><desc>SVG generated by Keynote</desc><defs></defs><g transform="matrix(1.00, 0.00, -0.00, -1.00, 0.0, 135.0)"><g><clipPath id="clip0x7f8e1ed6a850"><path d="M 392.7 104.8 L 606.1 104.8 L 606.1 134.4 L 392.7 134.4 Z M 392.7 104.8 "></path></clipPath><g clip-path="url(#clip0x7f8e1ed6a850)"><path d="M 394.0 133.0 L 605.0 133.0 L 605.0 106.0 L 394.0 106.0 Z M 393.7 133.4 " fill="#C82505" fill-opacity="0.33"></path></g></g><g><clipPath id="clip0x7f8e1ed6b950"><path d="M 0.7 28.6 L 606.1 28.6 L 606.1 107.4 L 0.7 107.4 Z M 0.7 28.6 "></path></clipPath><g clip-path="url(#clip0x7f8e1ed6b950)"><path d="M 2.0 106.0 L 605.0 106.0 L 605.0 30.0 L 2.0 30.0 Z M 1.7 106.4 " fill="#C82505" fill-opacity="0.33"></path></g></g><g><clipPath id="clip0x7f8e1ed6c800"><path d="M 0.7 0.8 L 23.1 0.8 L 23.1 30.4 L 0.7 30.4 Z M 0.7 0.8 "></path></clipPath><g clip-path="url(#clip0x7f8e1ed6c800)"><path d="M 2.0 29.0 L 22.0 29.0 L 22.0 2.0 L 2.0 2.0 Z M 1.7 29.4 " fill="#C82505" fill-opacity="0.33"></path></g></g></g></svg>