<?xml version="1.0" encoding="UTF-8" standalone="no"?><svg xmlns="http://www.w3.org/2000/svg" xmlns:xlink="http://www.w3.org/1999/xlink" clip-rule="evenodd" stroke-miterlimit="10" viewBox="0 0 454 350"><desc>SVG generated by Keynote</desc><defs></defs><g transform="matrix(1.00, 0.00, -0.00, -1.00, 0.0, 350.0)"><image xlink:href="B72C3FEBC95AEE88C72C20CD364DCDBC.png" width="448.00" height="170.00" transform="matrix(0.87, 0.48, 0.48, -0.87, -10.1, 138.9)" opacity="0.50"></image><path d="M 32.0 128.8 L 369.6 315.7 L 421.9 221.2 L 84.4 34.3 Z M 32.0 128.8 " fill="#FEFFFF"></path><g><clipPath id="clip0x7f8e04d9f530"><path d="M 9.3 135.3 L 376.1 338.5 L 444.7 214.7 L 77.8 11.5 Z M 9.3 135.3 "></path></clipPath><g clip-path="url(#clip0x7f8e04d9f530)"><text xml:space="preserve" font-family="Helvetica-Bold,Helvetica" font-weight="bold" font-size="83.0" fill="#C82505" transform="matrix(0.87, 0.48, 0.48, -0.87, 141.1, 92.1)">K</text><text xml:space="preserve" font-family="Helvetica-Bold,Helvetica" font-weight="bold" font-size="83.0" fill="#C82505" transform="matrix(0.87, 0.48, 0.48, -0.87, 193.6, 121.2)">i</text><text xml:space="preserve" font-family="Helvetica-Bold,Helvetica" font-weight="bold" font-size="83.0" fill="#C82505" transform="matrix(0.87, 0.48, 0.48, -0.87, 213.7, 132.3)">n</text><text xml:space="preserve" font-family="Helvetica-Bold,Helvetica" font-weight="bold" font-size="83.0" fill="#C82505" transform="matrix(0.87, 0.48, 0.48, -0.87, 258.1, 156.9)">d</text><text xml:space="preserve" font-family="Helvetica-Bold,Helvetica" font-weight="bold" font-size="83.0" fill="#C82505" transform="matrix(0.87, 0.48, 0.48, -0.87, 302.5, 181.5)">a</text></g></g></g></svg>