<?xml version="1.0" encoding="UTF-8" standalone="no"?><svg xmlns="http://www.w3.org/2000/svg" xmlns:xlink="http://www.w3.org/1999/xlink" clip-rule="evenodd" stroke-miterlimit="10" viewBox="0 0 1024 768"><desc>SVG generated by Keynote</desc><defs><linearGradient id="gradSh1.68" x1="0.0" y1="0.0" x2="100.0" y2="0.0" gradientUnits="userSpaceOnUse" gradientTransform="matrix(11.03, -6.36, -5.89, -10.22, -39.6, 702.1)"><stop offset="0.00000" stop-color="#FFFFFF"></stop><stop offset="0.00587" stop-color="#FEFFFE"></stop><stop offset="1.00000" stop-color="#A6AAA9"></stop></linearGradient></defs><g transform="matrix(1.00, 0.00, -0.00, -1.00, 0.0, 768.0)"><g><clipPath id="clip0x7f8e04f4ee20"><path d="M 0.0 768.0 L 1024.0 768.0 L 1024.0 0.0 L 0.0 0.0 Z M 0.0 768.0 "></path></clipPath><g clip-path="url(#clip0x7f8e04f4ee20)"><path d="M 0.0 768.0 L 1024.0 768.0 L 1024.0 0.0 L 0.0 0.0 Z M 0.0 768.0 " fill="url(#gradSh1.68)"></path></g></g><g><clipPath id="clip0x7f8e04f9dfa0"><path d="M 960.0 65.0 L 1016.0 65.0 L 1016.0 9.0 L 960.0 9.0 Z M 960.0 65.0 "></path></clipPath><g clip-path="url(#clip0x7f8e04f9dfa0)"><g><clipPath id="clip0x7f8e04f9e740"><path d="M 960.0 9.0 L 1016.0 9.0 L 1016.0 65.0 L 960.0 65.0 Z M 960.0 9.0 "></path></clipPath><g clip-path="url(#clip0x7f8e04f9e740)"><path d="M 1016.0 37.0 C 1016.0 52.5 1003.5 65.0 988.0 65.0 C 972.5 65.0 960.0 52.5 960.0 37.0 C 960.0 21.5 972.5 9.0 988.0 9.0 C 1003.5 9.0 1016.0 21.5 1016.0 37.0 " fill="#526466"></path><path d="M 979.5 30.7 C 979.1 30.7 978.7 30.9 978.5 31.2 L 972.6 39.5 L 972.6 31.9 C 972.6 31.2 972.1 30.7 971.4 30.7 C 970.8 30.7 970.3 31.2 970.3 31.9 L 970.3 43.2 C 970.3 43.7 970.6 44.1 971.1 44.3 C 971.6 44.4 972.1 44.3 972.4 43.8 L 978.3 35.5 L 978.3 43.2 C 978.3 43.8 978.8 44.3 979.5 44.3 C 980.1 44.3 980.6 43.8 980.6 43.2 L 980.6 31.9 C 980.6 31.4 980.3 30.9 979.8 30.8 C 979.7 30.7 979.6 30.7 979.5 30.7 " fill="#FFFFFF"></path><path d="M 1003.9 41.2 C 1002.8 42.0 1001.5 42.4 1000.1 42.3 C 999.1 42.2 997.7 41.7 997.7 40.7 C 997.7 39.8 998.5 39.5 999.3 39.2 C 1000.4 38.8 1001.6 38.7 1002.7 38.3 C 1004.6 37.7 1006.3 36.2 1006.1 34.1 C 1005.8 31.7 1003.3 30.7 1001.2 30.5 C 999.2 30.4 996.9 31.2 995.5 32.6 C 994.8 33.2 995.1 34.3 996.0 34.4 C 996.5 34.4 996.7 34.2 997.1 33.9 C 997.6 33.6 998.1 33.4 998.6 33.1 C 999.7 32.7 1000.9 32.6 1002.1 32.9 C 1002.9 33.2 1004.1 33.9 1003.7 34.9 C 1003.3 35.8 1001.8 36.2 1000.9 36.4 C 999.7 36.6 998.4 36.8 997.4 37.5 C 995.7 38.4 994.9 40.3 995.7 42.1 C 996.7 44.3 999.7 44.8 1001.9 44.4 C 1003.0 44.2 1004.2 43.7 1005.1 42.9 C 1006.0 42.1 1005.0 40.5 1003.9 41.2 " fill="#FFFFFF"></path><path d="M 988.0 23.5 C 987.6 23.5 987.3 23.8 987.3 24.2 L 987.3 49.8 C 987.3 50.2 987.6 50.5 988.0 50.5 C 988.4 50.5 988.7 50.2 988.7 49.8 L 988.7 24.2 C 988.7 23.8 988.4 23.5 988.0 23.5 " fill="#FFFFFF"></path></g></g></g></g><text xml:space="preserve" font-family="Helvetica-Light,Helvetica" font-size="70.8" fill="#000000" transform="matrix(1.00, 0.00, -0.00, -1.00, 111.3, 356.2)">J</text><text xml:space="preserve" font-family="Helvetica-Light,Helvetica" font-size="70.8" fill="#000000" transform="matrix(1.00, 0.00, -0.00, -1.00, 146.7, 356.2)">a</text><text xml:space="preserve" font-family="Helvetica-Light,Helvetica" font-size="70.8" fill="#000000" transform="matrix(1.00, 0.00, -0.00, -1.00, 186.1, 356.2)">v</text><text xml:space="preserve" font-family="Helvetica-Light,Helvetica" font-size="70.8" fill="#000000" transform="matrix(1.00, 0.00, -0.00, -1.00, 221.5, 356.2)">a</text><text xml:space="preserve" font-family="Helvetica-Light,Helvetica" font-size="70.8" fill="#000000" transform="matrix(1.00, 0.00, -0.00, -1.00, 260.9, 356.2)">’</text><text xml:space="preserve" font-family="Helvetica-Light,Helvetica" font-size="70.8" fill="#000000" transform="matrix(1.00, 0.00, -0.00, -1.00, 271.4, 356.2)">s</text><text xml:space="preserve" font-family="Helvetica-Light,Helvetica" font-size="70.8" fill="#000000" transform="matrix(1.00, 0.00, -0.00, -1.00, 306.8, 356.2)"> </text><text xml:space="preserve" font-family="Helvetica-Light,Helvetica" font-size="70.8" fill="#000000" transform="matrix(1.00, 0.00, -0.00, -1.00, 326.4, 356.2)">N</text><text xml:space="preserve" font-family="Helvetica-Light,Helvetica" font-size="70.8" fill="#000000" transform="matrix(1.00, 0.00, -0.00, -1.00, 377.6, 356.2)">I</text><text xml:space="preserve" font-family="Helvetica-Light,Helvetica" font-size="70.8" fill="#000000" transform="matrix(1.00, 0.00, -0.00, -1.00, 397.3, 356.2)">O</text><text xml:space="preserve" font-family="Helvetica-Light,Helvetica" font-size="70.8" fill="#000000" transform="matrix(1.00, 0.00, -0.00, -1.00, 452.3, 356.2)"> </text><text xml:space="preserve" font-family="Helvetica-Light,Helvetica" font-size="70.8" fill="#000000" transform="matrix(1.00, 0.00, -0.00, -1.00, 472.0, 356.2)">i</text><text xml:space="preserve" font-family="Helvetica-Light,Helvetica" font-size="70.8" fill="#000000" transform="matrix(1.00, 0.00, -0.00, -1.00, 487.7, 356.2)">s</text><text xml:space="preserve" font-family="Helvetica-Light,Helvetica" font-size="70.8" fill="#000000" transform="matrix(1.00, 0.00, -0.00, -1.00, 523.2, 356.2)"> </text><text xml:space="preserve" font-family="Helvetica-Light,Helvetica" font-size="70.8" fill="#000000" transform="matrix(1.00, 0.00, -0.00, -1.00, 542.8, 356.2)">l</text><text xml:space="preserve" font-family="Helvetica-Light,Helvetica" font-size="70.8" fill="#000000" transform="matrix(1.00, 0.00, -0.00, -1.00, 558.6, 356.2)">i</text><text xml:space="preserve" font-family="Helvetica-Light,Helvetica" font-size="70.8" fill="#000000" transform="matrix(1.00, 0.00, -0.00, -1.00, 574.3, 356.2)">k</text><text xml:space="preserve" font-family="Helvetica-Light,Helvetica" font-size="70.8" fill="#000000" transform="matrix(1.00, 0.00, -0.00, -1.00, 609.7, 356.2)">e</text><text xml:space="preserve" font-family="Helvetica-Light,Helvetica" font-size="70.8" fill="#000000" transform="matrix(1.00, 0.00, -0.00, -1.00, 649.1, 356.2)"> </text><text xml:space="preserve" font-family="Helvetica-Light,Helvetica" font-size="70.8" fill="#000000" transform="matrix(1.00, 0.00, -0.00, -1.00, 668.7, 356.2)">N</text><text xml:space="preserve" font-family="Helvetica-Light,Helvetica" font-size="70.8" fill="#000000" transform="matrix(1.00, 0.00, -0.00, -1.00, 719.9, 356.2)">o</text><text xml:space="preserve" font-family="Helvetica-Light,Helvetica" font-size="70.8" fill="#000000" transform="matrix(1.00, 0.00, -0.00, -1.00, 759.2, 356.2)">d</text><text xml:space="preserve" font-family="Helvetica-Light,Helvetica" font-size="70.8" fill="#000000" transform="matrix(1.00, 0.00, -0.00, -1.00, 802.5, 356.2)">e</text><text xml:space="preserve" font-family="Helvetica-Light,Helvetica" font-size="70.8" fill="#000000" transform="matrix(1.00, 0.00, -0.00, -1.00, 841.9, 356.2)">.</text><text xml:space="preserve" font-family="Helvetica-Light,Helvetica" font-size="70.8" fill="#000000" transform="matrix(1.00, 0.00, -0.00, -1.00, 861.6, 356.2)">j</text><text xml:space="preserve" font-family="Helvetica-Light,Helvetica" font-size="70.8" fill="#000000" transform="matrix(1.00, 0.00, -0.00, -1.00, 877.3, 356.2)">s</text><image xlink:href="../../166D3B75-8480-42CF-8713-98176EFE0568/assets/B3B0FD68633508EDF94C341F7F307786.png" width="875.00" height="170.00" transform="matrix(0.88, 0.48, 0.48, -0.87, 107.6, 212.0)" opacity="0.50"></image><path d="M 149.8 201.9 L 861.4 596.0 L 913.7 501.5 L 202.1 107.4 Z M 149.8 201.9 " fill="#FEFFFF"></path><g><clipPath id="clip0x7f8e04b54820"><path d="M 127.0 208.5 L 867.9 618.8 L 936.4 495.0 L 195.6 84.7 Z M 127.0 208.5 "></path></clipPath><g clip-path="url(#clip0x7f8e04b54820)"><text xml:space="preserve" font-family="Helvetica-Bold,Helvetica" font-weight="bold" font-size="83.0" fill="#C82505" transform="matrix(0.87, 0.48, 0.48, -0.87, 233.4, 151.2)">B</text><text xml:space="preserve" font-family="Helvetica-Bold,Helvetica" font-weight="bold" font-size="83.0" fill="#C82505" transform="matrix(0.87, 0.48, 0.48, -0.87, 285.9, 180.2)">U</text><text xml:space="preserve" font-family="Helvetica-Bold,Helvetica" font-weight="bold" font-size="83.0" fill="#C82505" transform="matrix(0.87, 0.48, 0.48, -0.87, 338.3, 209.3)">T</text><text xml:space="preserve" font-family="Helvetica-Bold,Helvetica" font-weight="bold" font-size="83.0" fill="#C82505" transform="matrix(0.87, 0.48, 0.48, -0.87, 382.6, 233.8)"> </text><text xml:space="preserve" font-family="Helvetica-Bold,Helvetica" font-weight="bold" font-size="83.0" fill="#C82505" transform="matrix(0.87, 0.48, 0.48, -0.87, 402.8, 245.0)">N</text><text xml:space="preserve" font-family="Helvetica-Bold,Helvetica" font-weight="bold" font-size="83.0" fill="#C82505" transform="matrix(0.87, 0.48, 0.48, -0.87, 455.2, 274.0)">O</text><text xml:space="preserve" font-family="Helvetica-Bold,Helvetica" font-weight="bold" font-size="83.0" fill="#C82505" transform="matrix(0.87, 0.48, 0.48, -0.87, 511.7, 305.3)">T</text><text xml:space="preserve" font-family="Helvetica-Bold,Helvetica" font-weight="bold" font-size="83.0" fill="#C82505" transform="matrix(0.87, 0.48, 0.48, -0.87, 556.0, 329.9)"> </text><text xml:space="preserve" font-family="Helvetica-Bold,Helvetica" font-weight="bold" font-size="83.0" fill="#C82505" transform="matrix(0.87, 0.48, 0.48, -0.87, 576.2, 341.0)">R</text><text xml:space="preserve" font-family="Helvetica-Bold,Helvetica" font-weight="bold" font-size="83.0" fill="#C82505" transform="matrix(0.87, 0.48, 0.48, -0.87, 628.7, 370.1)">E</text><text xml:space="preserve" font-family="Helvetica-Bold,Helvetica" font-weight="bold" font-size="83.0" fill="#C82505" transform="matrix(0.87, 0.48, 0.48, -0.87, 677.1, 396.9)">A</text><text xml:space="preserve" font-family="Helvetica-Bold,Helvetica" font-weight="bold" font-size="83.0" fill="#C82505" transform="matrix(0.87, 0.48, 0.48, -0.87, 729.5, 425.9)">L</text><text xml:space="preserve" font-family="Helvetica-Bold,Helvetica" font-weight="bold" font-size="83.0" fill="#C82505" transform="matrix(0.87, 0.48, 0.48, -0.87, 773.9, 450.5)">L</text><text xml:space="preserve" font-family="Helvetica-Bold,Helvetica" font-weight="bold" font-size="83.0" fill="#C82505" transform="matrix(0.87, 0.48, 0.48, -0.87, 811.5, 471.4)">Y</text></g></g><image xlink:href="../../166D3B75-8480-42CF-8713-98176EFE0568/assets/B72C3FEBC95AEE88C72C20CD364DCDBC.png" width="448.00" height="170.00" transform="matrix(0.87, 0.48, 0.48, -0.87, 45.9, 347.9)" opacity="0.50"></image><path d="M 88.0 337.8 L 425.6 524.7 L 477.9 430.2 L 140.4 243.3 Z M 88.0 337.8 " fill="#FEFFFF"></path><g><clipPath id="clip0x7f8e04fae6f0"><path d="M 65.3 344.3 L 432.1 547.5 L 500.7 423.7 L 133.8 220.5 Z M 65.3 344.3 "></path></clipPath><g clip-path="url(#clip0x7f8e04fae6f0)"><text xml:space="preserve" font-family="Helvetica-Bold,Helvetica" font-weight="bold" font-size="83.0" fill="#C82505" transform="matrix(0.87, 0.48, 0.48, -0.87, 197.1, 301.1)">K</text><text xml:space="preserve" font-family="Helvetica-Bold,Helvetica" font-weight="bold" font-size="83.0" fill="#C82505" transform="matrix(0.87, 0.48, 0.48, -0.87, 249.6, 330.2)">i</text><text xml:space="preserve" font-family="Helvetica-Bold,Helvetica" font-weight="bold" font-size="83.0" fill="#C82505" transform="matrix(0.87, 0.48, 0.48, -0.87, 269.7, 341.3)">n</text><text xml:space="preserve" font-family="Helvetica-Bold,Helvetica" font-weight="bold" font-size="83.0" fill="#C82505" transform="matrix(0.87, 0.48, 0.48, -0.87, 314.1, 365.9)">d</text><text xml:space="preserve" font-family="Helvetica-Bold,Helvetica" font-weight="bold" font-size="83.0" fill="#C82505" transform="matrix(0.87, 0.48, 0.48, -0.87, 358.5, 390.5)">a</text></g></g></g></svg>